<?xml version="1.0" encoding="UTF-8" standalone="no"?><svg xmlns="http://www.w3.org/2000/svg" xmlns:xlink="http://www.w3.org/1999/xlink" height="180" version="1.1" width="775.08447265625"><defs/><g><g transform="translate(-182,-166) scale(1,1)"><rect fill="#C0C0C0" height="24" opacity="0.2" stroke="none" width="56.68359375" x="199" y="319"/></g><g transform="translate(-182,-166) scale(1,1)"><rect fill="#ffffff" height="24" stroke="none" width="56.68359375" x="192" y="312"/></g><g transform="translate(-182,-166) scale(1,1)"><path d="M 192 312 L 248.68359375 312 L 248.68359375 336 L 192 336 L 192 312 Z Z" fill="none" stroke="#000000" stroke-miterlimit="10"/></g><g transform="translate(-182,-166) scale(1,1)"><rect fill="#ffffff" height="24" stroke="none" width="56.68359375" x="192" y="312"/></g><g transform="translate(-182,-166) scale(1,1)"><path d="M 192 312 L 248.68359375 312 L 248.68359375 336 L 192 336 L 192 312 Z Z" fill="none" stroke="#000000" stroke-miterlimit="10"/></g><g transform="translate(-182,-166) scale(1,1)"><g><path fill="none" stroke="none"/><text fill="#000000" font-family="Arial" font-size="13px" font-style="normal" font-weight="bold" stroke="none" text-decoration="none" x="210.226806640625" y="331.5">site</text><path d="M 231.542236328125 331.5 L 209.141357421875 331.5" fill="none" stroke="#000000" stroke-miterlimit="10"/></g></g><g transform="translate(-182,-166) scale(1,1)"><rect fill="#C0C0C0" height="24" opacity="0.2" stroke="none" width="61.025390625" x="383" y="183"/></g><g transform="translate(-182,-166) scale(1,1)"><rect fill="#ffffff" height="24" stroke="none" width="61.025390625" x="376" y="176"/></g><g transform="translate(-182,-166) scale(1,1)"><path d="M 376 176 L 437.025390625 176 L 437.025390625 200 L 376 200 L 376 176 Z Z" fill="none" stroke="#000000" stroke-miterlimit="10"/></g><g transform="translate(-182,-166) scale(1,1)"><rect fill="#ffffff" height="24" stroke="none" width="61.025390625" x="376" y="176"/></g><g transform="translate(-182,-166) scale(1,1)"><path d="M 376 176 L 437.025390625 176 L 437.025390625 200 L 376 200 L 376 176 Z Z" fill="none" stroke="#000000" stroke-miterlimit="10"/></g><g transform="translate(-182,-166) scale(1,1)"><g><path fill="none" stroke="none"/><text fill="#000000" font-family="Arial" font-size="13px" font-style="normal" font-weight="bold" stroke="none" text-decoration="none" x="383.397705078125" y="195.5">site visit</text><path d="M 432.525390625 195.5 L 380.5 195.5" fill="none" stroke="#000000" stroke-miterlimit="10"/></g></g><g transform="translate(-182,-166) scale(1,1)"><rect fill="#C0C0C0" height="24" opacity="0.2" stroke="none" width="235.08447265625" x="719" y="271"/></g><g transform="translate(-182,-166) scale(1,1)"><rect fill="#ffffff" height="24" stroke="none" width="235.08447265625" x="712" y="264"/></g><g transform="translate(-182,-166) scale(1,1)"><path d="M 712 264 L 947.08447265625 264 L 947.08447265625 288 L 712 288 L 712 264 Z Z" fill="none" stroke="#000000" stroke-miterlimit="10"/></g><g transform="translate(-182,-166) scale(1,1)"><rect fill="#ffffff" height="24" stroke="none" width="235.08447265625" x="712" y="264"/></g><g transform="translate(-182,-166) scale(1,1)"><path d="M 712 264 L 947.08447265625 264 L 947.08447265625 288 L 712 288 L 712 264 Z Z" fill="none" stroke="#000000" stroke-miterlimit="10"/></g><g transform="translate(-182,-166) scale(1,1)"><g><path fill="none" stroke="none"/><text fill="#000000" font-family="Arial" font-size="13px" font-style="normal" font-weight="bold" stroke="none" text-decoration="none" x="725.846923828125" y="283.5">disturbance observation (fire height)</text><path d="M 942.58447265625 283.5 L 716.5 283.5" fill="none" stroke="#000000" stroke-miterlimit="10"/></g></g></g></svg>