<?xml version="1.0" encoding="UTF-8" standalone="no"?><svg xmlns="http://www.w3.org/2000/svg" xmlns:xlink="http://www.w3.org/1999/xlink" height="435" version="1.1" width="664.16259765625"><defs/><g><g transform="translate(-446,-222) scale(1,1)"><rect fill="#C0C0C0" height="222" opacity="0.2" stroke="none" width="170.50341796875" x="463" y="239"/></g><g transform="translate(-446,-222) scale(1,1)"><rect fill="#ffffff" height="222" stroke="none" width="170.50341796875" x="456" y="232"/></g><g transform="translate(-446,-222) scale(1,1)"><path d="M 456 232 L 626.50341796875 232 L 626.50341796875 454 L 456 454 L 456 232 Z Z" fill="none" stroke="#000000" stroke-miterlimit="10"/></g><g transform="translate(-446,-222) scale(1,1)"><path d="M 456 257 L 626.50341796875 257" fill="none" stroke="#000000" stroke-miterlimit="10"/></g><g transform="translate(-446,-222) scale(1,1)"><path d="M 456 355 L 626.50341796875 355" fill="none" stroke="#000000" stroke-miterlimit="10"/></g><g transform="translate(-446,-222) scale(1,1)"><g><path fill="none" stroke="none"/><text fill="#000000" font-family="Arial" font-size="13px" font-style="normal" font-weight="bold" stroke="none" text-decoration="none" x="506.206298828125" y="251.5">Observation</text></g></g><g transform="translate(-446,-222) scale(1,1)"><g><path fill="none" stroke="none"/><text fill="#000000" font-family="Arial" font-size="13px" font-style="normal" font-weight="normal" stroke="none" text-decoration="none" x="461" y="274.5">+site: Site</text></g></g><g transform="translate(-446,-222) scale(1,1)"><g><path fill="none" stroke="none"/><text fill="#000000" font-family="Arial" font-size="13px" font-style="normal" font-weight="normal" stroke="none" text-decoration="none" x="461" y="289.5">+siteVisit: SiteVisit</text></g></g><g transform="translate(-446,-222) scale(1,1)"><g><path fill="none" stroke="none"/><text fill="#000000" font-family="Arial" font-size="13px" font-style="normal" font-weight="normal" stroke="none" text-decoration="none" x="461" y="304.5">+phenomenonTime</text></g></g><g transform="translate(-446,-222) scale(1,1)"><g><path fill="none" stroke="none"/><text fill="#000000" font-family="Arial" font-size="13px" font-style="normal" font-weight="normal" stroke="none" text-decoration="none" x="461" y="319.5">+resultTime</text></g></g><g transform="translate(-446,-222) scale(1,1)"><g><path fill="none" stroke="none"/><text fill="#000000" font-family="Arial" font-size="13px" font-style="normal" font-weight="normal" stroke="none" text-decoration="none" x="461" y="334.5">+hasResult: Result</text></g></g><g transform="translate(-446,-222) scale(1,1)"><g><path fill="none" stroke="none"/><text fill="#000000" font-family="Arial" font-size="13px" font-style="normal" font-weight="normal" stroke="none" text-decoration="none" x="461" y="349.5">+isPartOf: Dataset</text></g></g><g transform="translate(-446,-222) scale(1,1)"><rect fill="#C0C0C0" height="102" opacity="0.2" stroke="none" width="217.9521484375" x="945" y="240"/></g><g transform="translate(-446,-222) scale(1,1)"><rect fill="#ffffff" height="102" stroke="none" width="217.9521484375" x="938" y="233"/></g><g transform="translate(-446,-222) scale(1,1)"><path d="M 938 233 L 1155.9521484375 233 L 1155.9521484375 335 L 938 335 L 938 233 Z Z" fill="none" stroke="#000000" stroke-miterlimit="10"/></g><g transform="translate(-446,-222) scale(1,1)"><path d="M 938 258 L 1155.9521484375 258" fill="none" stroke="#000000" stroke-miterlimit="10"/></g><g transform="translate(-446,-222) scale(1,1)"><path d="M 938 326 L 1155.9521484375 326" fill="none" stroke="#000000" stroke-miterlimit="10"/></g><g transform="translate(-446,-222) scale(1,1)"><g><path fill="none" stroke="none"/><text fill="#000000" font-family="Arial" font-size="13px" font-style="normal" font-weight="bold" stroke="none" text-decoration="none" x="989.171142578125" y="252.5">ObservableProperty</text></g></g><g transform="translate(-446,-222) scale(1,1)"><g><path fill="none" stroke="none"/><text fill="#000000" font-family="Arial" font-size="13px" font-style="normal" font-weight="normal" stroke="none" text-decoration="none" x="943" y="275.5">+vocabulary</text></g></g><g transform="translate(-446,-222) scale(1,1)"><g><path fill="none" stroke="none"/><text fill="#000000" font-family="Arial" font-size="13px" font-style="normal" font-weight="normal" stroke="none" text-decoration="none" x="943" y="290.5">+globalVocabulary</text></g></g><g transform="translate(-446,-222) scale(1,1)"><g><path fill="none" stroke="none"/><text fill="#000000" font-family="Arial" font-size="13px" font-style="normal" font-weight="normal" stroke="none" text-decoration="none" x="943" y="305.5">+value: ParameterTerm</text></g></g><g transform="translate(-446,-222) scale(1,1)"><g><path fill="none" stroke="none"/><text fill="#000000" font-family="Arial" font-size="13px" font-style="normal" font-weight="normal" stroke="none" text-decoration="none" x="943" y="320.5">+globalValue: GlobalParameterTerm</text></g></g><g transform="translate(-446,-222) scale(1,1)"><path d="M 628 333 L 937 297" fill="none" stroke="#000000" stroke-miterlimit="10"/></g><g transform="translate(-446,-222) scale(1,1)"><path d="M 927.3927361598319 302.35728303390795 L 937 297 L 926.4184674279569 293.99480975198077" fill="none" stroke="#000000" stroke-miterlimit="10"/></g><g transform="translate(-446,-222) scale(1,1)"><g><path fill="none" stroke="none"/><text fill="#000000" font-family="Arial" font-size="13px" font-style="normal" font-weight="normal" stroke="none" text-decoration="none" x="640.5" y="348.5">0..*</text></g></g><g transform="translate(-446,-222) scale(1,1)"><g><path fill="none" stroke="none"/><text fill="#000000" font-family="Arial" font-size="13px" font-style="normal" font-weight="normal" stroke="none" text-decoration="none" x="805.035888671875" y="295.5">+observedProperty</text></g></g><g transform="translate(-446,-222) scale(1,1)"><g><path fill="none" stroke="none"/><text fill="#000000" font-family="Arial" font-size="13px" font-style="normal" font-weight="normal" stroke="none" text-decoration="none" x="912.5" y="317.5">1</text></g></g><g transform="translate(-446,-222) scale(1,1)"><rect fill="#C0C0C0" height="87" opacity="0.2" stroke="none" width="246.37060546875" x="936" y="425"/></g><g transform="translate(-446,-222) scale(1,1)"><rect fill="#ffffff" height="87" stroke="none" width="246.37060546875" x="929" y="418"/></g><g transform="translate(-446,-222) scale(1,1)"><path d="M 929 418 L 1175.37060546875 418 L 1175.37060546875 505 L 929 505 L 929 418 Z Z" fill="none" stroke="#000000" stroke-miterlimit="10"/></g><g transform="translate(-446,-222) scale(1,1)"><path d="M 929 443 L 1175.37060546875 443" fill="none" stroke="#000000" stroke-miterlimit="10"/></g><g transform="translate(-446,-222) scale(1,1)"><path d="M 929 496 L 1175.37060546875 496" fill="none" stroke="#000000" stroke-miterlimit="10"/></g><g transform="translate(-446,-222) scale(1,1)"><g><path fill="none" stroke="none"/><text fill="#000000" font-family="Arial" font-size="13px" font-style="normal" font-weight="bold" stroke="none" text-decoration="none" x="1022.19580078125" y="437.5">Procedure</text></g></g><g transform="translate(-446,-222) scale(1,1)"><g><path fill="none" stroke="none"/><text fill="#000000" font-family="Arial" font-size="13px" font-style="normal" font-weight="normal" stroke="none" text-decoration="none" x="934" y="460.5">+vocabulary</text></g></g><g transform="translate(-446,-222) scale(1,1)"><g><path fill="none" stroke="none"/><text fill="#000000" font-family="Arial" font-size="13px" font-style="normal" font-weight="normal" stroke="none" text-decoration="none" x="934" y="475.5">+observationType: ObservationTypeTerm</text></g></g><g transform="translate(-446,-222) scale(1,1)"><g><path fill="none" stroke="none"/><text fill="#000000" font-family="Arial" font-size="13px" font-style="normal" font-weight="normal" stroke="none" text-decoration="none" x="934" y="490.5">+instrumentType: InstrumentTypeTerm</text></g></g><g transform="translate(-446,-222) scale(1,1)"><path d="M 628 363 L 928 432" fill="none" stroke="#000000" stroke-miterlimit="10"/></g><g transform="translate(-446,-222) scale(1,1)"><path d="M 917.1523588142987 433.82446723902586 L 928 432 L 919.0394662009443 425.61965251448004" fill="none" stroke="#000000" stroke-miterlimit="10"/></g><g transform="translate(-446,-222) scale(1,1)"><g><path fill="none" stroke="none"/><text fill="#000000" font-family="Arial" font-size="13px" font-style="normal" font-weight="normal" stroke="none" text-decoration="none" x="858.035888671875" y="417.5">+usedProcedure</text></g></g><g transform="translate(-446,-222) scale(1,1)"><g><path fill="none" stroke="none"/><text fill="#000000" font-family="Arial" font-size="13px" font-style="normal" font-weight="normal" stroke="none" text-decoration="none" x="900.5" y="445.5">1</text></g></g><g transform="translate(-446,-222) scale(1,1)"><rect fill="#C0C0C0" height="44" opacity="0.2" stroke="none" width="77.6181640625" x="751" y="551"/></g><g transform="translate(-446,-222) scale(1,1)"><rect fill="#ffffff" height="44" stroke="none" width="77.6181640625" x="744" y="544"/></g><g transform="translate(-446,-222) scale(1,1)"><path d="M 744 544 L 821.6181640625 544 L 821.6181640625 588 L 744 588 L 744 544 Z Z" fill="none" stroke="#000000" stroke-miterlimit="10"/></g><g transform="translate(-446,-222) scale(1,1)"><path d="M 744 569 L 821.6181640625 569" fill="none" stroke="#000000" stroke-miterlimit="10"/></g><g transform="translate(-446,-222) scale(1,1)"><path d="M 744 579 L 821.6181640625 579" fill="none" stroke="#000000" stroke-miterlimit="10"/></g><g transform="translate(-446,-222) scale(1,1)"><g><path fill="none" stroke="none"/><text fill="#000000" font-family="Arial" font-size="13px" font-style="italic" font-weight="bold" stroke="none" text-decoration="none" x="766.562255859375" y="563.5">Result</text></g></g><g transform="translate(-446,-222) scale(1,1)"><rect fill="#C0C0C0" height="102" opacity="0.2" stroke="none" width="192.88525390625" x="479" y="567"/></g><g transform="translate(-446,-222) scale(1,1)"><rect fill="#ffffff" height="102" stroke="none" width="192.88525390625" x="472" y="560"/></g><g transform="translate(-446,-222) scale(1,1)"><path d="M 472 560 L 664.88525390625 560 L 664.88525390625 662 L 472 662 L 472 560 Z Z" fill="none" stroke="#000000" stroke-miterlimit="10"/></g><g transform="translate(-446,-222) scale(1,1)"><path d="M 472 585 L 664.88525390625 585" fill="none" stroke="#000000" stroke-miterlimit="10"/></g><g transform="translate(-446,-222) scale(1,1)"><path d="M 472 653 L 664.88525390625 653" fill="none" stroke="#000000" stroke-miterlimit="10"/></g><g transform="translate(-446,-222) scale(1,1)"><g><path fill="none" stroke="none"/><text fill="#000000" font-family="Arial" font-size="13px" font-style="normal" font-weight="bold" stroke="none" text-decoration="none" x="546.403564453125" y="579.5">Sample</text></g></g><g transform="translate(-446,-222) scale(1,1)"><g><path fill="none" stroke="none"/><text fill="#000000" font-family="Arial" font-size="13px" font-style="normal" font-weight="normal" stroke="none" text-decoration="none" x="477" y="602.5">+identifier</text></g></g><g transform="translate(-446,-222) scale(1,1)"><g><path fill="none" stroke="none"/><text fill="#000000" font-family="Arial" font-size="13px" font-style="normal" font-weight="normal" stroke="none" text-decoration="none" x="477" y="617.5">+hasSample: Sample</text></g></g><g transform="translate(-446,-222) scale(1,1)"><g><path fill="none" stroke="none"/><text fill="#000000" font-family="Arial" font-size="13px" font-style="normal" font-weight="normal" stroke="none" text-decoration="none" x="477" y="632.5">+isSampleOf: FeatureOfInterest</text></g></g><g transform="translate(-446,-222) scale(1,1)"><g><path fill="none" stroke="none"/><text fill="#000000" font-family="Arial" font-size="13px" font-style="normal" font-weight="normal" stroke="none" text-decoration="none" x="477" y="647.5">+isPartOf: Dataset</text></g></g><g transform="translate(-446,-222) scale(1,1)"><path d="M 552 455 L 563 559" fill="none" stroke="#000000" stroke-miterlimit="10"/></g><g transform="translate(-446,-222) scale(1,1)"><path d="M 557.7448969486079 549.3364658680558 L 563 559 L 566.1172315114519 548.4509304816012" fill="none" stroke="#000000" stroke-miterlimit="10"/></g><g transform="translate(-446,-222) scale(1,1)"><g><path fill="none" stroke="none"/><text fill="#000000" font-family="Arial" font-size="13px" font-style="normal" font-weight="normal" stroke="none" text-decoration="none" x="506.035888671875" y="511.5">+hasFeatureOfInterest</text></g></g><g transform="translate(-446,-222) scale(1,1)"><path d="M 552 455 L 563 559" fill="none" stroke="#000000" stroke-miterlimit="10"/></g><g transform="translate(-446,-222) scale(1,1)"><path d="M 557.7448969486079 549.3364658680558 L 563 559 L 566.1172315114519 548.4509304816012" fill="none" stroke="#000000" stroke-miterlimit="10"/></g><g transform="translate(-446,-222) scale(1,1)"><path d="M 552 455 L 563 559" fill="none" stroke="#000000" stroke-miterlimit="10"/></g><g transform="translate(-446,-222) scale(1,1)"><path d="M 557.7448969486079 549.3364658680558 L 563 559 L 566.1172315114519 548.4509304816012" fill="none" stroke="#000000" stroke-miterlimit="10"/></g><g transform="translate(-446,-222) scale(1,1)"><g><path fill="none" stroke="none"/><text fill="#000000" font-family="Arial" font-size="13px" font-style="normal" font-weight="normal" stroke="none" text-decoration="none" x="506.035888671875" y="511.5">+hasFeatureOfInterest</text></g></g><g transform="translate(-446,-222) scale(1,1)"><g><path fill="none" stroke="none"/><text fill="#000000" font-family="Arial" font-size="13px" font-style="normal" font-weight="normal" stroke="none" text-decoration="none" x="544.5" y="544.5">1</text></g></g></g></svg>