<?xml version="1.0" encoding="UTF-8" standalone="no"?><svg xmlns="http://www.w3.org/2000/svg" xmlns:xlink="http://www.w3.org/1999/xlink" height="392" version="1.1" width="673.16259765625"><defs/><g><g transform="translate(-437,-222) scale(1,1)"><rect fill="#C0C0C0" height="222" opacity="0.2" stroke="none" width="170.50341796875" x="463" y="239"/></g><g transform="translate(-437,-222) scale(1,1)"><rect fill="#ffffff" height="222" stroke="none" width="170.50341796875" x="456" y="232"/></g><g transform="translate(-437,-222) scale(1,1)"><path d="M 456 232 L 626.50341796875 232 L 626.50341796875 454 L 456 454 L 456 232 Z Z" fill="none" stroke="#000000" stroke-miterlimit="10"/></g><g transform="translate(-437,-222) scale(1,1)"><path d="M 456 257 L 626.50341796875 257" fill="none" stroke="#000000" stroke-miterlimit="10"/></g><g transform="translate(-437,-222) scale(1,1)"><path d="M 456 445 L 626.50341796875 445" fill="none" stroke="#000000" stroke-miterlimit="10"/></g><g transform="translate(-437,-222) scale(1,1)"><g><path fill="none" stroke="none"/><text fill="#000000" font-family="Arial" font-size="13px" font-style="normal" font-weight="bold" stroke="none" text-decoration="none" x="493.199951171875" y="251.5">tern:Observation</text></g></g><g transform="translate(-437,-222) scale(1,1)"><g><path fill="none" stroke="none"/><text fill="#000000" font-family="Arial" font-size="13px" font-style="normal" font-weight="normal" stroke="none" text-decoration="none" x="461" y="274.5">+dcterms:type</text></g></g><g transform="translate(-437,-222) scale(1,1)"><g><path fill="none" stroke="none"/><text fill="#000000" font-family="Arial" font-size="13px" font-style="normal" font-weight="normal" stroke="none" text-decoration="none" x="461" y="289.5">+sosa:hasFeatureOfInterest</text></g></g><g transform="translate(-437,-222) scale(1,1)"><g><path fill="none" stroke="none"/><text fill="#000000" font-family="Arial" font-size="13px" font-style="normal" font-weight="normal" stroke="none" text-decoration="none" x="461" y="304.5">+dcterms:isPartOf</text></g></g><g transform="translate(-437,-222) scale(1,1)"><g><path fill="none" stroke="none"/><text fill="#000000" font-family="Arial" font-size="13px" font-style="normal" font-weight="normal" stroke="none" text-decoration="none" x="461" y="319.5">+tern:site</text></g></g><g transform="translate(-437,-222) scale(1,1)"><g><path fill="none" stroke="none"/><text fill="#000000" font-family="Arial" font-size="13px" font-style="normal" font-weight="normal" stroke="none" text-decoration="none" x="461" y="334.5">+tern:siteVisit</text></g></g><g transform="translate(-437,-222) scale(1,1)"><g><path fill="none" stroke="none"/><text fill="#000000" font-family="Arial" font-size="13px" font-style="normal" font-weight="normal" stroke="none" text-decoration="none" x="461" y="349.5">+tern:domain</text></g></g><g transform="translate(-437,-222) scale(1,1)"><g><path fill="none" stroke="none"/><text fill="#000000" font-family="Arial" font-size="13px" font-style="normal" font-weight="normal" stroke="none" text-decoration="none" x="461" y="364.5">+sosa:observedProperty</text></g></g><g transform="translate(-437,-222) scale(1,1)"><g><path fill="none" stroke="none"/><text fill="#000000" font-family="Arial" font-size="13px" font-style="normal" font-weight="normal" stroke="none" text-decoration="none" x="461" y="379.5">+sosa:usedProcedure</text></g></g><g transform="translate(-437,-222) scale(1,1)"><g><path fill="none" stroke="none"/><text fill="#000000" font-family="Arial" font-size="13px" font-style="normal" font-weight="normal" stroke="none" text-decoration="none" x="461" y="394.5">+sosa:hasResult</text></g></g><g transform="translate(-437,-222) scale(1,1)"><g><path fill="none" stroke="none"/><text fill="#000000" font-family="Arial" font-size="13px" font-style="normal" font-weight="normal" stroke="none" text-decoration="none" x="461" y="409.5">+sosa:phenomenonTime</text></g></g><g transform="translate(-437,-222) scale(1,1)"><g><path fill="none" stroke="none"/><text fill="#000000" font-family="Arial" font-size="13px" font-style="normal" font-weight="normal" stroke="none" text-decoration="none" x="461" y="424.5">+sosa:resultTime</text></g></g><g transform="translate(-437,-222) scale(1,1)"><g><path fill="none" stroke="none"/><text fill="#000000" font-family="Arial" font-size="13px" font-style="normal" font-weight="normal" stroke="none" text-decoration="none" x="461" y="439.5">+tern:hasAttribute</text></g></g><g transform="translate(-437,-222) scale(1,1)"><rect fill="#C0C0C0" height="102" opacity="0.2" stroke="none" width="162.16259765625" x="945" y="240"/></g><g transform="translate(-437,-222) scale(1,1)"><rect fill="#ffffff" height="102" stroke="none" width="162.16259765625" x="938" y="233"/></g><g transform="translate(-437,-222) scale(1,1)"><path d="M 938 233 L 1100.16259765625 233 L 1100.16259765625 335 L 938 335 L 938 233 Z Z" fill="none" stroke="#000000" stroke-miterlimit="10"/></g><g transform="translate(-437,-222) scale(1,1)"><path d="M 938 258 L 1100.16259765625 258" fill="none" stroke="#000000" stroke-miterlimit="10"/></g><g transform="translate(-437,-222) scale(1,1)"><path d="M 938 326 L 1100.16259765625 326" fill="none" stroke="#000000" stroke-miterlimit="10"/></g><g transform="translate(-437,-222) scale(1,1)"><g><path fill="none" stroke="none"/><text fill="#000000" font-family="Arial" font-size="13px" font-style="normal" font-weight="bold" stroke="none" text-decoration="none" x="948.27001953125" y="252.5">tern:ObservableProperty</text></g></g><g transform="translate(-437,-222) scale(1,1)"><g><path fill="none" stroke="none"/><text fill="#000000" font-family="Arial" font-size="13px" font-style="normal" font-weight="normal" stroke="none" text-decoration="none" x="943" y="275.5">+data:vocabulary</text></g></g><g transform="translate(-437,-222) scale(1,1)"><g><path fill="none" stroke="none"/><text fill="#000000" font-family="Arial" font-size="13px" font-style="normal" font-weight="normal" stroke="none" text-decoration="none" x="943" y="290.5">+data:value</text></g></g><g transform="translate(-437,-222) scale(1,1)"><g><path fill="none" stroke="none"/><text fill="#000000" font-family="Arial" font-size="13px" font-style="normal" font-weight="normal" stroke="none" text-decoration="none" x="943" y="305.5">+tern:globalValue</text></g></g><g transform="translate(-437,-222) scale(1,1)"><g><path fill="none" stroke="none"/><text fill="#000000" font-family="Arial" font-size="13px" font-style="normal" font-weight="normal" stroke="none" text-decoration="none" x="943" y="320.5">+tern:globalVocabulary</text></g></g><g transform="translate(-437,-222) scale(1,1)"><path d="M 628 332 L 937 294" fill="none" stroke="#000000" stroke-miterlimit="10"/></g><g transform="translate(-437,-222) scale(1,1)"><path d="M 927.427116236599 299.41847731862134 L 937 294 L 926.3995069196859 291.0623910310912" fill="none" stroke="#000000" stroke-miterlimit="10"/></g><g transform="translate(-437,-222) scale(1,1)"><g><path fill="none" stroke="none"/><text fill="#000000" font-family="Arial" font-size="13px" font-style="normal" font-weight="normal" stroke="none" text-decoration="none" x="641.5" y="347.5">0..*</text></g></g><g transform="translate(-437,-222) scale(1,1)"><g><path fill="none" stroke="none"/><text fill="#000000" font-family="Arial" font-size="13px" font-style="normal" font-weight="normal" stroke="none" text-decoration="none" x="789.5" y="293.5">+sosa:observedProperty</text></g></g><g transform="translate(-437,-222) scale(1,1)"><g><path fill="none" stroke="none"/><text fill="#000000" font-family="Arial" font-size="13px" font-style="normal" font-weight="normal" stroke="none" text-decoration="none" x="913.5" y="315.5">1</text></g></g><g transform="translate(-437,-222) scale(1,1)"><rect fill="#C0C0C0" height="87" opacity="0.2" stroke="none" width="114.14892578125" x="936" y="425"/></g><g transform="translate(-437,-222) scale(1,1)"><rect fill="#ffffff" height="87" stroke="none" width="114.14892578125" x="929" y="418"/></g><g transform="translate(-437,-222) scale(1,1)"><path d="M 929 418 L 1043.14892578125 418 L 1043.14892578125 505 L 929 505 L 929 418 Z Z" fill="none" stroke="#000000" stroke-miterlimit="10"/></g><g transform="translate(-437,-222) scale(1,1)"><path d="M 929 443 L 1043.14892578125 443" fill="none" stroke="#000000" stroke-miterlimit="10"/></g><g transform="translate(-437,-222) scale(1,1)"><path d="M 929 496 L 1043.14892578125 496" fill="none" stroke="#000000" stroke-miterlimit="10"/></g><g transform="translate(-437,-222) scale(1,1)"><g><path fill="none" stroke="none"/><text fill="#000000" font-family="Arial" font-size="13px" font-style="normal" font-weight="bold" stroke="none" text-decoration="none" x="943.07861328125" y="437.5">tern:Procedure</text></g></g><g transform="translate(-437,-222) scale(1,1)"><g><path fill="none" stroke="none"/><text fill="#000000" font-family="Arial" font-size="13px" font-style="normal" font-weight="normal" stroke="none" text-decoration="none" x="934" y="460.5">+data:vocabulary</text></g></g><g transform="translate(-437,-222) scale(1,1)"><g><path fill="none" stroke="none"/><text fill="#000000" font-family="Arial" font-size="13px" font-style="normal" font-weight="normal" stroke="none" text-decoration="none" x="934" y="475.5">+tern:methodType</text></g></g><g transform="translate(-437,-222) scale(1,1)"><g><path fill="none" stroke="none"/><text fill="#000000" font-family="Arial" font-size="13px" font-style="normal" font-weight="normal" stroke="none" text-decoration="none" x="934" y="490.5">+rdf:value</text></g></g><g transform="translate(-437,-222) scale(1,1)"><path d="M 628 366 L 928 446" fill="none" stroke="#000000" stroke-miterlimit="10"/></g><g transform="translate(-437,-222) scale(1,1)"><path d="M 917.0958329701606 447.4488413941362 L 928 446 L 919.2651039753523 439.3140751246672" fill="none" stroke="#000000" stroke-miterlimit="10"/></g><g transform="translate(-437,-222) scale(1,1)"><g><path fill="none" stroke="none"/><text fill="#000000" font-family="Arial" font-size="13px" font-style="normal" font-weight="normal" stroke="none" text-decoration="none" x="842.5" y="430.5">+sosa:usedProcedure</text></g></g><g transform="translate(-437,-222) scale(1,1)"><g><path fill="none" stroke="none"/><text fill="#000000" font-family="Arial" font-size="13px" font-style="normal" font-weight="normal" stroke="none" text-decoration="none" x="899.5" y="458.5">1</text></g></g><g transform="translate(-437,-222) scale(1,1)"><rect fill="#C0C0C0" height="44" opacity="0.2" stroke="none" width="77.6181640625" x="751" y="551"/></g><g transform="translate(-437,-222) scale(1,1)"><rect fill="#ffffff" height="44" stroke="none" width="77.6181640625" x="744" y="544"/></g><g transform="translate(-437,-222) scale(1,1)"><path d="M 744 544 L 821.6181640625 544 L 821.6181640625 588 L 744 588 L 744 544 Z Z" fill="none" stroke="#000000" stroke-miterlimit="10"/></g><g transform="translate(-437,-222) scale(1,1)"><path d="M 744 569 L 821.6181640625 569" fill="none" stroke="#000000" stroke-miterlimit="10"/></g><g transform="translate(-437,-222) scale(1,1)"><path d="M 744 579 L 821.6181640625 579" fill="none" stroke="#000000" stroke-miterlimit="10"/></g><g transform="translate(-437,-222) scale(1,1)"><g><path fill="none" stroke="none"/><text fill="#000000" font-family="Arial" font-size="13px" font-style="italic" font-weight="bold" stroke="none" text-decoration="none" x="753.92724609375" y="563.5">tern:Result</text></g></g><g transform="translate(-437,-222) scale(1,1)"><path d="M 628 423 L 757 543" fill="none" stroke="#000000" stroke-miterlimit="10"/></g><g transform="translate(-437,-222) scale(1,1)"><g><path fill="none" stroke="none"/><text fill="#000000" font-family="Arial" font-size="13px" font-style="normal" font-weight="normal" stroke="none" text-decoration="none" x="634.5" y="464.5">+sosa:isResultOf</text></g></g><g transform="translate(-437,-222) scale(1,1)"><g><path fill="none" stroke="none"/><text fill="#000000" font-family="Arial" font-size="13px" font-style="normal" font-weight="normal" stroke="none" text-decoration="none" x="631.5" y="452.5">1</text></g></g><g transform="translate(-437,-222) scale(1,1)"><g><path fill="none" stroke="none"/><text fill="#000000" font-family="Arial" font-size="13px" font-style="normal" font-weight="normal" stroke="none" text-decoration="none" x="699.5" y="520.5">+sosa:hasResult</text></g></g><g transform="translate(-437,-222) scale(1,1)"><g><path fill="none" stroke="none"/><text fill="#000000" font-family="Arial" font-size="13px" font-style="normal" font-weight="normal" stroke="none" text-decoration="none" x="728.5" y="543.5">1</text></g></g><g transform="translate(-437,-222) scale(1,1)"><rect fill="#C0C0C0" height="87" opacity="0.2" stroke="none" width="115.57080078125" x="479" y="567"/></g><g transform="translate(-437,-222) scale(1,1)"><rect fill="#ffffff" height="87" stroke="none" width="115.57080078125" x="472" y="560"/></g><g transform="translate(-437,-222) scale(1,1)"><path d="M 472 560 L 587.57080078125 560 L 587.57080078125 647 L 472 647 L 472 560 Z Z" fill="none" stroke="#000000" stroke-miterlimit="10"/></g><g transform="translate(-437,-222) scale(1,1)"><path d="M 472 585 L 587.57080078125 585" fill="none" stroke="#000000" stroke-miterlimit="10"/></g><g transform="translate(-437,-222) scale(1,1)"><path d="M 472 638 L 587.57080078125 638" fill="none" stroke="#000000" stroke-miterlimit="10"/></g><g transform="translate(-437,-222) scale(1,1)"><g><path fill="none" stroke="none"/><text fill="#000000" font-family="Arial" font-size="13px" font-style="normal" font-weight="bold" stroke="none" text-decoration="none" x="494.739990234375" y="579.5">tern:Sample</text></g></g><g transform="translate(-437,-222) scale(1,1)"><g><path fill="none" stroke="none"/><text fill="#000000" font-family="Arial" font-size="13px" font-style="normal" font-weight="normal" stroke="none" text-decoration="none" x="477" y="602.5">+dcterms:identifier</text></g></g><g transform="translate(-437,-222) scale(1,1)"><g><path fill="none" stroke="none"/><text fill="#000000" font-family="Arial" font-size="13px" font-style="normal" font-weight="normal" stroke="none" text-decoration="none" x="477" y="617.5">+sosa:hasSample</text></g></g><g transform="translate(-437,-222) scale(1,1)"><g><path fill="none" stroke="none"/><text fill="#000000" font-family="Arial" font-size="13px" font-style="normal" font-weight="normal" stroke="none" text-decoration="none" x="477" y="632.5">+sosa:isSampleOf</text></g></g><g transform="translate(-437,-222) scale(1,1)"><path d="M 536 455 L 531 559" fill="none" stroke="#000000" stroke-miterlimit="10"/></g><g transform="translate(-437,-222) scale(1,1)"><path d="M 527.2833651994522 548.6469026007017 L 531 559 L 535.6926877066674 549.0511969520102" fill="none" stroke="#000000" stroke-miterlimit="10"/></g><g transform="translate(-437,-222) scale(1,1)"><g><path fill="none" stroke="none"/><text fill="#000000" font-family="Arial" font-size="13px" font-style="normal" font-weight="normal" stroke="none" text-decoration="none" x="466.5" y="513.5">+sosa:hasFeatureOfInterest</text></g></g><g transform="translate(-437,-222) scale(1,1)"><path d="M 536 455 L 531 559" fill="none" stroke="#000000" stroke-miterlimit="10"/></g><g transform="translate(-437,-222) scale(1,1)"><path d="M 527.2833651994522 548.6469026007017 L 531 559 L 535.6926877066674 549.0511969520102" fill="none" stroke="#000000" stroke-miterlimit="10"/></g><g transform="translate(-437,-222) scale(1,1)"><path d="M 536 455 L 531 559" fill="none" stroke="#000000" stroke-miterlimit="10"/></g><g transform="translate(-437,-222) scale(1,1)"><path d="M 527.2833651994522 548.6469026007017 L 531 559 L 535.6926877066674 549.0511969520102" fill="none" stroke="#000000" stroke-miterlimit="10"/></g><g transform="translate(-437,-222) scale(1,1)"><g><path fill="none" stroke="none"/><text fill="#000000" font-family="Arial" font-size="13px" font-style="normal" font-weight="normal" stroke="none" text-decoration="none" x="466.5" y="513.5">+sosa:hasFeatureOfInterest</text></g></g><g transform="translate(-437,-222) scale(1,1)"><g><path fill="none" stroke="none"/><text fill="#000000" font-family="Arial" font-size="13px" font-style="normal" font-weight="normal" stroke="none" text-decoration="none" x="515.5" y="542.5">1</text></g></g></g></svg>