<?xml version="1.0" encoding="UTF-8" standalone="no"?><svg xmlns="http://www.w3.org/2000/svg" xmlns:xlink="http://www.w3.org/1999/xlink" height="167" version="1.1" width="1053.1962890625"><defs/><g><g transform="translate(-454,-286) scale(1,1)"><rect fill="#C0C0C0" height="147" opacity="0.2" stroke="none" width="120.896484375" x="471" y="303"/></g><g transform="translate(-454,-286) scale(1,1)"><rect fill="#ffffff" height="147" stroke="none" width="120.896484375" x="464" y="296"/></g><g transform="translate(-454,-286) scale(1,1)"><path d="M 464 296 L 584.896484375 296 L 584.896484375 443 L 464 443 L 464 296 Z Z" fill="none" stroke="#000000" stroke-miterlimit="10"/></g><g transform="translate(-454,-286) scale(1,1)"><path d="M 464 321 L 584.896484375 321" fill="none" stroke="#000000" stroke-miterlimit="10"/></g><g transform="translate(-454,-286) scale(1,1)"><path d="M 464 434 L 584.896484375 434" fill="none" stroke="#000000" stroke-miterlimit="10"/></g><g transform="translate(-454,-286) scale(1,1)"><g><path fill="none" stroke="none"/><text fill="#000000" font-family="Arial" font-size="13px" font-style="normal" font-weight="bold" stroke="none" text-decoration="none" x="489.40283203125" y="315.5">Observation</text></g></g><g transform="translate(-454,-286) scale(1,1)"><g><path fill="none" stroke="none"/><text fill="#000000" font-family="Arial" font-size="13px" font-style="normal" font-weight="normal" stroke="none" text-decoration="none" x="469" y="338.5">+id</text></g></g><g transform="translate(-454,-286) scale(1,1)"><g><path fill="none" stroke="none"/><text fill="#000000" font-family="Arial" font-size="13px" font-style="normal" font-weight="normal" stroke="none" text-decoration="none" x="469" y="353.5">+phenomenonTime</text></g></g><g transform="translate(-454,-286) scale(1,1)"><g><path fill="none" stroke="none"/><text fill="#000000" font-family="Arial" font-size="13px" font-style="normal" font-weight="normal" stroke="none" text-decoration="none" x="469" y="368.5">+resultTime</text></g></g><g transform="translate(-454,-286) scale(1,1)"><g><path fill="none" stroke="none"/><text fill="#000000" font-family="Arial" font-size="13px" font-style="normal" font-weight="normal" stroke="none" text-decoration="none" x="469" y="383.5">+validTime</text></g></g><g transform="translate(-454,-286) scale(1,1)"><g><path fill="none" stroke="none"/><text fill="#000000" font-family="Arial" font-size="13px" font-style="normal" font-weight="normal" stroke="none" text-decoration="none" x="469" y="398.5">+parameter</text></g></g><g transform="translate(-454,-286) scale(1,1)"><g><path fill="none" stroke="none"/><text fill="#000000" font-family="Arial" font-size="13px" font-style="normal" font-weight="normal" stroke="none" text-decoration="none" x="469" y="413.5">+result</text></g></g><g transform="translate(-454,-286) scale(1,1)"><g><path fill="none" stroke="none"/><text fill="#000000" font-family="Arial" font-size="13px" font-style="normal" font-weight="normal" stroke="none" text-decoration="none" x="469" y="428.5">+resultType</text></g></g><g transform="translate(-454,-286) scale(1,1)"><rect fill="#ffffff" height="22" stroke="none" width="126.1962890625" x="1371" y="392"/></g><g transform="translate(-454,-286) scale(1,1)"><path d="M 1371 392 L 1497.1962890625 392 L 1497.1962890625 414 L 1371 414 L 1371 392 Z Z" fill="none" stroke="#000000" stroke-miterlimit="10"/></g><g transform="translate(-454,-286) scale(1,1)"><path d="M 1403.39453125 392 L 1403.39453125 414" fill="none" stroke="#000000" stroke-miterlimit="10"/></g><g transform="translate(-454,-286) scale(1,1)"><g><path fill="none" stroke="none"/><text fill="#000000" font-family="Arial" font-size="13px" font-style="normal" font-weight="normal" stroke="none" text-decoration="none" x="1407.89453125" y="409.5">ERDDiagram1</text></g></g><g transform="translate(-454,-286) scale(1,1)"><g><path fill="none" stroke="none"/><text fill="#000000" font-family="Arial" font-size="13px" font-style="normal" font-weight="bold" stroke="none" text-decoration="none" x="1377.444091796875" y="409.5">link</text></g></g></g></svg>