<?xml version="1.0" encoding="UTF-8" standalone="no"?><svg xmlns="http://www.w3.org/2000/svg" xmlns:xlink="http://www.w3.org/1999/xlink" height="754" version="1.1" width="1498.6181640625"><defs/><g><g transform="translate(-422,-230) scale(1,1)"><rect fill="#C0C0C0" height="76" opacity="0.2" stroke="none" width="104" x="576" y="337"/></g><g transform="translate(-422,-230) scale(1,1)"><rect fill="#ffffff" height="76" stroke="none" width="104" x="569" y="330"/></g><g transform="translate(-422,-230) scale(1,1)"><path d="M 569 330 L 673 330 L 673 406 L 569 406 L 569 330 Z Z" fill="none" stroke="#000000" stroke-miterlimit="10"/></g><g transform="translate(-422,-230) scale(1,1)"><path d="M 569 355 L 673 355" fill="none" stroke="#000000" stroke-miterlimit="10"/></g><g transform="translate(-422,-230) scale(1,1)"><g><path fill="none" stroke="none"/><text fill="#000000" font-family="Arial" font-size="13px" font-style="normal" font-weight="bold" stroke="none" text-decoration="none" x="609.799560546875" y="349.5">Site</text></g></g><g transform="translate(-422,-230) scale(1,1)"><rect fill="#C0C0C0" height="102" opacity="0.2" stroke="none" width="160.1123046875" x="952" y="305"/></g><g transform="translate(-422,-230) scale(1,1)"><rect fill="#ffffff" height="102" stroke="none" width="160.1123046875" x="945" y="298"/></g><g transform="translate(-422,-230) scale(1,1)"><path d="M 945 298 L 1105.1123046875 298 L 1105.1123046875 400 L 945 400 L 945 298 Z Z" fill="none" stroke="#000000" stroke-miterlimit="10"/></g><g transform="translate(-422,-230) scale(1,1)"><path d="M 945 323 L 1105.1123046875 323" fill="none" stroke="#000000" stroke-miterlimit="10"/></g><g transform="translate(-422,-230) scale(1,1)"><path d="M 945 391 L 1105.1123046875 391" fill="none" stroke="#000000" stroke-miterlimit="10"/></g><g transform="translate(-422,-230) scale(1,1)"><g><path fill="none" stroke="none"/><text fill="#000000" font-family="Arial" font-size="13px" font-style="normal" font-weight="bold" stroke="none" text-decoration="none" x="1001.693603515625" y="317.5">SiteVisit</text></g></g><g transform="translate(-422,-230) scale(1,1)"><g><path fill="none" stroke="none"/><text fill="#000000" font-family="Arial" font-size="13px" font-style="normal" font-weight="normal" stroke="none" text-decoration="none" x="950" y="340.5">+identifier</text></g></g><g transform="translate(-422,-230) scale(1,1)"><g><path fill="none" stroke="none"/><text fill="#000000" font-family="Arial" font-size="13px" font-style="normal" font-weight="normal" stroke="none" text-decoration="none" x="950" y="355.5">+siteDescription</text></g></g><g transform="translate(-422,-230) scale(1,1)"><g><path fill="none" stroke="none"/><text fill="#000000" font-family="Arial" font-size="13px" font-style="normal" font-weight="normal" stroke="none" text-decoration="none" x="950" y="370.5">+startedAtTime: DateTime</text></g></g><g transform="translate(-422,-230) scale(1,1)"><g><path fill="none" stroke="none"/><text fill="#000000" font-family="Arial" font-size="13px" font-style="normal" font-weight="normal" stroke="none" text-decoration="none" x="950" y="385.5">+endedAtTime: DateTime</text></g></g><g transform="translate(-422,-230) scale(1,1)"><path d="M 674 351 Q 809 306 944 333" fill="none" stroke="#000000" stroke-miterlimit="10"/></g><g transform="translate(-422,-230) scale(1,1)"><g><path fill="none" stroke="none"/><text fill="#000000" font-family="Arial" font-size="13px" font-style="normal" font-weight="normal" stroke="none" text-decoration="none" x="712.50634765625" y="323.5">+site</text></g></g><g transform="translate(-422,-230) scale(1,1)"><g><path fill="none" stroke="none"/><text fill="#000000" font-family="Arial" font-size="13px" font-style="normal" font-weight="normal" stroke="none" text-decoration="none" x="683.5" y="335.5">1</text></g></g><g transform="translate(-422,-230) scale(1,1)"><g><path fill="none" stroke="none"/><text fill="#000000" font-family="Arial" font-size="13px" font-style="normal" font-weight="normal" stroke="none" text-decoration="none" x="870.50634765625" y="315.5">+siteVisit</text></g></g><g transform="translate(-422,-230) scale(1,1)"><g><path fill="none" stroke="none"/><text fill="#000000" font-family="Arial" font-size="13px" font-style="normal" font-weight="normal" stroke="none" text-decoration="none" x="910.5" y="347.5">0..*</text></g></g><g transform="translate(-422,-230) scale(1,1)"><rect fill="#C0C0C0" height="104" opacity="0.2" stroke="none" width="176.25439453125" x="768" y="577"/></g><g transform="translate(-422,-230) scale(1,1)"><rect fill="#ffffff" height="104" stroke="none" width="176.25439453125" x="761" y="570"/></g><g transform="translate(-422,-230) scale(1,1)"><path d="M 761 570 L 937.25439453125 570 L 937.25439453125 674 L 761 674 L 761 570 Z Z" fill="none" stroke="#000000" stroke-miterlimit="10"/></g><g transform="translate(-422,-230) scale(1,1)"><path d="M 761 595 L 937.25439453125 595" fill="none" stroke="#000000" stroke-miterlimit="10"/></g><g transform="translate(-422,-230) scale(1,1)"><path d="M 761 618 L 937.25439453125 618" fill="none" stroke="#000000" stroke-miterlimit="10"/></g><g transform="translate(-422,-230) scale(1,1)"><g><path fill="none" stroke="none"/><text fill="#000000" font-family="Arial" font-size="13px" font-style="normal" font-weight="bold" stroke="none" text-decoration="none" x="827.088134765625" y="589.5">Sample</text></g></g><g transform="translate(-422,-230) scale(1,1)"><g><path fill="none" stroke="none"/><text fill="#000000" font-family="Arial" font-size="13px" font-style="normal" font-weight="normal" stroke="none" text-decoration="none" x="766" y="612.5">+identifier</text></g></g><g transform="translate(-422,-230) scale(1,1)"><rect fill="#C0C0C0" height="222" opacity="0.2" stroke="none" width="170.50341796875" x="1288" y="305"/></g><g transform="translate(-422,-230) scale(1,1)"><rect fill="#ffffff" height="222" stroke="none" width="170.50341796875" x="1281" y="298"/></g><g transform="translate(-422,-230) scale(1,1)"><path d="M 1281 298 L 1451.50341796875 298 L 1451.50341796875 520 L 1281 520 L 1281 298 Z Z" fill="none" stroke="#000000" stroke-miterlimit="10"/></g><g transform="translate(-422,-230) scale(1,1)"><path d="M 1281 323 L 1451.50341796875 323" fill="none" stroke="#000000" stroke-miterlimit="10"/></g><g transform="translate(-422,-230) scale(1,1)"><path d="M 1281 406 L 1451.50341796875 406" fill="none" stroke="#000000" stroke-miterlimit="10"/></g><g transform="translate(-422,-230) scale(1,1)"><g><path fill="none" stroke="none"/><text fill="#000000" font-family="Arial" font-size="13px" font-style="normal" font-weight="bold" stroke="none" text-decoration="none" x="1331.206298828125" y="317.5">Observation</text></g></g><g transform="translate(-422,-230) scale(1,1)"><g><path fill="none" stroke="none"/><text fill="#000000" font-family="Arial" font-size="13px" font-style="normal" font-weight="normal" stroke="none" text-decoration="none" x="1286" y="340.5">+phenomenonTime</text></g></g><g transform="translate(-422,-230) scale(1,1)"><g><path fill="none" stroke="none"/><text fill="#000000" font-family="Arial" font-size="13px" font-style="normal" font-weight="normal" stroke="none" text-decoration="none" x="1286" y="355.5">+resultTime: DateTime</text></g></g><g transform="translate(-422,-230) scale(1,1)"><g><path fill="none" stroke="none"/><text fill="#000000" font-family="Arial" font-size="13px" font-style="normal" font-weight="normal" stroke="none" text-decoration="none" x="1286" y="370.5">+validTime: DateTime</text></g></g><g transform="translate(-422,-230) scale(1,1)"><g><path fill="none" stroke="none"/><text fill="#000000" font-family="Arial" font-size="13px" font-style="normal" font-weight="normal" stroke="none" text-decoration="none" x="1286" y="385.5">+hasResult: Result</text></g></g><g transform="translate(-422,-230) scale(1,1)"><g><path fill="none" stroke="none"/><text fill="#000000" font-family="Arial" font-size="13px" font-style="normal" font-weight="normal" stroke="none" text-decoration="none" x="1286" y="400.5">+isPartOf: Project</text></g></g><g transform="translate(-422,-230) scale(1,1)"><rect fill="#C0C0C0" height="102" opacity="0.2" stroke="none" width="217.9521484375" x="1527" y="247"/></g><g transform="translate(-422,-230) scale(1,1)"><rect fill="#ffffff" height="102" stroke="none" width="217.9521484375" x="1520" y="240"/></g><g transform="translate(-422,-230) scale(1,1)"><path d="M 1520 240 L 1737.9521484375 240 L 1737.9521484375 342 L 1520 342 L 1520 240 Z Z" fill="none" stroke="#000000" stroke-miterlimit="10"/></g><g transform="translate(-422,-230) scale(1,1)"><path d="M 1520 265 L 1737.9521484375 265" fill="none" stroke="#000000" stroke-miterlimit="10"/></g><g transform="translate(-422,-230) scale(1,1)"><path d="M 1520 333 L 1737.9521484375 333" fill="none" stroke="#000000" stroke-miterlimit="10"/></g><g transform="translate(-422,-230) scale(1,1)"><g><path fill="none" stroke="none"/><text fill="#000000" font-family="Arial" font-size="13px" font-style="normal" font-weight="bold" stroke="none" text-decoration="none" x="1571.171142578125" y="259.5">ObservableProperty</text></g></g><g transform="translate(-422,-230) scale(1,1)"><g><path fill="none" stroke="none"/><text fill="#000000" font-family="Arial" font-size="13px" font-style="normal" font-weight="normal" stroke="none" text-decoration="none" x="1525" y="282.5">+vocabulary</text></g></g><g transform="translate(-422,-230) scale(1,1)"><g><path fill="none" stroke="none"/><text fill="#000000" font-family="Arial" font-size="13px" font-style="normal" font-weight="normal" stroke="none" text-decoration="none" x="1525" y="297.5">+globalVocabulary</text></g></g><g transform="translate(-422,-230) scale(1,1)"><g><path fill="none" stroke="none"/><text fill="#000000" font-family="Arial" font-size="13px" font-style="normal" font-weight="normal" stroke="none" text-decoration="none" x="1525" y="312.5">+value: ParameterTerm</text></g></g><g transform="translate(-422,-230) scale(1,1)"><g><path fill="none" stroke="none"/><text fill="#000000" font-family="Arial" font-size="13px" font-style="normal" font-weight="normal" stroke="none" text-decoration="none" x="1525" y="327.5">+globalValue: GlobalParameterTerm</text></g></g><g transform="translate(-422,-230) scale(1,1)"><rect fill="#C0C0C0" height="87" opacity="0.2" stroke="none" width="246.37060546875" x="1567" y="399"/></g><g transform="translate(-422,-230) scale(1,1)"><rect fill="#ffffff" height="87" stroke="none" width="246.37060546875" x="1560" y="392"/></g><g transform="translate(-422,-230) scale(1,1)"><path d="M 1560 392 L 1806.37060546875 392 L 1806.37060546875 479 L 1560 479 L 1560 392 Z Z" fill="none" stroke="#000000" stroke-miterlimit="10"/></g><g transform="translate(-422,-230) scale(1,1)"><path d="M 1560 417 L 1806.37060546875 417" fill="none" stroke="#000000" stroke-miterlimit="10"/></g><g transform="translate(-422,-230) scale(1,1)"><path d="M 1560 470 L 1806.37060546875 470" fill="none" stroke="#000000" stroke-miterlimit="10"/></g><g transform="translate(-422,-230) scale(1,1)"><g><path fill="none" stroke="none"/><text fill="#000000" font-family="Arial" font-size="13px" font-style="normal" font-weight="bold" stroke="none" text-decoration="none" x="1653.19580078125" y="411.5">Procedure</text></g></g><g transform="translate(-422,-230) scale(1,1)"><g><path fill="none" stroke="none"/><text fill="#000000" font-family="Arial" font-size="13px" font-style="normal" font-weight="normal" stroke="none" text-decoration="none" x="1565" y="434.5">+vocabulary</text></g></g><g transform="translate(-422,-230) scale(1,1)"><g><path fill="none" stroke="none"/><text fill="#000000" font-family="Arial" font-size="13px" font-style="normal" font-weight="normal" stroke="none" text-decoration="none" x="1565" y="449.5">+observationType: ObservationTypeTerm</text></g></g><g transform="translate(-422,-230) scale(1,1)"><g><path fill="none" stroke="none"/><text fill="#000000" font-family="Arial" font-size="13px" font-style="normal" font-weight="normal" stroke="none" text-decoration="none" x="1565" y="464.5">+instrumentType: InstrumentTypeTerm</text></g></g><g transform="translate(-422,-230) scale(1,1)"><rect fill="#C0C0C0" height="48" opacity="0.2" stroke="none" width="77.6181640625" x="1840" y="249"/></g><g transform="translate(-422,-230) scale(1,1)"><rect fill="#ffffff" height="48" stroke="none" width="77.6181640625" x="1833" y="242"/></g><g transform="translate(-422,-230) scale(1,1)"><path d="M 1833 242 L 1910.6181640625 242 L 1910.6181640625 290 L 1833 290 L 1833 242 Z Z" fill="none" stroke="#000000" stroke-miterlimit="10"/></g><g transform="translate(-422,-230) scale(1,1)"><path d="M 1833 267 L 1910.6181640625 267" fill="none" stroke="#000000" stroke-miterlimit="10"/></g><g transform="translate(-422,-230) scale(1,1)"><path d="M 1833 277 L 1910.6181640625 277" fill="none" stroke="#000000" stroke-miterlimit="10"/></g><g transform="translate(-422,-230) scale(1,1)"><g><path fill="none" stroke="none"/><text fill="#000000" font-family="Arial" font-size="13px" font-style="italic" font-weight="bold" stroke="none" text-decoration="none" x="1853.385009765625" y="261.5">Result</text></g></g><g transform="translate(-422,-230) scale(1,1)"><path d="M 1343 297 L 1336 264 L 1519 281" fill="none" stroke="#000000" stroke-miterlimit="10"/></g><g transform="translate(-422,-230) scale(1,1)"><path d="M 1508.4915221436347 284.2514447776762 L 1519 281 L 1509.270265396867 275.8685026987638" fill="none" stroke="#000000" stroke-miterlimit="10"/></g><g transform="translate(-422,-230) scale(1,1)"><g><path fill="none" stroke="none"/><text fill="#000000" font-family="Arial" font-size="13px" font-style="normal" font-weight="normal" stroke="none" text-decoration="none" x="1340.5" y="279.5">0..*</text></g></g><g transform="translate(-422,-230) scale(1,1)"><g><path fill="none" stroke="none"/><text fill="#000000" font-family="Arial" font-size="13px" font-style="normal" font-weight="normal" stroke="none" text-decoration="none" x="1393.035888671875" y="265.5">+observedProperty</text></g></g><g transform="translate(-422,-230) scale(1,1)"><g><path fill="none" stroke="none"/><text fill="#000000" font-family="Arial" font-size="13px" font-style="normal" font-weight="normal" stroke="none" text-decoration="none" x="1492.641357421875" y="297.5">1</text></g></g><g transform="translate(-422,-230) scale(1,1)"><path d="M 1453 416 L 1559 425" fill="none" stroke="#000000" stroke-miterlimit="10"/></g><g transform="translate(-422,-230) scale(1,1)"><path d="M 1548.5176289619112 428.33465101919774 L 1559 425 L 1549.2298900074886 419.9457987046192" fill="none" stroke="#000000" stroke-miterlimit="10"/></g><g transform="translate(-422,-230) scale(1,1)"><g><path fill="none" stroke="none"/><text fill="#000000" font-family="Arial" font-size="13px" font-style="normal" font-weight="normal" stroke="none" text-decoration="none" x="1326.035888671875" y="425.5">+usedProcedure</text></g></g><g transform="translate(-422,-230) scale(1,1)"><g><path fill="none" stroke="none"/><text fill="#000000" font-family="Arial" font-size="13px" font-style="normal" font-weight="normal" stroke="none" text-decoration="none" x="1532.5" y="441.5">1</text></g></g><g transform="translate(-422,-230) scale(1,1)"><rect fill="#C0C0C0" height="44" opacity="0.2" stroke="none" width="96.39453125" x="1448" y="609"/></g><g transform="translate(-422,-230) scale(1,1)"><rect fill="#ffffff" height="44" stroke="none" width="96.39453125" x="1441" y="602"/></g><g transform="translate(-422,-230) scale(1,1)"><path d="M 1441 602 L 1537.39453125 602 L 1537.39453125 646 L 1441 646 L 1441 602 Z Z" fill="none" stroke="#000000" stroke-miterlimit="10"/></g><g transform="translate(-422,-230) scale(1,1)"><path d="M 1441 627 L 1537.39453125 627" fill="none" stroke="#000000" stroke-miterlimit="10"/></g><g transform="translate(-422,-230) scale(1,1)"><path d="M 1441 637 L 1537.39453125 637" fill="none" stroke="#000000" stroke-miterlimit="10"/></g><g transform="translate(-422,-230) scale(1,1)"><g><path fill="none" stroke="none"/><text fill="#000000" font-family="Arial" font-size="13px" font-style="normal" font-weight="bold" stroke="none" text-decoration="none" x="1462.09912109375" y="621.5">Sampling</text></g></g><g transform="translate(-422,-230) scale(1,1)"><rect fill="#C0C0C0" height="44" opacity="0.2" stroke="none" width="128.88818359375" x="1432" y="737"/></g><g transform="translate(-422,-230) scale(1,1)"><rect fill="#ffffff" height="44" stroke="none" width="128.88818359375" x="1425" y="730"/></g><g transform="translate(-422,-230) scale(1,1)"><path d="M 1425 730 L 1553.88818359375 730 L 1553.88818359375 774 L 1425 774 L 1425 730 Z Z" fill="none" stroke="#000000" stroke-miterlimit="10"/></g><g transform="translate(-422,-230) scale(1,1)"><path d="M 1425 755 L 1553.88818359375 755" fill="none" stroke="#000000" stroke-miterlimit="10"/></g><g transform="translate(-422,-230) scale(1,1)"><path d="M 1425 765 L 1553.88818359375 765" fill="none" stroke="#000000" stroke-miterlimit="10"/></g><g transform="translate(-422,-230) scale(1,1)"><g><path fill="none" stroke="none"/><text fill="#000000" font-family="Arial" font-size="13px" font-style="normal" font-weight="bold" stroke="none" text-decoration="none" x="1447.530517578125" y="749.5">SamplingPoint</text></g></g><g transform="translate(-422,-230) scale(1,1)"><rect fill="#C0C0C0" height="44" opacity="0.2" stroke="none" width="96" x="1448" y="937"/></g><g transform="translate(-422,-230) scale(1,1)"><rect fill="#ffffff" height="44" stroke="none" width="96" x="1441" y="930"/></g><g transform="translate(-422,-230) scale(1,1)"><path d="M 1441 930 L 1537 930 L 1537 974 L 1441 974 L 1441 930 Z Z" fill="none" stroke="#000000" stroke-miterlimit="10"/></g><g transform="translate(-422,-230) scale(1,1)"><path d="M 1441 955 L 1537 955" fill="none" stroke="#000000" stroke-miterlimit="10"/></g><g transform="translate(-422,-230) scale(1,1)"><path d="M 1441 965 L 1537 965" fill="none" stroke="#000000" stroke-miterlimit="10"/></g><g transform="translate(-422,-230) scale(1,1)"><g><path fill="none" stroke="none"/><text fill="#000000" font-family="Arial" font-size="13px" font-style="normal" font-weight="bold" stroke="none" text-decoration="none" x="1463.955322265625" y="949.5">Transect</text></g></g><g transform="translate(-422,-230) scale(1,1)"><path d="M 1106 363 L 1280 394" fill="none" stroke="#000000" stroke-miterlimit="10"/></g><g transform="translate(-422,-230) scale(1,1)"><g><path fill="none" stroke="none"/><text fill="#000000" font-family="Arial" font-size="13px" font-style="normal" font-weight="normal" stroke="none" text-decoration="none" x="1132.371337890625" y="355.5">+isSubActivityOf</text></g></g><g transform="translate(-422,-230) scale(1,1)"><g><path fill="none" stroke="none"/><text fill="#000000" font-family="Arial" font-size="13px" font-style="normal" font-weight="normal" stroke="none" text-decoration="none" x="1113.5" y="362.5">1</text></g></g><g transform="translate(-422,-230) scale(1,1)"><g><path fill="none" stroke="none"/><text fill="#000000" font-family="Arial" font-size="13px" font-style="normal" font-weight="normal" stroke="none" text-decoration="none" x="1166.871337890625" y="378.5">+hasSubActivity</text></g></g><g transform="translate(-422,-230) scale(1,1)"><g><path fill="none" stroke="none"/><text fill="#000000" font-family="Arial" font-size="13px" font-style="normal" font-weight="normal" stroke="none" text-decoration="none" x="1246.5" y="408.5">0..*</text></g></g><g transform="translate(-422,-230) scale(1,1)"><path d="M 938 623 L 1129 626 L 1440 624" fill="none" stroke="#000000" stroke-miterlimit="10"/></g><g transform="translate(-422,-230) scale(1,1)"><g><path fill="none" stroke="none"/><text fill="#000000" font-family="Arial" font-size="13px" font-style="normal" font-weight="normal" stroke="none" text-decoration="none" x="1031.035888671875" y="622.5">+hasResult</text></g></g><g transform="translate(-422,-230) scale(1,1)"><g><path fill="none" stroke="none"/><text fill="#000000" font-family="Arial" font-size="13px" font-style="normal" font-weight="normal" stroke="none" text-decoration="none" x="992.5" y="622.5">1..*</text></g></g><g transform="translate(-422,-230) scale(1,1)"><g><path fill="none" stroke="none"/><text fill="#000000" font-family="Arial" font-size="13px" font-style="normal" font-weight="normal" stroke="none" text-decoration="none" x="1351.035888671875" y="621.5">+isResultOf</text></g></g><g transform="translate(-422,-230) scale(1,1)"><g><path fill="none" stroke="none"/><text fill="#000000" font-family="Arial" font-size="13px" font-style="normal" font-weight="normal" stroke="none" text-decoration="none" x="1414.5" y="642.5">1</text></g></g><g transform="translate(-422,-230) scale(1,1)"><path d="M 1489 647 L 1489 729" fill="none" stroke="#000000" stroke-miterlimit="10"/></g><g transform="translate(-422,-230) scale(1,1)"><path d="M 1484.7904822439841 718.8373251423759 L 1489 729 L 1493.2095177560159 718.8373251423759" fill="none" stroke="#000000" stroke-miterlimit="10"/></g><g transform="translate(-422,-230) scale(1,1)"><g><path fill="none" stroke="none"/><text fill="#000000" font-family="Arial" font-size="13px" font-style="normal" font-weight="normal" stroke="none" text-decoration="none" x="1507.50634765625" y="709.5">+hasSamplingPoint</text></g></g><g transform="translate(-422,-230) scale(1,1)"><g><path fill="none" stroke="none"/><text fill="#000000" font-family="Arial" font-size="13px" font-style="normal" font-weight="normal" stroke="none" text-decoration="none" x="1465.5" y="713.5">0..1</text></g></g><g transform="translate(-422,-230) scale(1,1)"><path d="M 1489 775 L 1489 929" fill="none" stroke="#000000" stroke-miterlimit="10"/></g><g transform="translate(-422,-230) scale(1,1)"><g><path fill="none" stroke="none"/><text fill="#000000" font-family="Arial" font-size="13px" font-style="normal" font-weight="normal" stroke="none" text-decoration="none" x="1507.50634765625" y="798.5">+hasSamplingPoint</text></g></g><g transform="translate(-422,-230) scale(1,1)"><g><path fill="none" stroke="none"/><text fill="#000000" font-family="Arial" font-size="13px" font-style="normal" font-weight="normal" stroke="none" text-decoration="none" x="1466.5" y="802.5">0..*</text></g></g><g transform="translate(-422,-230) scale(1,1)"><g><path fill="none" stroke="none"/><text fill="#000000" font-family="Arial" font-size="13px" font-style="normal" font-weight="normal" stroke="none" text-decoration="none" x="1503.50634765625" y="898.5">+isSamplingPointOf</text></g></g><g transform="translate(-422,-230) scale(1,1)"><g><path fill="none" stroke="none"/><text fill="#000000" font-family="Arial" font-size="13px" font-style="normal" font-weight="normal" stroke="none" text-decoration="none" x="1465.5" y="913.5">0..1</text></g></g><g transform="translate(-422,-230) scale(1,1)"><rect fill="#C0C0C0" height="44" opacity="0.2" stroke="none" width="89.18994140625" x="1736" y="609"/></g><g transform="translate(-422,-230) scale(1,1)"><rect fill="#ffffff" height="44" stroke="none" width="89.18994140625" x="1729" y="602"/></g><g transform="translate(-422,-230) scale(1,1)"><path d="M 1729 602 L 1818.18994140625 602 L 1818.18994140625 646 L 1729 646 L 1729 602 Z Z" fill="none" stroke="#000000" stroke-miterlimit="10"/></g><g transform="translate(-422,-230) scale(1,1)"><path d="M 1729 627 L 1818.18994140625 627" fill="none" stroke="#000000" stroke-miterlimit="10"/></g><g transform="translate(-422,-230) scale(1,1)"><path d="M 1729 637 L 1818.18994140625 637" fill="none" stroke="#000000" stroke-miterlimit="10"/></g><g transform="translate(-422,-230) scale(1,1)"><g><path fill="none" stroke="none"/><text fill="#000000" font-family="Arial" font-size="13px" font-style="normal" font-weight="bold" stroke="none" text-decoration="none" x="1749.391357421875" y="621.5">Sampler</text></g></g><g transform="translate(-422,-230) scale(1,1)"><path d="M 1728 624 L 1538 624" fill="none" stroke="#000000" stroke-miterlimit="10"/></g><g transform="translate(-422,-230) scale(1,1)"><path d="M 1548.162674857624 619.790482243984 L 1538 624 L 1548.162674857624 628.209517756016" fill="none" stroke="#000000" stroke-miterlimit="10"/></g><g transform="translate(-422,-230) scale(1,1)"><g><path fill="none" stroke="none"/><text fill="#000000" font-family="Arial" font-size="13px" font-style="normal" font-weight="normal" stroke="none" text-decoration="none" x="1585.035888671875" y="621.5">+madeSampling</text></g></g><g transform="translate(-422,-230) scale(1,1)"><g><path fill="none" stroke="none"/><text fill="#000000" font-family="Arial" font-size="13px" font-style="normal" font-weight="normal" stroke="none" text-decoration="none" x="1552.5" y="645.5">1..*</text></g></g><g transform="translate(-422,-230) scale(1,1)"><rect fill="#C0C0C0" height="102" opacity="0.2" stroke="none" width="168" x="759" y="351"/></g><g transform="translate(-422,-230) scale(1,1)"><rect fill="#ffffff" height="102" stroke="none" width="168" x="752" y="344"/></g><g transform="translate(-422,-230) scale(1,1)"><path d="M 752 344 L 920 344 L 920 446 L 752 446 L 752 344 Z Z" fill="none" stroke="#000000" stroke-miterlimit="10"/></g><g transform="translate(-422,-230) scale(1,1)"><path d="M 752 369 L 920 369" fill="none" stroke="#000000" stroke-miterlimit="10"/></g><g transform="translate(-422,-230) scale(1,1)"><path d="M 752 392 L 920 392" fill="none" stroke="#000000" stroke-miterlimit="10"/></g><g transform="translate(-422,-230) scale(1,1)"><g><path fill="none" stroke="none"/><text fill="#000000" font-family="Arial" font-size="13px" font-style="normal" font-weight="bold" stroke="none" text-decoration="none" x="785.06005859375" y="363.5">FeatureOfInterest</text></g></g><g transform="translate(-422,-230) scale(1,1)"><g><path fill="none" stroke="none"/><text fill="#000000" font-family="Arial" font-size="13px" font-style="normal" font-weight="normal" stroke="none" text-decoration="none" x="757" y="386.5">+featureType: FeatureTerm</text></g></g><g transform="translate(-422,-230) scale(1,1)"><path d="M 1280 498 L 1249 530 L 938 601" fill="none" stroke="#000000" stroke-miterlimit="10"/></g><g transform="translate(-422,-230) scale(1,1)"><path d="M 946.9708528500961 594.6341694067527 L 938 601 L 948.8446728636995 602.8420289029596" fill="none" stroke="#000000" stroke-miterlimit="10"/></g><g transform="translate(-422,-230) scale(1,1)"><g><path fill="none" stroke="none"/><text fill="#000000" font-family="Arial" font-size="13px" font-style="normal" font-weight="normal" stroke="none" text-decoration="none" x="1166.035888671875" y="527.5">+hasFeatureOfInterest</text></g></g><g transform="translate(-422,-230) scale(1,1)"><g><path fill="none" stroke="none"/><text fill="#000000" font-family="Arial" font-size="13px" font-style="normal" font-weight="normal" stroke="none" text-decoration="none" x="952.5" y="589.5">1</text></g></g><g transform="translate(-422,-230) scale(1,1)"><path d="M 1513 601 L 1637 480" fill="none" stroke="#000000" stroke-miterlimit="10"/></g><g transform="translate(-422,-230) scale(1,1)"><path d="M 1632.666366202348 490.11037180858585 L 1637 480 L 1626.7865456883326 484.08477062066936" fill="none" stroke="#000000" stroke-miterlimit="10"/></g><g transform="translate(-422,-230) scale(1,1)"><g><path fill="none" stroke="none"/><text fill="#000000" font-family="Arial" font-size="13px" font-style="normal" font-weight="normal" stroke="none" text-decoration="none" x="1516.035888671875" y="535.5">+usedProcedure</text></g></g><g transform="translate(-422,-230) scale(1,1)"><g><path fill="none" stroke="none"/><text fill="#000000" font-family="Arial" font-size="13px" font-style="normal" font-weight="normal" stroke="none" text-decoration="none" x="1626.5" y="510.5">1</text></g></g><g transform="translate(-422,-230) scale(1,1)"><path d="M 1466 601 L 1313 450 L 1106 377" fill="none" stroke="#000000" stroke-miterlimit="10"/></g><g transform="translate(-422,-230) scale(1,1)"><g><path fill="none" stroke="none"/><text fill="#000000" font-family="Arial" font-size="13px" font-style="normal" font-weight="normal" stroke="none" text-decoration="none" x="1388.871337890625" y="583.5">+hasSubActivity</text></g></g><g transform="translate(-422,-230) scale(1,1)"><g><path fill="none" stroke="none"/><text fill="#000000" font-family="Arial" font-size="13px" font-style="normal" font-weight="normal" stroke="none" text-decoration="none" x="1452.5" y="566.5">0..*</text></g></g><g transform="translate(-422,-230) scale(1,1)"><g><path fill="none" stroke="none"/><text fill="#000000" font-family="Arial" font-size="13px" font-style="normal" font-weight="normal" stroke="none" text-decoration="none" x="1116.371337890625" y="408.5">+isSubActivityOf</text></g></g><g transform="translate(-422,-230) scale(1,1)"><g><path fill="none" stroke="none"/><text fill="#000000" font-family="Arial" font-size="13px" font-style="normal" font-weight="normal" stroke="none" text-decoration="none" x="1102.641357421875" y="394.5">1</text></g></g><g transform="translate(-422,-230) scale(1,1)"><path d="M 569 386 L 537 386 L 537 482 L 625 482 L 625 406" fill="none" stroke="#000000" stroke-miterlimit="10"/></g><g transform="translate(-422,-230) scale(1,1)"><g><path fill="none" stroke="none"/><text fill="#000000" font-family="Arial" font-size="13px" font-style="normal" font-weight="normal" stroke="none" text-decoration="none" x="445.575927734375" y="398.5">+hasSubSite</text></g></g><g transform="translate(-422,-230) scale(1,1)"><g><path fill="none" stroke="none"/><text fill="#000000" font-family="Arial" font-size="13px" font-style="normal" font-weight="normal" stroke="none" text-decoration="none" x="537.5" y="379.5">0..*</text></g></g><g transform="translate(-422,-230) scale(1,1)"><g><path fill="none" stroke="none"/><text fill="#000000" font-family="Arial" font-size="13px" font-style="normal" font-weight="normal" stroke="none" text-decoration="none" x="581.575927734375" y="454.5">+isSubSiteOf</text></g></g><g transform="translate(-422,-230) scale(1,1)"><g><path fill="none" stroke="none"/><text fill="#000000" font-family="Arial" font-size="13px" font-style="normal" font-weight="normal" stroke="none" text-decoration="none" x="627.5" y="433.5">0..*</text></g></g><g transform="translate(-422,-230) scale(1,1)"><path d="M 1464 929 L 1273 754 L 938 650" fill="none" stroke="#000000" stroke-miterlimit="10"/></g><g transform="translate(-422,-230) scale(1,1)"><path d="M 959.9075973066525 647.985755662897 L 938 650 L 954.9152964447703 664.066724785306" fill="#FFFFFF" stroke="none"/></g><g transform="translate(-422,-230) scale(1,1)"><path d="M 959.9075973066525 647.985755662897 L 938 650 L 954.9152964447703 664.066724785306 L 959.9075973066525 647.985755662897" fill="none" stroke="#000000" stroke-miterlimit="10"/></g><g transform="translate(-422,-230) scale(1,1)"><path d="M 1424 739 L 938 640" fill="none" stroke="#000000" stroke-miterlimit="10"/></g><g transform="translate(-422,-230) scale(1,1)"><path d="M 959.596810753794 635.8074154433323 L 938 640 L 956.235856306728 652.3066463652925" fill="#FFFFFF" stroke="none"/></g><g transform="translate(-422,-230) scale(1,1)"><path d="M 959.596810753794 635.8074154433323 L 938 640 L 956.235856306728 652.3066463652925 L 959.596810753794 635.8074154433323" fill="none" stroke="#000000" stroke-miterlimit="10"/></g><g transform="translate(-422,-230) scale(1,1)"><rect fill="#C0C0C0" height="162" opacity="0.2" stroke="none" width="170.50341796875" x="1039" y="447"/></g><g transform="translate(-422,-230) scale(1,1)"><rect fill="#ffffff" height="162" stroke="none" width="170.50341796875" x="1032" y="440"/></g><g transform="translate(-422,-230) scale(1,1)"><path d="M 1032 440 L 1202.50341796875 440 L 1202.50341796875 602 L 1032 602 L 1032 440 Z Z" fill="none" stroke="#000000" stroke-miterlimit="10"/></g><g transform="translate(-422,-230) scale(1,1)"><path d="M 1032 465 L 1202.50341796875 465" fill="none" stroke="#000000" stroke-miterlimit="10"/></g><g transform="translate(-422,-230) scale(1,1)"><path d="M 1032 503 L 1202.50341796875 503" fill="none" stroke="#000000" stroke-miterlimit="10"/></g><g transform="translate(-422,-230) scale(1,1)"><g><path fill="none" stroke="none"/><text fill="#000000" font-family="Arial" font-size="13px" font-style="normal" font-weight="bold" stroke="none" text-decoration="none" x="1093.044921875" y="459.5">Attribute</text></g></g><g transform="translate(-422,-230) scale(1,1)"><g><path fill="none" stroke="none"/><text fill="#000000" font-family="Arial" font-size="13px" font-style="normal" font-weight="normal" stroke="none" text-decoration="none" x="1037" y="482.5">+attribute: AttributeTerm</text></g></g><g transform="translate(-422,-230) scale(1,1)"><g><path fill="none" stroke="none"/><text fill="#000000" font-family="Arial" font-size="13px" font-style="normal" font-weight="normal" stroke="none" text-decoration="none" x="1037" y="497.5">+hasResult: Result</text></g></g><g transform="translate(-422,-230) scale(1,1)"><path d="M 1031 516 L 976 512 L 910 569" fill="none" stroke="#000000" stroke-miterlimit="10"/></g><g transform="translate(-422,-230) scale(1,1)"><g><path fill="none" stroke="none"/><text fill="#000000" font-family="Arial" font-size="13px" font-style="normal" font-weight="normal" stroke="none" text-decoration="none" x="964.5" y="535.5">+hasAttribute</text></g></g><g transform="translate(-422,-230) scale(1,1)"><g><path fill="none" stroke="none"/><text fill="#000000" font-family="Arial" font-size="13px" font-style="normal" font-weight="normal" stroke="none" text-decoration="none" x="1000.5" y="507.5">0..*</text></g></g><g transform="translate(-422,-230) scale(1,1)"><g><path fill="none" stroke="none"/><text fill="#000000" font-family="Arial" font-size="13px" font-style="normal" font-weight="normal" stroke="none" text-decoration="none" x="874.035888671875" y="569.5">+hasFeatureOfInterest</text></g></g><g transform="translate(-422,-230) scale(1,1)"><g><path fill="none" stroke="none"/><text fill="#000000" font-family="Arial" font-size="13px" font-style="normal" font-weight="normal" stroke="none" text-decoration="none" x="914.5" y="551.5">1</text></g></g><g transform="translate(-422,-230) scale(1,1)"><path d="M 1204 482 L 1280 448" fill="none" stroke="#000000" stroke-miterlimit="10"/></g><g transform="translate(-422,-230) scale(1,1)"><g><path fill="none" stroke="none"/><text fill="#000000" font-family="Arial" font-size="13px" font-style="normal" font-weight="normal" stroke="none" text-decoration="none" x="1182.5" y="463.5">+hasAttribute</text></g></g><g transform="translate(-422,-230) scale(1,1)"><g><path fill="none" stroke="none"/><text fill="#000000" font-family="Arial" font-size="13px" font-style="normal" font-weight="normal" stroke="none" text-decoration="none" x="1218.58544921875" y="490.5">0..*</text></g></g><g transform="translate(-422,-230) scale(1,1)"><g><path fill="none" stroke="none"/><text fill="#000000" font-family="Arial" font-size="13px" font-style="normal" font-weight="normal" stroke="none" text-decoration="none" x="1203.5" y="450.5">+onObservation</text></g></g><g transform="translate(-422,-230) scale(1,1)"><g><path fill="none" stroke="none"/><text fill="#000000" font-family="Arial" font-size="13px" font-style="normal" font-weight="normal" stroke="none" text-decoration="none" x="1232.5" y="455.5">0..1</text></g></g></g></svg>