<?xml version="1.0" encoding="UTF-8" standalone="no"?><svg xmlns="http://www.w3.org/2000/svg" xmlns:xlink="http://www.w3.org/1999/xlink" height="834" version="1.1" width="2106.62158203125"><defs/><g><g transform="translate(-422,-150) scale(1,1)"><rect fill="#C0C0C0" height="76" opacity="0.2" stroke="none" width="104" x="576" y="337"/></g><g transform="translate(-422,-150) scale(1,1)"><rect fill="#ffffff" height="76" stroke="none" width="104" x="569" y="330"/></g><g transform="translate(-422,-150) scale(1,1)"><path d="M 569 330 L 673 330 L 673 406 L 569 406 L 569 330 Z Z" fill="none" stroke="#000000" stroke-miterlimit="10"/></g><g transform="translate(-422,-150) scale(1,1)"><path d="M 569 355 L 673 355" fill="none" stroke="#000000" stroke-miterlimit="10"/></g><g transform="translate(-422,-150) scale(1,1)"><g><path fill="none" stroke="none"/><text fill="#000000" font-family="Arial" font-size="13px" font-style="normal" font-weight="bold" stroke="none" text-decoration="none" x="609.799560546875" y="349.5">Site</text></g></g><g transform="translate(-422,-150) scale(1,1)"><rect fill="#C0C0C0" height="102" opacity="0.2" stroke="none" width="115.57080078125" x="952" y="305"/></g><g transform="translate(-422,-150) scale(1,1)"><rect fill="#ffffff" height="102" stroke="none" width="115.57080078125" x="945" y="298"/></g><g transform="translate(-422,-150) scale(1,1)"><path d="M 945 298 L 1060.57080078125 298 L 1060.57080078125 400 L 945 400 L 945 298 Z Z" fill="none" stroke="#000000" stroke-miterlimit="10"/></g><g transform="translate(-422,-150) scale(1,1)"><path d="M 945 323 L 1060.57080078125 323" fill="none" stroke="#000000" stroke-miterlimit="10"/></g><g transform="translate(-422,-150) scale(1,1)"><path d="M 945 361 L 1060.57080078125 361" fill="none" stroke="#000000" stroke-miterlimit="10"/></g><g transform="translate(-422,-150) scale(1,1)"><g><path fill="none" stroke="none"/><text fill="#000000" font-family="Arial" font-size="13px" font-style="normal" font-weight="bold" stroke="none" text-decoration="none" x="979.4228515625" y="317.5">SiteVisit</text></g></g><g transform="translate(-422,-150) scale(1,1)"><g><path fill="none" stroke="none"/><text fill="#000000" font-family="Arial" font-size="13px" font-style="normal" font-weight="normal" stroke="none" text-decoration="none" x="950" y="340.5">+identifier</text></g></g><g transform="translate(-422,-150) scale(1,1)"><g><path fill="none" stroke="none"/><text fill="#000000" font-family="Arial" font-size="13px" font-style="normal" font-weight="normal" stroke="none" text-decoration="none" x="950" y="355.5">+isPartOf: Dataset</text></g></g><g transform="translate(-422,-150) scale(1,1)"><path d="M 674 351 Q 809 306 944 336" fill="none" stroke="#000000" stroke-miterlimit="10"/></g><g transform="translate(-422,-150) scale(1,1)"><g><path fill="none" stroke="none"/><text fill="#000000" font-family="Arial" font-size="13px" font-style="normal" font-weight="normal" stroke="none" text-decoration="none" x="712.50634765625" y="323.5">+site</text></g></g><g transform="translate(-422,-150) scale(1,1)"><g><path fill="none" stroke="none"/><text fill="#000000" font-family="Arial" font-size="13px" font-style="normal" font-weight="normal" stroke="none" text-decoration="none" x="683.5" y="335.5">1</text></g></g><g transform="translate(-422,-150) scale(1,1)"><g><path fill="none" stroke="none"/><text fill="#000000" font-family="Arial" font-size="13px" font-style="normal" font-weight="normal" stroke="none" text-decoration="none" x="871.50634765625" y="317.5">+siteVisit</text></g></g><g transform="translate(-422,-150) scale(1,1)"><g><path fill="none" stroke="none"/><text fill="#000000" font-family="Arial" font-size="13px" font-style="normal" font-weight="normal" stroke="none" text-decoration="none" x="910.5" y="349.5">0..*</text></g></g><g transform="translate(-422,-150) scale(1,1)"><rect fill="#C0C0C0" height="104" opacity="0.2" stroke="none" width="192.88525390625" x="768" y="577"/></g><g transform="translate(-422,-150) scale(1,1)"><rect fill="#ffffff" height="104" stroke="none" width="192.88525390625" x="761" y="570"/></g><g transform="translate(-422,-150) scale(1,1)"><path d="M 761 570 L 953.88525390625 570 L 953.88525390625 674 L 761 674 L 761 570 Z Z" fill="none" stroke="#000000" stroke-miterlimit="10"/></g><g transform="translate(-422,-150) scale(1,1)"><path d="M 761 595 L 953.88525390625 595" fill="none" stroke="#000000" stroke-miterlimit="10"/></g><g transform="translate(-422,-150) scale(1,1)"><path d="M 761 663 L 953.88525390625 663" fill="none" stroke="#000000" stroke-miterlimit="10"/></g><g transform="translate(-422,-150) scale(1,1)"><g><path fill="none" stroke="none"/><text fill="#000000" font-family="Arial" font-size="13px" font-style="normal" font-weight="bold" stroke="none" text-decoration="none" x="835.403564453125" y="589.5">Sample</text></g></g><g transform="translate(-422,-150) scale(1,1)"><g><path fill="none" stroke="none"/><text fill="#000000" font-family="Arial" font-size="13px" font-style="normal" font-weight="normal" stroke="none" text-decoration="none" x="766" y="612.5">+identifier</text></g></g><g transform="translate(-422,-150) scale(1,1)"><g><path fill="none" stroke="none"/><text fill="#000000" font-family="Arial" font-size="13px" font-style="normal" font-weight="normal" stroke="none" text-decoration="none" x="766" y="627.5">+hasSample: Sample</text></g></g><g transform="translate(-422,-150) scale(1,1)"><g><path fill="none" stroke="none"/><text fill="#000000" font-family="Arial" font-size="13px" font-style="normal" font-weight="normal" stroke="none" text-decoration="none" x="766" y="642.5">+isSampleOf: FeatureOfInterest</text></g></g><g transform="translate(-422,-150) scale(1,1)"><g><path fill="none" stroke="none"/><text fill="#000000" font-family="Arial" font-size="13px" font-style="normal" font-weight="normal" stroke="none" text-decoration="none" x="766" y="657.5">+isPartOf: Dataset</text></g></g><g transform="translate(-422,-150) scale(1,1)"><rect fill="#C0C0C0" height="222" opacity="0.2" stroke="none" width="170.50341796875" x="1288" y="305"/></g><g transform="translate(-422,-150) scale(1,1)"><rect fill="#ffffff" height="222" stroke="none" width="170.50341796875" x="1281" y="298"/></g><g transform="translate(-422,-150) scale(1,1)"><path d="M 1281 298 L 1451.50341796875 298 L 1451.50341796875 520 L 1281 520 L 1281 298 Z Z" fill="none" stroke="#000000" stroke-miterlimit="10"/></g><g transform="translate(-422,-150) scale(1,1)"><path d="M 1281 323 L 1451.50341796875 323" fill="none" stroke="#000000" stroke-miterlimit="10"/></g><g transform="translate(-422,-150) scale(1,1)"><path d="M 1281 421 L 1451.50341796875 421" fill="none" stroke="#000000" stroke-miterlimit="10"/></g><g transform="translate(-422,-150) scale(1,1)"><g><path fill="none" stroke="none"/><text fill="#000000" font-family="Arial" font-size="13px" font-style="normal" font-weight="bold" stroke="none" text-decoration="none" x="1331.206298828125" y="317.5">Observation</text></g></g><g transform="translate(-422,-150) scale(1,1)"><g><path fill="none" stroke="none"/><text fill="#000000" font-family="Arial" font-size="13px" font-style="normal" font-weight="normal" stroke="none" text-decoration="none" x="1286" y="340.5">+site: Site</text></g></g><g transform="translate(-422,-150) scale(1,1)"><g><path fill="none" stroke="none"/><text fill="#000000" font-family="Arial" font-size="13px" font-style="normal" font-weight="normal" stroke="none" text-decoration="none" x="1286" y="355.5">+siteVisit: SiteVisit</text></g></g><g transform="translate(-422,-150) scale(1,1)"><g><path fill="none" stroke="none"/><text fill="#000000" font-family="Arial" font-size="13px" font-style="normal" font-weight="normal" stroke="none" text-decoration="none" x="1286" y="370.5">+phenomenonTime</text></g></g><g transform="translate(-422,-150) scale(1,1)"><g><path fill="none" stroke="none"/><text fill="#000000" font-family="Arial" font-size="13px" font-style="normal" font-weight="normal" stroke="none" text-decoration="none" x="1286" y="385.5">+resultTime</text></g></g><g transform="translate(-422,-150) scale(1,1)"><g><path fill="none" stroke="none"/><text fill="#000000" font-family="Arial" font-size="13px" font-style="normal" font-weight="normal" stroke="none" text-decoration="none" x="1286" y="400.5">+hasResult: Result</text></g></g><g transform="translate(-422,-150) scale(1,1)"><g><path fill="none" stroke="none"/><text fill="#000000" font-family="Arial" font-size="13px" font-style="normal" font-weight="normal" stroke="none" text-decoration="none" x="1286" y="415.5">+isPartOf: Dataset</text></g></g><g transform="translate(-422,-150) scale(1,1)"><rect fill="#C0C0C0" height="102" opacity="0.2" stroke="none" width="217.9521484375" x="1527" y="247"/></g><g transform="translate(-422,-150) scale(1,1)"><rect fill="#ffffff" height="102" stroke="none" width="217.9521484375" x="1520" y="240"/></g><g transform="translate(-422,-150) scale(1,1)"><path d="M 1520 240 L 1737.9521484375 240 L 1737.9521484375 342 L 1520 342 L 1520 240 Z Z" fill="none" stroke="#000000" stroke-miterlimit="10"/></g><g transform="translate(-422,-150) scale(1,1)"><path d="M 1520 265 L 1737.9521484375 265" fill="none" stroke="#000000" stroke-miterlimit="10"/></g><g transform="translate(-422,-150) scale(1,1)"><path d="M 1520 333 L 1737.9521484375 333" fill="none" stroke="#000000" stroke-miterlimit="10"/></g><g transform="translate(-422,-150) scale(1,1)"><g><path fill="none" stroke="none"/><text fill="#000000" font-family="Arial" font-size="13px" font-style="normal" font-weight="bold" stroke="none" text-decoration="none" x="1571.171142578125" y="259.5">ObservableProperty</text></g></g><g transform="translate(-422,-150) scale(1,1)"><g><path fill="none" stroke="none"/><text fill="#000000" font-family="Arial" font-size="13px" font-style="normal" font-weight="normal" stroke="none" text-decoration="none" x="1525" y="282.5">+vocabulary</text></g></g><g transform="translate(-422,-150) scale(1,1)"><g><path fill="none" stroke="none"/><text fill="#000000" font-family="Arial" font-size="13px" font-style="normal" font-weight="normal" stroke="none" text-decoration="none" x="1525" y="297.5">+globalVocabulary</text></g></g><g transform="translate(-422,-150) scale(1,1)"><g><path fill="none" stroke="none"/><text fill="#000000" font-family="Arial" font-size="13px" font-style="normal" font-weight="normal" stroke="none" text-decoration="none" x="1525" y="312.5">+value: ParameterTerm</text></g></g><g transform="translate(-422,-150) scale(1,1)"><g><path fill="none" stroke="none"/><text fill="#000000" font-family="Arial" font-size="13px" font-style="normal" font-weight="normal" stroke="none" text-decoration="none" x="1525" y="327.5">+globalValue: GlobalParameterTerm</text></g></g><g transform="translate(-422,-150) scale(1,1)"><rect fill="#C0C0C0" height="87" opacity="0.2" stroke="none" width="246.37060546875" x="1567" y="399"/></g><g transform="translate(-422,-150) scale(1,1)"><rect fill="#ffffff" height="87" stroke="none" width="246.37060546875" x="1560" y="392"/></g><g transform="translate(-422,-150) scale(1,1)"><path d="M 1560 392 L 1806.37060546875 392 L 1806.37060546875 479 L 1560 479 L 1560 392 Z Z" fill="none" stroke="#000000" stroke-miterlimit="10"/></g><g transform="translate(-422,-150) scale(1,1)"><path d="M 1560 417 L 1806.37060546875 417" fill="none" stroke="#000000" stroke-miterlimit="10"/></g><g transform="translate(-422,-150) scale(1,1)"><path d="M 1560 470 L 1806.37060546875 470" fill="none" stroke="#000000" stroke-miterlimit="10"/></g><g transform="translate(-422,-150) scale(1,1)"><g><path fill="none" stroke="none"/><text fill="#000000" font-family="Arial" font-size="13px" font-style="normal" font-weight="bold" stroke="none" text-decoration="none" x="1653.19580078125" y="411.5">Procedure</text></g></g><g transform="translate(-422,-150) scale(1,1)"><g><path fill="none" stroke="none"/><text fill="#000000" font-family="Arial" font-size="13px" font-style="normal" font-weight="normal" stroke="none" text-decoration="none" x="1565" y="434.5">+vocabulary</text></g></g><g transform="translate(-422,-150) scale(1,1)"><g><path fill="none" stroke="none"/><text fill="#000000" font-family="Arial" font-size="13px" font-style="normal" font-weight="normal" stroke="none" text-decoration="none" x="1565" y="449.5">+observationType: ObservationTypeTerm</text></g></g><g transform="translate(-422,-150) scale(1,1)"><g><path fill="none" stroke="none"/><text fill="#000000" font-family="Arial" font-size="13px" font-style="normal" font-weight="normal" stroke="none" text-decoration="none" x="1565" y="464.5">+instrumentType: InstrumentTypeTerm</text></g></g><g transform="translate(-422,-150) scale(1,1)"><rect fill="#C0C0C0" height="48" opacity="0.2" stroke="none" width="77.6181640625" x="1840" y="249"/></g><g transform="translate(-422,-150) scale(1,1)"><rect fill="#ffffff" height="48" stroke="none" width="77.6181640625" x="1833" y="242"/></g><g transform="translate(-422,-150) scale(1,1)"><path d="M 1833 242 L 1910.6181640625 242 L 1910.6181640625 290 L 1833 290 L 1833 242 Z Z" fill="none" stroke="#000000" stroke-miterlimit="10"/></g><g transform="translate(-422,-150) scale(1,1)"><path d="M 1833 267 L 1910.6181640625 267" fill="none" stroke="#000000" stroke-miterlimit="10"/></g><g transform="translate(-422,-150) scale(1,1)"><path d="M 1833 277 L 1910.6181640625 277" fill="none" stroke="#000000" stroke-miterlimit="10"/></g><g transform="translate(-422,-150) scale(1,1)"><g><path fill="none" stroke="none"/><text fill="#000000" font-family="Arial" font-size="13px" font-style="italic" font-weight="bold" stroke="none" text-decoration="none" x="1855.562255859375" y="261.5">Result</text></g></g><g transform="translate(-422,-150) scale(1,1)"><path d="M 1343 297 L 1336 264 L 1519 281" fill="none" stroke="#000000" stroke-miterlimit="10"/></g><g transform="translate(-422,-150) scale(1,1)"><path d="M 1508.4915221436347 284.2514447776762 L 1519 281 L 1509.270265396867 275.8685026987638" fill="none" stroke="#000000" stroke-miterlimit="10"/></g><g transform="translate(-422,-150) scale(1,1)"><g><path fill="none" stroke="none"/><text fill="#000000" font-family="Arial" font-size="13px" font-style="normal" font-weight="normal" stroke="none" text-decoration="none" x="1340.5" y="279.5">0..*</text></g></g><g transform="translate(-422,-150) scale(1,1)"><g><path fill="none" stroke="none"/><text fill="#000000" font-family="Arial" font-size="13px" font-style="normal" font-weight="normal" stroke="none" text-decoration="none" x="1393.035888671875" y="265.5">+observedProperty</text></g></g><g transform="translate(-422,-150) scale(1,1)"><g><path fill="none" stroke="none"/><text fill="#000000" font-family="Arial" font-size="13px" font-style="normal" font-weight="normal" stroke="none" text-decoration="none" x="1492.641357421875" y="297.5">1</text></g></g><g transform="translate(-422,-150) scale(1,1)"><path d="M 1453 416 L 1559 425" fill="none" stroke="#000000" stroke-miterlimit="10"/></g><g transform="translate(-422,-150) scale(1,1)"><path d="M 1548.5176289619112 428.33465101919774 L 1559 425 L 1549.2298900074886 419.9457987046192" fill="none" stroke="#000000" stroke-miterlimit="10"/></g><g transform="translate(-422,-150) scale(1,1)"><g><path fill="none" stroke="none"/><text fill="#000000" font-family="Arial" font-size="13px" font-style="normal" font-weight="normal" stroke="none" text-decoration="none" x="1326.035888671875" y="425.5">+usedProcedure</text></g></g><g transform="translate(-422,-150) scale(1,1)"><g><path fill="none" stroke="none"/><text fill="#000000" font-family="Arial" font-size="13px" font-style="normal" font-weight="normal" stroke="none" text-decoration="none" x="1532.5" y="441.5">1</text></g></g><g transform="translate(-422,-150) scale(1,1)"><rect fill="#C0C0C0" height="44" opacity="0.2" stroke="none" width="96.39453125" x="1448" y="609"/></g><g transform="translate(-422,-150) scale(1,1)"><rect fill="#ffffff" height="44" stroke="none" width="96.39453125" x="1441" y="602"/></g><g transform="translate(-422,-150) scale(1,1)"><path d="M 1441 602 L 1537.39453125 602 L 1537.39453125 646 L 1441 646 L 1441 602 Z Z" fill="none" stroke="#000000" stroke-miterlimit="10"/></g><g transform="translate(-422,-150) scale(1,1)"><path d="M 1441 627 L 1537.39453125 627" fill="none" stroke="#000000" stroke-miterlimit="10"/></g><g transform="translate(-422,-150) scale(1,1)"><path d="M 1441 637 L 1537.39453125 637" fill="none" stroke="#000000" stroke-miterlimit="10"/></g><g transform="translate(-422,-150) scale(1,1)"><g><path fill="none" stroke="none"/><text fill="#000000" font-family="Arial" font-size="13px" font-style="normal" font-weight="bold" stroke="none" text-decoration="none" x="1462.09912109375" y="621.5">Sampling</text></g></g><g transform="translate(-422,-150) scale(1,1)"><rect fill="#C0C0C0" height="44" opacity="0.2" stroke="none" width="128.88818359375" x="1432" y="737"/></g><g transform="translate(-422,-150) scale(1,1)"><rect fill="#ffffff" height="44" stroke="none" width="128.88818359375" x="1425" y="730"/></g><g transform="translate(-422,-150) scale(1,1)"><path d="M 1425 730 L 1553.88818359375 730 L 1553.88818359375 774 L 1425 774 L 1425 730 Z Z" fill="none" stroke="#000000" stroke-miterlimit="10"/></g><g transform="translate(-422,-150) scale(1,1)"><path d="M 1425 755 L 1553.88818359375 755" fill="none" stroke="#000000" stroke-miterlimit="10"/></g><g transform="translate(-422,-150) scale(1,1)"><path d="M 1425 765 L 1553.88818359375 765" fill="none" stroke="#000000" stroke-miterlimit="10"/></g><g transform="translate(-422,-150) scale(1,1)"><g><path fill="none" stroke="none"/><text fill="#000000" font-family="Arial" font-size="13px" font-style="normal" font-weight="bold" stroke="none" text-decoration="none" x="1447.530517578125" y="749.5">SamplingPoint</text></g></g><g transform="translate(-422,-150) scale(1,1)"><rect fill="#C0C0C0" height="44" opacity="0.2" stroke="none" width="96" x="1448" y="937"/></g><g transform="translate(-422,-150) scale(1,1)"><rect fill="#ffffff" height="44" stroke="none" width="96" x="1441" y="930"/></g><g transform="translate(-422,-150) scale(1,1)"><path d="M 1441 930 L 1537 930 L 1537 974 L 1441 974 L 1441 930 Z Z" fill="none" stroke="#000000" stroke-miterlimit="10"/></g><g transform="translate(-422,-150) scale(1,1)"><path d="M 1441 955 L 1537 955" fill="none" stroke="#000000" stroke-miterlimit="10"/></g><g transform="translate(-422,-150) scale(1,1)"><path d="M 1441 965 L 1537 965" fill="none" stroke="#000000" stroke-miterlimit="10"/></g><g transform="translate(-422,-150) scale(1,1)"><g><path fill="none" stroke="none"/><text fill="#000000" font-family="Arial" font-size="13px" font-style="normal" font-weight="bold" stroke="none" text-decoration="none" x="1463.955322265625" y="949.5">Transect</text></g></g><g transform="translate(-422,-150) scale(1,1)"><path d="M 1062 359 L 1280 395" fill="none" stroke="#000000" stroke-miterlimit="10"/></g><g transform="translate(-422,-150) scale(1,1)"><g><path fill="none" stroke="none"/><text fill="#000000" font-family="Arial" font-size="13px" font-style="normal" font-weight="normal" stroke="none" text-decoration="none" x="1088.371337890625" y="350.5">+isSubActivityOf</text></g></g><g transform="translate(-422,-150) scale(1,1)"><g><path fill="none" stroke="none"/><text fill="#000000" font-family="Arial" font-size="13px" font-style="normal" font-weight="normal" stroke="none" text-decoration="none" x="1069.5" y="358.5">1</text></g></g><g transform="translate(-422,-150) scale(1,1)"><g><path fill="none" stroke="none"/><text fill="#000000" font-family="Arial" font-size="13px" font-style="normal" font-weight="normal" stroke="none" text-decoration="none" x="1166.871337890625" y="379.5">+hasSubActivity</text></g></g><g transform="translate(-422,-150) scale(1,1)"><g><path fill="none" stroke="none"/><text fill="#000000" font-family="Arial" font-size="13px" font-style="normal" font-weight="normal" stroke="none" text-decoration="none" x="1246.5" y="409.5">0..*</text></g></g><g transform="translate(-422,-150) scale(1,1)"><path d="M 955 623 L 1129 626 L 1440 624" fill="none" stroke="#000000" stroke-miterlimit="10"/></g><g transform="translate(-422,-150) scale(1,1)"><g><path fill="none" stroke="none"/><text fill="#000000" font-family="Arial" font-size="13px" font-style="normal" font-weight="normal" stroke="none" text-decoration="none" x="1048.035888671875" y="622.5">+hasResult</text></g></g><g transform="translate(-422,-150) scale(1,1)"><g><path fill="none" stroke="none"/><text fill="#000000" font-family="Arial" font-size="13px" font-style="normal" font-weight="normal" stroke="none" text-decoration="none" x="1009.5" y="622.5">1..*</text></g></g><g transform="translate(-422,-150) scale(1,1)"><g><path fill="none" stroke="none"/><text fill="#000000" font-family="Arial" font-size="13px" font-style="normal" font-weight="normal" stroke="none" text-decoration="none" x="1351.035888671875" y="621.5">+isResultOf</text></g></g><g transform="translate(-422,-150) scale(1,1)"><g><path fill="none" stroke="none"/><text fill="#000000" font-family="Arial" font-size="13px" font-style="normal" font-weight="normal" stroke="none" text-decoration="none" x="1414.5" y="642.5">1</text></g></g><g transform="translate(-422,-150) scale(1,1)"><path d="M 1489 647 L 1489 729" fill="none" stroke="#000000" stroke-miterlimit="10"/></g><g transform="translate(-422,-150) scale(1,1)"><path d="M 1484.7904822439841 718.8373251423759 L 1489 729 L 1493.2095177560159 718.8373251423759" fill="none" stroke="#000000" stroke-miterlimit="10"/></g><g transform="translate(-422,-150) scale(1,1)"><g><path fill="none" stroke="none"/><text fill="#000000" font-family="Arial" font-size="13px" font-style="normal" font-weight="normal" stroke="none" text-decoration="none" x="1507.50634765625" y="709.5">+hasSamplingPoint</text></g></g><g transform="translate(-422,-150) scale(1,1)"><g><path fill="none" stroke="none"/><text fill="#000000" font-family="Arial" font-size="13px" font-style="normal" font-weight="normal" stroke="none" text-decoration="none" x="1465.5" y="713.5">0..1</text></g></g><g transform="translate(-422,-150) scale(1,1)"><path d="M 1489 775 L 1489 929" fill="none" stroke="#000000" stroke-miterlimit="10"/></g><g transform="translate(-422,-150) scale(1,1)"><g><path fill="none" stroke="none"/><text fill="#000000" font-family="Arial" font-size="13px" font-style="normal" font-weight="normal" stroke="none" text-decoration="none" x="1507.50634765625" y="798.5">+hasSamplingPoint</text></g></g><g transform="translate(-422,-150) scale(1,1)"><g><path fill="none" stroke="none"/><text fill="#000000" font-family="Arial" font-size="13px" font-style="normal" font-weight="normal" stroke="none" text-decoration="none" x="1466.5" y="802.5">0..*</text></g></g><g transform="translate(-422,-150) scale(1,1)"><g><path fill="none" stroke="none"/><text fill="#000000" font-family="Arial" font-size="13px" font-style="normal" font-weight="normal" stroke="none" text-decoration="none" x="1503.50634765625" y="898.5">+isSamplingPointOf</text></g></g><g transform="translate(-422,-150) scale(1,1)"><g><path fill="none" stroke="none"/><text fill="#000000" font-family="Arial" font-size="13px" font-style="normal" font-weight="normal" stroke="none" text-decoration="none" x="1465.5" y="913.5">0..1</text></g></g><g transform="translate(-422,-150) scale(1,1)"><rect fill="#C0C0C0" height="44" opacity="0.2" stroke="none" width="89.18994140625" x="1736" y="609"/></g><g transform="translate(-422,-150) scale(1,1)"><rect fill="#ffffff" height="44" stroke="none" width="89.18994140625" x="1729" y="602"/></g><g transform="translate(-422,-150) scale(1,1)"><path d="M 1729 602 L 1818.18994140625 602 L 1818.18994140625 646 L 1729 646 L 1729 602 Z Z" fill="none" stroke="#000000" stroke-miterlimit="10"/></g><g transform="translate(-422,-150) scale(1,1)"><path d="M 1729 627 L 1818.18994140625 627" fill="none" stroke="#000000" stroke-miterlimit="10"/></g><g transform="translate(-422,-150) scale(1,1)"><path d="M 1729 637 L 1818.18994140625 637" fill="none" stroke="#000000" stroke-miterlimit="10"/></g><g transform="translate(-422,-150) scale(1,1)"><g><path fill="none" stroke="none"/><text fill="#000000" font-family="Arial" font-size="13px" font-style="normal" font-weight="bold" stroke="none" text-decoration="none" x="1749.391357421875" y="621.5">Sampler</text></g></g><g transform="translate(-422,-150) scale(1,1)"><path d="M 1728 624 L 1538 624" fill="none" stroke="#000000" stroke-miterlimit="10"/></g><g transform="translate(-422,-150) scale(1,1)"><path d="M 1548.162674857624 619.790482243984 L 1538 624 L 1548.162674857624 628.209517756016" fill="none" stroke="#000000" stroke-miterlimit="10"/></g><g transform="translate(-422,-150) scale(1,1)"><g><path fill="none" stroke="none"/><text fill="#000000" font-family="Arial" font-size="13px" font-style="normal" font-weight="normal" stroke="none" text-decoration="none" x="1585.035888671875" y="621.5">+madeSampling</text></g></g><g transform="translate(-422,-150) scale(1,1)"><g><path fill="none" stroke="none"/><text fill="#000000" font-family="Arial" font-size="13px" font-style="normal" font-weight="normal" stroke="none" text-decoration="none" x="1552.5" y="645.5">1..*</text></g></g><g transform="translate(-422,-150) scale(1,1)"><rect fill="#C0C0C0" height="102" opacity="0.2" stroke="none" width="168" x="759" y="351"/></g><g transform="translate(-422,-150) scale(1,1)"><rect fill="#ffffff" height="102" stroke="none" width="168" x="752" y="344"/></g><g transform="translate(-422,-150) scale(1,1)"><path d="M 752 344 L 920 344 L 920 446 L 752 446 L 752 344 Z Z" fill="none" stroke="#000000" stroke-miterlimit="10"/></g><g transform="translate(-422,-150) scale(1,1)"><path d="M 752 369 L 920 369" fill="none" stroke="#000000" stroke-miterlimit="10"/></g><g transform="translate(-422,-150) scale(1,1)"><path d="M 752 437 L 920 437" fill="none" stroke="#000000" stroke-miterlimit="10"/></g><g transform="translate(-422,-150) scale(1,1)"><g><path fill="none" stroke="none"/><text fill="#000000" font-family="Arial" font-size="13px" font-style="normal" font-weight="bold" stroke="none" text-decoration="none" x="785.06005859375" y="363.5">FeatureOfInterest</text></g></g><g transform="translate(-422,-150) scale(1,1)"><g><path fill="none" stroke="none"/><text fill="#000000" font-family="Arial" font-size="13px" font-style="normal" font-weight="normal" stroke="none" text-decoration="none" x="757" y="386.5">+featureType: FeatureTerm</text></g></g><g transform="translate(-422,-150) scale(1,1)"><g><path fill="none" stroke="none"/><text fill="#000000" font-family="Arial" font-size="13px" font-style="normal" font-weight="normal" stroke="none" text-decoration="none" x="757" y="401.5">+domain: DomainTerm</text></g></g><g transform="translate(-422,-150) scale(1,1)"><g><path fill="none" stroke="none"/><text fill="#000000" font-family="Arial" font-size="13px" font-style="normal" font-weight="normal" stroke="none" text-decoration="none" x="757" y="416.5">+isPartOf: Dataset</text></g></g><g transform="translate(-422,-150) scale(1,1)"><g><path fill="none" stroke="none"/><text fill="#000000" font-family="Arial" font-size="13px" font-style="normal" font-weight="normal" stroke="none" text-decoration="none" x="757" y="431.5">+hasSample: Sample</text></g></g><g transform="translate(-422,-150) scale(1,1)"><path d="M 674 375 L 751 384" fill="none" stroke="#000000" stroke-miterlimit="10"/></g><g transform="translate(-422,-150) scale(1,1)"><path d="M 729.8346933714304 390.0024824296809 L 751 384 L 731.7894721270653 373.27826418702637" fill="#FFFFFF" stroke="none"/></g><g transform="translate(-422,-150) scale(1,1)"><path d="M 729.8346933714304 390.0024824296809 L 751 384 L 731.7894721270653 373.27826418702637 L 729.8346933714304 390.0024824296809" fill="none" stroke="#000000" stroke-miterlimit="10"/></g><g transform="translate(-422,-150) scale(1,1)"><path d="M 1280 498 L 1249 530 L 955 599" fill="none" stroke="#000000" stroke-miterlimit="10"/></g><g transform="translate(-422,-150) scale(1,1)"><path d="M 963.9320304697753 592.5798106190701 L 955 599 L 965.8556587627004 600.7761398671856" fill="none" stroke="#000000" stroke-miterlimit="10"/></g><g transform="translate(-422,-150) scale(1,1)"><g><path fill="none" stroke="none"/><text fill="#000000" font-family="Arial" font-size="13px" font-style="normal" font-weight="normal" stroke="none" text-decoration="none" x="1166.035888671875" y="527.5">+hasFeatureOfInterest</text></g></g><g transform="translate(-422,-150) scale(1,1)"><g><path fill="none" stroke="none"/><text fill="#000000" font-family="Arial" font-size="13px" font-style="normal" font-weight="normal" stroke="none" text-decoration="none" x="969.5" y="587.5">1</text></g></g><g transform="translate(-422,-150) scale(1,1)"><path d="M 1513 601 L 1637 480" fill="none" stroke="#000000" stroke-miterlimit="10"/></g><g transform="translate(-422,-150) scale(1,1)"><path d="M 1632.666366202348 490.11037180858585 L 1637 480 L 1626.7865456883326 484.08477062066936" fill="none" stroke="#000000" stroke-miterlimit="10"/></g><g transform="translate(-422,-150) scale(1,1)"><g><path fill="none" stroke="none"/><text fill="#000000" font-family="Arial" font-size="13px" font-style="normal" font-weight="normal" stroke="none" text-decoration="none" x="1516.035888671875" y="535.5">+usedProcedure</text></g></g><g transform="translate(-422,-150) scale(1,1)"><g><path fill="none" stroke="none"/><text fill="#000000" font-family="Arial" font-size="13px" font-style="normal" font-weight="normal" stroke="none" text-decoration="none" x="1626.5" y="510.5">1</text></g></g><g transform="translate(-422,-150) scale(1,1)"><path d="M 1466 601 L 1313 450 L 1062 368" fill="none" stroke="#000000" stroke-miterlimit="10"/></g><g transform="translate(-422,-150) scale(1,1)"><g><path fill="none" stroke="none"/><text fill="#000000" font-family="Arial" font-size="13px" font-style="normal" font-weight="normal" stroke="none" text-decoration="none" x="1388.871337890625" y="583.5">+hasSubActivity</text></g></g><g transform="translate(-422,-150) scale(1,1)"><g><path fill="none" stroke="none"/><text fill="#000000" font-family="Arial" font-size="13px" font-style="normal" font-weight="normal" stroke="none" text-decoration="none" x="1452.5" y="566.5">0..*</text></g></g><g transform="translate(-422,-150) scale(1,1)"><g><path fill="none" stroke="none"/><text fill="#000000" font-family="Arial" font-size="13px" font-style="normal" font-weight="normal" stroke="none" text-decoration="none" x="1072.371337890625" y="397.5">+isSubActivityOf</text></g></g><g transform="translate(-422,-150) scale(1,1)"><g><path fill="none" stroke="none"/><text fill="#000000" font-family="Arial" font-size="13px" font-style="normal" font-weight="normal" stroke="none" text-decoration="none" x="1058.641357421875" y="385.5">1</text></g></g><g transform="translate(-422,-150) scale(1,1)"><rect fill="#C0C0C0" height="44" opacity="0.2" stroke="none" width="122.41357421875" x="567" y="167"/></g><g transform="translate(-422,-150) scale(1,1)"><rect fill="#ffffff" height="44" stroke="none" width="122.41357421875" x="560" y="160"/></g><g transform="translate(-422,-150) scale(1,1)"><path d="M 560 160 L 682.41357421875 160 L 682.41357421875 204 L 560 204 L 560 160 Z Z" fill="none" stroke="#000000" stroke-miterlimit="10"/></g><g transform="translate(-422,-150) scale(1,1)"><path d="M 560 185 L 682.41357421875 185" fill="none" stroke="#000000" stroke-miterlimit="10"/></g><g transform="translate(-422,-150) scale(1,1)"><path d="M 560 195 L 682.41357421875 195" fill="none" stroke="#000000" stroke-miterlimit="10"/></g><g transform="translate(-422,-150) scale(1,1)"><g><path fill="none" stroke="none"/><text fill="#000000" font-family="Arial" font-size="13px" font-style="normal" font-weight="bold" stroke="none" text-decoration="none" x="578.931396484375" y="179.5">SpatialFeature</text></g></g><g transform="translate(-422,-150) scale(1,1)"><path d="M 621 329 L 621 205" fill="none" stroke="#000000" stroke-miterlimit="10"/></g><g transform="translate(-422,-150) scale(1,1)"><path d="M 625.209517756016 215.16267485762415 L 621 205 L 616.790482243984 215.16267485762415" fill="none" stroke="#000000" stroke-miterlimit="10"/></g><g transform="translate(-422,-150) scale(1,1)"><g><path fill="none" stroke="none"/><text fill="#000000" font-family="Arial" font-size="13px" font-style="normal" font-weight="normal" stroke="none" text-decoration="none" x="588.8544921875" y="267.5">+sfWithin</text></g></g><g transform="translate(-422,-150) scale(1,1)"><g><path fill="none" stroke="none"/><text fill="#000000" font-family="Arial" font-size="13px" font-style="normal" font-weight="normal" stroke="none" text-decoration="none" x="631.5" y="227.5">0..*</text></g></g><g transform="translate(-422,-150) scale(1,1)"><path d="M 569 386 L 537 386 L 537 482 L 625 482 L 625 406" fill="none" stroke="#000000" stroke-miterlimit="10"/></g><g transform="translate(-422,-150) scale(1,1)"><g><path fill="none" stroke="none"/><text fill="#000000" font-family="Arial" font-size="13px" font-style="normal" font-weight="normal" stroke="none" text-decoration="none" x="445.575927734375" y="398.5">+hasSubSite</text></g></g><g transform="translate(-422,-150) scale(1,1)"><g><path fill="none" stroke="none"/><text fill="#000000" font-family="Arial" font-size="13px" font-style="normal" font-weight="normal" stroke="none" text-decoration="none" x="537.5" y="379.5">0..*</text></g></g><g transform="translate(-422,-150) scale(1,1)"><g><path fill="none" stroke="none"/><text fill="#000000" font-family="Arial" font-size="13px" font-style="normal" font-weight="normal" stroke="none" text-decoration="none" x="581.575927734375" y="454.5">+isSubSiteOf</text></g></g><g transform="translate(-422,-150) scale(1,1)"><g><path fill="none" stroke="none"/><text fill="#000000" font-family="Arial" font-size="13px" font-style="normal" font-weight="normal" stroke="none" text-decoration="none" x="627.5" y="433.5">0..*</text></g></g><g transform="translate(-422,-150) scale(1,1)"><rect fill="#C0C0C0" height="57" opacity="0.2" stroke="none" width="91.341796875" x="1856" y="393"/></g><g transform="translate(-422,-150) scale(1,1)"><rect fill="#ffffff" height="57" stroke="none" width="91.341796875" x="1849" y="386"/></g><g transform="translate(-422,-150) scale(1,1)"><path d="M 1849 386 L 1940.341796875 386 L 1940.341796875 443 L 1849 443 L 1849 386 Z Z" fill="none" stroke="#000000" stroke-miterlimit="10"/></g><g transform="translate(-422,-150) scale(1,1)"><path d="M 1849 411 L 1940.341796875 411" fill="none" stroke="#000000" stroke-miterlimit="10"/></g><g transform="translate(-422,-150) scale(1,1)"><path d="M 1849 434 L 1940.341796875 434" fill="none" stroke="#000000" stroke-miterlimit="10"/></g><g transform="translate(-422,-150) scale(1,1)"><g><path fill="none" stroke="none"/><text fill="#000000" font-family="Arial" font-size="13px" font-style="normal" font-weight="bold" stroke="none" text-decoration="none" x="1870.81640625" y="405.5">Boolean</text></g></g><g transform="translate(-422,-150) scale(1,1)"><g><path fill="none" stroke="none"/><text fill="#000000" font-family="Arial" font-size="13px" font-style="normal" font-weight="normal" stroke="none" text-decoration="none" x="1854" y="428.5">+value</text></g></g><g transform="translate(-422,-150) scale(1,1)"><rect fill="#C0C0C0" height="72" opacity="0.2" stroke="none" width="167.9326171875" x="1960" y="393"/></g><g transform="translate(-422,-150) scale(1,1)"><rect fill="#ffffff" height="72" stroke="none" width="167.9326171875" x="1953" y="386"/></g><g transform="translate(-422,-150) scale(1,1)"><path d="M 1953 386 L 2120.9326171875 386 L 2120.9326171875 458 L 1953 458 L 1953 386 Z Z" fill="none" stroke="#000000" stroke-miterlimit="10"/></g><g transform="translate(-422,-150) scale(1,1)"><path d="M 1953 411 L 2120.9326171875 411" fill="none" stroke="#000000" stroke-miterlimit="10"/></g><g transform="translate(-422,-150) scale(1,1)"><path d="M 1953 449 L 2120.9326171875 449" fill="none" stroke="#000000" stroke-miterlimit="10"/></g><g transform="translate(-422,-150) scale(1,1)"><g><path fill="none" stroke="none"/><text fill="#000000" font-family="Arial" font-size="13px" font-style="normal" font-weight="bold" stroke="none" text-decoration="none" x="1976.990478515625" y="405.5">QuantitativeMeasure</text></g></g><g transform="translate(-422,-150) scale(1,1)"><g><path fill="none" stroke="none"/><text fill="#000000" font-family="Arial" font-size="13px" font-style="normal" font-weight="normal" stroke="none" text-decoration="none" x="1958" y="428.5">+unit</text></g></g><g transform="translate(-422,-150) scale(1,1)"><g><path fill="none" stroke="none"/><text fill="#000000" font-family="Arial" font-size="13px" font-style="normal" font-weight="normal" stroke="none" text-decoration="none" x="1958" y="443.5">+value</text></g></g><g transform="translate(-422,-150) scale(1,1)"><rect fill="#C0C0C0" height="57" opacity="0.2" stroke="none" width="76.58349609375" x="2304" y="393"/></g><g transform="translate(-422,-150) scale(1,1)"><rect fill="#ffffff" height="57" stroke="none" width="76.58349609375" x="2297" y="386"/></g><g transform="translate(-422,-150) scale(1,1)"><path d="M 2297 386 L 2373.58349609375 386 L 2373.58349609375 443 L 2297 443 L 2297 386 Z Z" fill="none" stroke="#000000" stroke-miterlimit="10"/></g><g transform="translate(-422,-150) scale(1,1)"><path d="M 2297 411 L 2373.58349609375 411" fill="none" stroke="#000000" stroke-miterlimit="10"/></g><g transform="translate(-422,-150) scale(1,1)"><path d="M 2297 434 L 2373.58349609375 434" fill="none" stroke="#000000" stroke-miterlimit="10"/></g><g transform="translate(-422,-150) scale(1,1)"><g><path fill="none" stroke="none"/><text fill="#000000" font-family="Arial" font-size="13px" font-style="normal" font-weight="bold" stroke="none" text-decoration="none" x="2323.370849609375" y="405.5">Text</text></g></g><g transform="translate(-422,-150) scale(1,1)"><g><path fill="none" stroke="none"/><text fill="#000000" font-family="Arial" font-size="13px" font-style="normal" font-weight="normal" stroke="none" text-decoration="none" x="2302" y="428.5">+value</text></g></g><g transform="translate(-422,-150) scale(1,1)"><rect fill="#C0C0C0" height="102" opacity="0.2" stroke="none" width="141.62158203125" x="2384" y="393"/></g><g transform="translate(-422,-150) scale(1,1)"><rect fill="#ffffff" height="102" stroke="none" width="141.62158203125" x="2377" y="386"/></g><g transform="translate(-422,-150) scale(1,1)"><path d="M 2377 386 L 2518.62158203125 386 L 2518.62158203125 488 L 2377 488 L 2377 386 Z Z" fill="none" stroke="#000000" stroke-miterlimit="10"/></g><g transform="translate(-422,-150) scale(1,1)"><path d="M 2377 411 L 2518.62158203125 411" fill="none" stroke="#000000" stroke-miterlimit="10"/></g><g transform="translate(-422,-150) scale(1,1)"><path d="M 2377 479 L 2518.62158203125 479" fill="none" stroke="#000000" stroke-miterlimit="10"/></g><g transform="translate(-422,-150) scale(1,1)"><g><path fill="none" stroke="none"/><text fill="#000000" font-family="Arial" font-size="13px" font-style="normal" font-weight="bold" stroke="none" text-decoration="none" x="2423.600830078125" y="405.5">Concept</text></g></g><g transform="translate(-422,-150) scale(1,1)"><g><path fill="none" stroke="none"/><text fill="#000000" font-family="Arial" font-size="13px" font-style="normal" font-weight="normal" stroke="none" text-decoration="none" x="2382" y="428.5">+vocabulary</text></g></g><g transform="translate(-422,-150) scale(1,1)"><g><path fill="none" stroke="none"/><text fill="#000000" font-family="Arial" font-size="13px" font-style="normal" font-weight="normal" stroke="none" text-decoration="none" x="2382" y="443.5">+value</text></g></g><g transform="translate(-422,-150) scale(1,1)"><g><path fill="none" stroke="none"/><text fill="#000000" font-family="Arial" font-size="13px" font-style="normal" font-weight="normal" stroke="none" text-decoration="none" x="2382" y="458.5">+globalValue</text></g></g><g transform="translate(-422,-150) scale(1,1)"><g><path fill="none" stroke="none"/><text fill="#000000" font-family="Arial" font-size="13px" font-style="normal" font-weight="normal" stroke="none" text-decoration="none" x="2382" y="473.5">+globalVocabulary</text></g></g><g transform="translate(-422,-150) scale(1,1)"><path d="M 1889 385 L 1875 291" fill="none" stroke="#000000" stroke-miterlimit="10"/></g><g transform="translate(-422,-150) scale(1,1)"><path d="M 1886.3213390844774 309.86338467333695 L 1875 291 L 1869.6669684200995 312.34382285739326" fill="#FFFFFF" stroke="none"/></g><g transform="translate(-422,-150) scale(1,1)"><path d="M 1886.3213390844774 309.86338467333695 L 1875 291 L 1869.6669684200995 312.34382285739326 L 1886.3213390844774 309.86338467333695" fill="none" stroke="#000000" stroke-miterlimit="10"/></g><g transform="translate(-422,-150) scale(1,1)"><path d="M 2018 385 L 2001 351 L 1909 291" fill="none" stroke="#000000" stroke-miterlimit="10"/></g><g transform="translate(-422,-150) scale(1,1)"><path d="M 1930.623776149446 295.05121031775013 L 1909 291 L 1921.4256804624392 309.15495703782733" fill="#FFFFFF" stroke="none"/></g><g transform="translate(-422,-150) scale(1,1)"><path d="M 1930.623776149446 295.05121031775013 L 1909 291 L 1921.4256804624392 309.15495703782733 L 1930.623776149446 295.05121031775013" fill="none" stroke="#000000" stroke-miterlimit="10"/></g><g transform="translate(-422,-150) scale(1,1)"><path d="M 2332 385 L 2329 346 L 1912 273" fill="none" stroke="#000000" stroke-miterlimit="10"/></g><g transform="translate(-422,-150) scale(1,1)"><path d="M 1933.4726434177614 268.2119330984553 L 1912 273 L 1930.569126345557 284.7977771958426" fill="#FFFFFF" stroke="none"/></g><g transform="translate(-422,-150) scale(1,1)"><path d="M 1933.4726434177614 268.2119330984553 L 1912 273 L 1930.569126345557 284.7977771958426 L 1933.4726434177614 268.2119330984553" fill="none" stroke="#000000" stroke-miterlimit="10"/></g><g transform="translate(-422,-150) scale(1,1)"><path d="M 2432 385 L 2417 330 L 1912 271" fill="none" stroke="#000000" stroke-miterlimit="10"/></g><g transform="translate(-422,-150) scale(1,1)"><path d="M 1933.1650020304676 264.9964436331202 L 1912 271 L 1931.2110718778272 281.7207610413143" fill="#FFFFFF" stroke="none"/></g><g transform="translate(-422,-150) scale(1,1)"><path d="M 1933.1650020304676 264.9964436331202 L 1912 271 L 1931.2110718778272 281.7207610413143 L 1933.1650020304676 264.9964436331202" fill="none" stroke="#000000" stroke-miterlimit="10"/></g><g transform="translate(-422,-150) scale(1,1)"><path d="M 1464 929 L 1273 754 L 955 653" fill="none" stroke="#000000" stroke-miterlimit="10"/></g><g transform="translate(-422,-150) scale(1,1)"><path d="M 976.92026327886 651.1286214211289 L 955 653 L 971.8232312931635 667.1767023265894" fill="#FFFFFF" stroke="none"/></g><g transform="translate(-422,-150) scale(1,1)"><path d="M 976.92026327886 651.1286214211289 L 955 653 L 971.8232312931635 667.1767023265894 L 976.92026327886 651.1286214211289" fill="none" stroke="#000000" stroke-miterlimit="10"/></g><g transform="translate(-422,-150) scale(1,1)"><path d="M 1424 739 L 955 642" fill="none" stroke="#000000" stroke-miterlimit="10"/></g><g transform="translate(-422,-150) scale(1,1)"><path d="M 976.6092632706345 637.8720778955501 L 955 642 L 973.1989383073774 654.3611748828447" fill="#FFFFFF" stroke="none"/></g><g transform="translate(-422,-150) scale(1,1)"><path d="M 976.6092632706345 637.8720778955501 L 955 642 L 973.1989383073774 654.3611748828447 L 976.6092632706345 637.8720778955501" fill="none" stroke="#000000" stroke-miterlimit="10"/></g><g transform="translate(-422,-150) scale(1,1)"><rect fill="#C0C0C0" height="162" opacity="0.2" stroke="none" width="170.50341796875" x="1039" y="447"/></g><g transform="translate(-422,-150) scale(1,1)"><rect fill="#ffffff" height="162" stroke="none" width="170.50341796875" x="1032" y="440"/></g><g transform="translate(-422,-150) scale(1,1)"><path d="M 1032 440 L 1202.50341796875 440 L 1202.50341796875 602 L 1032 602 L 1032 440 Z Z" fill="none" stroke="#000000" stroke-miterlimit="10"/></g><g transform="translate(-422,-150) scale(1,1)"><path d="M 1032 465 L 1202.50341796875 465" fill="none" stroke="#000000" stroke-miterlimit="10"/></g><g transform="translate(-422,-150) scale(1,1)"><path d="M 1032 548 L 1202.50341796875 548" fill="none" stroke="#000000" stroke-miterlimit="10"/></g><g transform="translate(-422,-150) scale(1,1)"><g><path fill="none" stroke="none"/><text fill="#000000" font-family="Arial" font-size="13px" font-style="normal" font-weight="bold" stroke="none" text-decoration="none" x="1093.044921875" y="459.5">Attribute</text></g></g><g transform="translate(-422,-150) scale(1,1)"><g><path fill="none" stroke="none"/><text fill="#000000" font-family="Arial" font-size="13px" font-style="normal" font-weight="normal" stroke="none" text-decoration="none" x="1037" y="482.5">+site</text></g></g><g transform="translate(-422,-150) scale(1,1)"><g><path fill="none" stroke="none"/><text fill="#000000" font-family="Arial" font-size="13px" font-style="normal" font-weight="normal" stroke="none" text-decoration="none" x="1037" y="497.5">+siteVisit</text></g></g><g transform="translate(-422,-150) scale(1,1)"><g><path fill="none" stroke="none"/><text fill="#000000" font-family="Arial" font-size="13px" font-style="normal" font-weight="normal" stroke="none" text-decoration="none" x="1037" y="512.5">+attribute: AttributeTerm</text></g></g><g transform="translate(-422,-150) scale(1,1)"><g><path fill="none" stroke="none"/><text fill="#000000" font-family="Arial" font-size="13px" font-style="normal" font-weight="normal" stroke="none" text-decoration="none" x="1037" y="527.5">+hasResult: Result</text></g></g><g transform="translate(-422,-150) scale(1,1)"><g><path fill="none" stroke="none"/><text fill="#000000" font-family="Arial" font-size="13px" font-style="normal" font-weight="normal" stroke="none" text-decoration="none" x="1037" y="542.5">+isPartOf: Dataset</text></g></g><g transform="translate(-422,-150) scale(1,1)"><path d="M 852 569 L 841 447" fill="none" stroke="#000000" stroke-miterlimit="10"/></g><g transform="translate(-422,-150) scale(1,1)"><path d="M 851.2102308035494 466.48720572422457 L 841 447 L 834.440188124693 467.999258752646" fill="#FFFFFF" stroke="none"/></g><g transform="translate(-422,-150) scale(1,1)"><path d="M 851.2102308035494 466.48720572422457 L 841 447 L 834.440188124693 467.999258752646 L 851.2102308035494 466.48720572422457" fill="none" stroke="#000000" stroke-miterlimit="10"/></g><g transform="translate(-422,-150) scale(1,1)"><path d="M 1031 516 L 976 512 L 914 569" fill="none" stroke="#000000" stroke-miterlimit="10"/></g><g transform="translate(-422,-150) scale(1,1)"><g><path fill="none" stroke="none"/><text fill="#000000" font-family="Arial" font-size="13px" font-style="normal" font-weight="normal" stroke="none" text-decoration="none" x="964.5" y="535.5">+hasAttribute</text></g></g><g transform="translate(-422,-150) scale(1,1)"><g><path fill="none" stroke="none"/><text fill="#000000" font-family="Arial" font-size="13px" font-style="normal" font-weight="normal" stroke="none" text-decoration="none" x="1000.5" y="507.5">0..*</text></g></g><g transform="translate(-422,-150) scale(1,1)"><g><path fill="none" stroke="none"/><text fill="#000000" font-family="Arial" font-size="13px" font-style="normal" font-weight="normal" stroke="none" text-decoration="none" x="878.035888671875" y="568.5">+hasFeatureOfInterest</text></g></g><g transform="translate(-422,-150) scale(1,1)"><g><path fill="none" stroke="none"/><text fill="#000000" font-family="Arial" font-size="13px" font-style="normal" font-weight="normal" stroke="none" text-decoration="none" x="917.5" y="551.5">1</text></g></g><g transform="translate(-422,-150) scale(1,1)"><path d="M 1204 482 L 1280 448" fill="none" stroke="#000000" stroke-miterlimit="10"/></g><g transform="translate(-422,-150) scale(1,1)"><g><path fill="none" stroke="none"/><text fill="#000000" font-family="Arial" font-size="13px" font-style="normal" font-weight="normal" stroke="none" text-decoration="none" x="1182.5" y="463.5">+hasAttribute</text></g></g><g transform="translate(-422,-150) scale(1,1)"><g><path fill="none" stroke="none"/><text fill="#000000" font-family="Arial" font-size="13px" font-style="normal" font-weight="normal" stroke="none" text-decoration="none" x="1218.58544921875" y="490.5">0..*</text></g></g><g transform="translate(-422,-150) scale(1,1)"><g><path fill="none" stroke="none"/><text fill="#000000" font-family="Arial" font-size="13px" font-style="normal" font-weight="normal" stroke="none" text-decoration="none" x="1203.5" y="450.5">+onObservation</text></g></g><g transform="translate(-422,-150) scale(1,1)"><g><path fill="none" stroke="none"/><text fill="#000000" font-family="Arial" font-size="13px" font-style="normal" font-weight="normal" stroke="none" text-decoration="none" x="1232.5" y="455.5">0..1</text></g></g></g></svg>