<?xml version="1.0" encoding="UTF-8" standalone="no"?><svg xmlns="http://www.w3.org/2000/svg" xmlns:xlink="http://www.w3.org/1999/xlink" height="1077" version="1.1" width="1256.2080078125"><defs/><g><g transform="translate(-38,-38) scale(1,1)"><rect fill="#C0C0C0" height="44" opacity="0.2" stroke="none" width="152" x="559" y="103"/></g><g transform="translate(-38,-38) scale(1,1)"><rect fill="#ffffff" height="44" stroke="none" width="152" x="552" y="96"/></g><g transform="translate(-38,-38) scale(1,1)"><path d="M 552 96 L 704 96 L 704 140 L 552 140 L 552 96 Z Z" fill="none" stroke="#000000" stroke-miterlimit="10"/></g><g transform="translate(-38,-38) scale(1,1)"><path d="M 552 121 L 704 121" fill="none" stroke="#000000" stroke-miterlimit="10"/></g><g transform="translate(-38,-38) scale(1,1)"><path d="M 552 131 L 704 131" fill="none" stroke="#000000" stroke-miterlimit="10"/></g><g transform="translate(-38,-38) scale(1,1)"><g><path fill="none" stroke="none"/><text fill="#000000" font-family="Arial" font-size="13px" font-style="italic" font-weight="bold" stroke="none" text-decoration="none" x="574.759033203125" y="115.5">VegetationFeature</text></g></g><g transform="translate(-38,-38) scale(1,1)"><rect fill="#C0C0C0" height="57" opacity="0.2" stroke="none" width="129.70703125" x="359" y="791"/></g><g transform="translate(-38,-38) scale(1,1)"><rect fill="#ffffff" height="57" stroke="none" width="129.70703125" x="352" y="784"/></g><g transform="translate(-38,-38) scale(1,1)"><path d="M 352 784 L 481.70703125 784 L 481.70703125 841 L 352 841 L 352 784 Z Z" fill="none" stroke="#000000" stroke-miterlimit="10"/></g><g transform="translate(-38,-38) scale(1,1)"><path d="M 352 822 L 481.70703125 822" fill="none" stroke="#000000" stroke-miterlimit="10"/></g><g transform="translate(-38,-38) scale(1,1)"><path d="M 352 832 L 481.70703125 832" fill="none" stroke="#000000" stroke-miterlimit="10"/></g><g transform="translate(-38,-38) scale(1,1)"><g><path fill="none" stroke="none"/><text fill="#000000" font-family="Arial" font-size="13px" font-style="normal" font-weight="normal" stroke="none" text-decoration="none" x="356.5" y="801.5">«VegetationFeature»</text></g></g><g transform="translate(-38,-38) scale(1,1)"><g><path fill="none" stroke="none"/><text fill="#000000" font-family="Arial" font-size="13px" font-style="normal" font-weight="bold" stroke="none" text-decoration="none" x="369.169921875" y="816.5">PlantCommunity</text></g></g><g transform="translate(-38,-38) scale(1,1)"><rect fill="#C0C0C0" height="57" opacity="0.2" stroke="none" width="149.0751953125" x="919" y="599"/></g><g transform="translate(-38,-38) scale(1,1)"><rect fill="#ffffff" height="57" stroke="none" width="149.0751953125" x="912" y="592"/></g><g transform="translate(-38,-38) scale(1,1)"><path d="M 912 592 L 1061.0751953125 592 L 1061.0751953125 649 L 912 649 L 912 592 Z Z" fill="none" stroke="#000000" stroke-miterlimit="10"/></g><g transform="translate(-38,-38) scale(1,1)"><path d="M 912 630 L 1061.0751953125 630" fill="none" stroke="#000000" stroke-miterlimit="10"/></g><g transform="translate(-38,-38) scale(1,1)"><path d="M 912 640 L 1061.0751953125 640" fill="none" stroke="#000000" stroke-miterlimit="10"/></g><g transform="translate(-38,-38) scale(1,1)"><g><path fill="none" stroke="none"/><text fill="#000000" font-family="Arial" font-size="13px" font-style="normal" font-weight="normal" stroke="none" text-decoration="none" x="926.18408203125" y="609.5">«VegetationFeature»</text></g></g><g transform="translate(-38,-38) scale(1,1)"><g><path fill="none" stroke="none"/><text fill="#000000" font-family="Arial" font-size="13px" font-style="normal" font-weight="bold" stroke="none" text-decoration="none" x="938.82861328125" y="624.5">VegetationStand</text></g></g><g transform="translate(-38,-38) scale(1,1)"><rect fill="#C0C0C0" height="87" opacity="0.2" stroke="none" width="241.349609375" x="159" y="79"/></g><g transform="translate(-38,-38) scale(1,1)"><rect fill="#ffffff" height="87" stroke="none" width="241.349609375" x="152" y="72"/></g><g transform="translate(-38,-38) scale(1,1)"><path d="M 152 72 L 393.349609375 72 L 393.349609375 159 L 152 159 L 152 72 Z Z" fill="none" stroke="#000000" stroke-miterlimit="10"/></g><g transform="translate(-38,-38) scale(1,1)"><path d="M 152 112 L 393.349609375 112" fill="none" stroke="#000000" stroke-miterlimit="10"/></g><g transform="translate(-38,-38) scale(1,1)"><path d="M 152 135 L 393.349609375 135" fill="none" stroke="#000000" stroke-miterlimit="10"/></g><g transform="translate(-38,-38) scale(1,1)"><g><path fill="none" stroke="none"/><text fill="#000000" font-family="Arial" font-size="13px" font-style="normal" font-weight="bold" stroke="none" text-decoration="none" x="221.73486328125" y="91.5">FeatureOfInterest</text></g></g><g transform="translate(-38,-38) scale(1,1)"><g><path fill="none" stroke="none"/><text fill="#000000" font-family="Arial" font-size="13px" font-style="normal" font-weight="normal" stroke="none" text-decoration="none" x="219.94482421875" y="106.5">(from Plot-X Core)</text></g></g><g transform="translate(-38,-38) scale(1,1)"><g><path fill="none" stroke="none"/><text fill="#000000" font-family="Arial" font-size="13px" font-style="normal" font-weight="normal" stroke="none" text-decoration="none" x="157" y="129.5">+featureType: FeatureTerm</text></g></g><g transform="translate(-38,-38) scale(1,1)"><rect fill="#C0C0C0" height="57" opacity="0.2" stroke="none" width="149.8671875" x="871" y="695"/></g><g transform="translate(-38,-38) scale(1,1)"><rect fill="#ffffff" height="57" stroke="none" width="149.8671875" x="864" y="688"/></g><g transform="translate(-38,-38) scale(1,1)"><path d="M 864 688 L 1013.8671875 688 L 1013.8671875 745 L 864 745 L 864 688 Z Z" fill="none" stroke="#000000" stroke-miterlimit="10"/></g><g transform="translate(-38,-38) scale(1,1)"><path d="M 864 726 L 1013.8671875 726" fill="none" stroke="#000000" stroke-miterlimit="10"/></g><g transform="translate(-38,-38) scale(1,1)"><path d="M 864 736 L 1013.8671875 736" fill="none" stroke="#000000" stroke-miterlimit="10"/></g><g transform="translate(-38,-38) scale(1,1)"><g><path fill="none" stroke="none"/><text fill="#000000" font-family="Arial" font-size="13px" font-style="normal" font-weight="normal" stroke="none" text-decoration="none" x="878.580078125" y="705.5">«VegetationFeature»</text></g></g><g transform="translate(-38,-38) scale(1,1)"><g><path fill="none" stroke="none"/><text fill="#000000" font-family="Arial" font-size="13px" font-style="normal" font-weight="bold" stroke="none" text-decoration="none" x="873.52734375" y="720.5">VegetationDisturbance</text></g></g><g transform="translate(-38,-38) scale(1,1)"><rect fill="#C0C0C0" height="100" opacity="0.2" stroke="none" width="283.98046875" x="63" y="631"/></g><g transform="translate(-38,-38) scale(1,1)"><rect fill="#ffffff" height="100" stroke="none" width="283.98046875" x="56" y="624"/></g><g transform="translate(-38,-38) scale(1,1)"><path d="M 56 624 L 339.98046875 624 L 339.98046875 724 L 56 724 L 56 624 Z Z" fill="none" stroke="#000000" stroke-miterlimit="10"/></g><g transform="translate(-38,-38) scale(1,1)"><path d="M 56 662 L 339.98046875 662" fill="none" stroke="#000000" stroke-miterlimit="10"/></g><g transform="translate(-38,-38) scale(1,1)"><path d="M 56 715 L 339.98046875 715" fill="none" stroke="#000000" stroke-miterlimit="10"/></g><g transform="translate(-38,-38) scale(1,1)"><g><path fill="none" stroke="none"/><text fill="#000000" font-family="Arial" font-size="13px" font-style="normal" font-weight="normal" stroke="none" text-decoration="none" x="137.63671875" y="641.5">«VegetationFeature»</text></g></g><g transform="translate(-38,-38) scale(1,1)"><g><path fill="none" stroke="none"/><text fill="#000000" font-family="Arial" font-size="13px" font-style="normal" font-weight="bold" stroke="none" text-decoration="none" x="152.455322265625" y="656.5">PlantPopulation</text></g></g><g transform="translate(-38,-38) scale(1,1)"><g><path fill="none" stroke="none"/><text fill="#000000" font-family="Arial" font-size="13px" font-style="normal" font-weight="normal" stroke="none" text-decoration="none" x="61" y="679.5">+identificationType: PlantIdentificationType[0..1]</text></g></g><g transform="translate(-38,-38) scale(1,1)"><g><path fill="none" stroke="none"/><text fill="#000000" font-family="Arial" font-size="13px" font-style="normal" font-weight="normal" stroke="none" text-decoration="none" x="61" y="694.5">+plantName: String</text></g></g><g transform="translate(-38,-38) scale(1,1)"><g><path fill="none" stroke="none"/><text fill="#000000" font-family="Arial" font-size="13px" font-style="normal" font-weight="normal" stroke="none" text-decoration="none" x="61" y="709.5">+plantNameID: IRI</text></g></g><g transform="translate(-38,-38) scale(1,1)"><rect fill="#C0C0C0" height="70" opacity="0.2" stroke="none" width="280.29248046875" x="527" y="695"/></g><g transform="translate(-38,-38) scale(1,1)"><rect fill="#ffffff" height="70" stroke="none" width="280.29248046875" x="520" y="688"/></g><g transform="translate(-38,-38) scale(1,1)"><path d="M 520 688 L 800.29248046875 688 L 800.29248046875 758 L 520 758 L 520 688 Z Z" fill="none" stroke="#000000" stroke-miterlimit="10"/></g><g transform="translate(-38,-38) scale(1,1)"><path d="M 520 726 L 800.29248046875 726" fill="none" stroke="#000000" stroke-miterlimit="10"/></g><g transform="translate(-38,-38) scale(1,1)"><path d="M 520 749 L 800.29248046875 749" fill="none" stroke="#000000" stroke-miterlimit="10"/></g><g transform="translate(-38,-38) scale(1,1)"><g><path fill="none" stroke="none"/><text fill="#000000" font-family="Arial" font-size="13px" font-style="normal" font-weight="normal" stroke="none" text-decoration="none" x="599.792724609375" y="705.5">«VegetationFeature»</text></g></g><g transform="translate(-38,-38) scale(1,1)"><g><path fill="none" stroke="none"/><text fill="#000000" font-family="Arial" font-size="13px" font-style="normal" font-weight="bold" stroke="none" text-decoration="none" x="606.667236328125" y="720.5">VegetationStratum</text></g></g><g transform="translate(-38,-38) scale(1,1)"><g><path fill="none" stroke="none"/><text fill="#000000" font-family="Arial" font-size="13px" font-style="normal" font-weight="normal" stroke="none" text-decoration="none" x="525" y="743.5">+stratumClassification: StratumClassification[1]</text></g></g><g transform="translate(-38,-38) scale(1,1)"><rect fill="#C0C0C0" height="57" opacity="0.2" stroke="none" width="129.70703125" x="487" y="535"/></g><g transform="translate(-38,-38) scale(1,1)"><rect fill="#ffffff" height="57" stroke="none" width="129.70703125" x="480" y="528"/></g><g transform="translate(-38,-38) scale(1,1)"><path d="M 480 528 L 609.70703125 528 L 609.70703125 585 L 480 585 L 480 528 Z Z" fill="none" stroke="#000000" stroke-miterlimit="10"/></g><g transform="translate(-38,-38) scale(1,1)"><path d="M 480 566 L 609.70703125 566" fill="none" stroke="#000000" stroke-miterlimit="10"/></g><g transform="translate(-38,-38) scale(1,1)"><path d="M 480 576 L 609.70703125 576" fill="none" stroke="#000000" stroke-miterlimit="10"/></g><g transform="translate(-38,-38) scale(1,1)"><g><path fill="none" stroke="none"/><text fill="#000000" font-family="Arial" font-size="13px" font-style="normal" font-weight="normal" stroke="none" text-decoration="none" x="484.5" y="545.5">«VegetationFeature»</text></g></g><g transform="translate(-38,-38) scale(1,1)"><g><path fill="none" stroke="none"/><text fill="#000000" font-family="Arial" font-size="13px" font-style="italic" font-weight="bold" stroke="none" text-decoration="none" x="514.013427734375" y="560.5">Vegetation</text></g></g><g transform="translate(-38,-38) scale(1,1)"><path d="M 341 625 L 479 578" fill="none" stroke="#000000" stroke-miterlimit="10"/></g><g transform="translate(-38,-38) scale(1,1)"><path d="M 470.73708309841214 585.2611434552316 L 479 578 L 468.02283165014364 577.2916392028689 L 458.1746817908761 585.0926808393393" fill="#000000" stroke="none"/></g><g transform="translate(-38,-38) scale(1,1)"><path d="M 470.73708309841214 585.2611434552316 L 479 578 L 468.02283165014364 577.2916392028689 L 458.1746817908761 585.0926808393393 L 470.73708309841214 585.2611434552316" fill="none" stroke="#000000" stroke-miterlimit="10"/></g><g transform="translate(-38,-38) scale(1,1)"><path d="M 561 759 L 483 788" fill="none" stroke="#000000" stroke-miterlimit="10"/></g><g transform="translate(-38,-38) scale(1,1)"><path d="M 491.05864149427913 780.5127910896862 L 483 788 L 493.99257624039933 788.4040638551129 L 503.6208894820881 780.3332590387108" fill="#000000" stroke="none"/></g><g transform="translate(-38,-38) scale(1,1)"><path d="M 491.05864149427913 780.5127910896862 L 483 788 L 493.99257624039933 788.4040638551129 L 503.6208894820881 780.3332590387108 L 491.05864149427913 780.5127910896862" fill="none" stroke="#000000" stroke-miterlimit="10"/></g><g transform="translate(-38,-38) scale(1,1)"><path d="M 911 609 L 611 566" fill="none" stroke="#000000" stroke-miterlimit="10"/></g><g transform="translate(-38,-38) scale(1,1)"><path d="M 621.6571232901586 563.2749819856815 L 611 566 L 620.4626028631923 571.6088454296321 L 632.7774346604059 569.1214323013248" fill="#000000" stroke="none"/></g><g transform="translate(-38,-38) scale(1,1)"><path d="M 621.6571232901586 563.2749819856815 L 611 566 L 620.4626028631923 571.6088454296321 L 632.7774346604059 569.1214323013248 L 621.6571232901586 563.2749819856815" fill="none" stroke="#000000" stroke-miterlimit="10"/></g><g transform="translate(-38,-38) scale(1,1)"><path d="M 431 783 L 529 586" fill="none" stroke="#000000" stroke-miterlimit="10"/></g><g transform="translate(-38,-38) scale(1,1)"><path d="M 528.2425238198339 596.9738885467495 L 529 586 L 520.7046724490252 593.2240944638093 L 519.2013158506352 605.6973548716824" fill="#000000" stroke="none"/></g><g transform="translate(-38,-38) scale(1,1)"><path d="M 528.2425238198339 596.9738885467495 L 529 586 L 520.7046724490252 593.2240944638093 L 519.2013158506352 605.6973548716824 L 528.2425238198339 596.9738885467495" fill="none" stroke="#000000" stroke-miterlimit="10"/></g><g transform="translate(-38,-38) scale(1,1)"><path d="M 867 687 L 611 583" fill="none" stroke="#000000" stroke-miterlimit="10"/></g><g transform="translate(-38,-38) scale(1,1)"><path d="M 621.9997444518679 582.9250200453342 L 611 583 L 618.8310127276321 590.7249750588377 L 631.3822646966908 591.2802950330306" fill="#000000" stroke="none"/></g><g transform="translate(-38,-38) scale(1,1)"><path d="M 621.9997444518679 582.9250200453342 L 611 583 L 618.8310127276321 590.7249750588377 L 631.3822646966908 591.2802950330306 L 621.9997444518679 582.9250200453342" fill="none" stroke="#000000" stroke-miterlimit="10"/></g><g transform="translate(-38,-38) scale(1,1)"><path d="M 272 72 L 272 48 L 48 48 L 48 104 L 152 104" fill="none" stroke="#000000" stroke-miterlimit="10"/></g><g transform="translate(-38,-38) scale(1,1)"><path d="M 141.83732514237585 108.20951775601598 L 152 104 L 141.83732514237585 99.79048224398402" fill="none" stroke="#000000" stroke-miterlimit="10"/></g><g transform="translate(-38,-38) scale(1,1)"><g><path fill="none" stroke="none"/><text fill="#000000" font-family="Arial" font-size="13px" font-style="normal" font-weight="normal" stroke="none" text-decoration="none" x="54.5" y="93.5">+relatedFeature</text></g></g><g transform="translate(-38,-38) scale(1,1)"><rect fill="#C0C0C0" height="87" opacity="0.2" stroke="none" width="255.0732421875" x="967" y="479"/></g><g transform="translate(-38,-38) scale(1,1)"><rect fill="#ffffff" height="87" stroke="none" width="255.0732421875" x="960" y="472"/></g><g transform="translate(-38,-38) scale(1,1)"><path d="M 960 472 L 1215.0732421875 472 L 1215.0732421875 559 L 960 559 L 960 472 Z Z" fill="none" stroke="#000000" stroke-miterlimit="10"/></g><g transform="translate(-38,-38) scale(1,1)"><path d="M 960 497 L 1215.0732421875 497" fill="none" stroke="#000000" stroke-miterlimit="10"/></g><g transform="translate(-38,-38) scale(1,1)"><path d="M 960 550 L 1215.0732421875 550" fill="none" stroke="#000000" stroke-miterlimit="10"/></g><g transform="translate(-38,-38) scale(1,1)"><g><path fill="none" stroke="none"/><text fill="#000000" font-family="Arial" font-size="13px" font-style="normal" font-weight="bold" stroke="none" text-decoration="none" x="1045.258056640625" y="491.5">PlantIndividual</text></g></g><g transform="translate(-38,-38) scale(1,1)"><g><path fill="none" stroke="none"/><text fill="#000000" font-family="Arial" font-size="13px" font-style="normal" font-weight="normal" stroke="none" text-decoration="none" x="965" y="514.5">+identificationType: PlantIdentificationType</text></g></g><g transform="translate(-38,-38) scale(1,1)"><g><path fill="none" stroke="none"/><text fill="#000000" font-family="Arial" font-size="13px" font-style="normal" font-weight="normal" stroke="none" text-decoration="none" x="965" y="529.5">+plantName: String</text></g></g><g transform="translate(-38,-38) scale(1,1)"><g><path fill="none" stroke="none"/><text fill="#000000" font-family="Arial" font-size="13px" font-style="normal" font-weight="normal" stroke="none" text-decoration="none" x="965" y="544.5">+PlantNameID: IRI</text></g></g><g transform="translate(-38,-38) scale(1,1)"><rect fill="#C0C0C0" height="57" opacity="0.2" stroke="none" width="132.2080078125" x="1159" y="335"/></g><g transform="translate(-38,-38) scale(1,1)"><rect fill="#ffffff" height="57" stroke="none" width="132.2080078125" x="1152" y="328"/></g><g transform="translate(-38,-38) scale(1,1)"><path d="M 1152 328 L 1284.2080078125 328 L 1284.2080078125 385 L 1152 385 L 1152 328 Z Z" fill="none" stroke="#000000" stroke-miterlimit="10"/></g><g transform="translate(-38,-38) scale(1,1)"><path d="M 1152 353 L 1284.2080078125 353" fill="none" stroke="#000000" stroke-miterlimit="10"/></g><g transform="translate(-38,-38) scale(1,1)"><path d="M 1152 376 L 1284.2080078125 376" fill="none" stroke="#000000" stroke-miterlimit="10"/></g><g transform="translate(-38,-38) scale(1,1)"><g><path fill="none" stroke="none"/><text fill="#000000" font-family="Arial" font-size="13px" font-style="normal" font-weight="bold" stroke="none" text-decoration="none" x="1174.384521484375" y="347.5">PlantSpecimen</text></g></g><g transform="translate(-38,-38) scale(1,1)"><g><path fill="none" stroke="none"/><text fill="#000000" font-family="Arial" font-size="13px" font-style="normal" font-weight="normal" stroke="none" text-decoration="none" x="1157" y="370.5">+barcodeID: String[1]</text></g></g><g transform="translate(-38,-38) scale(1,1)"><rect fill="#C0C0C0" height="57" opacity="0.2" stroke="none" width="432.0205078125" x="287" y="1055"/></g><g transform="translate(-38,-38) scale(1,1)"><rect fill="#ffffff" height="57" stroke="none" width="432.0205078125" x="280" y="1048"/></g><g transform="translate(-38,-38) scale(1,1)"><path d="M 280 1048 L 712.0205078125 1048 L 712.0205078125 1105 L 280 1105 L 280 1048 Z Z" fill="none" stroke="#000000" stroke-miterlimit="10"/></g><g transform="translate(-38,-38) scale(1,1)"><path d="M 280 1073 L 712.0205078125 1073" fill="none" stroke="#000000" stroke-miterlimit="10"/></g><g transform="translate(-38,-38) scale(1,1)"><path d="M 280 1096 L 712.0205078125 1096" fill="none" stroke="#000000" stroke-miterlimit="10"/></g><g transform="translate(-38,-38) scale(1,1)"><g><path fill="none" stroke="none"/><text fill="#000000" font-family="Arial" font-size="13px" font-style="normal" font-weight="bold" stroke="none" text-decoration="none" x="438.935302734375" y="1067.5">StructuralFormation</text></g></g><g transform="translate(-38,-38) scale(1,1)"><g><path fill="none" stroke="none"/><text fill="#000000" font-family="Arial" font-size="13px" font-style="normal" font-weight="normal" stroke="none" text-decoration="none" x="285" y="1090.5">+structuralFormationClassification: StructuralFormationClassification[0..1]</text></g></g><g transform="translate(-38,-38) scale(1,1)"><rect fill="#C0C0C0" height="130" opacity="0.2" stroke="none" width="206.63427734375" x="175" y="271"/></g><g transform="translate(-38,-38) scale(1,1)"><rect fill="#ffffff" height="130" stroke="none" width="206.63427734375" x="168" y="264"/></g><g transform="translate(-38,-38) scale(1,1)"><path d="M 168 264 L 374.63427734375 264 L 374.63427734375 394 L 168 394 L 168 264 Z Z" fill="none" stroke="#000000" stroke-miterlimit="10"/></g><g transform="translate(-38,-38) scale(1,1)"><path d="M 168 317 L 374.63427734375 317" fill="none" stroke="#000000" stroke-miterlimit="10"/></g><g transform="translate(-38,-38) scale(1,1)"><path d="M 168 385 L 374.63427734375 385" fill="none" stroke="#000000" stroke-miterlimit="10"/></g><g transform="translate(-38,-38) scale(1,1)"><g><path fill="none" stroke="none"/><text fill="#000000" font-family="Arial" font-size="13px" font-style="normal" font-weight="normal" stroke="none" text-decoration="none" x="213.147216796875" y="281.5">«FeatureOfInterest»</text></g></g><g transform="translate(-38,-38) scale(1,1)"><g><path fill="none" stroke="none"/><text fill="#000000" font-family="Arial" font-size="13px" font-style="normal" font-weight="bold" stroke="none" text-decoration="none" x="235.186279296875" y="296.5">SpatialEntity</text></g></g><g transform="translate(-38,-38) scale(1,1)"><g><path fill="none" stroke="none"/><text fill="#000000" font-family="Arial" font-size="13px" font-style="normal" font-weight="normal" stroke="none" text-decoration="none" x="218.587158203125" y="311.5">(from Plot-X Core)</text></g></g><g transform="translate(-38,-38) scale(1,1)"><g><path fill="none" stroke="none"/><text fill="#000000" font-family="Arial" font-size="13px" font-style="normal" font-weight="normal" stroke="none" text-decoration="none" x="173" y="334.5">+geometry</text></g></g><g transform="translate(-38,-38) scale(1,1)"><g><path fill="none" stroke="none"/><text fill="#000000" font-family="Arial" font-size="13px" font-style="normal" font-weight="normal" stroke="none" text-decoration="none" x="173" y="349.5">+observationMethod: MethodTerm</text></g></g><g transform="translate(-38,-38) scale(1,1)"><g><path fill="none" stroke="none"/><text fill="#000000" font-family="Arial" font-size="13px" font-style="normal" font-weight="normal" stroke="none" text-decoration="none" x="173" y="364.5">+positionalAccuracy</text></g></g><g transform="translate(-38,-38) scale(1,1)"><g><path fill="none" stroke="none"/><text fill="#000000" font-family="Arial" font-size="13px" font-style="normal" font-weight="normal" stroke="none" text-decoration="none" x="173" y="379.5">+resolutionScale</text></g></g><g transform="translate(-38,-38) scale(1,1)"><path d="M 272 160 L 271 263" fill="none" stroke="#000000" stroke-miterlimit="10"/></g><g transform="translate(-38,-38) scale(1,1)"><g><path fill="none" stroke="none"/><text fill="#000000" font-family="Arial" font-size="13px" font-style="normal" font-weight="normal" stroke="none" text-decoration="none" x="228.5" y="204.5">+featureDescription</text></g></g><g transform="translate(-38,-38) scale(1,1)"><g><path fill="none" stroke="none"/><text fill="#000000" font-family="Arial" font-size="13px" font-style="normal" font-weight="normal" stroke="none" text-decoration="none" x="249.5" y="187.5">0..*</text></g></g><g transform="translate(-38,-38) scale(1,1)"><g><path fill="none" stroke="none"/><text fill="#000000" font-family="Arial" font-size="13px" font-style="normal" font-weight="normal" stroke="none" text-decoration="none" x="250.5" y="228.5">+occurrence</text></g></g><g transform="translate(-38,-38) scale(1,1)"><g><path fill="none" stroke="none"/><text fill="#000000" font-family="Arial" font-size="13px" font-style="normal" font-weight="normal" stroke="none" text-decoration="none" x="248.5" y="247.5">0..*</text></g></g><g transform="translate(-38,-38) scale(1,1)"><rect fill="#C0C0C0" height="70" opacity="0.2" stroke="none" width="173.65185546875" x="191" y="447"/></g><g transform="translate(-38,-38) scale(1,1)"><rect fill="#ffffff" height="70" stroke="none" width="173.65185546875" x="184" y="440"/></g><g transform="translate(-38,-38) scale(1,1)"><path d="M 184 440 L 357.65185546875 440 L 357.65185546875 510 L 184 510 L 184 440 Z Z" fill="none" stroke="#000000" stroke-miterlimit="10"/></g><g transform="translate(-38,-38) scale(1,1)"><path d="M 184 478 L 357.65185546875 478" fill="none" stroke="#000000" stroke-miterlimit="10"/></g><g transform="translate(-38,-38) scale(1,1)"><path d="M 184 501 L 357.65185546875 501" fill="none" stroke="#000000" stroke-miterlimit="10"/></g><g transform="translate(-38,-38) scale(1,1)"><g><path fill="none" stroke="none"/><text fill="#000000" font-family="Arial" font-size="13px" font-style="normal" font-weight="normal" stroke="none" text-decoration="none" x="212.656005859375" y="457.5">«FeatureOfInterest»</text></g></g><g transform="translate(-38,-38) scale(1,1)"><g><path fill="none" stroke="none"/><text fill="#000000" font-family="Arial" font-size="13px" font-style="normal" font-weight="bold" stroke="none" text-decoration="none" x="194.94287109375" y="472.5">AngleCountSamplingPoint</text></g></g><g transform="translate(-38,-38) scale(1,1)"><g><path fill="none" stroke="none"/><text fill="#000000" font-family="Arial" font-size="13px" font-style="normal" font-weight="normal" stroke="none" text-decoration="none" x="189" y="495.5">+pointID: String</text></g></g><g transform="translate(-38,-38) scale(1,1)"><path d="M 270 439 L 271 395" fill="none" stroke="#000000" stroke-miterlimit="10"/></g><g transform="translate(-38,-38) scale(1,1)"><path d="M 278.9550415064893 415.5113947509679 L 271 395 L 262.12131747385547 415.1288101138626" fill="#FFFFFF" stroke="none"/></g><g transform="translate(-38,-38) scale(1,1)"><path d="M 278.9550415064893 415.5113947509679 L 271 395 L 262.12131747385547 415.1288101138626 L 278.9550415064893 415.5113947509679" fill="none" stroke="#000000" stroke-miterlimit="10"/></g><g transform="translate(-38,-38) scale(1,1)"><path d="M 257 511 L 216 623" fill="none" stroke="#000000" stroke-miterlimit="10"/></g><g transform="translate(-38,-38) scale(1,1)"><g><path fill="none" stroke="none"/><text fill="#000000" font-family="Arial" font-size="13px" font-style="normal" font-weight="normal" stroke="none" text-decoration="none" x="254.5" y="536.5">+occurrence</text></g></g><g transform="translate(-38,-38) scale(1,1)"><g><path fill="none" stroke="none"/><text fill="#000000" font-family="Arial" font-size="13px" font-style="normal" font-weight="normal" stroke="none" text-decoration="none" x="222.5" y="544.5">0..1</text></g></g><g transform="translate(-38,-38) scale(1,1)"><g><path fill="none" stroke="none"/><text fill="#000000" font-family="Arial" font-size="13px" font-style="normal" font-weight="normal" stroke="none" text-decoration="none" x="229.5" y="594.5">+featureDescription</text></g></g><g transform="translate(-38,-38) scale(1,1)"><g><path fill="none" stroke="none"/><text fill="#000000" font-family="Arial" font-size="13px" font-style="normal" font-weight="normal" stroke="none" text-decoration="none" x="207.5" y="604.5">1</text></g></g><g transform="translate(-38,-38) scale(1,1)"><path d="M 959 525 L 611 551" fill="none" stroke="#000000" stroke-miterlimit="10"/></g><g transform="translate(-38,-38) scale(1,1)"><path d="M 620.8207990535813 546.0450120132156 L 611 551 L 621.4480592136109 554.4406480013046 L 632.9388540972408 549.3608902111257" fill="#000000" stroke="none"/></g><g transform="translate(-38,-38) scale(1,1)"><path d="M 620.8207990535813 546.0450120132156 L 611 551 L 621.4480592136109 554.4406480013046 L 632.9388540972408 549.3608902111257 L 620.8207990535813 546.0450120132156" fill="none" stroke="#000000" stroke-miterlimit="10"/></g><g transform="translate(-38,-38) scale(1,1)"><rect fill="#C0C0C0" height="85" opacity="0.2" stroke="none" width="128.88818359375" x="567" y="431"/></g><g transform="translate(-38,-38) scale(1,1)"><rect fill="#ffffff" height="85" stroke="none" width="128.88818359375" x="560" y="424"/></g><g transform="translate(-38,-38) scale(1,1)"><path d="M 560 424 L 688.88818359375 424 L 688.88818359375 509 L 560 509 L 560 424 Z Z" fill="none" stroke="#000000" stroke-miterlimit="10"/></g><g transform="translate(-38,-38) scale(1,1)"><path d="M 560 462 L 688.88818359375 462" fill="none" stroke="#000000" stroke-miterlimit="10"/></g><g transform="translate(-38,-38) scale(1,1)"><path d="M 560 500 L 688.88818359375 500" fill="none" stroke="#000000" stroke-miterlimit="10"/></g><g transform="translate(-38,-38) scale(1,1)"><g><path fill="none" stroke="none"/><text fill="#000000" font-family="Arial" font-size="13px" font-style="normal" font-weight="normal" stroke="none" text-decoration="none" x="566.274169921875" y="441.5">«FeatureOfInterest»</text></g></g><g transform="translate(-38,-38) scale(1,1)"><g><path fill="none" stroke="none"/><text fill="#000000" font-family="Arial" font-size="13px" font-style="normal" font-weight="bold" stroke="none" text-decoration="none" x="569.52099609375" y="456.5">PointInterceptPoint</text></g></g><g transform="translate(-38,-38) scale(1,1)"><g><path fill="none" stroke="none"/><text fill="#000000" font-family="Arial" font-size="13px" font-style="normal" font-weight="normal" stroke="none" text-decoration="none" x="565" y="479.5">+pointID: String</text></g></g><g transform="translate(-38,-38) scale(1,1)"><g><path fill="none" stroke="none"/><text fill="#000000" font-family="Arial" font-size="13px" font-style="normal" font-weight="normal" stroke="none" text-decoration="none" x="565" y="494.5">+pointNumber</text></g></g><g transform="translate(-38,-38) scale(1,1)"><path d="M 559 441 L 376 370" fill="none" stroke="#000000" stroke-miterlimit="10"/></g><g transform="translate(-38,-38) scale(1,1)"><path d="M 397.9943823063563 369.5028612247661 L 376 370 L 391.9039070759926 385.20084667767526" fill="#FFFFFF" stroke="none"/></g><g transform="translate(-38,-38) scale(1,1)"><path d="M 397.9943823063563 369.5028612247661 L 376 370 L 391.9039070759926 385.20084667767526 L 397.9943823063563 369.5028612247661" fill="none" stroke="#000000" stroke-miterlimit="10"/></g><g transform="translate(-38,-38) scale(1,1)"><rect fill="#C0C0C0" height="85" opacity="0.2" stroke="none" width="125.33984375" x="575" y="231"/></g><g transform="translate(-38,-38) scale(1,1)"><rect fill="#ffffff" height="85" stroke="none" width="125.33984375" x="568" y="224"/></g><g transform="translate(-38,-38) scale(1,1)"><path d="M 568 224 L 693.33984375 224 L 693.33984375 309 L 568 309 L 568 224 Z Z" fill="none" stroke="#000000" stroke-miterlimit="10"/></g><g transform="translate(-38,-38) scale(1,1)"><path d="M 568 262 L 693.33984375 262" fill="none" stroke="#000000" stroke-miterlimit="10"/></g><g transform="translate(-38,-38) scale(1,1)"><path d="M 568 300 L 693.33984375 300" fill="none" stroke="#000000" stroke-miterlimit="10"/></g><g transform="translate(-38,-38) scale(1,1)"><g><path fill="none" stroke="none"/><text fill="#000000" font-family="Arial" font-size="13px" font-style="normal" font-weight="normal" stroke="none" text-decoration="none" x="572.5" y="241.5">«FeatureOfInterest»</text></g></g><g transform="translate(-38,-38) scale(1,1)"><g><path fill="none" stroke="none"/><text fill="#000000" font-family="Arial" font-size="13px" font-style="normal" font-weight="bold" stroke="none" text-decoration="none" x="605.625244140625" y="256.5">Transect</text></g></g><g transform="translate(-38,-38) scale(1,1)"><g><path fill="none" stroke="none"/><text fill="#000000" font-family="Arial" font-size="13px" font-style="normal" font-weight="normal" stroke="none" text-decoration="none" x="573" y="279.5">+transectID: String</text></g></g><g transform="translate(-38,-38) scale(1,1)"><g><path fill="none" stroke="none"/><text fill="#000000" font-family="Arial" font-size="13px" font-style="normal" font-weight="normal" stroke="none" text-decoration="none" x="573" y="294.5">+direction: String</text></g></g><g transform="translate(-38,-38) scale(1,1)"><path d="M 599 423 L 568 368 L 603 310" fill="none" stroke="#000000" stroke-miterlimit="10"/></g><g transform="translate(-38,-38) scale(1,1)"><path d="M 601.3534390828033 320.87606717274036 L 603 310 L 594.1451647593284 316.5262464602986 L 591.6333707065428 328.83612854344335" fill="#000000" stroke="none"/></g><g transform="translate(-38,-38) scale(1,1)"><path d="M 601.3534390828033 320.87606717274036 L 603 310 L 594.1451647593284 316.5262464602986 L 591.6333707065428 328.83612854344335 L 601.3534390828033 320.87606717274036" fill="none" stroke="#000000" stroke-miterlimit="10"/></g><g transform="translate(-38,-38) scale(1,1)"><path d="M 567 277 L 376 311" fill="none" stroke="#000000" stroke-miterlimit="10"/></g><g transform="translate(-38,-38) scale(1,1)"><path d="M 394.5352928718932 299.1491385058661 L 376 311 L 397.48625580639896 315.7266067555897" fill="#FFFFFF" stroke="none"/></g><g transform="translate(-38,-38) scale(1,1)"><path d="M 394.5352928718932 299.1491385058661 L 376 311 L 397.48625580639896 315.7266067555897 L 394.5352928718932 299.1491385058661" fill="none" stroke="#000000" stroke-miterlimit="10"/></g><g transform="translate(-38,-38) scale(1,1)"><path d="M 652 423 L 688 368 L 655 310" fill="none" stroke="#000000" stroke-miterlimit="10"/></g><g transform="translate(-38,-38) scale(1,1)"><g><path fill="none" stroke="none"/><text fill="#000000" font-family="Arial" font-size="13px" font-style="normal" font-weight="normal" stroke="none" text-decoration="none" x="623.5" y="399.5">+hasPoint</text></g></g><g transform="translate(-38,-38) scale(1,1)"><g><path fill="none" stroke="none"/><text fill="#000000" font-family="Arial" font-size="13px" font-style="normal" font-weight="normal" stroke="none" text-decoration="none" x="664.5" y="417.5">0..*</text></g></g><g transform="translate(-38,-38) scale(1,1)"><g><path fill="none" stroke="none"/><text fill="#000000" font-family="Arial" font-size="13px" font-style="normal" font-weight="normal" stroke="none" text-decoration="none" x="626.5" y="345.5">+isPartOf</text></g></g><g transform="translate(-38,-38) scale(1,1)"><g><path fill="none" stroke="none"/><text fill="#000000" font-family="Arial" font-size="13px" font-style="normal" font-weight="normal" stroke="none" text-decoration="none" x="672.5" y="328.5">1</text></g></g><g transform="translate(-38,-38) scale(1,1)"><path d="M 551 117 L 394 116" fill="none" stroke="#000000" stroke-miterlimit="10"/></g><g transform="translate(-38,-38) scale(1,1)"><path d="M 414.37856077445326 107.71059346141631 L 394 116 L 414.2713140898827 124.54832293899346" fill="#FFFFFF" stroke="none"/></g><g transform="translate(-38,-38) scale(1,1)"><path d="M 414.37856077445326 107.71059346141631 L 394 116 L 414.2713140898827 124.54832293899346 L 414.37856077445326 107.71059346141631" fill="none" stroke="#000000" stroke-miterlimit="10"/></g><g transform="translate(-38,-38) scale(1,1)"><path d="M 959 501 L 690 473" fill="none" stroke="#000000" stroke-miterlimit="10"/></g><g transform="translate(-38,-38) scale(1,1)"><g><path fill="none" stroke="none"/><text fill="#000000" font-family="Arial" font-size="13px" font-style="normal" font-weight="normal" stroke="none" text-decoration="none" x="830.5" y="486.5">+featureDescription</text></g></g><g transform="translate(-38,-38) scale(1,1)"><g><path fill="none" stroke="none"/><text fill="#000000" font-family="Arial" font-size="13px" font-style="normal" font-weight="normal" stroke="none" text-decoration="none" x="886.5" y="507.5">0..*</text></g></g><g transform="translate(-38,-38) scale(1,1)"><g><path fill="none" stroke="none"/><text fill="#000000" font-family="Arial" font-size="13px" font-style="normal" font-weight="normal" stroke="none" text-decoration="none" x="696.5" y="492.5">+occurrence</text></g></g><g transform="translate(-38,-38) scale(1,1)"><g><path fill="none" stroke="none"/><text fill="#000000" font-family="Arial" font-size="13px" font-style="normal" font-weight="normal" stroke="none" text-decoration="none" x="701.5" y="468.5">0..1</text></g></g><g transform="translate(-38,-38) scale(1,1)"><path d="M 1123 471 L 1193 386" fill="none" stroke="#000000" stroke-miterlimit="10"/></g><g transform="translate(-38,-38) scale(1,1)"><path d="M 1189.7889679177747 396.52089696589223 L 1193 386 L 1183.2900598513036 391.16885502879836" fill="none" stroke="#000000" stroke-miterlimit="10"/></g><g transform="translate(-38,-38) scale(1,1)"><g><path fill="none" stroke="none"/><text fill="#000000" font-family="Arial" font-size="13px" font-style="normal" font-weight="normal" stroke="none" text-decoration="none" x="1099.5" y="424.5">+relatedFeature</text></g></g><g transform="translate(-38,-38) scale(1,1)"><path d="M 509 1047 L 643 759" fill="none" stroke="#000000" stroke-miterlimit="10"/></g><g transform="translate(-38,-38) scale(1,1)"><path d="M 642.5294870304415 769.9899325541824 L 643 759 L 634.8962412547438 766.4383529224341" fill="none" stroke="#000000" stroke-miterlimit="10"/></g><g transform="translate(-38,-38) scale(1,1)"><g><path fill="none" stroke="none"/><text fill="#000000" font-family="Arial" font-size="13px" font-style="normal" font-weight="normal" stroke="none" text-decoration="none" x="535.5" y="902.5">+hasPart</text></g></g><g transform="translate(-38,-38) scale(1,1)"><rect fill="#C0C0C0" height="44" opacity="0.2" stroke="none" width="72.552734375" x="343" y="967"/></g><g transform="translate(-38,-38) scale(1,1)"><rect fill="#ffffff" height="44" stroke="none" width="72.552734375" x="336" y="960"/></g><g transform="translate(-38,-38) scale(1,1)"><path d="M 336 960 L 408.552734375 960 L 408.552734375 1004 L 336 1004 L 336 960 Z Z" fill="none" stroke="#000000" stroke-miterlimit="10"/></g><g transform="translate(-38,-38) scale(1,1)"><path d="M 336 985 L 408.552734375 985" fill="none" stroke="#000000" stroke-miterlimit="10"/></g><g transform="translate(-38,-38) scale(1,1)"><path d="M 336 995 L 408.552734375 995" fill="none" stroke="#000000" stroke-miterlimit="10"/></g><g transform="translate(-38,-38) scale(1,1)"><g><path fill="none" stroke="none"/><text fill="#000000" font-family="Arial" font-size="13px" font-style="normal" font-weight="bold" stroke="none" text-decoration="none" x="343.016845703125" y="979.5">Formation</text></g></g><g transform="translate(-38,-38) scale(1,1)"><path d="M 378 959 L 408 842" fill="none" stroke="#000000" stroke-miterlimit="10"/></g><g transform="translate(-38,-38) scale(1,1)"><path d="M 409.5534498163043 852.8897563640434 L 408 842 L 401.3982343288573 850.7986754698262 L 402.5357422941105 863.310605052969" fill="#000000" stroke="none"/></g><g transform="translate(-38,-38) scale(1,1)"><path d="M 409.5534498163043 852.8897563640434 L 408 842 L 401.3982343288573 850.7986754698262 L 402.5357422941105 863.310605052969 L 409.5534498163043 852.8897563640434" fill="none" stroke="#000000" stroke-miterlimit="10"/></g><g transform="translate(-38,-38) scale(1,1)"><rect fill="#C0C0C0" height="44" opacity="0.2" stroke="none" width="160.67724609375" x="623" y="959"/></g><g transform="translate(-38,-38) scale(1,1)"><rect fill="#ffffff" height="44" stroke="none" width="160.67724609375" x="616" y="952"/></g><g transform="translate(-38,-38) scale(1,1)"><path d="M 616 952 L 776.67724609375 952 L 776.67724609375 996 L 616 996 L 616 952 Z Z" fill="none" stroke="#000000" stroke-miterlimit="10"/></g><g transform="translate(-38,-38) scale(1,1)"><path d="M 616 977 L 776.67724609375 977" fill="none" stroke="#000000" stroke-miterlimit="10"/></g><g transform="translate(-38,-38) scale(1,1)"><path d="M 616 987 L 776.67724609375 987" fill="none" stroke="#000000" stroke-miterlimit="10"/></g><g transform="translate(-38,-38) scale(1,1)"><g><path fill="none" stroke="none"/><text fill="#000000" font-family="Arial" font-size="13px" font-style="normal" font-weight="bold" stroke="none" text-decoration="none" x="627.345947265625" y="971.5">BroadFloristicFormation</text></g></g><g transform="translate(-38,-38) scale(1,1)"><path d="M 693 951 L 665 759" fill="none" stroke="#000000" stroke-miterlimit="10"/></g><g transform="translate(-38,-38) scale(1,1)"><path d="M 670.6320006879512 768.4488395187408 L 665 759 L 662.3010873800526 769.6637643761426" fill="none" stroke="#000000" stroke-miterlimit="10"/></g><g transform="translate(-38,-38) scale(1,1)"><g><path fill="none" stroke="none"/><text fill="#000000" font-family="Arial" font-size="13px" font-style="normal" font-weight="normal" stroke="none" text-decoration="none" x="637.5" y="863.5">+hasPart</text></g></g><g transform="translate(-38,-38) scale(1,1)"><rect fill="#C0C0C0" height="44" opacity="0.2" stroke="none" width="97.10546875" x="823" y="1031"/></g><g transform="translate(-38,-38) scale(1,1)"><rect fill="#ffffff" height="44" stroke="none" width="97.10546875" x="816" y="1024"/></g><g transform="translate(-38,-38) scale(1,1)"><path d="M 816 1024 L 913.10546875 1024 L 913.10546875 1068 L 816 1068 L 816 1024 Z Z" fill="none" stroke="#000000" stroke-miterlimit="10"/></g><g transform="translate(-38,-38) scale(1,1)"><path d="M 816 1049 L 913.10546875 1049" fill="none" stroke="#000000" stroke-miterlimit="10"/></g><g transform="translate(-38,-38) scale(1,1)"><path d="M 816 1059 L 913.10546875 1059" fill="none" stroke="#000000" stroke-miterlimit="10"/></g><g transform="translate(-38,-38) scale(1,1)"><g><path fill="none" stroke="none"/><text fill="#000000" font-family="Arial" font-size="13px" font-style="normal" font-weight="bold" stroke="none" text-decoration="none" x="823.727783203125" y="1043.5">SubFormation</text></g></g><g transform="translate(-38,-38) scale(1,1)"><rect fill="#C0C0C0" height="44" opacity="0.2" stroke="none" width="82.68359375" x="911" y="927"/></g><g transform="translate(-38,-38) scale(1,1)"><rect fill="#ffffff" height="44" stroke="none" width="82.68359375" x="904" y="920"/></g><g transform="translate(-38,-38) scale(1,1)"><path d="M 904 920 L 986.68359375 920 L 986.68359375 964 L 904 964 L 904 920 Z Z" fill="none" stroke="#000000" stroke-miterlimit="10"/></g><g transform="translate(-38,-38) scale(1,1)"><path d="M 904 945 L 986.68359375 945" fill="none" stroke="#000000" stroke-miterlimit="10"/></g><g transform="translate(-38,-38) scale(1,1)"><path d="M 904 955 L 986.68359375 955" fill="none" stroke="#000000" stroke-miterlimit="10"/></g><g transform="translate(-38,-38) scale(1,1)"><g><path fill="none" stroke="none"/><text fill="#000000" font-family="Arial" font-size="13px" font-style="normal" font-weight="bold" stroke="none" text-decoration="none" x="912.102294921875" y="939.5">Association</text></g></g><g transform="translate(-38,-38) scale(1,1)"><rect fill="#C0C0C0" height="44" opacity="0.2" stroke="none" width="107.236328125" x="1055" y="823"/></g><g transform="translate(-38,-38) scale(1,1)"><rect fill="#ffffff" height="44" stroke="none" width="107.236328125" x="1048" y="816"/></g><g transform="translate(-38,-38) scale(1,1)"><path d="M 1048 816 L 1155.236328125 816 L 1155.236328125 860 L 1048 860 L 1048 816 Z Z" fill="none" stroke="#000000" stroke-miterlimit="10"/></g><g transform="translate(-38,-38) scale(1,1)"><path d="M 1048 841 L 1155.236328125 841" fill="none" stroke="#000000" stroke-miterlimit="10"/></g><g transform="translate(-38,-38) scale(1,1)"><path d="M 1048 851 L 1155.236328125 851" fill="none" stroke="#000000" stroke-miterlimit="10"/></g><g transform="translate(-38,-38) scale(1,1)"><g><path fill="none" stroke="none"/><text fill="#000000" font-family="Arial" font-size="13px" font-style="normal" font-weight="bold" stroke="none" text-decoration="none" x="1056.813232421875" y="835.5">SubAssociation</text></g></g><g transform="translate(-38,-38) scale(1,1)"><path d="M 458 1047 L 402 1005" fill="none" stroke="#000000" stroke-miterlimit="10"/></g><g transform="translate(-38,-38) scale(1,1)"><path d="M 412.6558505397089 1007.7299907097618 L 402 1005 L 407.60442923248974 1014.4652191193873 L 419.6 1018.2" fill="#FFFFFF" stroke="none"/></g><g transform="translate(-38,-38) scale(1,1)"><path d="M 412.6558505397089 1007.7299907097618 L 402 1005 L 407.60442923248974 1014.4652191193873 L 419.6 1018.2 L 412.6558505397089 1007.7299907097618" fill="none" stroke="#000000" stroke-miterlimit="10"/></g><g transform="translate(-38,-38) scale(1,1)"><path d="M 651 997 L 553 1047" fill="none" stroke="#000000" stroke-miterlimit="10"/></g><g transform="translate(-38,-38) scale(1,1)"><path d="M 560.1394222844964 1038.631687778074 L 553 1047 L 563.9656242303319 1046.1310435919115 L 572.5967611335811 1037.0016524828668" fill="#FFFFFF" stroke="none"/></g><g transform="translate(-38,-38) scale(1,1)"><path d="M 560.1394222844964 1038.631687778074 L 553 1047 L 563.9656242303319 1046.1310435919115 L 572.5967611335811 1037.0016524828668 L 560.1394222844964 1038.631687778074" fill="none" stroke="#000000" stroke-miterlimit="10"/></g><g transform="translate(-38,-38) scale(1,1)"><path d="M 815 1025 L 750 997" fill="none" stroke="#000000" stroke-miterlimit="10"/></g><g transform="translate(-38,-38) scale(1,1)"><path d="M 760.998914614719 997.1545228077724 L 750 997 L 757.6681429845357 1004.8866712349834 L 770.2050775478422 1005.7037257129166" fill="#FFFFFF" stroke="none"/></g><g transform="translate(-38,-38) scale(1,1)"><path d="M 760.998914614719 997.1545228077724 L 750 997 L 757.6681429845357 1004.8866712349834 L 770.2050775478422 1005.7037257129166 L 760.998914614719 997.1545228077724" fill="none" stroke="#000000" stroke-miterlimit="10"/></g><g transform="translate(-38,-38) scale(1,1)"><path d="M 927 965 L 882 1023" fill="none" stroke="#000000" stroke-miterlimit="10"/></g><g transform="translate(-38,-38) scale(1,1)"><path d="M 884.9038127572263 1012.3901992727964 L 882 1023 L 891.5555677331744 1017.5510436506871 L 895.4859362632849 1005.6181265939883" fill="#FFFFFF" stroke="none"/></g><g transform="translate(-38,-38) scale(1,1)"><path d="M 884.9038127572263 1012.3901992727964 L 882 1023 L 891.5555677331744 1017.5510436506871 L 895.4859362632849 1005.6181265939883 L 884.9038127572263 1012.3901992727964" fill="none" stroke="#000000" stroke-miterlimit="10"/></g><g transform="translate(-38,-38) scale(1,1)"><path d="M 1067 861 L 980 919" fill="none" stroke="#000000" stroke-miterlimit="10"/></g><g transform="translate(-38,-38) scale(1,1)"><path d="M 986.1208362812703 909.8602317743891 L 980 919 L 990.7908769318217 916.8652927502162 L 998.3051064754326 906.796595683045" fill="#FFFFFF" stroke="none"/></g><g transform="translate(-38,-38) scale(1,1)"><path d="M 986.1208362812703 909.8602317743891 L 980 919 L 990.7908769318217 916.8652927502162 L 998.3051064754326 906.796595683045 L 986.1208362812703 909.8602317743891" fill="none" stroke="#000000" stroke-miterlimit="10"/></g><g transform="translate(-38,-38) scale(1,1)"><path d="M 849 1023 L 683 759" fill="none" stroke="#000000" stroke-miterlimit="10"/></g><g transform="translate(-38,-38) scale(1,1)"><path d="M 691.9732051257635 765.362514422064 L 683 759 L 684.8460371001665 769.8439912866439" fill="none" stroke="#000000" stroke-miterlimit="10"/></g><g transform="translate(-38,-38) scale(1,1)"><g><path fill="none" stroke="none"/><text fill="#000000" font-family="Arial" font-size="13px" font-style="normal" font-weight="normal" stroke="none" text-decoration="none" x="726.5" y="904.5">+hasPart</text></g></g><g transform="translate(-38,-38) scale(1,1)"><path d="M 915 919 L 707 759" fill="none" stroke="#000000" stroke-miterlimit="10"/></g><g transform="translate(-38,-38) scale(1,1)"><path d="M 717.6217681594538 761.85972746373 L 707 759 L 712.4885916117922 768.5328569756902" fill="none" stroke="#000000" stroke-miterlimit="10"/></g><g transform="translate(-38,-38) scale(1,1)"><g><path fill="none" stroke="none"/><text fill="#000000" font-family="Arial" font-size="13px" font-style="normal" font-weight="normal" stroke="none" text-decoration="none" x="774.5" y="856.5">+hasPart</text></g></g><g transform="translate(-38,-38) scale(1,1)"><path d="M 1047 824 L 798 759" fill="none" stroke="#000000" stroke-miterlimit="10"/></g><g transform="translate(-38,-38) scale(1,1)"><path d="M 808.8964005514983 757.4938608891254 L 798 759 L 806.7699198991991 765.6399175417796" fill="none" stroke="#000000" stroke-miterlimit="10"/></g><g transform="translate(-38,-38) scale(1,1)"><g><path fill="none" stroke="none"/><text fill="#000000" font-family="Arial" font-size="13px" font-style="normal" font-weight="normal" stroke="none" text-decoration="none" x="891.5" y="811.5">+hasPart</text></g></g></g></svg>