<?xml version="1.0" encoding="UTF-8" standalone="no"?><svg xmlns="http://www.w3.org/2000/svg" xmlns:xlink="http://www.w3.org/1999/xlink" height="683" version="1.1" width="977.0751953125"><defs/><g><g transform="translate(-22,-29) scale(1,1)"><rect fill="#C0C0C0" height="44" opacity="0.2" stroke="none" width="152" x="559" y="207"/></g><g transform="translate(-22,-29) scale(1,1)"><rect fill="#ffffff" height="44" stroke="none" width="152" x="552" y="200"/></g><g transform="translate(-22,-29) scale(1,1)"><path d="M 552 200 L 704 200 L 704 244 L 552 244 L 552 200 Z Z" fill="none" stroke="#000000" stroke-miterlimit="10"/></g><g transform="translate(-22,-29) scale(1,1)"><path d="M 552 225 L 704 225" fill="none" stroke="#000000" stroke-miterlimit="10"/></g><g transform="translate(-22,-29) scale(1,1)"><path d="M 552 235 L 704 235" fill="none" stroke="#000000" stroke-miterlimit="10"/></g><g transform="translate(-22,-29) scale(1,1)"><g><path fill="none" stroke="none"/><text fill="#000000" font-family="Arial" font-size="13px" font-style="italic" font-weight="bold" stroke="none" text-decoration="none" x="574.759033203125" y="219.5">VegetationFeature</text></g></g><g transform="translate(-22,-29) scale(1,1)"><rect fill="#C0C0C0" height="70" opacity="0.2" stroke="none" width="432.0205078125" x="143" y="639"/></g><g transform="translate(-22,-29) scale(1,1)"><rect fill="#ffffff" height="70" stroke="none" width="432.0205078125" x="136" y="632"/></g><g transform="translate(-22,-29) scale(1,1)"><path d="M 136 632 L 568.0205078125 632 L 568.0205078125 702 L 136 702 L 136 632 Z Z" fill="none" stroke="#000000" stroke-miterlimit="10"/></g><g transform="translate(-22,-29) scale(1,1)"><path d="M 136 670 L 568.0205078125 670" fill="none" stroke="#000000" stroke-miterlimit="10"/></g><g transform="translate(-22,-29) scale(1,1)"><path d="M 136 693 L 568.0205078125 693" fill="none" stroke="#000000" stroke-miterlimit="10"/></g><g transform="translate(-22,-29) scale(1,1)"><g><path fill="none" stroke="none"/><text fill="#000000" font-family="Arial" font-size="13px" font-style="normal" font-weight="normal" stroke="none" text-decoration="none" x="291.65673828125" y="649.5">«VegetationFeature»</text></g></g><g transform="translate(-22,-29) scale(1,1)"><g><path fill="none" stroke="none"/><text fill="#000000" font-family="Arial" font-size="13px" font-style="normal" font-weight="bold" stroke="none" text-decoration="none" x="304.32666015625" y="664.5">PlantCommunity</text></g></g><g transform="translate(-22,-29) scale(1,1)"><g><path fill="none" stroke="none"/><text fill="#000000" font-family="Arial" font-size="13px" font-style="normal" font-weight="normal" stroke="none" text-decoration="none" x="141" y="687.5">+structuralFormationClassification: StructuralFormationClassification[0..1]</text></g></g><g transform="translate(-22,-29) scale(1,1)"><rect fill="#C0C0C0" height="72" opacity="0.2" stroke="none" width="114.4599609375" x="579.423095703125" y="83"/></g><g transform="translate(-22,-29) scale(1,1)"><rect fill="#ffffff" height="72" stroke="none" width="114.4599609375" x="572.423095703125" y="76"/></g><g transform="translate(-22,-29) scale(1,1)"><path d="M 572.423095703125 76 L 686.883056640625 76 L 686.883056640625 148 L 572.423095703125 148 L 572.423095703125 76 Z Z" fill="none" stroke="#000000" stroke-miterlimit="10"/></g><g transform="translate(-22,-29) scale(1,1)"><path d="M 572.423095703125 116 L 686.883056640625 116" fill="none" stroke="#000000" stroke-miterlimit="10"/></g><g transform="translate(-22,-29) scale(1,1)"><path d="M 572.423095703125 139 L 686.883056640625 139" fill="none" stroke="#000000" stroke-miterlimit="10"/></g><g transform="translate(-22,-29) scale(1,1)"><g><path fill="none" stroke="none"/><text fill="#000000" font-family="Arial" font-size="13px" font-style="normal" font-weight="bold" stroke="none" text-decoration="none" x="607.614013671875" y="95.5">Sample</text></g></g><g transform="translate(-22,-29) scale(1,1)"><g><path fill="none" stroke="none"/><text fill="#000000" font-family="Arial" font-size="13px" font-style="normal" font-weight="normal" stroke="none" text-decoration="none" x="576.923095703125" y="110.5">(from Plot-X Core)</text></g></g><g transform="translate(-22,-29) scale(1,1)"><g><path fill="none" stroke="none"/><text fill="#000000" font-family="Arial" font-size="13px" font-style="normal" font-weight="normal" stroke="none" text-decoration="none" x="577.423095703125" y="133.5">+identifier</text></g></g><g transform="translate(-22,-29) scale(1,1)"><path d="M 613 76 L 613 40 L 684 40 L 684 76" fill="none" stroke="#000000" stroke-miterlimit="10"/></g><g transform="translate(-22,-29) scale(1,1)"><g><path fill="none" stroke="none"/><text fill="#000000" font-family="Arial" font-size="13px" font-style="normal" font-weight="normal" stroke="none" text-decoration="none" x="523.5" y="52.5">+hasSample</text></g></g><g transform="translate(-22,-29) scale(1,1)"><g><path fill="none" stroke="none"/><text fill="#000000" font-family="Arial" font-size="13px" font-style="normal" font-weight="normal" stroke="none" text-decoration="none" x="691.5" y="51.5">+isSampleOf</text></g></g><g transform="translate(-22,-29) scale(1,1)"><rect fill="#C0C0C0" height="57" opacity="0.2" stroke="none" width="149.0751953125" x="847" y="431"/></g><g transform="translate(-22,-29) scale(1,1)"><rect fill="#ffffff" height="57" stroke="none" width="149.0751953125" x="840" y="424"/></g><g transform="translate(-22,-29) scale(1,1)"><path d="M 840 424 L 989.0751953125 424 L 989.0751953125 481 L 840 481 L 840 424 Z Z" fill="none" stroke="#000000" stroke-miterlimit="10"/></g><g transform="translate(-22,-29) scale(1,1)"><path d="M 840 462 L 989.0751953125 462" fill="none" stroke="#000000" stroke-miterlimit="10"/></g><g transform="translate(-22,-29) scale(1,1)"><path d="M 840 472 L 989.0751953125 472" fill="none" stroke="#000000" stroke-miterlimit="10"/></g><g transform="translate(-22,-29) scale(1,1)"><g><path fill="none" stroke="none"/><text fill="#000000" font-family="Arial" font-size="13px" font-style="normal" font-weight="normal" stroke="none" text-decoration="none" x="854.18408203125" y="441.5">«VegetationFeature»</text></g></g><g transform="translate(-22,-29) scale(1,1)"><g><path fill="none" stroke="none"/><text fill="#000000" font-family="Arial" font-size="13px" font-style="normal" font-weight="bold" stroke="none" text-decoration="none" x="866.82861328125" y="456.5">VegetationStand</text></g></g><g transform="translate(-22,-29) scale(1,1)"><rect fill="#C0C0C0" height="87" opacity="0.2" stroke="none" width="241.349609375" x="159" y="79"/></g><g transform="translate(-22,-29) scale(1,1)"><rect fill="#ffffff" height="87" stroke="none" width="241.349609375" x="152" y="72"/></g><g transform="translate(-22,-29) scale(1,1)"><path d="M 152 72 L 393.349609375 72 L 393.349609375 159 L 152 159 L 152 72 Z Z" fill="none" stroke="#000000" stroke-miterlimit="10"/></g><g transform="translate(-22,-29) scale(1,1)"><path d="M 152 112 L 393.349609375 112" fill="none" stroke="#000000" stroke-miterlimit="10"/></g><g transform="translate(-22,-29) scale(1,1)"><path d="M 152 135 L 393.349609375 135" fill="none" stroke="#000000" stroke-miterlimit="10"/></g><g transform="translate(-22,-29) scale(1,1)"><g><path fill="none" stroke="none"/><text fill="#000000" font-family="Arial" font-size="13px" font-style="normal" font-weight="bold" stroke="none" text-decoration="none" x="221.73486328125" y="91.5">FeatureOfInterest</text></g></g><g transform="translate(-22,-29) scale(1,1)"><g><path fill="none" stroke="none"/><text fill="#000000" font-family="Arial" font-size="13px" font-style="normal" font-weight="normal" stroke="none" text-decoration="none" x="219.94482421875" y="106.5">(from Plot-X Core)</text></g></g><g transform="translate(-22,-29) scale(1,1)"><g><path fill="none" stroke="none"/><text fill="#000000" font-family="Arial" font-size="13px" font-style="normal" font-weight="normal" stroke="none" text-decoration="none" x="157" y="129.5">+featureType: FeatureTerm</text></g></g><g transform="translate(-22,-29) scale(1,1)"><path d="M 571 112 L 394 114" fill="none" stroke="#000000" stroke-miterlimit="10"/></g><g transform="translate(-22,-29) scale(1,1)"><path d="M 414.2289280249293 105.35185158763849 L 394 114 L 414.4191765696506 122.18884779547359" fill="#FFFFFF" stroke="none"/></g><g transform="translate(-22,-29) scale(1,1)"><path d="M 414.2289280249293 105.35185158763849 L 394 114 L 414.4191765696506 122.18884779547359 L 414.2289280249293 105.35185158763849" fill="none" stroke="#000000" stroke-miterlimit="10"/></g><g transform="translate(-22,-29) scale(1,1)"><path d="M 571 133 L 453 176 L 394 156" fill="none" stroke="#000000" stroke-miterlimit="10"/></g><g transform="translate(-22,-29) scale(1,1)"><g><path fill="none" stroke="none"/><text fill="#000000" font-family="Arial" font-size="13px" font-style="normal" font-weight="normal" stroke="none" text-decoration="none" x="494.5" y="172.5">+hasSample</text></g></g><g transform="translate(-22,-29) scale(1,1)"><g><path fill="none" stroke="none"/><text fill="#000000" font-family="Arial" font-size="13px" font-style="normal" font-weight="normal" stroke="none" text-decoration="none" x="392.5" y="194.5">+isSampleOf</text></g></g><g transform="translate(-22,-29) scale(1,1)"><rect fill="#C0C0C0" height="57" opacity="0.2" stroke="none" width="149.8671875" x="799" y="527"/></g><g transform="translate(-22,-29) scale(1,1)"><rect fill="#ffffff" height="57" stroke="none" width="149.8671875" x="792" y="520"/></g><g transform="translate(-22,-29) scale(1,1)"><path d="M 792 520 L 941.8671875 520 L 941.8671875 577 L 792 577 L 792 520 Z Z" fill="none" stroke="#000000" stroke-miterlimit="10"/></g><g transform="translate(-22,-29) scale(1,1)"><path d="M 792 558 L 941.8671875 558" fill="none" stroke="#000000" stroke-miterlimit="10"/></g><g transform="translate(-22,-29) scale(1,1)"><path d="M 792 568 L 941.8671875 568" fill="none" stroke="#000000" stroke-miterlimit="10"/></g><g transform="translate(-22,-29) scale(1,1)"><g><path fill="none" stroke="none"/><text fill="#000000" font-family="Arial" font-size="13px" font-style="normal" font-weight="normal" stroke="none" text-decoration="none" x="806.580078125" y="537.5">«VegetationFeature»</text></g></g><g transform="translate(-22,-29) scale(1,1)"><g><path fill="none" stroke="none"/><text fill="#000000" font-family="Arial" font-size="13px" font-style="normal" font-weight="bold" stroke="none" text-decoration="none" x="801.52734375" y="552.5">VegetationDisturbance</text></g></g><g transform="translate(-22,-29) scale(1,1)"><path d="M 628 199 L 629 149" fill="none" stroke="#000000" stroke-miterlimit="10"/></g><g transform="translate(-22,-29) scale(1,1)"><path d="M 637.010926492615 169.48963290861795 L 629 149 L 620.1762220728082 169.1529388202218" fill="#FFFFFF" stroke="none"/></g><g transform="translate(-22,-29) scale(1,1)"><path d="M 637.010926492615 169.48963290861795 L 629 149 L 620.1762220728082 169.1529388202218 L 637.010926492615 169.48963290861795" fill="none" stroke="#000000" stroke-miterlimit="10"/></g><g transform="translate(-22,-29) scale(1,1)"><rect fill="#C0C0C0" height="70" opacity="0.2" stroke="none" width="283.98046875" x="39" y="471"/></g><g transform="translate(-22,-29) scale(1,1)"><rect fill="#ffffff" height="70" stroke="none" width="283.98046875" x="32" y="464"/></g><g transform="translate(-22,-29) scale(1,1)"><path d="M 32 464 L 315.98046875 464 L 315.98046875 534 L 32 534 L 32 464 Z Z" fill="none" stroke="#000000" stroke-miterlimit="10"/></g><g transform="translate(-22,-29) scale(1,1)"><path d="M 32 502 L 315.98046875 502" fill="none" stroke="#000000" stroke-miterlimit="10"/></g><g transform="translate(-22,-29) scale(1,1)"><path d="M 32 525 L 315.98046875 525" fill="none" stroke="#000000" stroke-miterlimit="10"/></g><g transform="translate(-22,-29) scale(1,1)"><g><path fill="none" stroke="none"/><text fill="#000000" font-family="Arial" font-size="13px" font-style="normal" font-weight="normal" stroke="none" text-decoration="none" x="113.63671875" y="481.5">«VegetationFeature»</text></g></g><g transform="translate(-22,-29) scale(1,1)"><g><path fill="none" stroke="none"/><text fill="#000000" font-family="Arial" font-size="13px" font-style="normal" font-weight="bold" stroke="none" text-decoration="none" x="128.455322265625" y="496.5">PlantPopulation</text></g></g><g transform="translate(-22,-29) scale(1,1)"><g><path fill="none" stroke="none"/><text fill="#000000" font-family="Arial" font-size="13px" font-style="normal" font-weight="normal" stroke="none" text-decoration="none" x="37" y="519.5">+identificationType: PlantIdentificationType[0..1]</text></g></g><g transform="translate(-22,-29) scale(1,1)"><rect fill="#C0C0C0" height="70" opacity="0.2" stroke="none" width="280.29248046875" x="455" y="527"/></g><g transform="translate(-22,-29) scale(1,1)"><rect fill="#ffffff" height="70" stroke="none" width="280.29248046875" x="448" y="520"/></g><g transform="translate(-22,-29) scale(1,1)"><path d="M 448 520 L 728.29248046875 520 L 728.29248046875 590 L 448 590 L 448 520 Z Z" fill="none" stroke="#000000" stroke-miterlimit="10"/></g><g transform="translate(-22,-29) scale(1,1)"><path d="M 448 558 L 728.29248046875 558" fill="none" stroke="#000000" stroke-miterlimit="10"/></g><g transform="translate(-22,-29) scale(1,1)"><path d="M 448 581 L 728.29248046875 581" fill="none" stroke="#000000" stroke-miterlimit="10"/></g><g transform="translate(-22,-29) scale(1,1)"><g><path fill="none" stroke="none"/><text fill="#000000" font-family="Arial" font-size="13px" font-style="normal" font-weight="normal" stroke="none" text-decoration="none" x="527.792724609375" y="537.5">«VegetationFeature»</text></g></g><g transform="translate(-22,-29) scale(1,1)"><g><path fill="none" stroke="none"/><text fill="#000000" font-family="Arial" font-size="13px" font-style="normal" font-weight="bold" stroke="none" text-decoration="none" x="534.667236328125" y="552.5">VegetationStratum</text></g></g><g transform="translate(-22,-29) scale(1,1)"><g><path fill="none" stroke="none"/><text fill="#000000" font-family="Arial" font-size="13px" font-style="normal" font-weight="normal" stroke="none" text-decoration="none" x="453" y="575.5">+stratumClassification: StratumClassification[1]</text></g></g><g transform="translate(-22,-29) scale(1,1)"><rect fill="#C0C0C0" height="57" opacity="0.2" stroke="none" width="129.70703125" x="415" y="367"/></g><g transform="translate(-22,-29) scale(1,1)"><rect fill="#ffffff" height="57" stroke="none" width="129.70703125" x="408" y="360"/></g><g transform="translate(-22,-29) scale(1,1)"><path d="M 408 360 L 537.70703125 360 L 537.70703125 417 L 408 417 L 408 360 Z Z" fill="none" stroke="#000000" stroke-miterlimit="10"/></g><g transform="translate(-22,-29) scale(1,1)"><path d="M 408 398 L 537.70703125 398" fill="none" stroke="#000000" stroke-miterlimit="10"/></g><g transform="translate(-22,-29) scale(1,1)"><path d="M 408 408 L 537.70703125 408" fill="none" stroke="#000000" stroke-miterlimit="10"/></g><g transform="translate(-22,-29) scale(1,1)"><g><path fill="none" stroke="none"/><text fill="#000000" font-family="Arial" font-size="13px" font-style="normal" font-weight="normal" stroke="none" text-decoration="none" x="412.5" y="377.5">«VegetationFeature»</text></g></g><g transform="translate(-22,-29) scale(1,1)"><g><path fill="none" stroke="none"/><text fill="#000000" font-family="Arial" font-size="13px" font-style="normal" font-weight="bold" stroke="none" text-decoration="none" x="442.130859375" y="392.5">Vegetation</text></g></g><g transform="translate(-22,-29) scale(1,1)"><path d="M 270 463 L 407 412" fill="none" stroke="#000000" stroke-miterlimit="10"/></g><g transform="translate(-22,-29) scale(1,1)"><path d="M 398.94443654287244 419.49052050182036 L 407 412 L 396.00725861173254 411.6004542946406 L 386.38226340655257 419.67521581215925" fill="#000000" stroke="none"/></g><g transform="translate(-22,-29) scale(1,1)"><path d="M 398.94443654287244 419.49052050182036 L 407 412 L 396.00725861173254 411.6004542946406 L 386.38226340655257 419.67521581215925 L 398.94443654287244 419.49052050182036" fill="none" stroke="#000000" stroke-miterlimit="10"/></g><g transform="translate(-22,-29) scale(1,1)"><path d="M 563 519 L 493 418" fill="none" stroke="#000000" stroke-miterlimit="10"/></g><g transform="translate(-22,-29) scale(1,1)"><path d="M 502.2487945466665 423.95481313170717 L 493 418 L 495.3291965956202 428.7505740878779 L 505.53192730746554 436.08178082934313" fill="#000000" stroke="none"/></g><g transform="translate(-22,-29) scale(1,1)"><path d="M 502.2487945466665 423.95481313170717 L 493 418 L 495.3291965956202 428.7505740878779 L 505.53192730746554 436.08178082934313 L 502.2487945466665 423.95481313170717" fill="none" stroke="#000000" stroke-miterlimit="10"/></g><g transform="translate(-22,-29) scale(1,1)"><path d="M 839 441 L 539 398" fill="none" stroke="#000000" stroke-miterlimit="10"/></g><g transform="translate(-22,-29) scale(1,1)"><path d="M 549.6571232901586 395.2749819856815 L 539 398 L 548.4626028631923 403.6088454296321 L 560.7774346604059 401.12143230132483" fill="#000000" stroke="none"/></g><g transform="translate(-22,-29) scale(1,1)"><path d="M 549.6571232901586 395.2749819856815 L 539 398 L 548.4626028631923 403.6088454296321 L 560.7774346604059 401.12143230132483 L 549.6571232901586 395.2749819856815" fill="none" stroke="#000000" stroke-miterlimit="10"/></g><g transform="translate(-22,-29) scale(1,1)"><path d="M 367 631 L 459 418" fill="none" stroke="#000000" stroke-miterlimit="10"/></g><g transform="translate(-22,-29) scale(1,1)"><path d="M 458.83476034515314 428.99875883254407 L 459 418 L 451.1058609644095 425.6604548746642 L 450.2765913662679 438.1965873802711" fill="#000000" stroke="none"/></g><g transform="translate(-22,-29) scale(1,1)"><path d="M 458.83476034515314 428.99875883254407 L 459 418 L 451.1058609644095 425.6604548746642 L 450.2765913662679 438.1965873802711 L 458.83476034515314 428.99875883254407" fill="none" stroke="#000000" stroke-miterlimit="10"/></g><g transform="translate(-22,-29) scale(1,1)"><path d="M 795 519 L 539 415" fill="none" stroke="#000000" stroke-miterlimit="10"/></g><g transform="translate(-22,-29) scale(1,1)"><path d="M 549.9997444518679 414.92502004533424 L 539 415 L 546.8310127276321 422.72497505883763 L 559.3822646966908 423.28029503303065" fill="#000000" stroke="none"/></g><g transform="translate(-22,-29) scale(1,1)"><path d="M 549.9997444518679 414.92502004533424 L 539 415 L 546.8310127276321 422.72497505883763 L 559.3822646966908 423.28029503303065 L 549.9997444518679 414.92502004533424" fill="none" stroke="#000000" stroke-miterlimit="10"/></g><g transform="translate(-22,-29) scale(1,1)"><path d="M 272 72 L 272 48 L 48 48 L 48 104 L 152 104" fill="none" stroke="#000000" stroke-miterlimit="10"/></g><g transform="translate(-22,-29) scale(1,1)"><path d="M 141.83732514237585 108.20951775601598 L 152 104 L 141.83732514237585 99.79048224398402" fill="none" stroke="#000000" stroke-miterlimit="10"/></g><g transform="translate(-22,-29) scale(1,1)"><g><path fill="none" stroke="none"/><text fill="#000000" font-family="Arial" font-size="13px" font-style="normal" font-weight="normal" stroke="none" text-decoration="none" x="54.5" y="93.5">+relatedFeature</text></g></g></g></svg>