<?xml version="1.0" encoding="UTF-8" standalone="no"?><svg xmlns="http://www.w3.org/2000/svg" xmlns:xlink="http://www.w3.org/1999/xlink" height="564" version="1.1" width="1424.154296875"><defs/><g><g transform="translate(-270,-222) scale(1,1)"><rect fill="#C0C0C0" height="24" opacity="0.2" stroke="none" width="95.71533203125" x="607" y="759"/></g><g transform="translate(-270,-222) scale(1,1)"><rect fill="#ffffff" height="24" stroke="none" width="95.71533203125" x="600" y="752"/></g><g transform="translate(-270,-222) scale(1,1)"><path d="M 600 752 L 695.71533203125 752 L 695.71533203125 776 L 600 776 L 600 752 Z Z" fill="none" stroke="#000000" stroke-miterlimit="10"/></g><g transform="translate(-270,-222) scale(1,1)"><rect fill="#ffffff" height="24" stroke="none" width="95.71533203125" x="600" y="752"/></g><g transform="translate(-270,-222) scale(1,1)"><path d="M 600 752 L 695.71533203125 752 L 695.71533203125 776 L 600 776 L 600 752 Z Z" fill="none" stroke="#000000" stroke-miterlimit="10"/></g><g transform="translate(-270,-222) scale(1,1)"><g><path fill="none" stroke="none"/><text fill="#000000" font-family="Arial" font-size="13px" font-style="normal" font-weight="bold" stroke="none" text-decoration="none" x="606.66455078125" y="771.5">4225 site: Site</text><path d="M 691.21533203125 771.5 L 604.5 771.5" fill="none" stroke="#000000" stroke-miterlimit="10"/></g></g><g transform="translate(-270,-222) scale(1,1)"><rect fill="#C0C0C0" height="24" opacity="0.2" stroke="none" width="152.55859375" x="583" y="631"/></g><g transform="translate(-270,-222) scale(1,1)"><rect fill="#ffffff" height="24" stroke="none" width="152.55859375" x="576" y="624"/></g><g transform="translate(-270,-222) scale(1,1)"><path d="M 576 624 L 728.55859375 624 L 728.55859375 648 L 576 648 L 576 624 Z Z" fill="none" stroke="#000000" stroke-miterlimit="10"/></g><g transform="translate(-270,-222) scale(1,1)"><rect fill="#ffffff" height="24" stroke="none" width="152.55859375" x="576" y="624"/></g><g transform="translate(-270,-222) scale(1,1)"><path d="M 576 624 L 728.55859375 624 L 728.55859375 648 L 576 648 L 576 624 Z Z" fill="none" stroke="#000000" stroke-miterlimit="10"/></g><g transform="translate(-270,-222) scale(1,1)"><g><path fill="none" stroke="none"/><text fill="#000000" font-family="Arial" font-size="13px" font-style="normal" font-weight="bold" stroke="none" text-decoration="none" x="585.924072265625" y="643.5">4225 site visit: SiteVisit</text><path d="M 724.05859375 643.5 L 580.5 643.5" fill="none" stroke="#000000" stroke-miterlimit="10"/></g></g><g transform="translate(-270,-222) scale(1,1)"><path d="M 648 751 L 651 649" fill="none" stroke="#000000" stroke-miterlimit="10"/></g><g transform="translate(-270,-222) scale(1,1)"><path d="M 654.9089252082061 659.2820379165149 L 651 649 L 646.4935287866888 659.0345262570585" fill="none" stroke="#000000" stroke-miterlimit="10"/></g><g transform="translate(-270,-222) scale(1,1)"><g><path fill="none" stroke="none"/><text fill="#000000" font-family="Arial" font-size="13px" font-style="normal" font-weight="normal" stroke="none" text-decoration="none" x="607.5" y="705.5">+siteVisit</text></g></g><g transform="translate(-270,-222) scale(1,1)"><rect fill="#C0C0C0" height="24" opacity="0.2" stroke="none" width="256.76171875" x="287" y="391"/></g><g transform="translate(-270,-222) scale(1,1)"><rect fill="#ffffff" height="24" stroke="none" width="256.76171875" x="280" y="384"/></g><g transform="translate(-270,-222) scale(1,1)"><path d="M 280 384 L 536.76171875 384 L 536.76171875 408 L 280 408 L 280 384 Z Z" fill="none" stroke="#000000" stroke-miterlimit="10"/></g><g transform="translate(-270,-222) scale(1,1)"><rect fill="#ffffff" height="24" stroke="none" width="256.76171875" x="280" y="384"/></g><g transform="translate(-270,-222) scale(1,1)"><path d="M 280 384 L 536.76171875 384 L 536.76171875 408 L 280 408 L 280 384 Z Z" fill="none" stroke="#000000" stroke-miterlimit="10"/></g><g transform="translate(-270,-222) scale(1,1)"><g><path fill="none" stroke="none"/><text fill="#000000" font-family="Arial" font-size="13px" font-style="normal" font-weight="bold" stroke="none" text-decoration="none" x="293.49462890625" y="403.5">4225 plant community: PlantCommunity</text><path d="M 532.26171875 403.5 L 284.5 403.5" fill="none" stroke="#000000" stroke-miterlimit="10"/></g></g><g transform="translate(-270,-222) scale(1,1)"><rect fill="#C0C0C0" height="24" opacity="0.2" stroke="none" width="262.55078125" x="975" y="391"/></g><g transform="translate(-270,-222) scale(1,1)"><rect fill="#ffffff" height="24" stroke="none" width="262.55078125" x="968" y="384"/></g><g transform="translate(-270,-222) scale(1,1)"><path d="M 968 384 L 1230.55078125 384 L 1230.55078125 408 L 968 408 L 968 384 Z Z" fill="none" stroke="#000000" stroke-miterlimit="10"/></g><g transform="translate(-270,-222) scale(1,1)"><rect fill="#ffffff" height="24" stroke="none" width="262.55078125" x="968" y="384"/></g><g transform="translate(-270,-222) scale(1,1)"><path d="M 968 384 L 1230.55078125 384 L 1230.55078125 408 L 968 408 L 968 384 Z Z" fill="none" stroke="#000000" stroke-miterlimit="10"/></g><g transform="translate(-270,-222) scale(1,1)"><g><path fill="none" stroke="none"/><text fill="#000000" font-family="Arial" font-size="13px" font-style="normal" font-weight="bold" stroke="none" text-decoration="none" x="983.671875" y="403.5">structural form observation: Observation</text><path d="M 1226.05078125 403.5 L 972.5 403.5" fill="none" stroke="#000000" stroke-miterlimit="10"/></g></g><g transform="translate(-270,-222) scale(1,1)"><path d="M 967 396 L 538 396" fill="none" stroke="#000000" stroke-miterlimit="10"/></g><g transform="translate(-270,-222) scale(1,1)"><path d="M 548.1626748576241 391.790482243984 L 538 396 L 548.1626748576241 400.209517756016" fill="none" stroke="#000000" stroke-miterlimit="10"/></g><g transform="translate(-270,-222) scale(1,1)"><g><path fill="none" stroke="none"/><text fill="#000000" font-family="Arial" font-size="13px" font-style="normal" font-weight="normal" stroke="none" text-decoration="none" x="685.5" y="417.5">+hasFeatureOfInterest</text></g></g><g transform="translate(-270,-222) scale(1,1)"><path d="M 676 623 L 1075 409" fill="none" stroke="#000000" stroke-miterlimit="10"/></g><g transform="translate(-270,-222) scale(1,1)"><path d="M 1068.0337727239482 417.5130298682897 L 1075 409 L 1064.0545123055058 410.0937546021284" fill="none" stroke="#000000" stroke-miterlimit="10"/></g><g transform="translate(-270,-222) scale(1,1)"><g><path fill="none" stroke="none"/><text fill="#000000" font-family="Arial" font-size="13px" font-style="normal" font-weight="normal" stroke="none" text-decoration="none" x="820.5" y="508.5">+hasSubActivity</text></g></g><g transform="translate(-270,-222) scale(1,1)"><rect fill="#C0C0C0" height="39" opacity="0.2" stroke="none" width="200.41357421875" x="1119" y="239"/></g><g transform="translate(-270,-222) scale(1,1)"><rect fill="#ffffff" height="39" stroke="none" width="200.41357421875" x="1112" y="232"/></g><g transform="translate(-270,-222) scale(1,1)"><path d="M 1112 232 L 1312.41357421875 232 L 1312.41357421875 271 L 1112 271 L 1112 232 Z Z" fill="none" stroke="#000000" stroke-miterlimit="10"/></g><g transform="translate(-270,-222) scale(1,1)"><rect fill="#ffffff" height="39" stroke="none" width="200.41357421875" x="1112" y="232"/></g><g transform="translate(-270,-222) scale(1,1)"><path d="M 1112 232 L 1312.41357421875 232 L 1312.41357421875 271 L 1112 271 L 1112 232 Z Z" fill="none" stroke="#000000" stroke-miterlimit="10"/></g><g transform="translate(-270,-222) scale(1,1)"><g><path fill="none" stroke="none"/><text fill="#000000" font-family="Arial" font-size="13px" font-style="normal" font-weight="bold" stroke="none" text-decoration="none" x="1132.378662109375" y="251.5">structural form result: String</text><path d="M 1300.68994140625 251.5 L 1123.7236328125 251.5" fill="none" stroke="#000000" stroke-miterlimit="10"/></g></g><g transform="translate(-270,-222) scale(1,1)"><g><path fill="none" stroke="none"/><text fill="#000000" font-family="Arial" font-size="13px" font-style="normal" font-weight="normal" stroke="none" text-decoration="none" x="1159.8291015625" y="266.5">Tall Closed-Forest</text></g></g><g transform="translate(-270,-222) scale(1,1)"><path d="M 1109 383 L 1196 272" fill="none" stroke="#000000" stroke-miterlimit="10"/></g><g transform="translate(-270,-222) scale(1,1)"><path d="M 1193.0439580808036 282.595367675166 L 1196 272 L 1186.4177063811899 277.4018190457391" fill="none" stroke="#000000" stroke-miterlimit="10"/></g><g transform="translate(-270,-222) scale(1,1)"><g><path fill="none" stroke="none"/><text fill="#000000" font-family="Arial" font-size="13px" font-style="normal" font-weight="normal" stroke="none" text-decoration="none" x="1107.5" y="323.5">+hasResult</text></g></g><g transform="translate(-270,-222) scale(1,1)"><rect fill="#C0C0C0" height="47" opacity="0.2" stroke="none" width="300.154296875" x="1391" y="359"/></g><g transform="translate(-270,-222) scale(1,1)"><rect fill="#ffffff" height="47" stroke="none" width="300.154296875" x="1384" y="352"/></g><g transform="translate(-270,-222) scale(1,1)"><path d="M 1384 352 L 1684.154296875 352 L 1684.154296875 399 L 1384 399 L 1384 352 Z Z" fill="none" stroke="#000000" stroke-miterlimit="10"/></g><g transform="translate(-270,-222) scale(1,1)"><rect fill="#ffffff" height="47" stroke="none" width="300.154296875" x="1384" y="352"/></g><g transform="translate(-270,-222) scale(1,1)"><path d="M 1384 352 L 1684.154296875 352 L 1684.154296875 399 L 1384 399 L 1384 352 Z Z" fill="none" stroke="#000000" stroke-miterlimit="10"/></g><g transform="translate(-270,-222) scale(1,1)"><path d="M 1384 377 L 1684.154296875 377" fill="none" stroke="#000000" stroke-miterlimit="10"/></g><g transform="translate(-270,-222) scale(1,1)"><g><path fill="none" stroke="none"/><text fill="#000000" font-family="Arial" font-size="13px" font-style="normal" font-weight="bold" stroke="none" text-decoration="none" x="1399.694091796875" y="371.5">structural form parameter: ObservableProperty</text><path d="M 1679.654296875 371.5 L 1388.5 371.5" fill="none" stroke="#000000" stroke-miterlimit="10"/></g></g><g transform="translate(-270,-222) scale(1,1)"><g><path fill="none" stroke="none"/><text fill="#000000" font-family="Arial" font-size="13px" font-style="normal" font-weight="normal" stroke="none" text-decoration="none" x="1389" y="394.5">+globalVocabulary</text></g></g><g transform="translate(-270,-222) scale(1,1)"><path d="M 1232 390 L 1383 382" fill="none" stroke="#000000" stroke-miterlimit="10"/></g><g transform="translate(-270,-222) scale(1,1)"><path d="M 1373.0742664323107 386.7412881312195 L 1383 382 L 1372.6288494968912 378.3340434751804" fill="none" stroke="#000000" stroke-miterlimit="10"/></g><g transform="translate(-270,-222) scale(1,1)"><g><path fill="none" stroke="none"/><text fill="#000000" font-family="Arial" font-size="13px" font-style="normal" font-weight="normal" stroke="none" text-decoration="none" x="1250.5" y="377.5">+observedProperty</text></g></g></g></svg>