<?xml version="1.0" encoding="UTF-8" standalone="no"?><svg xmlns="http://www.w3.org/2000/svg" xmlns:xlink="http://www.w3.org/1999/xlink" height="369" version="1.1" width="625.130859375"><defs/><g><g transform="translate(-733,-546) scale(1,1)"><rect fill="#C0C0C0" height="102" opacity="0.2" stroke="none" width="151.32080078125" x="843" y="563"/></g><g transform="translate(-733,-546) scale(1,1)"><rect fill="#ffffff" height="102" stroke="none" width="151.32080078125" x="836" y="556"/></g><g transform="translate(-733,-546) scale(1,1)"><path d="M 836 556 L 987.32080078125 556 L 987.32080078125 658 L 836 658 L 836 556 Z Z" fill="none" stroke="#000000" stroke-miterlimit="10"/></g><g transform="translate(-733,-546) scale(1,1)"><path d="M 836 581 L 987.32080078125 581" fill="none" stroke="#000000" stroke-miterlimit="10"/></g><g transform="translate(-733,-546) scale(1,1)"><path d="M 836 649 L 987.32080078125 649" fill="none" stroke="#000000" stroke-miterlimit="10"/></g><g transform="translate(-733,-546) scale(1,1)"><g><path fill="none" stroke="none"/><text fill="#000000" font-family="Arial" font-size="13px" font-style="normal" font-weight="bold" stroke="none" text-decoration="none" x="847.714111328125" y="575.5">tern:FeatureOfInterest</text></g></g><g transform="translate(-733,-546) scale(1,1)"><g><path fill="none" stroke="none"/><text fill="#000000" font-family="Arial" font-size="13px" font-style="normal" font-weight="normal" stroke="none" text-decoration="none" x="841" y="598.5">+dcterms:type</text></g></g><g transform="translate(-733,-546) scale(1,1)"><g><path fill="none" stroke="none"/><text fill="#000000" font-family="Arial" font-size="13px" font-style="normal" font-weight="normal" stroke="none" text-decoration="none" x="841" y="613.5">+tern:featureType</text></g></g><g transform="translate(-733,-546) scale(1,1)"><g><path fill="none" stroke="none"/><text fill="#000000" font-family="Arial" font-size="13px" font-style="normal" font-weight="normal" stroke="none" text-decoration="none" x="841" y="628.5">+dcterms:isPartOf</text></g></g><g transform="translate(-733,-546) scale(1,1)"><g><path fill="none" stroke="none"/><text fill="#000000" font-family="Arial" font-size="13px" font-style="normal" font-weight="normal" stroke="none" text-decoration="none" x="841" y="643.5">+sosa:hasSample</text></g></g><g transform="translate(-733,-546) scale(1,1)"><rect fill="#C0C0C0" height="117" opacity="0.2" stroke="none" width="115.57080078125" x="887.79541015625" y="735"/></g><g transform="translate(-733,-546) scale(1,1)"><rect fill="#ffffff" height="117" stroke="none" width="115.57080078125" x="880.79541015625" y="728"/></g><g transform="translate(-733,-546) scale(1,1)"><path d="M 880.79541015625 728 L 996.3662109375 728 L 996.3662109375 845 L 880.79541015625 845 L 880.79541015625 728 Z Z" fill="none" stroke="#000000" stroke-miterlimit="10"/></g><g transform="translate(-733,-546) scale(1,1)"><path d="M 880.79541015625 753 L 996.3662109375 753" fill="none" stroke="#000000" stroke-miterlimit="10"/></g><g transform="translate(-733,-546) scale(1,1)"><path d="M 880.79541015625 836 L 996.3662109375 836" fill="none" stroke="#000000" stroke-miterlimit="10"/></g><g transform="translate(-733,-546) scale(1,1)"><g><path fill="none" stroke="none"/><text fill="#000000" font-family="Arial" font-size="13px" font-style="normal" font-weight="bold" stroke="none" text-decoration="none" x="914.3740234375" y="747.5">tern:Site</text></g></g><g transform="translate(-733,-546) scale(1,1)"><g><path fill="none" stroke="none"/><text fill="#000000" font-family="Arial" font-size="13px" font-style="normal" font-weight="normal" stroke="none" text-decoration="none" x="885.79541015625" y="770.5">+dcterms:type</text></g></g><g transform="translate(-733,-546) scale(1,1)"><g><path fill="none" stroke="none"/><text fill="#000000" font-family="Arial" font-size="13px" font-style="normal" font-weight="normal" stroke="none" text-decoration="none" x="885.79541015625" y="785.5">+dcterms:identifier</text></g></g><g transform="translate(-733,-546) scale(1,1)"><g><path fill="none" stroke="none"/><text fill="#000000" font-family="Arial" font-size="13px" font-style="normal" font-weight="normal" stroke="none" text-decoration="none" x="885.79541015625" y="800.5">+tern:hasSubSite</text></g></g><g transform="translate(-733,-546) scale(1,1)"><g><path fill="none" stroke="none"/><text fill="#000000" font-family="Arial" font-size="13px" font-style="normal" font-weight="normal" stroke="none" text-decoration="none" x="885.79541015625" y="815.5">+tern:isSubSiteOf</text></g></g><g transform="translate(-733,-546) scale(1,1)"><g><path fill="none" stroke="none"/><text fill="#000000" font-family="Arial" font-size="13px" font-style="normal" font-weight="normal" stroke="none" text-decoration="none" x="885.79541015625" y="830.5">+tern:siteVisit</text></g></g><g transform="translate(-733,-546) scale(1,1)"><path d="M 929 727 L 919 659" fill="none" stroke="#000000" stroke-miterlimit="10"/></g><g transform="translate(-733,-546) scale(1,1)"><path d="M 930.2866659330645 677.8841513475031 L 919 659 L 913.6277665434845 680.3339894930295" fill="#FFFFFF" stroke="none"/></g><g transform="translate(-733,-546) scale(1,1)"><path d="M 930.2866659330645 677.8841513475031 L 919 659 L 913.6277665434845 680.3339894930295 L 930.2866659330645 677.8841513475031" fill="none" stroke="#000000" stroke-miterlimit="10"/></g><g transform="translate(-733,-546) scale(1,1)"><path d="M 881 744 L 752 744 L 752 904 L 911 904 L 911 845" fill="none" stroke="#000000" stroke-miterlimit="10"/></g><g transform="translate(-733,-546) scale(1,1)"><g><path fill="none" stroke="none"/><text fill="#000000" font-family="Arial" font-size="13px" font-style="normal" font-weight="normal" stroke="none" text-decoration="none" x="743.569580078125" y="731.5">+tern:hasSubSite</text></g></g><g transform="translate(-733,-546) scale(1,1)"><g><path fill="none" stroke="none"/><text fill="#000000" font-family="Arial" font-size="13px" font-style="normal" font-weight="normal" stroke="none" text-decoration="none" x="852.5" y="738.5">0..*</text></g></g><g transform="translate(-733,-546) scale(1,1)"><g><path fill="none" stroke="none"/><text fill="#000000" font-family="Arial" font-size="13px" font-style="normal" font-weight="normal" stroke="none" text-decoration="none" x="919.569580078125" y="876.5">+tern:isSubSiteOf</text></g></g><g transform="translate(-733,-546) scale(1,1)"><g><path fill="none" stroke="none"/><text fill="#000000" font-family="Arial" font-size="13px" font-style="normal" font-weight="normal" stroke="none" text-decoration="none" x="913.5" y="860.5">0..*</text></g></g><g transform="translate(-733,-546) scale(1,1)"><rect fill="#C0C0C0" height="87" opacity="0.2" stroke="none" width="115.57080078125" x="1271" y="735"/></g><g transform="translate(-733,-546) scale(1,1)"><rect fill="#ffffff" height="87" stroke="none" width="115.57080078125" x="1264" y="728"/></g><g transform="translate(-733,-546) scale(1,1)"><path d="M 1264 728 L 1379.57080078125 728 L 1379.57080078125 815 L 1264 815 L 1264 728 Z Z" fill="none" stroke="#000000" stroke-miterlimit="10"/></g><g transform="translate(-733,-546) scale(1,1)"><path d="M 1264 753 L 1379.57080078125 753" fill="none" stroke="#000000" stroke-miterlimit="10"/></g><g transform="translate(-733,-546) scale(1,1)"><path d="M 1264 806 L 1379.57080078125 806" fill="none" stroke="#000000" stroke-miterlimit="10"/></g><g transform="translate(-733,-546) scale(1,1)"><g><path fill="none" stroke="none"/><text fill="#000000" font-family="Arial" font-size="13px" font-style="normal" font-weight="bold" stroke="none" text-decoration="none" x="1286.739990234375" y="747.5">tern:Sample</text></g></g><g transform="translate(-733,-546) scale(1,1)"><g><path fill="none" stroke="none"/><text fill="#000000" font-family="Arial" font-size="13px" font-style="normal" font-weight="normal" stroke="none" text-decoration="none" x="1269" y="770.5">+dcterms:identifier</text></g></g><g transform="translate(-733,-546) scale(1,1)"><g><path fill="none" stroke="none"/><text fill="#000000" font-family="Arial" font-size="13px" font-style="normal" font-weight="normal" stroke="none" text-decoration="none" x="1269" y="785.5">+sosa:hasSample</text></g></g><g transform="translate(-733,-546) scale(1,1)"><g><path fill="none" stroke="none"/><text fill="#000000" font-family="Arial" font-size="13px" font-style="normal" font-weight="normal" stroke="none" text-decoration="none" x="1269" y="800.5">+sosa:isSampleOf</text></g></g><g transform="translate(-733,-546) scale(1,1)"><path d="M 1263 773 L 997 784" fill="none" stroke="#000000" stroke-miterlimit="10"/></g><g transform="translate(-733,-546) scale(1,1)"><g><path fill="none" stroke="none"/><text fill="#000000" font-family="Arial" font-size="13px" font-style="normal" font-weight="normal" stroke="none" text-decoration="none" x="1185.5" y="795.5">+sosa:hasSample</text></g></g><g transform="translate(-733,-546) scale(1,1)"><g><path fill="none" stroke="none"/><text fill="#000000" font-family="Arial" font-size="13px" font-style="normal" font-weight="normal" stroke="none" text-decoration="none" x="1230.5" y="767.5">0..*</text></g></g><g transform="translate(-733,-546) scale(1,1)"><g><path fill="none" stroke="none"/><text fill="#000000" font-family="Arial" font-size="13px" font-style="normal" font-weight="normal" stroke="none" text-decoration="none" x="1004.5" y="801.5">+sosa:isSampleOf</text></g></g><g transform="translate(-733,-546) scale(1,1)"><g><path fill="none" stroke="none"/><text fill="#000000" font-family="Arial" font-size="13px" font-style="normal" font-weight="normal" stroke="none" text-decoration="none" x="1014.5" y="776.5">1</text></g></g></g></svg>