<?xml version="1.0" encoding="UTF-8" standalone="no"?><svg xmlns="http://www.w3.org/2000/svg" xmlns:xlink="http://www.w3.org/1999/xlink" height="414" version="1.1" width="624.25439453125"><defs/><g><g transform="translate(-826,-546) scale(1,1)"><rect fill="#C0C0C0" height="102" opacity="0.2" stroke="none" width="166.16162109375" x="843" y="563"/></g><g transform="translate(-826,-546) scale(1,1)"><rect fill="#ffffff" height="102" stroke="none" width="166.16162109375" x="836" y="556"/></g><g transform="translate(-826,-546) scale(1,1)"><path d="M 836 556 L 1002.16162109375 556 L 1002.16162109375 658 L 836 658 L 836 556 Z Z" fill="none" stroke="#000000" stroke-miterlimit="10"/></g><g transform="translate(-826,-546) scale(1,1)"><path d="M 836 581 L 1002.16162109375 581" fill="none" stroke="#000000" stroke-miterlimit="10"/></g><g transform="translate(-826,-546) scale(1,1)"><path d="M 836 604 L 1002.16162109375 604" fill="none" stroke="#000000" stroke-miterlimit="10"/></g><g transform="translate(-826,-546) scale(1,1)"><g><path fill="none" stroke="none"/><text fill="#000000" font-family="Arial" font-size="13px" font-style="normal" font-weight="bold" stroke="none" text-decoration="none" x="868.140869140625" y="575.5">FeatureOfInterest</text></g></g><g transform="translate(-826,-546) scale(1,1)"><g><path fill="none" stroke="none"/><text fill="#000000" font-family="Arial" font-size="13px" font-style="normal" font-weight="normal" stroke="none" text-decoration="none" x="841" y="598.5">+featureType: FeatureTerm</text></g></g><g transform="translate(-826,-546) scale(1,1)"><rect fill="#C0C0C0" height="222" opacity="0.2" stroke="none" width="176.27978515625" x="887.79541015625" y="735"/></g><g transform="translate(-826,-546) scale(1,1)"><rect fill="#ffffff" height="222" stroke="none" width="176.27978515625" x="880.79541015625" y="728"/></g><g transform="translate(-826,-546) scale(1,1)"><path d="M 880.79541015625 728 L 1057.0751953125 728 L 1057.0751953125 950 L 880.79541015625 950 L 880.79541015625 728 Z Z" fill="none" stroke="#000000" stroke-miterlimit="10"/></g><g transform="translate(-826,-546) scale(1,1)"><path d="M 880.79541015625 753 L 1057.0751953125 753" fill="none" stroke="#000000" stroke-miterlimit="10"/></g><g transform="translate(-826,-546) scale(1,1)"><path d="M 880.79541015625 941 L 1057.0751953125 941" fill="none" stroke="#000000" stroke-miterlimit="10"/></g><g transform="translate(-826,-546) scale(1,1)"><g><path fill="none" stroke="none"/><text fill="#000000" font-family="Arial" font-size="13px" font-style="normal" font-weight="bold" stroke="none" text-decoration="none" x="957.73486328125" y="747.5">Site</text></g></g><g transform="translate(-826,-546) scale(1,1)"><g><path fill="none" stroke="none"/><text fill="#000000" font-family="Arial" font-size="13px" font-style="normal" font-weight="normal" stroke="none" text-decoration="none" x="885.79541015625" y="770.5">+identifier: String</text></g></g><g transform="translate(-826,-546) scale(1,1)"><g><path fill="none" stroke="none"/><text fill="#000000" font-family="Arial" font-size="13px" font-style="normal" font-weight="normal" stroke="none" text-decoration="none" x="885.79541015625" y="785.5">+siteName: String</text></g></g><g transform="translate(-826,-546) scale(1,1)"><g><path fill="none" stroke="none"/><text fill="#000000" font-family="Arial" font-size="13px" font-style="normal" font-weight="normal" stroke="none" text-decoration="none" x="885.79541015625" y="800.5">+dateCommissioned: Date</text></g></g><g transform="translate(-826,-546) scale(1,1)"><g><path fill="none" stroke="none"/><text fill="#000000" font-family="Arial" font-size="13px" font-style="normal" font-weight="normal" stroke="none" text-decoration="none" x="885.79541015625" y="815.5">+dateDecommissioned: Date</text></g></g><g transform="translate(-826,-546) scale(1,1)"><g><path fill="none" stroke="none"/><text fill="#000000" font-family="Arial" font-size="13px" font-style="normal" font-weight="normal" stroke="none" text-decoration="none" x="885.79541015625" y="830.5">+locality: String</text></g></g><g transform="translate(-826,-546) scale(1,1)"><g><path fill="none" stroke="none"/><text fill="#000000" font-family="Arial" font-size="13px" font-style="normal" font-weight="normal" stroke="none" text-decoration="none" x="885.79541015625" y="845.5">+region: IRI</text></g></g><g transform="translate(-826,-546) scale(1,1)"><g><path fill="none" stroke="none"/><text fill="#000000" font-family="Arial" font-size="13px" font-style="normal" font-weight="normal" stroke="none" text-decoration="none" x="885.79541015625" y="860.5">+permanent: Boolean</text></g></g><g transform="translate(-826,-546) scale(1,1)"><g><path fill="none" stroke="none"/><text fill="#000000" font-family="Arial" font-size="13px" font-style="normal" font-weight="normal" stroke="none" text-decoration="none" x="885.79541015625" y="875.5">+notes: String</text></g></g><g transform="translate(-826,-546) scale(1,1)"><g><path fill="none" stroke="none"/><text fill="#000000" font-family="Arial" font-size="13px" font-style="normal" font-weight="normal" stroke="none" text-decoration="none" x="885.79541015625" y="890.5">+placementMethod[0..1]</text></g></g><g transform="translate(-826,-546) scale(1,1)"><g><path fill="none" stroke="none"/><text fill="#000000" font-family="Arial" font-size="13px" font-style="normal" font-weight="normal" stroke="none" text-decoration="none" x="885.79541015625" y="905.5">+placementNote[0..*]</text></g></g><g transform="translate(-826,-546) scale(1,1)"><g><path fill="none" stroke="none"/><text fill="#000000" font-family="Arial" font-size="13px" font-style="normal" font-weight="normal" stroke="none" text-decoration="none" x="885.79541015625" y="920.5">+markers[0..1]</text></g></g><g transform="translate(-826,-546) scale(1,1)"><g><path fill="none" stroke="none"/><text fill="#000000" font-family="Arial" font-size="13px" font-style="normal" font-weight="normal" stroke="none" text-decoration="none" x="885.79541015625" y="935.5">+siteDescription</text></g></g><g transform="translate(-826,-546) scale(1,1)"><path d="M 960 728 L 960 707 L 1069 707 L 1069 831 L 1057 831" fill="none" stroke="#000000" stroke-miterlimit="10"/></g><g transform="translate(-826,-546) scale(1,1)"><g><path fill="none" stroke="none"/><text fill="#000000" font-family="Arial" font-size="13px" font-style="normal" font-weight="normal" stroke="none" text-decoration="none" x="940.575927734375" y="647.5">+hasSubSite</text></g></g><g transform="translate(-826,-546) scale(1,1)"><g><path fill="none" stroke="none"/><text fill="#000000" font-family="Arial" font-size="13px" font-style="normal" font-weight="normal" stroke="none" text-decoration="none" x="961.5" y="715.5">0..*</text></g></g><g transform="translate(-826,-546) scale(1,1)"><g><path fill="none" stroke="none"/><text fill="#000000" font-family="Arial" font-size="13px" font-style="normal" font-weight="normal" stroke="none" text-decoration="none" x="1044.575927734375" y="777.5">+isSubSiteOf</text></g></g><g transform="translate(-826,-546) scale(1,1)"><g><path fill="none" stroke="none"/><text fill="#000000" font-family="Arial" font-size="13px" font-style="normal" font-weight="normal" stroke="none" text-decoration="none" x="1056.5" y="824.5">0..*</text></g></g><g transform="translate(-826,-546) scale(1,1)"><rect fill="#C0C0C0" height="102" opacity="0.2" stroke="none" width="176.25439453125" x="1271" y="735"/></g><g transform="translate(-826,-546) scale(1,1)"><rect fill="#ffffff" height="102" stroke="none" width="176.25439453125" x="1264" y="728"/></g><g transform="translate(-826,-546) scale(1,1)"><path d="M 1264 728 L 1440.25439453125 728 L 1440.25439453125 830 L 1264 830 L 1264 728 Z Z" fill="none" stroke="#000000" stroke-miterlimit="10"/></g><g transform="translate(-826,-546) scale(1,1)"><path d="M 1264 753 L 1440.25439453125 753" fill="none" stroke="#000000" stroke-miterlimit="10"/></g><g transform="translate(-826,-546) scale(1,1)"><path d="M 1264 776 L 1440.25439453125 776" fill="none" stroke="#000000" stroke-miterlimit="10"/></g><g transform="translate(-826,-546) scale(1,1)"><g><path fill="none" stroke="none"/><text fill="#000000" font-family="Arial" font-size="13px" font-style="normal" font-weight="bold" stroke="none" text-decoration="none" x="1330.088134765625" y="747.5">Sample</text></g></g><g transform="translate(-826,-546) scale(1,1)"><g><path fill="none" stroke="none"/><text fill="#000000" font-family="Arial" font-size="13px" font-style="normal" font-weight="normal" stroke="none" text-decoration="none" x="1269" y="770.5">+identifier</text></g></g><g transform="translate(-826,-546) scale(1,1)"><path d="M 1263 793 L 1058 825" fill="none" stroke="#000000" stroke-miterlimit="10"/></g><g transform="translate(-826,-546) scale(1,1)"><g><path fill="none" stroke="none"/><text fill="#000000" font-family="Arial" font-size="13px" font-style="normal" font-weight="normal" stroke="none" text-decoration="none" x="1203.035888671875" y="817.5">+hasSample</text></g></g><g transform="translate(-826,-546) scale(1,1)"><g><path fill="none" stroke="none"/><text fill="#000000" font-family="Arial" font-size="13px" font-style="normal" font-weight="normal" stroke="none" text-decoration="none" x="1229.5" y="789.5">0..*</text></g></g><g transform="translate(-826,-546) scale(1,1)"><g><path fill="none" stroke="none"/><text fill="#000000" font-family="Arial" font-size="13px" font-style="normal" font-weight="normal" stroke="none" text-decoration="none" x="1082.035888671875" y="835.5">+isSampleOf</text></g></g><g transform="translate(-826,-546) scale(1,1)"><g><path fill="none" stroke="none"/><text fill="#000000" font-family="Arial" font-size="13px" font-style="normal" font-weight="normal" stroke="none" text-decoration="none" x="1073.5" y="815.5">1</text></g></g></g></svg>