<?xml version="1.0" encoding="UTF-8" standalone="no"?><svg xmlns="http://www.w3.org/2000/svg" xmlns:xlink="http://www.w3.org/1999/xlink" height="369" version="1.1" width="717.25439453125"><defs/><g><g transform="translate(-733,-546) scale(1,1)"><rect fill="#C0C0C0" height="102" opacity="0.2" stroke="none" width="166.16162109375" x="843" y="563"/></g><g transform="translate(-733,-546) scale(1,1)"><rect fill="#ffffff" height="102" stroke="none" width="166.16162109375" x="836" y="556"/></g><g transform="translate(-733,-546) scale(1,1)"><path d="M 836 556 L 1002.16162109375 556 L 1002.16162109375 658 L 836 658 L 836 556 Z Z" fill="none" stroke="#000000" stroke-miterlimit="10"/></g><g transform="translate(-733,-546) scale(1,1)"><path d="M 836 581 L 1002.16162109375 581" fill="none" stroke="#000000" stroke-miterlimit="10"/></g><g transform="translate(-733,-546) scale(1,1)"><path d="M 836 634 L 1002.16162109375 634" fill="none" stroke="#000000" stroke-miterlimit="10"/></g><g transform="translate(-733,-546) scale(1,1)"><g><path fill="none" stroke="none"/><text fill="#000000" font-family="Arial" font-size="13px" font-style="normal" font-weight="bold" stroke="none" text-decoration="none" x="868.140869140625" y="575.5">FeatureOfInterest</text></g></g><g transform="translate(-733,-546) scale(1,1)"><g><path fill="none" stroke="none"/><text fill="#000000" font-family="Arial" font-size="13px" font-style="normal" font-weight="normal" stroke="none" text-decoration="none" x="841" y="598.5">+featureType: FeatureTerm</text></g></g><g transform="translate(-733,-546) scale(1,1)"><g><path fill="none" stroke="none"/><text fill="#000000" font-family="Arial" font-size="13px" font-style="normal" font-weight="normal" stroke="none" text-decoration="none" x="841" y="613.5">+domain: DomainTerm</text></g></g><g transform="translate(-733,-546) scale(1,1)"><g><path fill="none" stroke="none"/><text fill="#000000" font-family="Arial" font-size="13px" font-style="normal" font-weight="normal" stroke="none" text-decoration="none" x="841" y="628.5">+isPartOf: Dataset</text></g></g><g transform="translate(-733,-546) scale(1,1)"><rect fill="#C0C0C0" height="117" opacity="0.2" stroke="none" width="115.57080078125" x="887.79541015625" y="735"/></g><g transform="translate(-733,-546) scale(1,1)"><rect fill="#ffffff" height="117" stroke="none" width="115.57080078125" x="880.79541015625" y="728"/></g><g transform="translate(-733,-546) scale(1,1)"><path d="M 880.79541015625 728 L 996.3662109375 728 L 996.3662109375 845 L 880.79541015625 845 L 880.79541015625 728 Z Z" fill="none" stroke="#000000" stroke-miterlimit="10"/></g><g transform="translate(-733,-546) scale(1,1)"><path d="M 880.79541015625 753 L 996.3662109375 753" fill="none" stroke="#000000" stroke-miterlimit="10"/></g><g transform="translate(-733,-546) scale(1,1)"><path d="M 880.79541015625 791 L 996.3662109375 791" fill="none" stroke="#000000" stroke-miterlimit="10"/></g><g transform="translate(-733,-546) scale(1,1)"><g><path fill="none" stroke="none"/><text fill="#000000" font-family="Arial" font-size="13px" font-style="normal" font-weight="bold" stroke="none" text-decoration="none" x="927.38037109375" y="747.5">Site</text></g></g><g transform="translate(-733,-546) scale(1,1)"><g><path fill="none" stroke="none"/><text fill="#000000" font-family="Arial" font-size="13px" font-style="normal" font-weight="normal" stroke="none" text-decoration="none" x="885.79541015625" y="770.5">+identifier</text></g></g><g transform="translate(-733,-546) scale(1,1)"><g><path fill="none" stroke="none"/><text fill="#000000" font-family="Arial" font-size="13px" font-style="normal" font-weight="normal" stroke="none" text-decoration="none" x="885.79541015625" y="785.5">+isPartOf: Dataset</text></g></g><g transform="translate(-733,-546) scale(1,1)"><path d="M 881 744 L 752 744 L 752 904 L 911 904 L 911 845" fill="none" stroke="#000000" stroke-miterlimit="10"/></g><g transform="translate(-733,-546) scale(1,1)"><g><path fill="none" stroke="none"/><text fill="#000000" font-family="Arial" font-size="13px" font-style="normal" font-weight="normal" stroke="none" text-decoration="none" x="756.575927734375" y="731.5">+hasSubSite</text></g></g><g transform="translate(-733,-546) scale(1,1)"><g><path fill="none" stroke="none"/><text fill="#000000" font-family="Arial" font-size="13px" font-style="normal" font-weight="normal" stroke="none" text-decoration="none" x="852.5" y="738.5">0..*</text></g></g><g transform="translate(-733,-546) scale(1,1)"><g><path fill="none" stroke="none"/><text fill="#000000" font-family="Arial" font-size="13px" font-style="normal" font-weight="normal" stroke="none" text-decoration="none" x="932.575927734375" y="876.5">+isSubSiteOf</text></g></g><g transform="translate(-733,-546) scale(1,1)"><g><path fill="none" stroke="none"/><text fill="#000000" font-family="Arial" font-size="13px" font-style="normal" font-weight="normal" stroke="none" text-decoration="none" x="913.5" y="860.5">0..*</text></g></g><g transform="translate(-733,-546) scale(1,1)"><rect fill="#C0C0C0" height="102" opacity="0.2" stroke="none" width="176.25439453125" x="1271" y="735"/></g><g transform="translate(-733,-546) scale(1,1)"><rect fill="#ffffff" height="102" stroke="none" width="176.25439453125" x="1264" y="728"/></g><g transform="translate(-733,-546) scale(1,1)"><path d="M 1264 728 L 1440.25439453125 728 L 1440.25439453125 830 L 1264 830 L 1264 728 Z Z" fill="none" stroke="#000000" stroke-miterlimit="10"/></g><g transform="translate(-733,-546) scale(1,1)"><path d="M 1264 753 L 1440.25439453125 753" fill="none" stroke="#000000" stroke-miterlimit="10"/></g><g transform="translate(-733,-546) scale(1,1)"><path d="M 1264 791 L 1440.25439453125 791" fill="none" stroke="#000000" stroke-miterlimit="10"/></g><g transform="translate(-733,-546) scale(1,1)"><g><path fill="none" stroke="none"/><text fill="#000000" font-family="Arial" font-size="13px" font-style="normal" font-weight="bold" stroke="none" text-decoration="none" x="1330.088134765625" y="747.5">Sample</text></g></g><g transform="translate(-733,-546) scale(1,1)"><g><path fill="none" stroke="none"/><text fill="#000000" font-family="Arial" font-size="13px" font-style="normal" font-weight="normal" stroke="none" text-decoration="none" x="1269" y="770.5">+identifier</text></g></g><g transform="translate(-733,-546) scale(1,1)"><g><path fill="none" stroke="none"/><text fill="#000000" font-family="Arial" font-size="13px" font-style="normal" font-weight="normal" stroke="none" text-decoration="none" x="1269" y="785.5">+isPartOf: Dataset</text></g></g><g transform="translate(-733,-546) scale(1,1)"><path d="M 1263 781 L 997 785" fill="none" stroke="#000000" stroke-miterlimit="10"/></g><g transform="translate(-733,-546) scale(1,1)"><g><path fill="none" stroke="none"/><text fill="#000000" font-family="Arial" font-size="13px" font-style="normal" font-weight="normal" stroke="none" text-decoration="none" x="1201.035888671875" y="802.5">+hasSample</text></g></g><g transform="translate(-733,-546) scale(1,1)"><g><path fill="none" stroke="none"/><text fill="#000000" font-family="Arial" font-size="13px" font-style="normal" font-weight="normal" stroke="none" text-decoration="none" x="1231.5" y="774.5">0..*</text></g></g><g transform="translate(-733,-546) scale(1,1)"><g><path fill="none" stroke="none"/><text fill="#000000" font-family="Arial" font-size="13px" font-style="normal" font-weight="normal" stroke="none" text-decoration="none" x="1020.035888671875" y="804.5">+isSampleOf</text></g></g><g transform="translate(-733,-546) scale(1,1)"><g><path fill="none" stroke="none"/><text fill="#000000" font-family="Arial" font-size="13px" font-style="normal" font-weight="normal" stroke="none" text-decoration="none" x="1014.5" y="778.5">1</text></g></g></g></svg>