<?xml version="1.0" encoding="UTF-8" standalone="no"?><svg xmlns="http://www.w3.org/2000/svg" xmlns:xlink="http://www.w3.org/1999/xlink" height="628" version="1.1" width="1267.708984375"><defs/><g><g transform="translate(-174,-70) scale(1,1)"><rect fill="#C0C0C0" height="24" opacity="0.2" stroke="none" width="137.603515625" x="191" y="367"/></g><g transform="translate(-174,-70) scale(1,1)"><rect fill="#ffffff" height="24" stroke="none" width="137.603515625" x="184" y="360"/></g><g transform="translate(-174,-70) scale(1,1)"><path d="M 184 360 L 321.603515625 360 L 321.603515625 384 L 184 384 L 184 360 Z Z" fill="none" stroke="#000000" stroke-miterlimit="10"/></g><g transform="translate(-174,-70) scale(1,1)"><rect fill="#ffffff" height="24" stroke="none" width="137.603515625" x="184" y="360"/></g><g transform="translate(-174,-70) scale(1,1)"><path d="M 184 360 L 321.603515625 360 L 321.603515625 384 L 184 384 L 184 360 Z Z" fill="none" stroke="#000000" stroke-miterlimit="10"/></g><g transform="translate(-174,-70) scale(1,1)"><g><path fill="none" stroke="none"/><text fill="#000000" font-family="Arial" font-size="13px" font-style="normal" font-weight="bold" stroke="none" text-decoration="none" x="193.917724609375" y="379.5">survey site: tern:Site</text><path d="M 317.103515625 379.5 L 188.5 379.5" fill="none" stroke="#000000" stroke-miterlimit="10"/></g></g><g transform="translate(-174,-70) scale(1,1)"><rect fill="#C0C0C0" height="24" opacity="0.2" stroke="none" width="245.97705078125" x="679" y="327"/></g><g transform="translate(-174,-70) scale(1,1)"><rect fill="#ffffff" height="24" stroke="none" width="245.97705078125" x="672" y="320"/></g><g transform="translate(-174,-70) scale(1,1)"><path d="M 672 320 L 917.97705078125 320 L 917.97705078125 344 L 672 344 L 672 320 Z Z" fill="none" stroke="#000000" stroke-miterlimit="10"/></g><g transform="translate(-174,-70) scale(1,1)"><rect fill="#ffffff" height="24" stroke="none" width="245.97705078125" x="672" y="320"/></g><g transform="translate(-174,-70) scale(1,1)"><path d="M 672 320 L 917.97705078125 320 L 917.97705078125 344 L 672 344 L 672 320 Z Z" fill="none" stroke="#000000" stroke-miterlimit="10"/></g><g transform="translate(-174,-70) scale(1,1)"><g><path fill="none" stroke="none"/><text fill="#000000" font-family="Arial" font-size="13px" font-style="normal" font-weight="bold" stroke="none" text-decoration="none" x="685.885009765625" y="339.5">soil specimen: tern:PhysicalSpecimen</text><path d="M 913.47705078125 339.5 L 676.5 339.5" fill="none" stroke="#000000" stroke-miterlimit="10"/></g></g><g transform="translate(-174,-70) scale(1,1)"><rect fill="#C0C0C0" height="24" opacity="0.2" stroke="none" width="120.99169921875" x="471" y="615"/></g><g transform="translate(-174,-70) scale(1,1)"><rect fill="#ffffff" height="24" stroke="none" width="120.99169921875" x="464" y="608"/></g><g transform="translate(-174,-70) scale(1,1)"><path d="M 464 608 L 584.99169921875 608 L 584.99169921875 632 L 464 632 L 464 608 Z Z" fill="none" stroke="#000000" stroke-miterlimit="10"/></g><g transform="translate(-174,-70) scale(1,1)"><rect fill="#ffffff" height="24" stroke="none" width="120.99169921875" x="464" y="608"/></g><g transform="translate(-174,-70) scale(1,1)"><path d="M 464 608 L 584.99169921875 608 L 584.99169921875 632 L 464 632 L 464 608 Z Z" fill="none" stroke="#000000" stroke-miterlimit="10"/></g><g transform="translate(-174,-70) scale(1,1)"><g><path fill="none" stroke="none"/><text fill="#000000" font-family="Arial" font-size="13px" font-style="normal" font-weight="bold" stroke="none" text-decoration="none" x="472.108642578125" y="627.5">tree: sosa:Sample</text><path d="M 580.49169921875 627.5 L 468.5 627.5" fill="none" stroke="#000000" stroke-miterlimit="10"/></g></g><g transform="translate(-174,-70) scale(1,1)"><rect fill="#C0C0C0" height="24" opacity="0.2" stroke="none" width="194.44677734375" x="391" y="183"/></g><g transform="translate(-174,-70) scale(1,1)"><rect fill="#ffffff" height="24" stroke="none" width="194.44677734375" x="384" y="176"/></g><g transform="translate(-174,-70) scale(1,1)"><path d="M 384 176 L 578.44677734375 176 L 578.44677734375 200 L 384 200 L 384 176 Z Z" fill="none" stroke="#000000" stroke-miterlimit="10"/></g><g transform="translate(-174,-70) scale(1,1)"><rect fill="#ffffff" height="24" stroke="none" width="194.44677734375" x="384" y="176"/></g><g transform="translate(-174,-70) scale(1,1)"><path d="M 384 176 L 578.44677734375 176 L 578.44677734375 200 L 384 200 L 384 176 Z Z" fill="none" stroke="#000000" stroke-miterlimit="10"/></g><g transform="translate(-174,-70) scale(1,1)"><g><path fill="none" stroke="none"/><text fill="#000000" font-family="Arial" font-size="13px" font-style="normal" font-weight="bold" stroke="none" text-decoration="none" x="397.17724609375" y="195.5">survey site visit: tern:SiteVisit</text><path d="M 573.94677734375 195.5 L 388.5 195.5" fill="none" stroke="#000000" stroke-miterlimit="10"/></g></g><g transform="translate(-174,-70) scale(1,1)"><path d="M 268 359 L 465 201" fill="none" stroke="#000000" stroke-miterlimit="10"/></g><g transform="translate(-174,-70) scale(1,1)"><g><path fill="none" stroke="none"/><text fill="#000000" font-family="Arial" font-size="13px" font-style="normal" font-weight="normal" stroke="none" text-decoration="none" x="251.5" y="337.5">+tern:site</text></g></g><g transform="translate(-174,-70) scale(1,1)"><g><path fill="none" stroke="none"/><text fill="#000000" font-family="Arial" font-size="13px" font-style="normal" font-weight="normal" stroke="none" text-decoration="none" x="341.5" y="219.5">+tern:siteVisit</text></g></g><g transform="translate(-174,-70) scale(1,1)"><rect fill="#C0C0C0" height="24" opacity="0.2" stroke="none" width="206.208984375" x="855" y="183"/></g><g transform="translate(-174,-70) scale(1,1)"><rect fill="#ffffff" height="24" stroke="none" width="206.208984375" x="848" y="176"/></g><g transform="translate(-174,-70) scale(1,1)"><path d="M 848 176 L 1054.208984375 176 L 1054.208984375 200 L 848 200 L 848 176 Z Z" fill="none" stroke="#000000" stroke-miterlimit="10"/></g><g transform="translate(-174,-70) scale(1,1)"><rect fill="#ffffff" height="24" stroke="none" width="206.208984375" x="848" y="176"/></g><g transform="translate(-174,-70) scale(1,1)"><path d="M 848 176 L 1054.208984375 176 L 1054.208984375 200 L 848 200 L 848 176 Z Z" fill="none" stroke="#000000" stroke-miterlimit="10"/></g><g transform="translate(-174,-70) scale(1,1)"><g><path fill="none" stroke="none"/><text fill="#000000" font-family="Arial" font-size="13px" font-style="normal" font-weight="bold" stroke="none" text-decoration="none" x="860.41552734375" y="195.5">observation 1: tern:Observation</text><path d="M 1049.708984375 195.5 L 852.5 195.5" fill="none" stroke="#000000" stroke-miterlimit="10"/></g></g><g transform="translate(-174,-70) scale(1,1)"><path d="M 937 201 L 808 319" fill="none" stroke="#000000" stroke-miterlimit="10"/></g><g transform="translate(-174,-70) scale(1,1)"><g><path fill="none" stroke="none"/><text fill="#000000" font-family="Arial" font-size="13px" font-style="normal" font-weight="normal" stroke="none" text-decoration="none" x="845.5" y="235.5">+sosa:isFeatureOfInterestOf</text></g></g><g transform="translate(-174,-70) scale(1,1)"><g><path fill="none" stroke="none"/><text fill="#000000" font-family="Arial" font-size="13px" font-style="normal" font-weight="normal" stroke="none" text-decoration="none" x="836.5" y="304.5">+sosa:hasFeatureOfInterest</text></g></g><g transform="translate(-174,-70) scale(1,1)"><rect fill="#C0C0C0" height="24" opacity="0.2" stroke="none" width="259.67529296875" x="1151" y="87"/></g><g transform="translate(-174,-70) scale(1,1)"><rect fill="#ffffff" height="24" stroke="none" width="259.67529296875" x="1144" y="80"/></g><g transform="translate(-174,-70) scale(1,1)"><path d="M 1144 80 L 1403.67529296875 80 L 1403.67529296875 104 L 1144 104 L 1144 80 Z Z" fill="none" stroke="#000000" stroke-miterlimit="10"/></g><g transform="translate(-174,-70) scale(1,1)"><rect fill="#ffffff" height="24" stroke="none" width="259.67529296875" x="1144" y="80"/></g><g transform="translate(-174,-70) scale(1,1)"><path d="M 1144 80 L 1403.67529296875 80 L 1403.67529296875 104 L 1144 104 L 1144 80 Z Z" fill="none" stroke="#000000" stroke-miterlimit="10"/></g><g transform="translate(-174,-70) scale(1,1)"><g><path fill="none" stroke="none"/><text fill="#000000" font-family="Arial" font-size="13px" font-style="normal" font-weight="bold" stroke="none" text-decoration="none" x="1169.06005859375" y="99.5">basal area: tern:ObservableProperty</text><path d="M 1386.191162109375 99.5 L 1161.484130859375 99.5" fill="none" stroke="#000000" stroke-miterlimit="10"/></g></g><g transform="translate(-174,-70) scale(1,1)"><path d="M 995 175 L 1229 105" fill="none" stroke="#000000" stroke-miterlimit="10"/></g><g transform="translate(-174,-70) scale(1,1)"><path d="M 1220.4700688296045 111.94552188307814 L 1229 105 L 1218.0572022039548 103.87965344876305" fill="none" stroke="#000000" stroke-miterlimit="10"/></g><g transform="translate(-174,-70) scale(1,1)"><g><path fill="none" stroke="none"/><text fill="#000000" font-family="Arial" font-size="13px" font-style="normal" font-weight="normal" stroke="none" text-decoration="none" x="1036.5" y="131.5">+sosa:observedProperty</text></g></g><g transform="translate(-174,-70) scale(1,1)"><rect fill="#C0C0C0" height="24" opacity="0.2" stroke="none" width="199.708984375" x="1239" y="215"/></g><g transform="translate(-174,-70) scale(1,1)"><rect fill="#ffffff" height="24" stroke="none" width="199.708984375" x="1232" y="208"/></g><g transform="translate(-174,-70) scale(1,1)"><path d="M 1232 208 L 1431.708984375 208 L 1431.708984375 232 L 1232 232 L 1232 208 Z Z" fill="none" stroke="#000000" stroke-miterlimit="10"/></g><g transform="translate(-174,-70) scale(1,1)"><rect fill="#ffffff" height="24" stroke="none" width="199.708984375" x="1232" y="208"/></g><g transform="translate(-174,-70) scale(1,1)"><path d="M 1232 208 L 1431.708984375 208 L 1431.708984375 232 L 1232 232 L 1232 208 Z Z" fill="none" stroke="#000000" stroke-miterlimit="10"/></g><g transform="translate(-174,-70) scale(1,1)"><g><path fill="none" stroke="none"/><text fill="#000000" font-family="Arial" font-size="13px" font-style="normal" font-weight="bold" stroke="none" text-decoration="none" x="1244.418701171875" y="227.5">soil procedure: tern:Procedure</text><path d="M 1427.208984375 227.5 L 1236.5 227.5" fill="none" stroke="#000000" stroke-miterlimit="10"/></g></g><g transform="translate(-174,-70) scale(1,1)"><path d="M 1055 197 L 1231 212" fill="none" stroke="#000000" stroke-miterlimit="10"/></g><g transform="translate(-174,-70) scale(1,1)"><path d="M 1220.5165647362726 215.33130380950678 L 1231 212 L 1221.2315043209933 206.94267934878292" fill="none" stroke="#000000" stroke-miterlimit="10"/></g><g transform="translate(-174,-70) scale(1,1)"><g><path fill="none" stroke="none"/><text fill="#000000" font-family="Arial" font-size="13px" font-style="normal" font-weight="normal" stroke="none" text-decoration="none" x="1080.5" y="195.5">+sosa:usedProcedure</text></g></g><g transform="translate(-174,-70) scale(1,1)"><rect fill="#C0C0C0" height="24" opacity="0.2" stroke="none" width="157.79541015625" x="1231" y="343"/></g><g transform="translate(-174,-70) scale(1,1)"><rect fill="#ffffff" height="24" stroke="none" width="157.79541015625" x="1224" y="336"/></g><g transform="translate(-174,-70) scale(1,1)"><path d="M 1224 336 L 1381.79541015625 336 L 1381.79541015625 360 L 1224 360 L 1224 336 Z Z" fill="none" stroke="#000000" stroke-miterlimit="10"/></g><g transform="translate(-174,-70) scale(1,1)"><rect fill="#ffffff" height="24" stroke="none" width="157.79541015625" x="1224" y="336"/></g><g transform="translate(-174,-70) scale(1,1)"><path d="M 1224 336 L 1381.79541015625 336 L 1381.79541015625 360 L 1224 360 L 1224 336 Z Z" fill="none" stroke="#000000" stroke-miterlimit="10"/></g><g transform="translate(-174,-70) scale(1,1)"><g><path fill="none" stroke="none"/><text fill="#000000" font-family="Arial" font-size="13px" font-style="normal" font-weight="bold" stroke="none" text-decoration="none" x="1234.25732421875" y="355.5">Munsell red: tern:Result</text><path d="M 1377.29541015625 355.5 L 1228.5 355.5" fill="none" stroke="#000000" stroke-miterlimit="10"/></g></g><g transform="translate(-174,-70) scale(1,1)"><path d="M 980 201 L 1273 335" fill="none" stroke="#000000" stroke-miterlimit="10"/></g><g transform="translate(-174,-70) scale(1,1)"><path d="M 1262.0072226655464 334.60144451437446 L 1273 335 L 1265.508753889299 326.9451113161691" fill="none" stroke="#000000" stroke-miterlimit="10"/></g><g transform="translate(-174,-70) scale(1,1)"><g><path fill="none" stroke="none"/><text fill="#000000" font-family="Arial" font-size="13px" font-style="normal" font-weight="normal" stroke="none" text-decoration="none" x="1083.5" y="260.5">+sosa:hasResult</text></g></g><g transform="translate(-174,-70) scale(1,1)"><path d="M 510 607 L 266 385" fill="none" stroke="#000000" stroke-miterlimit="10"/></g><g transform="translate(-174,-70) scale(1,1)"><path d="M 276.3498799044805 388.72558531815224 L 266 385 L 270.68408362257003 394.952856907279" fill="none" stroke="#000000" stroke-miterlimit="10"/></g><g transform="translate(-174,-70) scale(1,1)"><g><path fill="none" stroke="none"/><text fill="#000000" font-family="Arial" font-size="13px" font-style="normal" font-weight="normal" stroke="none" text-decoration="none" x="324.5" y="513.5">+sosa:isSampleOf</text></g></g><g transform="translate(-174,-70) scale(1,1)"><rect fill="#C0C0C0" height="24" opacity="0.2" stroke="none" width="206.208984375" x="719" y="527"/></g><g transform="translate(-174,-70) scale(1,1)"><rect fill="#ffffff" height="24" stroke="none" width="206.208984375" x="712" y="520"/></g><g transform="translate(-174,-70) scale(1,1)"><path d="M 712 520 L 918.208984375 520 L 918.208984375 544 L 712 544 L 712 520 Z Z" fill="none" stroke="#000000" stroke-miterlimit="10"/></g><g transform="translate(-174,-70) scale(1,1)"><rect fill="#ffffff" height="24" stroke="none" width="206.208984375" x="712" y="520"/></g><g transform="translate(-174,-70) scale(1,1)"><path d="M 712 520 L 918.208984375 520 L 918.208984375 544 L 712 544 L 712 520 Z Z" fill="none" stroke="#000000" stroke-miterlimit="10"/></g><g transform="translate(-174,-70) scale(1,1)"><g><path fill="none" stroke="none"/><text fill="#000000" font-family="Arial" font-size="13px" font-style="normal" font-weight="bold" stroke="none" text-decoration="none" x="724.41552734375" y="539.5">observation 2: tern:Observation</text><path d="M 913.708984375 539.5 L 716.5 539.5" fill="none" stroke="#000000" stroke-miterlimit="10"/></g></g><g transform="translate(-174,-70) scale(1,1)"><path d="M 766 319 L 509 201" fill="none" stroke="#000000" stroke-miterlimit="10"/></g><g transform="translate(-174,-70) scale(1,1)"><path d="M 519.9921701844928 201.41496341422612 L 509 201 L 516.4792146332679 209.0660615215551" fill="none" stroke="#000000" stroke-miterlimit="10"/></g><g transform="translate(-174,-70) scale(1,1)"><g><path fill="none" stroke="none"/><text fill="#000000" font-family="Arial" font-size="13px" font-style="normal" font-weight="normal" stroke="none" text-decoration="none" x="590.5" y="279.5">+tern:siteVisit</text></g></g><g transform="translate(-174,-70) scale(1,1)"><path d="M 579 188 L 847 188" fill="none" stroke="#000000" stroke-miterlimit="10"/></g><g transform="translate(-174,-70) scale(1,1)"><g><path fill="none" stroke="none"/><text fill="#000000" font-family="Arial" font-size="13px" font-style="normal" font-weight="normal" stroke="none" text-decoration="none" x="590.5" y="180.5">+tern:wasSubActivityOf</text></g></g><g transform="translate(-174,-70) scale(1,1)"><g><path fill="none" stroke="none"/><text fill="#000000" font-family="Arial" font-size="13px" font-style="normal" font-weight="normal" stroke="none" text-decoration="none" x="719.5" y="204.5">+tern:hadSubActivity</text></g></g><g transform="translate(-174,-70) scale(1,1)"><path d="M 486 201 L 560 392 L 791 519" fill="none" stroke="#000000" stroke-miterlimit="10"/></g><g transform="translate(-174,-70) scale(1,1)"><g><path fill="none" stroke="none"/><text fill="#000000" font-family="Arial" font-size="13px" font-style="normal" font-weight="normal" stroke="none" text-decoration="none" x="430.7783203125" y="251.5">+tern:wasSubActivityOf</text></g></g><g transform="translate(-174,-70) scale(1,1)"><g><path fill="none" stroke="none"/><text fill="#000000" font-family="Arial" font-size="13px" font-style="normal" font-weight="normal" stroke="none" text-decoration="none" x="750.5" y="501.5">+tern:hadSubActivity</text></g></g><g transform="translate(-174,-70) scale(1,1)"><path d="M 772 545 L 567 607" fill="none" stroke="#000000" stroke-miterlimit="10"/></g><g transform="translate(-174,-70) scale(1,1)"><g><path fill="none" stroke="none"/><text fill="#000000" font-family="Arial" font-size="13px" font-style="normal" font-weight="normal" stroke="none" text-decoration="none" x="562.5" y="560.5">+sosa:isFeatureOfInterestOf</text></g></g><g transform="translate(-174,-70) scale(1,1)"><g><path fill="none" stroke="none"/><text fill="#000000" font-family="Arial" font-size="13px" font-style="normal" font-weight="normal" stroke="none" text-decoration="none" x="594.5" y="620.5">+sosa:hasFeatureOfInterest</text></g></g><g transform="translate(-174,-70) scale(1,1)"><rect fill="#C0C0C0" height="24" opacity="0.2" stroke="none" width="236.55712890625" x="1119" y="471"/></g><g transform="translate(-174,-70) scale(1,1)"><rect fill="#ffffff" height="24" stroke="none" width="236.55712890625" x="1112" y="464"/></g><g transform="translate(-174,-70) scale(1,1)"><path d="M 1112 464 L 1348.55712890625 464 L 1348.55712890625 488 L 1112 488 L 1112 464 Z Z" fill="none" stroke="#000000" stroke-miterlimit="10"/></g><g transform="translate(-174,-70) scale(1,1)"><rect fill="#ffffff" height="24" stroke="none" width="236.55712890625" x="1112" y="464"/></g><g transform="translate(-174,-70) scale(1,1)"><path d="M 1112 464 L 1348.55712890625 464 L 1348.55712890625 488 L 1112 488 L 1112 464 Z Z" fill="none" stroke="#000000" stroke-miterlimit="10"/></g><g transform="translate(-174,-70) scale(1,1)"><g><path fill="none" stroke="none"/><text fill="#000000" font-family="Arial" font-size="13px" font-style="normal" font-weight="bold" stroke="none" text-decoration="none" x="1125.13916015625" y="483.5">tree height: tern:ObservableProperty</text><path d="M 1344.05712890625 483.5 L 1116.5 483.5" fill="none" stroke="#000000" stroke-miterlimit="10"/></g></g><g transform="translate(-174,-70) scale(1,1)"><path d="M 911 519 L 1134 489" fill="none" stroke="#000000" stroke-miterlimit="10"/></g><g transform="translate(-174,-70) scale(1,1)"><path d="M 1124.489304787882 494.5269047922137 L 1134 489 L 1123.366811064166 486.18303477925963" fill="none" stroke="#000000" stroke-miterlimit="10"/></g><g transform="translate(-174,-70) scale(1,1)"><g><path fill="none" stroke="none"/><text fill="#000000" font-family="Arial" font-size="13px" font-style="normal" font-weight="normal" stroke="none" text-decoration="none" x="949.5" y="495.5">+sosa:observedProperty</text></g></g><g transform="translate(-174,-70) scale(1,1)"><rect fill="#C0C0C0" height="24" opacity="0.2" stroke="none" width="243.76806640625" x="1135" y="575"/></g><g transform="translate(-174,-70) scale(1,1)"><rect fill="#ffffff" height="24" stroke="none" width="243.76806640625" x="1128" y="568"/></g><g transform="translate(-174,-70) scale(1,1)"><path d="M 1128 568 L 1371.76806640625 568 L 1371.76806640625 592 L 1128 592 L 1128 568 Z Z" fill="none" stroke="#000000" stroke-miterlimit="10"/></g><g transform="translate(-174,-70) scale(1,1)"><rect fill="#ffffff" height="24" stroke="none" width="243.76806640625" x="1128" y="568"/></g><g transform="translate(-174,-70) scale(1,1)"><path d="M 1128 568 L 1371.76806640625 568 L 1371.76806640625 592 L 1128 592 L 1128 568 Z Z" fill="none" stroke="#000000" stroke-miterlimit="10"/></g><g transform="translate(-174,-70) scale(1,1)"><g><path fill="none" stroke="none"/><text fill="#000000" font-family="Arial" font-size="13px" font-style="normal" font-weight="bold" stroke="none" text-decoration="none" x="1141.485107421875" y="587.5">tree height procedure: tern:Procedure</text><path d="M 1367.26806640625 587.5 L 1132.5 587.5" fill="none" stroke="#000000" stroke-miterlimit="10"/></g></g><g transform="translate(-174,-70) scale(1,1)"><path d="M 919 544 L 1131 567" fill="none" stroke="#000000" stroke-miterlimit="10"/></g><g transform="translate(-174,-70) scale(1,1)"><path d="M 1120.4425818980326 570.088838458102 L 1131 567 L 1121.3506394485635 561.7189166879909" fill="none" stroke="#000000" stroke-miterlimit="10"/></g><g transform="translate(-174,-70) scale(1,1)"><g><path fill="none" stroke="none"/><text fill="#000000" font-family="Arial" font-size="13px" font-style="normal" font-weight="normal" stroke="none" text-decoration="none" x="962.5" y="546.5">+sosa:usedProcedure</text></g></g><g transform="translate(-174,-70) scale(1,1)"><rect fill="#C0C0C0" height="24" opacity="0.2" stroke="none" width="107.9599609375" x="1063" y="671"/></g><g transform="translate(-174,-70) scale(1,1)"><rect fill="#ffffff" height="24" stroke="none" width="107.9599609375" x="1056" y="664"/></g><g transform="translate(-174,-70) scale(1,1)"><path d="M 1056 664 L 1163.9599609375 664 L 1163.9599609375 688 L 1056 688 L 1056 664 Z Z" fill="none" stroke="#000000" stroke-miterlimit="10"/></g><g transform="translate(-174,-70) scale(1,1)"><rect fill="#ffffff" height="24" stroke="none" width="107.9599609375" x="1056" y="664"/></g><g transform="translate(-174,-70) scale(1,1)"><path d="M 1056 664 L 1163.9599609375 664 L 1163.9599609375 688 L 1056 688 L 1056 664 Z Z" fill="none" stroke="#000000" stroke-miterlimit="10"/></g><g transform="translate(-174,-70) scale(1,1)"><g><path fill="none" stroke="none"/><text fill="#000000" font-family="Arial" font-size="13px" font-style="normal" font-weight="bold" stroke="none" text-decoration="none" x="1064.102294921875" y="683.5">5 m: tern:Result</text><path d="M 1159.4599609375 683.5 L 1060.5 683.5" fill="none" stroke="#000000" stroke-miterlimit="10"/></g></g><g transform="translate(-174,-70) scale(1,1)"><path d="M 842 545 L 1082 663" fill="none" stroke="#000000" stroke-miterlimit="10"/></g><g transform="translate(-174,-70) scale(1,1)"><path d="M 1071.0227033601516 662.2936300680444 L 1082 663 L 1074.737358075779 654.7384001379547" fill="none" stroke="#000000" stroke-miterlimit="10"/></g><g transform="translate(-174,-70) scale(1,1)"><g><path fill="none" stroke="none"/><text fill="#000000" font-family="Arial" font-size="13px" font-style="normal" font-weight="normal" stroke="none" text-decoration="none" x="919.5" y="596.5">+sosa:hasResult</text></g></g><g transform="translate(-174,-70) scale(1,1)"><rect fill="#C0C0C0" height="24" opacity="0.2" stroke="none" width="250.99169921875" x="871" y="415"/></g><g transform="translate(-174,-70) scale(1,1)"><rect fill="#ffffff" height="24" stroke="none" width="250.99169921875" x="864" y="408"/></g><g transform="translate(-174,-70) scale(1,1)"><path d="M 864 408 L 1114.99169921875 408 L 1114.99169921875 432 L 864 432 L 864 408 Z Z" fill="none" stroke="#000000" stroke-miterlimit="10"/></g><g transform="translate(-174,-70) scale(1,1)"><rect fill="#ffffff" height="24" stroke="none" width="250.99169921875" x="864" y="408"/></g><g transform="translate(-174,-70) scale(1,1)"><path d="M 864 408 L 1114.99169921875 408 L 1114.99169921875 432 L 864 432 L 864 408 Z Z" fill="none" stroke="#000000" stroke-miterlimit="10"/></g><g transform="translate(-174,-70) scale(1,1)"><g><path fill="none" stroke="none"/><text fill="#000000" font-family="Arial" font-size="13px" font-style="normal" font-weight="bold" stroke="none" text-decoration="none" x="878.583251953125" y="427.5">sampling soil specimen: tern:Sampling</text><path d="M 1110.49169921875 427.5 L 868.5 427.5" fill="none" stroke="#000000" stroke-miterlimit="10"/></g></g><g transform="translate(-174,-70) scale(1,1)"><path d="M 960 407 L 823 345" fill="none" stroke="#000000" stroke-miterlimit="10"/></g><g transform="translate(-174,-70) scale(1,1)"><g><path fill="none" stroke="none"/><text fill="#000000" font-family="Arial" font-size="13px" font-style="normal" font-weight="normal" stroke="none" text-decoration="none" x="958.5" y="404.5">+sosa:isResultOf</text></g></g><g transform="translate(-174,-70) scale(1,1)"><g><path fill="none" stroke="none"/><text fill="#000000" font-family="Arial" font-size="13px" font-style="normal" font-weight="normal" stroke="none" text-decoration="none" x="745.5" y="363.5">+sosa:hasResult</text></g></g><g transform="translate(-174,-70) scale(1,1)"><path d="M 671 341 L 323 367" fill="none" stroke="#000000" stroke-miterlimit="10"/></g><g transform="translate(-174,-70) scale(1,1)"><path d="M 332.82079905358125 362.04501201321557 L 323 367 L 333.44805921361086 370.44064800130457" fill="none" stroke="#000000" stroke-miterlimit="10"/></g><g transform="translate(-174,-70) scale(1,1)"><g><path fill="none" stroke="none"/><text fill="#000000" font-family="Arial" font-size="13px" font-style="normal" font-weight="normal" stroke="none" text-decoration="none" x="423.5" y="364.5">+sosa:isSampleOf</text></g></g></g></svg>