<?xml version="1.0" encoding="UTF-8" standalone="no"?><svg xmlns="http://www.w3.org/2000/svg" xmlns:xlink="http://www.w3.org/1999/xlink" height="1012" version="1.1" width="1837.2412109375"><defs/><g><g transform="translate(2,-14) scale(1,1)"><rect fill="#C0C0C0" height="62" opacity="0.2" stroke="none" width="168.681640625" x="47" y="127"/></g><g transform="translate(2,-14) scale(1,1)"><rect fill="#ffff91" height="62" stroke="none" width="168.681640625" x="40" y="120"/></g><g transform="translate(2,-14) scale(1,1)"><path d="M 40 120 L 208.681640625 120 L 208.681640625 182 L 40 182 L 40 120 Z Z" fill="none" stroke="#000000" stroke-miterlimit="10"/></g><g transform="translate(2,-14) scale(1,1)"><rect fill="#ffff91" height="62" stroke="none" width="168.681640625" x="40" y="120"/></g><g transform="translate(2,-14) scale(1,1)"><path d="M 40 120 L 208.681640625 120 L 208.681640625 182 L 40 182 L 40 120 Z Z" fill="none" stroke="#000000" stroke-miterlimit="10"/></g><g transform="translate(2,-14) scale(1,1)"><path d="M 40 145 L 208.681640625 145" fill="none" stroke="#000000" stroke-miterlimit="10"/></g><g transform="translate(2,-14) scale(1,1)"><g><path fill="none" stroke="none"/><text fill="#000000" font-family="Arial" font-size="13px" font-style="normal" font-weight="bold" stroke="none" text-decoration="none" x="52.3330078125" y="139.5">transect N3-S3: Transect</text><path d="M 200.566650390625 139.5 L 48.114990234375 139.5" fill="none" stroke="#000000" stroke-miterlimit="10"/></g></g><g transform="translate(2,-14) scale(1,1)"><g><path fill="none" stroke="none"/><text fill="#000000" font-family="Arial" font-size="13px" font-style="normal" font-weight="normal" stroke="none" text-decoration="none" x="45" y="162.5">+transectID: String = 58608</text></g></g><g transform="translate(2,-14) scale(1,1)"><g><path fill="none" stroke="none"/><text fill="#000000" font-family="Arial" font-size="13px" font-style="normal" font-weight="normal" stroke="none" text-decoration="none" x="45" y="177.5">+direction: String = N3-S3</text></g></g><g transform="translate(2,-14) scale(1,1)"><rect fill="#C0C0C0" height="62" opacity="0.2" stroke="none" width="186.66455078125" x="47" y="287"/></g><g transform="translate(2,-14) scale(1,1)"><rect fill="#ffff91" height="62" stroke="none" width="186.66455078125" x="40" y="280"/></g><g transform="translate(2,-14) scale(1,1)"><path d="M 40 280 L 226.66455078125 280 L 226.66455078125 342 L 40 342 L 40 280 Z Z" fill="none" stroke="#000000" stroke-miterlimit="10"/></g><g transform="translate(2,-14) scale(1,1)"><rect fill="#ffff91" height="62" stroke="none" width="186.66455078125" x="40" y="280"/></g><g transform="translate(2,-14) scale(1,1)"><path d="M 40 280 L 226.66455078125 280 L 226.66455078125 342 L 40 342 L 40 280 Z Z" fill="none" stroke="#000000" stroke-miterlimit="10"/></g><g transform="translate(2,-14) scale(1,1)"><path d="M 40 305 L 226.66455078125 305" fill="none" stroke="#000000" stroke-miterlimit="10"/></g><g transform="translate(2,-14) scale(1,1)"><g><path fill="none" stroke="none"/><text fill="#000000" font-family="Arial" font-size="13px" font-style="normal" font-weight="bold" stroke="none" text-decoration="none" x="51.66650390625" y="299.5">point 65: PointInterceptPoint</text><path d="M 222.16455078125 299.5 L 44.5 299.5" fill="none" stroke="#000000" stroke-miterlimit="10"/></g></g><g transform="translate(2,-14) scale(1,1)"><g><path fill="none" stroke="none"/><text fill="#000000" font-family="Arial" font-size="13px" font-style="normal" font-weight="normal" stroke="none" text-decoration="none" x="45" y="322.5">+pointID: String = 54875551</text></g></g><g transform="translate(2,-14) scale(1,1)"><g><path fill="none" stroke="none"/><text fill="#000000" font-family="Arial" font-size="13px" font-style="normal" font-weight="normal" stroke="none" text-decoration="none" x="45" y="337.5">+pointNumber: String = 65</text></g></g><g transform="translate(2,-14) scale(1,1)"><path d="M 131 279 L 126 183" fill="none" stroke="#000000" stroke-miterlimit="10"/></g><g transform="translate(2,-14) scale(1,1)"><g><path fill="none" stroke="none"/><text fill="#000000" font-family="Arial" font-size="13px" font-style="normal" font-weight="normal" stroke="none" text-decoration="none" x="84.5" y="259.5">+hasPoint</text></g></g><g transform="translate(2,-14) scale(1,1)"><g><path fill="none" stroke="none"/><text fill="#000000" font-family="Arial" font-size="13px" font-style="normal" font-weight="normal" stroke="none" text-decoration="none" x="84.5" y="215.5">+isPartOf</text></g></g><g transform="translate(2,-14) scale(1,1)"><rect fill="#C0C0C0" height="24" opacity="0.2" stroke="none" width="185.2744140625" x="871" y="999"/></g><g transform="translate(2,-14) scale(1,1)"><rect fill="#ffffff" height="24" stroke="none" width="185.2744140625" x="864" y="992"/></g><g transform="translate(2,-14) scale(1,1)"><path d="M 864 992 L 1049.2744140625 992 L 1049.2744140625 1016 L 864 1016 L 864 992 Z Z" fill="none" stroke="#000000" stroke-miterlimit="10"/></g><g transform="translate(2,-14) scale(1,1)"><rect fill="#ffffff" height="24" stroke="none" width="185.2744140625" x="864" y="992"/></g><g transform="translate(2,-14) scale(1,1)"><path d="M 864 992 L 1049.2744140625 992 L 1049.2744140625 1016 L 864 1016 L 864 992 Z Z" fill="none" stroke="#000000" stroke-miterlimit="10"/></g><g transform="translate(2,-14) scale(1,1)"><g><path fill="none" stroke="none"/><text fill="#000000" font-family="Arial" font-size="13px" font-style="normal" font-weight="bold" stroke="none" text-decoration="none" x="872.457763671875" y="1011.5">AusPlots QDACYP0023: Site</text><path d="M 1044.7744140625 1011.5 L 868.5 1011.5" fill="none" stroke="#000000" stroke-miterlimit="10"/></g></g><g transform="translate(2,-14) scale(1,1)"><rect fill="#C0C0C0" height="24" opacity="0.2" stroke="none" width="104.1513671875" x="911" y="791"/></g><g transform="translate(2,-14) scale(1,1)"><rect fill="#ffffff" height="24" stroke="none" width="104.1513671875" x="904" y="784"/></g><g transform="translate(2,-14) scale(1,1)"><path d="M 904 784 L 1008.1513671875 784 L 1008.1513671875 808 L 904 808 L 904 784 Z Z" fill="none" stroke="#000000" stroke-miterlimit="10"/></g><g transform="translate(2,-14) scale(1,1)"><rect fill="#ffffff" height="24" stroke="none" width="104.1513671875" x="904" y="784"/></g><g transform="translate(2,-14) scale(1,1)"><path d="M 904 784 L 1008.1513671875 784 L 1008.1513671875 808 L 904 808 L 904 784 Z Z" fill="none" stroke="#000000" stroke-miterlimit="10"/></g><g transform="translate(2,-14) scale(1,1)"><g><path fill="none" stroke="none"/><text fill="#000000" font-family="Arial" font-size="13px" font-style="normal" font-weight="bold" stroke="none" text-decoration="none" x="911.0263671875" y="803.5">58608: SiteVisit</text><path d="M 1003.6513671875 803.5 L 908.5 803.5" fill="none" stroke="#000000" stroke-miterlimit="10"/></g></g><g transform="translate(2,-14) scale(1,1)"><path d="M 956 991 L 956 809" fill="none" stroke="#000000" stroke-miterlimit="10"/></g><g transform="translate(2,-14) scale(1,1)"><path d="M 960.209517756016 819.1626748576241 L 956 809 L 951.790482243984 819.1626748576241" fill="none" stroke="#000000" stroke-miterlimit="10"/></g><g transform="translate(2,-14) scale(1,1)"><g><path fill="none" stroke="none"/><text fill="#000000" font-family="Arial" font-size="13px" font-style="normal" font-weight="normal" stroke="none" text-decoration="none" x="914.5" y="905.5">+siteVisit</text></g></g><g transform="translate(2,-14) scale(1,1)"><rect fill="#C0C0C0" height="77" opacity="0.2" stroke="none" width="392.23974609375" x="351" y="47"/></g><g transform="translate(2,-14) scale(1,1)"><rect fill="#ffff91" height="77" stroke="none" width="392.23974609375" x="344" y="40"/></g><g transform="translate(2,-14) scale(1,1)"><path d="M 344 40 L 736.23974609375 40 L 736.23974609375 117 L 344 117 L 344 40 Z Z" fill="none" stroke="#000000" stroke-miterlimit="10"/></g><g transform="translate(2,-14) scale(1,1)"><rect fill="#ffff91" height="77" stroke="none" width="392.23974609375" x="344" y="40"/></g><g transform="translate(2,-14) scale(1,1)"><path d="M 344 40 L 736.23974609375 40 L 736.23974609375 117 L 344 117 L 344 40 Z Z" fill="none" stroke="#000000" stroke-miterlimit="10"/></g><g transform="translate(2,-14) scale(1,1)"><path d="M 344 65 L 736.23974609375 65" fill="none" stroke="#000000" stroke-miterlimit="10"/></g><g transform="translate(2,-14) scale(1,1)"><g><path fill="none" stroke="none"/><text fill="#000000" font-family="Arial" font-size="13px" font-style="normal" font-weight="bold" stroke="none" text-decoration="none" x="436.783203125" y="59.5">Corymbia nesophila: PlantIndividual</text><path d="M 652.441650390625 59.5 L 427.798095703125 59.5" fill="none" stroke="#000000" stroke-miterlimit="10"/></g></g><g transform="translate(2,-14) scale(1,1)"><g><path fill="none" stroke="none"/><text fill="#000000" font-family="Arial" font-size="13px" font-style="normal" font-weight="normal" stroke="none" text-decoration="none" x="349" y="82.5">+identificationType: PlantIdentificationType = vouchered</text></g></g><g transform="translate(2,-14) scale(1,1)"><g><path fill="none" stroke="none"/><text fill="#000000" font-family="Arial" font-size="13px" font-style="normal" font-weight="normal" stroke="none" text-decoration="none" x="349" y="97.5">+plantName: String = Corymbia nesophila</text></g></g><g transform="translate(2,-14) scale(1,1)"><g><path fill="none" stroke="none"/><text fill="#000000" font-family="Arial" font-size="13px" font-style="normal" font-weight="normal" stroke="none" text-decoration="none" x="349" y="112.5">+plantNameID: IRI = http://id.biodiversity.org.au/name/apni/119420</text></g></g><g transform="translate(2,-14) scale(1,1)"><path d="M 470 118 L 189 279" fill="none" stroke="#000000" stroke-miterlimit="10"/></g><g transform="translate(2,-14) scale(1,1)"><g><path fill="none" stroke="none"/><text fill="#000000" font-family="Arial" font-size="13px" font-style="normal" font-weight="normal" stroke="none" text-decoration="none" x="378.5" y="165.5">+featureDescription</text></g></g><g transform="translate(2,-14) scale(1,1)"><g><path fill="none" stroke="none"/><text fill="#000000" font-family="Arial" font-size="13px" font-style="normal" font-weight="normal" stroke="none" text-decoration="none" x="193.5" y="277.5">+occurrence</text></g></g><g transform="translate(2,-14) scale(1,1)"><rect fill="#C0C0C0" height="77" opacity="0.2" stroke="none" width="319.5146484375" x="15" y="719"/></g><g transform="translate(2,-14) scale(1,1)"><rect fill="#d1ffa3" height="77" stroke="none" width="319.5146484375" x="8" y="712"/></g><g transform="translate(2,-14) scale(1,1)"><path d="M 8 712 L 327.5146484375 712 L 327.5146484375 789 L 8 789 L 8 712 Z Z" fill="none" stroke="#000000" stroke-miterlimit="10"/></g><g transform="translate(2,-14) scale(1,1)"><rect fill="#d1ffa3" height="77" stroke="none" width="319.5146484375" x="8" y="712"/></g><g transform="translate(2,-14) scale(1,1)"><path d="M 8 712 L 327.5146484375 712 L 327.5146484375 789 L 8 789 L 8 712 Z Z" fill="none" stroke="#000000" stroke-miterlimit="10"/></g><g transform="translate(2,-14) scale(1,1)"><path d="M 8 737 L 327.5146484375 737" fill="none" stroke="#000000" stroke-miterlimit="10"/></g><g transform="translate(2,-14) scale(1,1)"><g><path fill="none" stroke="none"/><text fill="#000000" font-family="Arial" font-size="13px" font-style="normal" font-weight="bold" stroke="none" text-decoration="none" x="66.953369140625" y="731.5">substrate observation: Observation</text><path d="M 277.562255859375 731.5 L 57.952392578125 731.5" fill="none" stroke="#000000" stroke-miterlimit="10"/></g></g><g transform="translate(2,-14) scale(1,1)"><g><path fill="none" stroke="none"/><text fill="#000000" font-family="Arial" font-size="13px" font-style="normal" font-weight="normal" stroke="none" text-decoration="none" x="13" y="754.5">+phenomenonTime: DateTime = 2018-07-12 16:17:48</text></g></g><g transform="translate(2,-14) scale(1,1)"><g><path fill="none" stroke="none"/><text fill="#000000" font-family="Arial" font-size="13px" font-style="normal" font-weight="normal" stroke="none" text-decoration="none" x="13" y="769.5">+resultTime: DateTime = 2018-07-12 16:17:48</text></g></g><g transform="translate(2,-14) scale(1,1)"><g><path fill="none" stroke="none"/><text fill="#000000" font-family="Arial" font-size="13px" font-style="normal" font-weight="normal" stroke="none" text-decoration="none" x="13" y="784.5">+validTime: DateTime = 2018-07-12 16:17:48</text></g></g><g transform="translate(2,-14) scale(1,1)"><rect fill="#C0C0C0" height="39" opacity="0.2" stroke="none" width="149.8671875" x="431" y="839"/></g><g transform="translate(2,-14) scale(1,1)"><rect fill="#e2e2e2" height="39" stroke="none" width="149.8671875" x="424" y="832"/></g><g transform="translate(2,-14) scale(1,1)"><path d="M 424 832 L 573.8671875 832 L 573.8671875 871 L 424 871 L 424 832 Z Z" fill="none" stroke="#000000" stroke-miterlimit="10"/></g><g transform="translate(2,-14) scale(1,1)"><rect fill="#e2e2e2" height="39" stroke="none" width="149.8671875" x="424" y="832"/></g><g transform="translate(2,-14) scale(1,1)"><path d="M 424 832 L 573.8671875 832 L 573.8671875 871 L 424 871 L 424 832 Z Z" fill="none" stroke="#000000" stroke-miterlimit="10"/></g><g transform="translate(2,-14) scale(1,1)"><g><path fill="none" stroke="none"/><text fill="#000000" font-family="Arial" font-size="13px" font-style="normal" font-weight="bold" stroke="none" text-decoration="none" x="434.260498046875" y="851.5">substrate value: String</text><path d="M 569.3671875 851.5 L 428.5 851.5" fill="none" stroke="#000000" stroke-miterlimit="10"/></g></g><g transform="translate(2,-14) scale(1,1)"><g><path fill="none" stroke="none"/><text fill="#000000" font-family="Arial" font-size="13px" font-style="normal" font-weight="normal" stroke="none" text-decoration="none" x="484.483154296875" y="866.5">Litter</text></g></g><g transform="translate(2,-14) scale(1,1)"><path d="M 298 790 L 432 831" fill="none" stroke="#000000" stroke-miterlimit="10"/></g><g transform="translate(2,-14) scale(1,1)"><path d="M 421.05041120585975 832.0519055277155 L 432 831 L 423.513661980644 824.0012810442745" fill="none" stroke="#000000" stroke-miterlimit="10"/></g><g transform="translate(2,-14) scale(1,1)"><g><path fill="none" stroke="none"/><text fill="#000000" font-family="Arial" font-size="13px" font-style="normal" font-weight="normal" stroke="none" text-decoration="none" x="336.5" y="801.5">+hasResult</text></g></g><g transform="translate(2,-14) scale(1,1)"><rect fill="#C0C0C0" height="92" opacity="0.2" stroke="none" width="737.2412109375" x="23" y="911"/></g><g transform="translate(2,-14) scale(1,1)"><rect fill="#ebd8ff" height="92" stroke="none" width="737.2412109375" x="16" y="904"/></g><g transform="translate(2,-14) scale(1,1)"><path d="M 16 904 L 753.2412109375 904 L 753.2412109375 996 L 16 996 L 16 904 Z Z" fill="none" stroke="#000000" stroke-miterlimit="10"/></g><g transform="translate(2,-14) scale(1,1)"><rect fill="#ebd8ff" height="92" stroke="none" width="737.2412109375" x="16" y="904"/></g><g transform="translate(2,-14) scale(1,1)"><path d="M 16 904 L 753.2412109375 904 L 753.2412109375 996 L 16 996 L 16 904 Z Z" fill="none" stroke="#000000" stroke-miterlimit="10"/></g><g transform="translate(2,-14) scale(1,1)"><path d="M 16 929 L 753.2412109375 929" fill="none" stroke="#000000" stroke-miterlimit="10"/></g><g transform="translate(2,-14) scale(1,1)"><g><path fill="none" stroke="none"/><text fill="#000000" font-family="Arial" font-size="13px" font-style="normal" font-weight="bold" stroke="none" text-decoration="none" x="265.037109375" y="923.5">substrate parameter: ObservableProperty</text><path d="M 513.227294921875 923.5 L 256.013916015625 923.5" fill="none" stroke="#000000" stroke-miterlimit="10"/></g></g><g transform="translate(2,-14) scale(1,1)"><g><path fill="none" stroke="none"/><text fill="#000000" font-family="Arial" font-size="13px" font-style="normal" font-weight="normal" stroke="none" text-decoration="none" x="21" y="946.5">+globalVocabulary: ParameterVocabularyTerm = http://linked.data.gov.au/def/tern-cv/5699eca7-9ef0-47a6-bcfb-9306e0e2b85e</text></g></g><g transform="translate(2,-14) scale(1,1)"><g><path fill="none" stroke="none"/><text fill="#000000" font-family="Arial" font-size="13px" font-style="normal" font-weight="normal" stroke="none" text-decoration="none" x="21" y="961.5">+globalValue: ParameterTerm = http://linked.data.gov.au/def/tern-cv/0209017c-b3eb-41bc-bf21-38c10c5ee063</text></g></g><g transform="translate(2,-14) scale(1,1)"><g><path fill="none" stroke="none"/><text fill="#000000" font-family="Arial" font-size="13px" font-style="normal" font-weight="normal" stroke="none" text-decoration="none" x="21" y="976.5">+vocabulary: ParameterVocabularyTerm = http://linked.data.gov.au/def/ausplots-cv/540cda9e-0131-4d9c-a034-40d1d2d3b5ec</text></g></g><g transform="translate(2,-14) scale(1,1)"><g><path fill="none" stroke="none"/><text fill="#000000" font-family="Arial" font-size="13px" font-style="normal" font-weight="normal" stroke="none" text-decoration="none" x="21" y="991.5">+value: ParameterTerm = http://linked.data.gov.au/def/ausplots-cv/9a9ad6ad-7957-465b-9e6a-f5e57cb5a4b8</text></g></g><g transform="translate(2,-14) scale(1,1)"><path d="M 210 790 L 333 903" fill="none" stroke="#000000" stroke-miterlimit="10"/></g><g transform="translate(2,-14) scale(1,1)"><path d="M 322.6682267347395 899.2244919288593 L 333 903 L 328.36402042198057 893.0246457029243" fill="none" stroke="#000000" stroke-miterlimit="10"/></g><g transform="translate(2,-14) scale(1,1)"><g><path fill="none" stroke="none"/><text fill="#000000" font-family="Arial" font-size="13px" font-style="normal" font-weight="normal" stroke="none" text-decoration="none" x="225.5" y="840.5">+observedProperty</text></g></g><g transform="translate(2,-14) scale(1,1)"><path d="M 164 711 L 135 343" fill="none" stroke="#000000" stroke-miterlimit="10"/></g><g transform="translate(2,-14) scale(1,1)"><path d="M 139.9948952622279 352.80056229608147 L 135 343 L 131.60188025223752 353.4619683702383" fill="none" stroke="#000000" stroke-miterlimit="10"/></g><g transform="translate(2,-14) scale(1,1)"><g><path fill="none" stroke="none"/><text fill="#000000" font-family="Arial" font-size="13px" font-style="normal" font-weight="normal" stroke="none" text-decoration="none" x="68.5" y="534.5">+hasFeatureOfInterest</text></g></g><g transform="translate(2,-14) scale(1,1)"><rect fill="#C0C0C0" height="47" opacity="0.2" stroke="none" width="236.5888671875" x="1015" y="31"/></g><g transform="translate(2,-14) scale(1,1)"><rect fill="#ffff91" height="47" stroke="none" width="236.5888671875" x="1008" y="24"/></g><g transform="translate(2,-14) scale(1,1)"><path d="M 1008 24 L 1244.5888671875 24 L 1244.5888671875 71 L 1008 71 L 1008 24 Z Z" fill="none" stroke="#000000" stroke-miterlimit="10"/></g><g transform="translate(2,-14) scale(1,1)"><rect fill="#ffff91" height="47" stroke="none" width="236.5888671875" x="1008" y="24"/></g><g transform="translate(2,-14) scale(1,1)"><path d="M 1008 24 L 1244.5888671875 24 L 1244.5888671875 71 L 1008 71 L 1008 24 Z Z" fill="none" stroke="#000000" stroke-miterlimit="10"/></g><g transform="translate(2,-14) scale(1,1)"><path d="M 1008 49 L 1244.5888671875 49" fill="none" stroke="#000000" stroke-miterlimit="10"/></g><g transform="translate(2,-14) scale(1,1)"><g><path fill="none" stroke="none"/><text fill="#000000" font-family="Arial" font-size="13px" font-style="normal" font-weight="bold" stroke="none" text-decoration="none" x="1018.25732421875" y="43.5">QDA022469 voucher: PlantSpecimen</text><path d="M 1240.0888671875 43.5 L 1012.5 43.5" fill="none" stroke="#000000" stroke-miterlimit="10"/></g></g><g transform="translate(2,-14) scale(1,1)"><g><path fill="none" stroke="none"/><text fill="#000000" font-family="Arial" font-size="13px" font-style="normal" font-weight="normal" stroke="none" text-decoration="none" x="1013" y="66.5">+barcode: String = QDA022469</text></g></g><g transform="translate(2,-14) scale(1,1)"><path d="M 737 68 L 1007 53" fill="none" stroke="#000000" stroke-miterlimit="10"/></g><g transform="translate(2,-14) scale(1,1)"><path d="M 997.0864741046723 57.76676035926591 L 1007 53 L 996.6194700396172 49.36068718827356" fill="none" stroke="#000000" stroke-miterlimit="10"/></g><g transform="translate(2,-14) scale(1,1)"><g><path fill="none" stroke="none"/><text fill="#000000" font-family="Arial" font-size="13px" font-style="normal" font-weight="normal" stroke="none" text-decoration="none" x="824.5" y="51.5">+relatedFeature</text></g></g><g transform="translate(2,-14) scale(1,1)"><rect fill="#C0C0C0" height="77" opacity="0.2" stroke="none" width="319.5146484375" x="1423" y="215"/></g><g transform="translate(2,-14) scale(1,1)"><rect fill="#d1ffa3" height="77" stroke="none" width="319.5146484375" x="1416" y="208"/></g><g transform="translate(2,-14) scale(1,1)"><path d="M 1416 208 L 1735.5146484375 208 L 1735.5146484375 285 L 1416 285 L 1416 208 Z Z" fill="none" stroke="#000000" stroke-miterlimit="10"/></g><g transform="translate(2,-14) scale(1,1)"><rect fill="#d1ffa3" height="77" stroke="none" width="319.5146484375" x="1416" y="208"/></g><g transform="translate(2,-14) scale(1,1)"><path d="M 1416 208 L 1735.5146484375 208 L 1735.5146484375 285 L 1416 285 L 1416 208 Z Z" fill="none" stroke="#000000" stroke-miterlimit="10"/></g><g transform="translate(2,-14) scale(1,1)"><path d="M 1416 233 L 1735.5146484375 233" fill="none" stroke="#000000" stroke-miterlimit="10"/></g><g transform="translate(2,-14) scale(1,1)"><g><path fill="none" stroke="none"/><text fill="#000000" font-family="Arial" font-size="13px" font-style="normal" font-weight="bold" stroke="none" text-decoration="none" x="1467.374267578125" y="227.5">growth form observation: Observation</text><path d="M 1694.214111328125 227.5 L 1457.300537109375 227.5" fill="none" stroke="#000000" stroke-miterlimit="10"/></g></g><g transform="translate(2,-14) scale(1,1)"><g><path fill="none" stroke="none"/><text fill="#000000" font-family="Arial" font-size="13px" font-style="normal" font-weight="normal" stroke="none" text-decoration="none" x="1421" y="250.5">+phenomenonTime: DateTime = 2018-07-12 16:17:48</text></g></g><g transform="translate(2,-14) scale(1,1)"><g><path fill="none" stroke="none"/><text fill="#000000" font-family="Arial" font-size="13px" font-style="normal" font-weight="normal" stroke="none" text-decoration="none" x="1421" y="265.5">+resultTime: DateTime = 2018-07-12 16:17:48</text></g></g><g transform="translate(2,-14) scale(1,1)"><g><path fill="none" stroke="none"/><text fill="#000000" font-family="Arial" font-size="13px" font-style="normal" font-weight="normal" stroke="none" text-decoration="none" x="1421" y="280.5">+validTime: DateTime = 2018-07-12 16:17:48</text></g></g><g transform="translate(2,-14) scale(1,1)"><rect fill="#C0C0C0" height="39" opacity="0.2" stroke="none" width="167.1708984375" x="1463" y="31"/></g><g transform="translate(2,-14) scale(1,1)"><rect fill="#e2e2e2" height="39" stroke="none" width="167.1708984375" x="1456" y="24"/></g><g transform="translate(2,-14) scale(1,1)"><path d="M 1456 24 L 1623.1708984375 24 L 1623.1708984375 63 L 1456 63 L 1456 24 Z Z" fill="none" stroke="#000000" stroke-miterlimit="10"/></g><g transform="translate(2,-14) scale(1,1)"><rect fill="#e2e2e2" height="39" stroke="none" width="167.1708984375" x="1456" y="24"/></g><g transform="translate(2,-14) scale(1,1)"><path d="M 1456 24 L 1623.1708984375 24 L 1623.1708984375 63 L 1456 63 L 1456 24 Z Z" fill="none" stroke="#000000" stroke-miterlimit="10"/></g><g transform="translate(2,-14) scale(1,1)"><g><path fill="none" stroke="none"/><text fill="#000000" font-family="Arial" font-size="13px" font-style="normal" font-weight="bold" stroke="none" text-decoration="none" x="1467.333251953125" y="43.5">growth form value: String</text><path d="M 1618.6708984375 43.5 L 1460.5 43.5" fill="none" stroke="#000000" stroke-miterlimit="10"/></g></g><g transform="translate(2,-14) scale(1,1)"><g><path fill="none" stroke="none"/><text fill="#000000" font-family="Arial" font-size="13px" font-style="normal" font-weight="normal" stroke="none" text-decoration="none" x="1509.8466796875" y="58.5">Tree/Palm</text></g></g><g transform="translate(2,-14) scale(1,1)"><path d="M 1568 207 L 1543 64" fill="none" stroke="#000000" stroke-miterlimit="10"/></g><g transform="translate(2,-14) scale(1,1)"><path d="M 1548.8967733725954 73.28590672967643 L 1543 64 L 1540.6035208208625 74.73577605690247" fill="none" stroke="#000000" stroke-miterlimit="10"/></g><g transform="translate(2,-14) scale(1,1)"><g><path fill="none" stroke="none"/><text fill="#000000" font-family="Arial" font-size="13px" font-style="normal" font-weight="normal" stroke="none" text-decoration="none" x="1507.5" y="143.5">+hasResult</text></g></g><g transform="translate(2,-14) scale(1,1)"><path d="M 1415 220 L 737 110" fill="none" stroke="#000000" stroke-miterlimit="10"/></g><g transform="translate(2,-14) scale(1,1)"><path d="M 747.7056507902279 107.47234473123959 L 737 110 L 746.3573604518277 115.78271608974289" fill="none" stroke="#000000" stroke-miterlimit="10"/></g><g transform="translate(2,-14) scale(1,1)"><g><path fill="none" stroke="none"/><text fill="#000000" font-family="Arial" font-size="13px" font-style="normal" font-weight="normal" stroke="none" text-decoration="none" x="1007.5" y="185.5">+hasFeatureOfInterest</text></g></g><g transform="translate(2,-14) scale(1,1)"><rect fill="#C0C0C0" height="92" opacity="0.2" stroke="none" width="737.2412109375" x="1095" y="711"/></g><g transform="translate(2,-14) scale(1,1)"><rect fill="#ebd8ff" height="92" stroke="none" width="737.2412109375" x="1088" y="704"/></g><g transform="translate(2,-14) scale(1,1)"><path d="M 1088 704 L 1825.2412109375 704 L 1825.2412109375 796 L 1088 796 L 1088 704 Z Z" fill="none" stroke="#000000" stroke-miterlimit="10"/></g><g transform="translate(2,-14) scale(1,1)"><rect fill="#ebd8ff" height="92" stroke="none" width="737.2412109375" x="1088" y="704"/></g><g transform="translate(2,-14) scale(1,1)"><path d="M 1088 704 L 1825.2412109375 704 L 1825.2412109375 796 L 1088 796 L 1088 704 Z Z" fill="none" stroke="#000000" stroke-miterlimit="10"/></g><g transform="translate(2,-14) scale(1,1)"><path d="M 1088 729 L 1825.2412109375 729" fill="none" stroke="#000000" stroke-miterlimit="10"/></g><g transform="translate(2,-14) scale(1,1)"><g><path fill="none" stroke="none"/><text fill="#000000" font-family="Arial" font-size="13px" font-style="normal" font-weight="bold" stroke="none" text-decoration="none" x="1329.4580078125" y="723.5">growth form parameter: ObservableProperty</text><path d="M 1593.879150390625 723.5 L 1319.362060546875 723.5" fill="none" stroke="#000000" stroke-miterlimit="10"/></g></g><g transform="translate(2,-14) scale(1,1)"><g><path fill="none" stroke="none"/><text fill="#000000" font-family="Arial" font-size="13px" font-style="normal" font-weight="normal" stroke="none" text-decoration="none" x="1093" y="746.5">+globalVocabulary: ParameterVocabularyTerm = http://linked.data.gov.au/def/tern-cv/5699eca7-9ef0-47a6-bcfb-9306e0e2b85e</text></g></g><g transform="translate(2,-14) scale(1,1)"><g><path fill="none" stroke="none"/><text fill="#000000" font-family="Arial" font-size="13px" font-style="normal" font-weight="normal" stroke="none" text-decoration="none" x="1093" y="761.5">+globalValue: ParameterTerm = http://linked.data.gov.au/def/tern-cv/f81aa91e-5f57-4e49-bc6e-4d821d1f9de2</text></g></g><g transform="translate(2,-14) scale(1,1)"><g><path fill="none" stroke="none"/><text fill="#000000" font-family="Arial" font-size="13px" font-style="normal" font-weight="normal" stroke="none" text-decoration="none" x="1093" y="776.5">+vocabulary: ParameterVocabularyTerm = http://linked.data.gov.au/def/ausplots-cv/540cda9e-0131-4d9c-a034-40d1d2d3b5ec</text></g></g><g transform="translate(2,-14) scale(1,1)"><g><path fill="none" stroke="none"/><text fill="#000000" font-family="Arial" font-size="13px" font-style="normal" font-weight="normal" stroke="none" text-decoration="none" x="1093" y="791.5">+value: ParameterTerm = http://linked.data.gov.au/def/ausplots-cv/8949882d-92cc-4d29-afeb-447f020197c0</text></g></g><g transform="translate(2,-14) scale(1,1)"><path d="M 1566 286 L 1467 703" fill="none" stroke="#000000" stroke-miterlimit="10"/></g><g transform="translate(2,-14) scale(1,1)"><path d="M 1465.2517957829275 692.1398074595609 L 1467 703 L 1473.443148733545 694.084517152873" fill="none" stroke="#000000" stroke-miterlimit="10"/></g><g transform="translate(2,-14) scale(1,1)"><g><path fill="none" stroke="none"/><text fill="#000000" font-family="Arial" font-size="13px" font-style="normal" font-weight="normal" stroke="none" text-decoration="none" x="1474.5" y="503.5">+observedProperty</text></g></g><g transform="translate(2,-14) scale(1,1)"><path d="M 903 793 L 329 759" fill="none" stroke="#000000" stroke-miterlimit="10"/></g><g transform="translate(2,-14) scale(1,1)"><path d="M 339.39380122730347 755.3987646498314 L 329 759 L 338.89598526688434 763.8030693933783" fill="none" stroke="#000000" stroke-miterlimit="10"/></g><g transform="translate(2,-14) scale(1,1)"><g><path fill="none" stroke="none"/><text fill="#000000" font-family="Arial" font-size="13px" font-style="normal" font-weight="normal" stroke="none" text-decoration="none" x="568.5" y="796.5">+hasSubActivity</text></g></g><g transform="translate(2,-14) scale(1,1)"><path d="M 971 783 L 1530 286" fill="none" stroke="#000000" stroke-miterlimit="10"/></g><g transform="translate(2,-14) scale(1,1)"><path d="M 1525.2020724313577 295.8984792289554 L 1530 286 L 1519.6080710943424 289.6066346667996" fill="none" stroke="#000000" stroke-miterlimit="10"/></g><g transform="translate(2,-14) scale(1,1)"><g><path fill="none" stroke="none"/><text fill="#000000" font-family="Arial" font-size="13px" font-style="normal" font-weight="normal" stroke="none" text-decoration="none" x="1193.5" y="528.5">+hasSubActivity</text></g></g><g transform="translate(2,-14) scale(1,1)"><rect fill="#C0C0C0" height="77" opacity="0.2" stroke="none" width="319.5146484375" x="319" y="383"/></g><g transform="translate(2,-14) scale(1,1)"><rect fill="#d1ffa3" height="77" stroke="none" width="319.5146484375" x="312" y="376"/></g><g transform="translate(2,-14) scale(1,1)"><path d="M 312 376 L 631.5146484375 376 L 631.5146484375 453 L 312 453 L 312 376 Z Z" fill="none" stroke="#000000" stroke-miterlimit="10"/></g><g transform="translate(2,-14) scale(1,1)"><rect fill="#d1ffa3" height="77" stroke="none" width="319.5146484375" x="312" y="376"/></g><g transform="translate(2,-14) scale(1,1)"><path d="M 312 376 L 631.5146484375 376 L 631.5146484375 453 L 312 453 L 312 376 Z Z" fill="none" stroke="#000000" stroke-miterlimit="10"/></g><g transform="translate(2,-14) scale(1,1)"><path d="M 312 401 L 631.5146484375 401" fill="none" stroke="#000000" stroke-miterlimit="10"/></g><g transform="translate(2,-14) scale(1,1)"><g><path fill="none" stroke="none"/><text fill="#000000" font-family="Arial" font-size="13px" font-style="normal" font-weight="bold" stroke="none" text-decoration="none" x="379.979736328125" y="395.5">height observation: Observation</text><path d="M 571.799560546875 395.5 L 371.715087890625 395.5" fill="none" stroke="#000000" stroke-miterlimit="10"/></g></g><g transform="translate(2,-14) scale(1,1)"><g><path fill="none" stroke="none"/><text fill="#000000" font-family="Arial" font-size="13px" font-style="normal" font-weight="normal" stroke="none" text-decoration="none" x="317" y="418.5">+phenomenonTime: DateTime = 2018-07-12 16:17:48</text></g></g><g transform="translate(2,-14) scale(1,1)"><g><path fill="none" stroke="none"/><text fill="#000000" font-family="Arial" font-size="13px" font-style="normal" font-weight="normal" stroke="none" text-decoration="none" x="317" y="433.5">+resultTime: DateTime = 2018-07-12 16:17:48</text></g></g><g transform="translate(2,-14) scale(1,1)"><g><path fill="none" stroke="none"/><text fill="#000000" font-family="Arial" font-size="13px" font-style="normal" font-weight="normal" stroke="none" text-decoration="none" x="317" y="448.5">+validTime: DateTime = 2018-07-12 16:17:48</text></g></g><g transform="translate(2,-14) scale(1,1)"><path d="M 479 375 L 532 118" fill="none" stroke="#000000" stroke-miterlimit="10"/></g><g transform="translate(2,-14) scale(1,1)"><path d="M 534.0701508033375 128.80344739661564 L 532 118 L 525.8246267567797 127.10300858545779" fill="none" stroke="#000000" stroke-miterlimit="10"/></g><g transform="translate(2,-14) scale(1,1)"><g><path fill="none" stroke="none"/><text fill="#000000" font-family="Arial" font-size="13px" font-style="normal" font-weight="normal" stroke="none" text-decoration="none" x="424.5" y="248.5">+hasFeatureOfInterest</text></g></g><g transform="translate(2,-14) scale(1,1)"><rect fill="#C0C0C0" height="39" opacity="0.2" stroke="none" width="142.64990234375" x="775" y="399"/></g><g transform="translate(2,-14) scale(1,1)"><rect fill="#e2e2e2" height="39" stroke="none" width="142.64990234375" x="768" y="392"/></g><g transform="translate(2,-14) scale(1,1)"><path d="M 768 392 L 910.64990234375 392 L 910.64990234375 431 L 768 431 L 768 392 Z Z" fill="none" stroke="#000000" stroke-miterlimit="10"/></g><g transform="translate(2,-14) scale(1,1)"><rect fill="#e2e2e2" height="39" stroke="none" width="142.64990234375" x="768" y="392"/></g><g transform="translate(2,-14) scale(1,1)"><path d="M 768 392 L 910.64990234375 392 L 910.64990234375 431 L 768 431 L 768 392 Z Z" fill="none" stroke="#000000" stroke-miterlimit="10"/></g><g transform="translate(2,-14) scale(1,1)"><g><path fill="none" stroke="none"/><text fill="#000000" font-family="Arial" font-size="13px" font-style="normal" font-weight="bold" stroke="none" text-decoration="none" x="777.181396484375" y="411.5">height value: Decimal</text><path d="M 906.14990234375 411.5 L 772.5 411.5" fill="none" stroke="#000000" stroke-miterlimit="10"/></g></g><g transform="translate(2,-14) scale(1,1)"><g><path fill="none" stroke="none"/><text fill="#000000" font-family="Arial" font-size="13px" font-style="normal" font-weight="normal" stroke="none" text-decoration="none" x="826.674072265625" y="426.5">12.0</text></g></g><g transform="translate(2,-14) scale(1,1)"><path d="M 633 413 L 767 412" fill="none" stroke="#000000" stroke-miterlimit="10"/></g><g transform="translate(2,-14) scale(1,1)"><path d="M 756.8690215557198 416.285239288713 L 767 412 L 756.8061946819387 407.86643820205074" fill="none" stroke="#000000" stroke-miterlimit="10"/></g><g transform="translate(2,-14) scale(1,1)"><g><path fill="none" stroke="none"/><text fill="#000000" font-family="Arial" font-size="13px" font-style="normal" font-weight="normal" stroke="none" text-decoration="none" x="667.5" y="403.5">+hasResult</text></g></g><g transform="translate(2,-14) scale(1,1)"><rect fill="#C0C0C0" height="92" opacity="0.2" stroke="none" width="737.2412109375" x="575" y="239"/></g><g transform="translate(2,-14) scale(1,1)"><rect fill="#ebd8ff" height="92" stroke="none" width="737.2412109375" x="568" y="232"/></g><g transform="translate(2,-14) scale(1,1)"><path d="M 568 232 L 1305.2412109375 232 L 1305.2412109375 324 L 568 324 L 568 232 Z Z" fill="none" stroke="#000000" stroke-miterlimit="10"/></g><g transform="translate(2,-14) scale(1,1)"><rect fill="#ebd8ff" height="92" stroke="none" width="737.2412109375" x="568" y="232"/></g><g transform="translate(2,-14) scale(1,1)"><path d="M 568 232 L 1305.2412109375 232 L 1305.2412109375 324 L 568 324 L 568 232 Z Z" fill="none" stroke="#000000" stroke-miterlimit="10"/></g><g transform="translate(2,-14) scale(1,1)"><path d="M 568 257 L 1305.2412109375 257" fill="none" stroke="#000000" stroke-miterlimit="10"/></g><g transform="translate(2,-14) scale(1,1)"><g><path fill="none" stroke="none"/><text fill="#000000" font-family="Arial" font-size="13px" font-style="normal" font-weight="bold" stroke="none" text-decoration="none" x="826.0634765625" y="251.5">height parameter: ObservableProperty</text><path d="M 1055.464599609375 251.5 L 817.776611328125 251.5" fill="none" stroke="#000000" stroke-miterlimit="10"/></g></g><g transform="translate(2,-14) scale(1,1)"><g><path fill="none" stroke="none"/><text fill="#000000" font-family="Arial" font-size="13px" font-style="normal" font-weight="normal" stroke="none" text-decoration="none" x="573" y="274.5">+globalVocabulary: ParameterVocabularyTerm = http://linked.data.gov.au/def/tern-cv/5699eca7-9ef0-47a6-bcfb-9306e0e2b85e</text></g></g><g transform="translate(2,-14) scale(1,1)"><g><path fill="none" stroke="none"/><text fill="#000000" font-family="Arial" font-size="13px" font-style="normal" font-weight="normal" stroke="none" text-decoration="none" x="573" y="289.5">+globalValue: ParameterTerm = http://linked.data.gov.au/def/tern-cv/09296da0-c645-4165-950c-780c21b3c140</text></g></g><g transform="translate(2,-14) scale(1,1)"><g><path fill="none" stroke="none"/><text fill="#000000" font-family="Arial" font-size="13px" font-style="normal" font-weight="normal" stroke="none" text-decoration="none" x="573" y="304.5">+vocabulary: ParameterVocabularyTerm = http://linked.data.gov.au/def/ausplots-cv/540cda9e-0131-4d9c-a034-40d1d2d3b5ec</text></g></g><g transform="translate(2,-14) scale(1,1)"><g><path fill="none" stroke="none"/><text fill="#000000" font-family="Arial" font-size="13px" font-style="normal" font-weight="normal" stroke="none" text-decoration="none" x="573" y="319.5">+value: ParameterTerm = http://linked.data.gov.au/def/ausplots-cv/8b217978-1aec-4e4a-ac9d-b08a47ebf0a4</text></g></g><g transform="translate(2,-14) scale(1,1)"><path d="M 604 375 L 775 325" fill="none" stroke="#000000" stroke-miterlimit="10"/></g><g transform="translate(2,-14) scale(1,1)"><path d="M 766.4271375931919 331.8924618355082 L 775 325 L 764.0643643550095 323.8117773609241" fill="none" stroke="#000000" stroke-miterlimit="10"/></g><g transform="translate(2,-14) scale(1,1)"><g><path fill="none" stroke="none"/><text fill="#000000" font-family="Arial" font-size="13px" font-style="normal" font-weight="normal" stroke="none" text-decoration="none" x="628.5" y="341.5">+observedProperty</text></g></g><g transform="translate(2,-14) scale(1,1)"><rect fill="#C0C0C0" height="92" opacity="0.2" stroke="none" width="710.51123046875" x="415" y="543"/></g><g transform="translate(2,-14) scale(1,1)"><rect fill="#ffd8d8" height="92" stroke="none" width="710.51123046875" x="408" y="536"/></g><g transform="translate(2,-14) scale(1,1)"><path d="M 408 536 L 1118.51123046875 536 L 1118.51123046875 628 L 408 628 L 408 536 Z Z" fill="none" stroke="#000000" stroke-miterlimit="10"/></g><g transform="translate(2,-14) scale(1,1)"><rect fill="#ffd8d8" height="92" stroke="none" width="710.51123046875" x="408" y="536"/></g><g transform="translate(2,-14) scale(1,1)"><path d="M 408 536 L 1118.51123046875 536 L 1118.51123046875 628 L 408 628 L 408 536 Z Z" fill="none" stroke="#000000" stroke-miterlimit="10"/></g><g transform="translate(2,-14) scale(1,1)"><path d="M 408 561 L 1118.51123046875 561" fill="none" stroke="#000000" stroke-miterlimit="10"/></g><g transform="translate(2,-14) scale(1,1)"><g><path fill="none" stroke="none"/><text fill="#000000" font-family="Arial" font-size="13px" font-style="normal" font-weight="bold" stroke="none" text-decoration="none" x="665.336669921875" y="555.5">point intercept method: Procedure</text><path d="M 869.79150390625 555.5 L 656.7197265625 555.5" fill="none" stroke="#000000" stroke-miterlimit="10"/></g></g><g transform="translate(2,-14) scale(1,1)"><g><path fill="none" stroke="none"/><text fill="#000000" font-family="Arial" font-size="13px" font-style="normal" font-weight="normal" stroke="none" text-decoration="none" x="413" y="578.5">+vocabulary: MethodVocabularyTerm = http://linked.data.gov.au/def/ausplots-cv/3ee6feb4-20aa-4dd8-9f15-48bbbebbac7a</text></g></g><g transform="translate(2,-14) scale(1,1)"><g><path fill="none" stroke="none"/><text fill="#000000" font-family="Arial" font-size="13px" font-style="normal" font-weight="normal" stroke="none" text-decoration="none" x="413" y="593.5">+value: MethodTerm = http://linked.data.gov.au/def/ausplots-cv/c5a32483-bf2f-421d-b03d-6d81e1195de2</text></g></g><g transform="translate(2,-14) scale(1,1)"><g><path fill="none" stroke="none"/><text fill="#000000" font-family="Arial" font-size="13px" font-style="normal" font-weight="normal" stroke="none" text-decoration="none" x="413" y="608.5">+observationType: ObservationTypeTerm</text></g></g><g transform="translate(2,-14) scale(1,1)"><g><path fill="none" stroke="none"/><text fill="#000000" font-family="Arial" font-size="13px" font-style="normal" font-weight="normal" stroke="none" text-decoration="none" x="413" y="623.5">+instrumentType: InstrumentTypeTerm</text></g></g><g transform="translate(2,-14) scale(1,1)"><path d="M 305 711 L 596 629" fill="none" stroke="#000000" stroke-miterlimit="10"/></g><g transform="translate(2,-14) scale(1,1)"><path d="M 587.3599858493942 635.8080948493196 L 596 629 L 585.0765373696438 627.7046374394739" fill="none" stroke="#000000" stroke-miterlimit="10"/></g><g transform="translate(2,-14) scale(1,1)"><g><path fill="none" stroke="none"/><text fill="#000000" font-family="Arial" font-size="13px" font-style="normal" font-weight="normal" stroke="none" text-decoration="none" x="277.5" y="695.5">+usedProcedure</text></g></g><g transform="translate(2,-14) scale(1,1)"><path d="M 541 454 L 681 535" fill="none" stroke="#000000" stroke-miterlimit="10"/></g><g transform="translate(2,-14) scale(1,1)"><path d="M 670.0954253931482 533.5542293945437 L 681 535 L 674.3116155486988 526.2669871503821" fill="none" stroke="#000000" stroke-miterlimit="10"/></g><g transform="translate(2,-14) scale(1,1)"><g><path fill="none" stroke="none"/><text fill="#000000" font-family="Arial" font-size="13px" font-style="normal" font-weight="normal" stroke="none" text-decoration="none" x="570.5" y="487.5">+usedProcedure</text></g></g><g transform="translate(2,-14) scale(1,1)"><path d="M 1478 286 L 877 535" fill="none" stroke="#000000" stroke-miterlimit="10"/></g><g transform="translate(2,-14) scale(1,1)"><path d="M 884.7775377552462 527.221188621279 L 877 535 L 887.9999999631337 534.9990994122043" fill="none" stroke="#000000" stroke-miterlimit="10"/></g><g transform="translate(2,-14) scale(1,1)"><g><path fill="none" stroke="none"/><text fill="#000000" font-family="Arial" font-size="13px" font-style="normal" font-weight="normal" stroke="none" text-decoration="none" x="1134.5" y="429.5">+usedProcedure</text></g></g><g transform="translate(2,-14) scale(1,1)"><g><path fill="none" stroke="none"/><text fill="#000000" font-family="Arial" font-size="13px" font-style="normal" font-weight="normal" stroke="none" text-decoration="none" x="29" y="58">Point Intercept</text></g></g><g transform="translate(2,-14) scale(1,1)"><g><path fill="none" stroke="none"/><text fill="#000000" font-family="Arial" font-size="13px" font-style="normal" font-weight="normal" stroke="none" text-decoration="none" x="29" y="73">AusPlots Rangelands QDACYP0023 site visit 58608</text><text fill="#000000" font-family="Arial" font-size="13px" font-style="normal" font-weight="normal" stroke="none" text-decoration="none" x="29" y="86">transect N3-S3 point number 65</text></g></g></g></svg>