<?xml version="1.0" encoding="UTF-8" standalone="no"?><svg xmlns="http://www.w3.org/2000/svg" xmlns:xlink="http://www.w3.org/1999/xlink" height="570" version="1.1" width="966.50341796875"><defs/><g><g transform="translate(-254,-110) scale(1,1)"><rect fill="#C0C0C0" height="222" opacity="0.2" stroke="none" width="176.27978515625" x="271" y="447"/></g><g transform="translate(-254,-110) scale(1,1)"><rect fill="#ffffff" height="222" stroke="none" width="176.27978515625" x="264" y="440"/></g><g transform="translate(-254,-110) scale(1,1)"><path d="M 264 440 L 440.27978515625 440 L 440.27978515625 662 L 264 662 L 264 440 Z Z" fill="none" stroke="#000000" stroke-miterlimit="10"/></g><g transform="translate(-254,-110) scale(1,1)"><path d="M 264 465 L 440.27978515625 465" fill="none" stroke="#000000" stroke-miterlimit="10"/></g><g transform="translate(-254,-110) scale(1,1)"><path d="M 264 653 L 440.27978515625 653" fill="none" stroke="#000000" stroke-miterlimit="10"/></g><g transform="translate(-254,-110) scale(1,1)"><g><path fill="none" stroke="none"/><text fill="#000000" font-family="Arial" font-size="13px" font-style="normal" font-weight="bold" stroke="none" text-decoration="none" x="340.939453125" y="459.5">Site</text></g></g><g transform="translate(-254,-110) scale(1,1)"><g><path fill="none" stroke="none"/><text fill="#000000" font-family="Arial" font-size="13px" font-style="normal" font-weight="normal" stroke="none" text-decoration="none" x="269" y="482.5">+identifier: String</text></g></g><g transform="translate(-254,-110) scale(1,1)"><g><path fill="none" stroke="none"/><text fill="#000000" font-family="Arial" font-size="13px" font-style="normal" font-weight="normal" stroke="none" text-decoration="none" x="269" y="497.5">+siteName: String</text></g></g><g transform="translate(-254,-110) scale(1,1)"><g><path fill="none" stroke="none"/><text fill="#000000" font-family="Arial" font-size="13px" font-style="normal" font-weight="normal" stroke="none" text-decoration="none" x="269" y="512.5">+dateCommissioned: Date</text></g></g><g transform="translate(-254,-110) scale(1,1)"><g><path fill="none" stroke="none"/><text fill="#000000" font-family="Arial" font-size="13px" font-style="normal" font-weight="normal" stroke="none" text-decoration="none" x="269" y="527.5">+dateDecommissioned: Date</text></g></g><g transform="translate(-254,-110) scale(1,1)"><g><path fill="none" stroke="none"/><text fill="#000000" font-family="Arial" font-size="13px" font-style="normal" font-weight="normal" stroke="none" text-decoration="none" x="269" y="542.5">+locality: String</text></g></g><g transform="translate(-254,-110) scale(1,1)"><g><path fill="none" stroke="none"/><text fill="#000000" font-family="Arial" font-size="13px" font-style="normal" font-weight="normal" stroke="none" text-decoration="none" x="269" y="557.5">+region: IRI</text></g></g><g transform="translate(-254,-110) scale(1,1)"><g><path fill="none" stroke="none"/><text fill="#000000" font-family="Arial" font-size="13px" font-style="normal" font-weight="normal" stroke="none" text-decoration="none" x="269" y="572.5">+permanent: Boolean</text></g></g><g transform="translate(-254,-110) scale(1,1)"><g><path fill="none" stroke="none"/><text fill="#000000" font-family="Arial" font-size="13px" font-style="normal" font-weight="normal" stroke="none" text-decoration="none" x="269" y="587.5">+notes: String</text></g></g><g transform="translate(-254,-110) scale(1,1)"><g><path fill="none" stroke="none"/><text fill="#000000" font-family="Arial" font-size="13px" font-style="normal" font-weight="normal" stroke="none" text-decoration="none" x="269" y="602.5">+placementMethod[0..1]</text></g></g><g transform="translate(-254,-110) scale(1,1)"><g><path fill="none" stroke="none"/><text fill="#000000" font-family="Arial" font-size="13px" font-style="normal" font-weight="normal" stroke="none" text-decoration="none" x="269" y="617.5">+placementNote[0..*]</text></g></g><g transform="translate(-254,-110) scale(1,1)"><g><path fill="none" stroke="none"/><text fill="#000000" font-family="Arial" font-size="13px" font-style="normal" font-weight="normal" stroke="none" text-decoration="none" x="269" y="632.5">+markers[0..1]</text></g></g><g transform="translate(-254,-110) scale(1,1)"><g><path fill="none" stroke="none"/><text fill="#000000" font-family="Arial" font-size="13px" font-style="normal" font-weight="normal" stroke="none" text-decoration="none" x="269" y="647.5">+siteDescription</text></g></g><g transform="translate(-254,-110) scale(1,1)"><rect fill="#C0C0C0" height="102" opacity="0.2" stroke="none" width="160.1123046875" x="567" y="127"/></g><g transform="translate(-254,-110) scale(1,1)"><rect fill="#ffffff" height="102" stroke="none" width="160.1123046875" x="560" y="120"/></g><g transform="translate(-254,-110) scale(1,1)"><path d="M 560 120 L 720.1123046875 120 L 720.1123046875 222 L 560 222 L 560 120 Z Z" fill="none" stroke="#000000" stroke-miterlimit="10"/></g><g transform="translate(-254,-110) scale(1,1)"><path d="M 560 145 L 720.1123046875 145" fill="none" stroke="#000000" stroke-miterlimit="10"/></g><g transform="translate(-254,-110) scale(1,1)"><path d="M 560 213 L 720.1123046875 213" fill="none" stroke="#000000" stroke-miterlimit="10"/></g><g transform="translate(-254,-110) scale(1,1)"><g><path fill="none" stroke="none"/><text fill="#000000" font-family="Arial" font-size="13px" font-style="normal" font-weight="bold" stroke="none" text-decoration="none" x="616.693603515625" y="139.5">SiteVisit</text></g></g><g transform="translate(-254,-110) scale(1,1)"><g><path fill="none" stroke="none"/><text fill="#000000" font-family="Arial" font-size="13px" font-style="normal" font-weight="normal" stroke="none" text-decoration="none" x="565" y="162.5">+identifier</text></g></g><g transform="translate(-254,-110) scale(1,1)"><g><path fill="none" stroke="none"/><text fill="#000000" font-family="Arial" font-size="13px" font-style="normal" font-weight="normal" stroke="none" text-decoration="none" x="565" y="177.5">+siteDescription</text></g></g><g transform="translate(-254,-110) scale(1,1)"><g><path fill="none" stroke="none"/><text fill="#000000" font-family="Arial" font-size="13px" font-style="normal" font-weight="normal" stroke="none" text-decoration="none" x="565" y="192.5">+startedAtTime: DateTime</text></g></g><g transform="translate(-254,-110) scale(1,1)"><g><path fill="none" stroke="none"/><text fill="#000000" font-family="Arial" font-size="13px" font-style="normal" font-weight="normal" stroke="none" text-decoration="none" x="565" y="207.5">+endedAtTime: DateTime</text></g></g><g transform="translate(-254,-110) scale(1,1)"><path d="M 437 439 L 601 223" fill="none" stroke="#000000" stroke-miterlimit="10"/></g><g transform="translate(-254,-110) scale(1,1)"><g><path fill="none" stroke="none"/><text fill="#000000" font-family="Arial" font-size="13px" font-style="normal" font-weight="normal" stroke="none" text-decoration="none" x="426.50634765625" y="415.5">+site</text></g></g><g transform="translate(-254,-110) scale(1,1)"><g><path fill="none" stroke="none"/><text fill="#000000" font-family="Arial" font-size="13px" font-style="normal" font-weight="normal" stroke="none" text-decoration="none" x="456.5" y="435.5">1</text></g></g><g transform="translate(-254,-110) scale(1,1)"><g><path fill="none" stroke="none"/><text fill="#000000" font-family="Arial" font-size="13px" font-style="normal" font-weight="normal" stroke="none" text-decoration="none" x="511.50634765625" y="245.5">+siteVisit</text></g></g><g transform="translate(-254,-110) scale(1,1)"><g><path fill="none" stroke="none"/><text fill="#000000" font-family="Arial" font-size="13px" font-style="normal" font-weight="normal" stroke="none" text-decoration="none" x="587.5" y="253.5">0..*</text></g></g><g transform="translate(-254,-110) scale(1,1)"><rect fill="#C0C0C0" height="102" opacity="0.2" stroke="none" width="176.25439453125" x="879" y="575"/></g><g transform="translate(-254,-110) scale(1,1)"><rect fill="#ffffff" height="102" stroke="none" width="176.25439453125" x="872" y="568"/></g><g transform="translate(-254,-110) scale(1,1)"><path d="M 872 568 L 1048.25439453125 568 L 1048.25439453125 670 L 872 670 L 872 568 Z Z" fill="none" stroke="#000000" stroke-miterlimit="10"/></g><g transform="translate(-254,-110) scale(1,1)"><path d="M 872 593 L 1048.25439453125 593" fill="none" stroke="#000000" stroke-miterlimit="10"/></g><g transform="translate(-254,-110) scale(1,1)"><path d="M 872 616 L 1048.25439453125 616" fill="none" stroke="#000000" stroke-miterlimit="10"/></g><g transform="translate(-254,-110) scale(1,1)"><g><path fill="none" stroke="none"/><text fill="#000000" font-family="Arial" font-size="13px" font-style="normal" font-weight="bold" stroke="none" text-decoration="none" x="938.088134765625" y="587.5">Sample</text></g></g><g transform="translate(-254,-110) scale(1,1)"><g><path fill="none" stroke="none"/><text fill="#000000" font-family="Arial" font-size="13px" font-style="normal" font-weight="normal" stroke="none" text-decoration="none" x="877" y="610.5">+identifier</text></g></g><g transform="translate(-254,-110) scale(1,1)"><rect fill="#C0C0C0" height="222" opacity="0.2" stroke="none" width="170.50341796875" x="1047" y="191"/></g><g transform="translate(-254,-110) scale(1,1)"><rect fill="#ffffff" height="222" stroke="none" width="170.50341796875" x="1040" y="184"/></g><g transform="translate(-254,-110) scale(1,1)"><path d="M 1040 184 L 1210.50341796875 184 L 1210.50341796875 406 L 1040 406 L 1040 184 Z Z" fill="none" stroke="#000000" stroke-miterlimit="10"/></g><g transform="translate(-254,-110) scale(1,1)"><path d="M 1040 209 L 1210.50341796875 209" fill="none" stroke="#000000" stroke-miterlimit="10"/></g><g transform="translate(-254,-110) scale(1,1)"><path d="M 1040 292 L 1210.50341796875 292" fill="none" stroke="#000000" stroke-miterlimit="10"/></g><g transform="translate(-254,-110) scale(1,1)"><g><path fill="none" stroke="none"/><text fill="#000000" font-family="Arial" font-size="13px" font-style="normal" font-weight="bold" stroke="none" text-decoration="none" x="1090.206298828125" y="203.5">Observation</text></g></g><g transform="translate(-254,-110) scale(1,1)"><g><path fill="none" stroke="none"/><text fill="#000000" font-family="Arial" font-size="13px" font-style="normal" font-weight="normal" stroke="none" text-decoration="none" x="1045" y="226.5">+phenomenonTime</text></g></g><g transform="translate(-254,-110) scale(1,1)"><g><path fill="none" stroke="none"/><text fill="#000000" font-family="Arial" font-size="13px" font-style="normal" font-weight="normal" stroke="none" text-decoration="none" x="1045" y="241.5">+resultTime: DateTime</text></g></g><g transform="translate(-254,-110) scale(1,1)"><g><path fill="none" stroke="none"/><text fill="#000000" font-family="Arial" font-size="13px" font-style="normal" font-weight="normal" stroke="none" text-decoration="none" x="1045" y="256.5">+validTime: DateTime</text></g></g><g transform="translate(-254,-110) scale(1,1)"><g><path fill="none" stroke="none"/><text fill="#000000" font-family="Arial" font-size="13px" font-style="normal" font-weight="normal" stroke="none" text-decoration="none" x="1045" y="271.5">+hasResult: Result</text></g></g><g transform="translate(-254,-110) scale(1,1)"><g><path fill="none" stroke="none"/><text fill="#000000" font-family="Arial" font-size="13px" font-style="normal" font-weight="normal" stroke="none" text-decoration="none" x="1045" y="286.5">+isPartOf: Project</text></g></g><g transform="translate(-254,-110) scale(1,1)"><path d="M 721 192 L 1039 273" fill="none" stroke="#000000" stroke-miterlimit="10"/></g><g transform="translate(-254,-110) scale(1,1)"><g><path fill="none" stroke="none"/><text fill="#000000" font-family="Arial" font-size="13px" font-style="normal" font-weight="normal" stroke="none" text-decoration="none" x="761.371337890625" y="196.5">+isSubActivityOf</text></g></g><g transform="translate(-254,-110) scale(1,1)"><g><path fill="none" stroke="none"/><text fill="#000000" font-family="Arial" font-size="13px" font-style="normal" font-weight="normal" stroke="none" text-decoration="none" x="726.5" y="193.5">1</text></g></g><g transform="translate(-254,-110) scale(1,1)"><g><path fill="none" stroke="none"/><text fill="#000000" font-family="Arial" font-size="13px" font-style="normal" font-weight="normal" stroke="none" text-decoration="none" x="970.871337890625" y="258.5">+hasSubActivity</text></g></g><g transform="translate(-254,-110) scale(1,1)"><g><path fill="none" stroke="none"/><text fill="#000000" font-family="Arial" font-size="13px" font-style="normal" font-weight="normal" stroke="none" text-decoration="none" x="1004.5" y="285.5">0..*</text></g></g><g transform="translate(-254,-110) scale(1,1)"><path d="M 1068 407 L 986 567" fill="none" stroke="#000000" stroke-miterlimit="10"/></g><g transform="translate(-254,-110) scale(1,1)"><path d="M 986.8889125936909 556.0359754469092 L 986 567 L 994.3812922334672 559.8758200122946" fill="none" stroke="#000000" stroke-miterlimit="10"/></g><g transform="translate(-254,-110) scale(1,1)"><g><path fill="none" stroke="none"/><text fill="#000000" font-family="Arial" font-size="13px" font-style="normal" font-weight="normal" stroke="none" text-decoration="none" x="975.035888671875" y="499.5">+hasFeatureOfInterest</text></g></g><g transform="translate(-254,-110) scale(1,1)"><path d="M 1068 407 L 986 567" fill="none" stroke="#000000" stroke-miterlimit="10"/></g><g transform="translate(-254,-110) scale(1,1)"><path d="M 986.8889125936909 556.0359754469092 L 986 567 L 994.3812922334672 559.8758200122946" fill="none" stroke="#000000" stroke-miterlimit="10"/></g><g transform="translate(-254,-110) scale(1,1)"><path d="M 1068 407 L 986 567" fill="none" stroke="#000000" stroke-miterlimit="10"/></g><g transform="translate(-254,-110) scale(1,1)"><path d="M 986.8889125936909 556.0359754469092 L 986 567 L 994.3812922334672 559.8758200122946" fill="none" stroke="#000000" stroke-miterlimit="10"/></g><g transform="translate(-254,-110) scale(1,1)"><g><path fill="none" stroke="none"/><text fill="#000000" font-family="Arial" font-size="13px" font-style="normal" font-weight="normal" stroke="none" text-decoration="none" x="975.035888671875" y="499.5">+hasFeatureOfInterest</text></g></g><g transform="translate(-254,-110) scale(1,1)"><g><path fill="none" stroke="none"/><text fill="#000000" font-family="Arial" font-size="13px" font-style="normal" font-weight="normal" stroke="none" text-decoration="none" x="1004.5" y="556.5">1</text></g></g><g transform="translate(-254,-110) scale(1,1)"><rect fill="#C0C0C0" height="44" opacity="0.2" stroke="none" width="96.39453125" x="695" y="311"/></g><g transform="translate(-254,-110) scale(1,1)"><rect fill="#ffffff" height="44" stroke="none" width="96.39453125" x="688" y="304"/></g><g transform="translate(-254,-110) scale(1,1)"><path d="M 688 304 L 784.39453125 304 L 784.39453125 348 L 688 348 L 688 304 Z Z" fill="none" stroke="#000000" stroke-miterlimit="10"/></g><g transform="translate(-254,-110) scale(1,1)"><path d="M 688 329 L 784.39453125 329" fill="none" stroke="#000000" stroke-miterlimit="10"/></g><g transform="translate(-254,-110) scale(1,1)"><path d="M 688 339 L 784.39453125 339" fill="none" stroke="#000000" stroke-miterlimit="10"/></g><g transform="translate(-254,-110) scale(1,1)"><g><path fill="none" stroke="none"/><text fill="#000000" font-family="Arial" font-size="13px" font-style="normal" font-weight="bold" stroke="none" text-decoration="none" x="709.09912109375" y="323.5">Sampling</text></g></g><g transform="translate(-254,-110) scale(1,1)"><path d="M 920 567 L 754 349" fill="none" stroke="#000000" stroke-miterlimit="10"/></g><g transform="translate(-254,-110) scale(1,1)"><g><path fill="none" stroke="none"/><text fill="#000000" font-family="Arial" font-size="13px" font-style="normal" font-weight="normal" stroke="none" text-decoration="none" x="818.035888671875" y="544.5">+hasResult</text></g></g><g transform="translate(-254,-110) scale(1,1)"><g><path fill="none" stroke="none"/><text fill="#000000" font-family="Arial" font-size="13px" font-style="normal" font-weight="normal" stroke="none" text-decoration="none" x="906.5" y="548.5">1..*</text></g></g><g transform="translate(-254,-110) scale(1,1)"><g><path fill="none" stroke="none"/><text fill="#000000" font-family="Arial" font-size="13px" font-style="normal" font-weight="normal" stroke="none" text-decoration="none" x="723.035888671875" y="384.5">+isResultOf</text></g></g><g transform="translate(-254,-110) scale(1,1)"><g><path fill="none" stroke="none"/><text fill="#000000" font-family="Arial" font-size="13px" font-style="normal" font-weight="normal" stroke="none" text-decoration="none" x="773.5" y="364.5">1</text></g></g><g transform="translate(-254,-110) scale(1,1)"><path d="M 722 303 L 672 223" fill="none" stroke="#000000" stroke-miterlimit="10"/></g><g transform="translate(-254,-110) scale(1,1)"><g><path fill="none" stroke="none"/><text fill="#000000" font-family="Arial" font-size="13px" font-style="normal" font-weight="normal" stroke="none" text-decoration="none" x="648.871337890625" y="294.5">+hasSubActivity</text></g></g><g transform="translate(-254,-110) scale(1,1)"><g><path fill="none" stroke="none"/><text fill="#000000" font-family="Arial" font-size="13px" font-style="normal" font-weight="normal" stroke="none" text-decoration="none" x="722.5" y="284.5">0..*</text></g></g><g transform="translate(-254,-110) scale(1,1)"><g><path fill="none" stroke="none"/><text fill="#000000" font-family="Arial" font-size="13px" font-style="normal" font-weight="normal" stroke="none" text-decoration="none" x="675.371337890625" y="260.5">+isSubActivityOf</text></g></g><g transform="translate(-254,-110) scale(1,1)"><g><path fill="none" stroke="none"/><text fill="#000000" font-family="Arial" font-size="13px" font-style="normal" font-weight="normal" stroke="none" text-decoration="none" x="690.5" y="240.5">1</text></g></g><g transform="translate(-254,-110) scale(1,1)"><path d="M 871 609 L 441 561" fill="none" stroke="#000000" stroke-miterlimit="10"/></g><g transform="translate(-254,-110) scale(1,1)"><g><path fill="none" stroke="none"/><text fill="#000000" font-family="Arial" font-size="13px" font-style="normal" font-weight="normal" stroke="none" text-decoration="none" x="807.035888671875" y="627.5">+hasSample</text></g></g><g transform="translate(-254,-110) scale(1,1)"><g><path fill="none" stroke="none"/><text fill="#000000" font-family="Arial" font-size="13px" font-style="normal" font-weight="normal" stroke="none" text-decoration="none" x="840.5" y="600.5">0..*</text></g></g><g transform="translate(-254,-110) scale(1,1)"><g><path fill="none" stroke="none"/><text fill="#000000" font-family="Arial" font-size="13px" font-style="normal" font-weight="normal" stroke="none" text-decoration="none" x="428.035888671875" y="584.5">+isSampleOf</text></g></g><g transform="translate(-254,-110) scale(1,1)"><g><path fill="none" stroke="none"/><text fill="#000000" font-family="Arial" font-size="13px" font-style="normal" font-weight="normal" stroke="none" text-decoration="none" x="459.5" y="556.5">1</text></g></g></g></svg>