<?xml version="1.0" encoding="UTF-8" standalone="no"?><svg xmlns="http://www.w3.org/2000/svg" xmlns:xlink="http://www.w3.org/1999/xlink" height="512" version="1.1" width="909.74267578125"><defs/><g><g transform="translate(-254,-110) scale(1,1)"><rect fill="#C0C0C0" height="117" opacity="0.2" stroke="none" width="115.57080078125" x="271" y="447"/></g><g transform="translate(-254,-110) scale(1,1)"><rect fill="#ffffff" height="117" stroke="none" width="115.57080078125" x="264" y="440"/></g><g transform="translate(-254,-110) scale(1,1)"><path d="M 264 440 L 379.57080078125 440 L 379.57080078125 557 L 264 557 L 264 440 Z Z" fill="none" stroke="#000000" stroke-miterlimit="10"/></g><g transform="translate(-254,-110) scale(1,1)"><path d="M 264 465 L 379.57080078125 465" fill="none" stroke="#000000" stroke-miterlimit="10"/></g><g transform="translate(-254,-110) scale(1,1)"><path d="M 264 548 L 379.57080078125 548" fill="none" stroke="#000000" stroke-miterlimit="10"/></g><g transform="translate(-254,-110) scale(1,1)"><g><path fill="none" stroke="none"/><text fill="#000000" font-family="Arial" font-size="13px" font-style="normal" font-weight="bold" stroke="none" text-decoration="none" x="297.57861328125" y="459.5">tern:Site</text></g></g><g transform="translate(-254,-110) scale(1,1)"><g><path fill="none" stroke="none"/><text fill="#000000" font-family="Arial" font-size="13px" font-style="normal" font-weight="normal" stroke="none" text-decoration="none" x="269" y="482.5">+dcterms:type</text></g></g><g transform="translate(-254,-110) scale(1,1)"><g><path fill="none" stroke="none"/><text fill="#000000" font-family="Arial" font-size="13px" font-style="normal" font-weight="normal" stroke="none" text-decoration="none" x="269" y="497.5">+dcterms:identifier</text></g></g><g transform="translate(-254,-110) scale(1,1)"><g><path fill="none" stroke="none"/><text fill="#000000" font-family="Arial" font-size="13px" font-style="normal" font-weight="normal" stroke="none" text-decoration="none" x="269" y="512.5">+tern:hasSubSite</text></g></g><g transform="translate(-254,-110) scale(1,1)"><g><path fill="none" stroke="none"/><text fill="#000000" font-family="Arial" font-size="13px" font-style="normal" font-weight="normal" stroke="none" text-decoration="none" x="269" y="527.5">+tern:isSubSiteOf</text></g></g><g transform="translate(-254,-110) scale(1,1)"><g><path fill="none" stroke="none"/><text fill="#000000" font-family="Arial" font-size="13px" font-style="normal" font-weight="normal" stroke="none" text-decoration="none" x="269" y="542.5">+tern:siteVisit</text></g></g><g transform="translate(-254,-110) scale(1,1)"><rect fill="#C0C0C0" height="102" opacity="0.2" stroke="none" width="115.57080078125" x="567" y="127"/></g><g transform="translate(-254,-110) scale(1,1)"><rect fill="#ffffff" height="102" stroke="none" width="115.57080078125" x="560" y="120"/></g><g transform="translate(-254,-110) scale(1,1)"><path d="M 560 120 L 675.57080078125 120 L 675.57080078125 222 L 560 222 L 560 120 Z Z" fill="none" stroke="#000000" stroke-miterlimit="10"/></g><g transform="translate(-254,-110) scale(1,1)"><path d="M 560 145 L 675.57080078125 145" fill="none" stroke="#000000" stroke-miterlimit="10"/></g><g transform="translate(-254,-110) scale(1,1)"><path d="M 560 213 L 675.57080078125 213" fill="none" stroke="#000000" stroke-miterlimit="10"/></g><g transform="translate(-254,-110) scale(1,1)"><g><path fill="none" stroke="none"/><text fill="#000000" font-family="Arial" font-size="13px" font-style="normal" font-weight="bold" stroke="none" text-decoration="none" x="581.41650390625" y="139.5">tern:SiteVisit</text></g></g><g transform="translate(-254,-110) scale(1,1)"><g><path fill="none" stroke="none"/><text fill="#000000" font-family="Arial" font-size="13px" font-style="normal" font-weight="normal" stroke="none" text-decoration="none" x="565" y="162.5">+dcterms:type</text></g></g><g transform="translate(-254,-110) scale(1,1)"><g><path fill="none" stroke="none"/><text fill="#000000" font-family="Arial" font-size="13px" font-style="normal" font-weight="normal" stroke="none" text-decoration="none" x="565" y="177.5">+dcterms:identifier</text></g></g><g transform="translate(-254,-110) scale(1,1)"><g><path fill="none" stroke="none"/><text fill="#000000" font-family="Arial" font-size="13px" font-style="normal" font-weight="normal" stroke="none" text-decoration="none" x="565" y="192.5">+dcterms:isPartOf</text></g></g><g transform="translate(-254,-110) scale(1,1)"><g><path fill="none" stroke="none"/><text fill="#000000" font-family="Arial" font-size="13px" font-style="normal" font-weight="normal" stroke="none" text-decoration="none" x="565" y="207.5">+tern:site</text></g></g><g transform="translate(-254,-110) scale(1,1)"><path d="M 374 439 L 570 223" fill="none" stroke="#000000" stroke-miterlimit="10"/></g><g transform="translate(-254,-110) scale(1,1)"><g><path fill="none" stroke="none"/><text fill="#000000" font-family="Arial" font-size="13px" font-style="normal" font-weight="normal" stroke="none" text-decoration="none" x="353.5" y="415.5">+tern:site</text></g></g><g transform="translate(-254,-110) scale(1,1)"><g><path fill="none" stroke="none"/><text fill="#000000" font-family="Arial" font-size="13px" font-style="normal" font-weight="normal" stroke="none" text-decoration="none" x="393.5" y="437.5">1</text></g></g><g transform="translate(-254,-110) scale(1,1)"><g><path fill="none" stroke="none"/><text fill="#000000" font-family="Arial" font-size="13px" font-style="normal" font-weight="normal" stroke="none" text-decoration="none" x="466.5" y="240.5">+tern:siteVisit</text></g></g><g transform="translate(-254,-110) scale(1,1)"><g><path fill="none" stroke="none"/><text fill="#000000" font-family="Arial" font-size="13px" font-style="normal" font-weight="normal" stroke="none" text-decoration="none" x="554.5" y="253.5">0..*</text></g></g><g transform="translate(-254,-110) scale(1,1)"><rect fill="#C0C0C0" height="87" opacity="0.2" stroke="none" width="115.57080078125" x="879" y="575"/></g><g transform="translate(-254,-110) scale(1,1)"><rect fill="#ffffff" height="87" stroke="none" width="115.57080078125" x="872" y="568"/></g><g transform="translate(-254,-110) scale(1,1)"><path d="M 872 568 L 987.57080078125 568 L 987.57080078125 655 L 872 655 L 872 568 Z Z" fill="none" stroke="#000000" stroke-miterlimit="10"/></g><g transform="translate(-254,-110) scale(1,1)"><path d="M 872 593 L 987.57080078125 593" fill="none" stroke="#000000" stroke-miterlimit="10"/></g><g transform="translate(-254,-110) scale(1,1)"><path d="M 872 646 L 987.57080078125 646" fill="none" stroke="#000000" stroke-miterlimit="10"/></g><g transform="translate(-254,-110) scale(1,1)"><g><path fill="none" stroke="none"/><text fill="#000000" font-family="Arial" font-size="13px" font-style="normal" font-weight="bold" stroke="none" text-decoration="none" x="894.739990234375" y="587.5">tern:Sample</text></g></g><g transform="translate(-254,-110) scale(1,1)"><g><path fill="none" stroke="none"/><text fill="#000000" font-family="Arial" font-size="13px" font-style="normal" font-weight="normal" stroke="none" text-decoration="none" x="877" y="610.5">+dcterms:identifier</text></g></g><g transform="translate(-254,-110) scale(1,1)"><g><path fill="none" stroke="none"/><text fill="#000000" font-family="Arial" font-size="13px" font-style="normal" font-weight="normal" stroke="none" text-decoration="none" x="877" y="625.5">+sosa:hasSample</text></g></g><g transform="translate(-254,-110) scale(1,1)"><g><path fill="none" stroke="none"/><text fill="#000000" font-family="Arial" font-size="13px" font-style="normal" font-weight="normal" stroke="none" text-decoration="none" x="877" y="640.5">+sosa:isSampleOf</text></g></g><g transform="translate(-254,-110) scale(1,1)"><rect fill="#C0C0C0" height="222" opacity="0.2" stroke="none" width="170.50341796875" x="1047" y="191"/></g><g transform="translate(-254,-110) scale(1,1)"><rect fill="#ffffff" height="222" stroke="none" width="170.50341796875" x="1040" y="184"/></g><g transform="translate(-254,-110) scale(1,1)"><path d="M 1040 184 L 1210.50341796875 184 L 1210.50341796875 406 L 1040 406 L 1040 184 Z Z" fill="none" stroke="#000000" stroke-miterlimit="10"/></g><g transform="translate(-254,-110) scale(1,1)"><path d="M 1040 209 L 1210.50341796875 209" fill="none" stroke="#000000" stroke-miterlimit="10"/></g><g transform="translate(-254,-110) scale(1,1)"><path d="M 1040 397 L 1210.50341796875 397" fill="none" stroke="#000000" stroke-miterlimit="10"/></g><g transform="translate(-254,-110) scale(1,1)"><g><path fill="none" stroke="none"/><text fill="#000000" font-family="Arial" font-size="13px" font-style="normal" font-weight="bold" stroke="none" text-decoration="none" x="1077.199951171875" y="203.5">tern:Observation</text></g></g><g transform="translate(-254,-110) scale(1,1)"><g><path fill="none" stroke="none"/><text fill="#000000" font-family="Arial" font-size="13px" font-style="normal" font-weight="normal" stroke="none" text-decoration="none" x="1045" y="226.5">+dcterms:type</text></g></g><g transform="translate(-254,-110) scale(1,1)"><g><path fill="none" stroke="none"/><text fill="#000000" font-family="Arial" font-size="13px" font-style="normal" font-weight="normal" stroke="none" text-decoration="none" x="1045" y="241.5">+sosa:hasFeatureOfInterest</text></g></g><g transform="translate(-254,-110) scale(1,1)"><g><path fill="none" stroke="none"/><text fill="#000000" font-family="Arial" font-size="13px" font-style="normal" font-weight="normal" stroke="none" text-decoration="none" x="1045" y="256.5">+dcterms:isPartOf</text></g></g><g transform="translate(-254,-110) scale(1,1)"><g><path fill="none" stroke="none"/><text fill="#000000" font-family="Arial" font-size="13px" font-style="normal" font-weight="normal" stroke="none" text-decoration="none" x="1045" y="271.5">+tern:site</text></g></g><g transform="translate(-254,-110) scale(1,1)"><g><path fill="none" stroke="none"/><text fill="#000000" font-family="Arial" font-size="13px" font-style="normal" font-weight="normal" stroke="none" text-decoration="none" x="1045" y="286.5">+tern:siteVisit</text></g></g><g transform="translate(-254,-110) scale(1,1)"><g><path fill="none" stroke="none"/><text fill="#000000" font-family="Arial" font-size="13px" font-style="normal" font-weight="normal" stroke="none" text-decoration="none" x="1045" y="301.5">+tern:domain</text></g></g><g transform="translate(-254,-110) scale(1,1)"><g><path fill="none" stroke="none"/><text fill="#000000" font-family="Arial" font-size="13px" font-style="normal" font-weight="normal" stroke="none" text-decoration="none" x="1045" y="316.5">+sosa:observedProperty</text></g></g><g transform="translate(-254,-110) scale(1,1)"><g><path fill="none" stroke="none"/><text fill="#000000" font-family="Arial" font-size="13px" font-style="normal" font-weight="normal" stroke="none" text-decoration="none" x="1045" y="331.5">+sosa:usedProcedure</text></g></g><g transform="translate(-254,-110) scale(1,1)"><g><path fill="none" stroke="none"/><text fill="#000000" font-family="Arial" font-size="13px" font-style="normal" font-weight="normal" stroke="none" text-decoration="none" x="1045" y="346.5">+sosa:hasResult</text></g></g><g transform="translate(-254,-110) scale(1,1)"><g><path fill="none" stroke="none"/><text fill="#000000" font-family="Arial" font-size="13px" font-style="normal" font-weight="normal" stroke="none" text-decoration="none" x="1045" y="361.5">+sosa:phenomenonTime</text></g></g><g transform="translate(-254,-110) scale(1,1)"><g><path fill="none" stroke="none"/><text fill="#000000" font-family="Arial" font-size="13px" font-style="normal" font-weight="normal" stroke="none" text-decoration="none" x="1045" y="376.5">+sosa:resultTime</text></g></g><g transform="translate(-254,-110) scale(1,1)"><g><path fill="none" stroke="none"/><text fill="#000000" font-family="Arial" font-size="13px" font-style="normal" font-weight="normal" stroke="none" text-decoration="none" x="1045" y="391.5">+tern:hasAttribute</text></g></g><g transform="translate(-254,-110) scale(1,1)"><path d="M 677 186 L 1039 274" fill="none" stroke="#000000" stroke-miterlimit="10"/></g><g transform="translate(-254,-110) scale(1,1)"><g><path fill="none" stroke="none"/><text fill="#000000" font-family="Arial" font-size="13px" font-style="normal" font-weight="normal" stroke="none" text-decoration="none" x="704.364990234375" y="189.5">+tern:isSubActivityOf</text></g></g><g transform="translate(-254,-110) scale(1,1)"><g><path fill="none" stroke="none"/><text fill="#000000" font-family="Arial" font-size="13px" font-style="normal" font-weight="normal" stroke="none" text-decoration="none" x="682.5" y="187.5">1</text></g></g><g transform="translate(-254,-110) scale(1,1)"><g><path fill="none" stroke="none"/><text fill="#000000" font-family="Arial" font-size="13px" font-style="normal" font-weight="normal" stroke="none" text-decoration="none" x="957.864990234375" y="259.5">+tern:hasSubActivity</text></g></g><g transform="translate(-254,-110) scale(1,1)"><g><path fill="none" stroke="none"/><text fill="#000000" font-family="Arial" font-size="13px" font-style="normal" font-weight="normal" stroke="none" text-decoration="none" x="1005.5" y="287.5">0..*</text></g></g><g transform="translate(-254,-110) scale(1,1)"><path d="M 1056 407 L 956 567" fill="none" stroke="#000000" stroke-miterlimit="10"/></g><g transform="translate(-254,-110) scale(1,1)"><path d="M 957.8165429843569 556.1510290079665 L 956 567 L 964.9558708199186 560.6131089051926" fill="none" stroke="#000000" stroke-miterlimit="10"/></g><g transform="translate(-254,-110) scale(1,1)"><g><path fill="none" stroke="none"/><text fill="#000000" font-family="Arial" font-size="13px" font-style="normal" font-weight="normal" stroke="none" text-decoration="none" x="937.5" y="500.5">+sosa:hasFeatureOfInterest</text></g></g><g transform="translate(-254,-110) scale(1,1)"><path d="M 1056 407 L 956 567" fill="none" stroke="#000000" stroke-miterlimit="10"/></g><g transform="translate(-254,-110) scale(1,1)"><path d="M 957.8165429843569 556.1510290079665 L 956 567 L 964.9558708199186 560.6131089051926" fill="none" stroke="#000000" stroke-miterlimit="10"/></g><g transform="translate(-254,-110) scale(1,1)"><path d="M 1056 407 L 956 567" fill="none" stroke="#000000" stroke-miterlimit="10"/></g><g transform="translate(-254,-110) scale(1,1)"><path d="M 957.8165429843569 556.1510290079665 L 956 567 L 964.9558708199186 560.6131089051926" fill="none" stroke="#000000" stroke-miterlimit="10"/></g><g transform="translate(-254,-110) scale(1,1)"><g><path fill="none" stroke="none"/><text fill="#000000" font-family="Arial" font-size="13px" font-style="normal" font-weight="normal" stroke="none" text-decoration="none" x="937.5" y="500.5">+sosa:hasFeatureOfInterest</text></g></g><g transform="translate(-254,-110) scale(1,1)"><g><path fill="none" stroke="none"/><text fill="#000000" font-family="Arial" font-size="13px" font-style="normal" font-weight="normal" stroke="none" text-decoration="none" x="975.5" y="558.5">1</text></g></g><g transform="translate(-254,-110) scale(1,1)"><rect fill="#C0C0C0" height="44" opacity="0.2" stroke="none" width="96.39453125" x="695" y="311"/></g><g transform="translate(-254,-110) scale(1,1)"><rect fill="#ffffff" height="44" stroke="none" width="96.39453125" x="688" y="304"/></g><g transform="translate(-254,-110) scale(1,1)"><path d="M 688 304 L 784.39453125 304 L 784.39453125 348 L 688 348 L 688 304 Z Z" fill="none" stroke="#000000" stroke-miterlimit="10"/></g><g transform="translate(-254,-110) scale(1,1)"><path d="M 688 329 L 784.39453125 329" fill="none" stroke="#000000" stroke-miterlimit="10"/></g><g transform="translate(-254,-110) scale(1,1)"><path d="M 688 339 L 784.39453125 339" fill="none" stroke="#000000" stroke-miterlimit="10"/></g><g transform="translate(-254,-110) scale(1,1)"><g><path fill="none" stroke="none"/><text fill="#000000" font-family="Arial" font-size="13px" font-style="normal" font-weight="bold" stroke="none" text-decoration="none" x="696.0927734375" y="323.5">tern:Sampling</text></g></g><g transform="translate(-254,-110) scale(1,1)"><path d="M 899 567 L 752 349" fill="none" stroke="#000000" stroke-miterlimit="10"/></g><g transform="translate(-254,-110) scale(1,1)"><g><path fill="none" stroke="none"/><text fill="#000000" font-family="Arial" font-size="13px" font-style="normal" font-weight="normal" stroke="none" text-decoration="none" x="782.5" y="540.5">+sosa:hasResult</text></g></g><g transform="translate(-254,-110) scale(1,1)"><g><path fill="none" stroke="none"/><text fill="#000000" font-family="Arial" font-size="13px" font-style="normal" font-weight="normal" stroke="none" text-decoration="none" x="887.5" y="548.5">1..*</text></g></g><g transform="translate(-254,-110) scale(1,1)"><g><path fill="none" stroke="none"/><text fill="#000000" font-family="Arial" font-size="13px" font-style="normal" font-weight="normal" stroke="none" text-decoration="none" x="704.5" y="384.5">+sosa:isResultOf</text></g></g><g transform="translate(-254,-110) scale(1,1)"><g><path fill="none" stroke="none"/><text fill="#000000" font-family="Arial" font-size="13px" font-style="normal" font-weight="normal" stroke="none" text-decoration="none" x="770.5" y="365.5">1</text></g></g><g transform="translate(-254,-110) scale(1,1)"><path d="M 718 303 L 657 223" fill="none" stroke="#000000" stroke-miterlimit="10"/></g><g transform="translate(-254,-110) scale(1,1)"><g><path fill="none" stroke="none"/><text fill="#000000" font-family="Arial" font-size="13px" font-style="normal" font-weight="normal" stroke="none" text-decoration="none" x="630.864990234375" y="297.5">+tern:hasSubActivity</text></g></g><g transform="translate(-254,-110) scale(1,1)"><g><path fill="none" stroke="none"/><text fill="#000000" font-family="Arial" font-size="13px" font-style="normal" font-weight="normal" stroke="none" text-decoration="none" x="716.5" y="283.5">0..*</text></g></g><g transform="translate(-254,-110) scale(1,1)"><g><path fill="none" stroke="none"/><text fill="#000000" font-family="Arial" font-size="13px" font-style="normal" font-weight="normal" stroke="none" text-decoration="none" x="649.364990234375" y="255.5">+tern:isSubActivityOf</text></g></g><g transform="translate(-254,-110) scale(1,1)"><g><path fill="none" stroke="none"/><text fill="#000000" font-family="Arial" font-size="13px" font-style="normal" font-weight="normal" stroke="none" text-decoration="none" x="676.5" y="238.5">1</text></g></g><g transform="translate(-254,-110) scale(1,1)"><path d="M 871 600 L 381 509" fill="none" stroke="#000000" stroke-miterlimit="10"/></g><g transform="translate(-254,-110) scale(1,1)"><g><path fill="none" stroke="none"/><text fill="#000000" font-family="Arial" font-size="13px" font-style="normal" font-weight="normal" stroke="none" text-decoration="none" x="790.5" y="616.5">+sosa:hasSample</text></g></g><g transform="translate(-254,-110) scale(1,1)"><g><path fill="none" stroke="none"/><text fill="#000000" font-family="Arial" font-size="13px" font-style="normal" font-weight="normal" stroke="none" text-decoration="none" x="841.5" y="589.5">0..*</text></g></g><g transform="translate(-254,-110) scale(1,1)"><g><path fill="none" stroke="none"/><text fill="#000000" font-family="Arial" font-size="13px" font-style="normal" font-weight="normal" stroke="none" text-decoration="none" x="350.5" y="534.5">+sosa:isSampleOf</text></g></g><g transform="translate(-254,-110) scale(1,1)"><g><path fill="none" stroke="none"/><text fill="#000000" font-family="Arial" font-size="13px" font-style="normal" font-weight="normal" stroke="none" text-decoration="none" x="400.5" y="506.5">1</text></g></g></g></svg>