<?xml version="1.0" encoding="UTF-8" standalone="no"?><svg xmlns="http://www.w3.org/2000/svg" xmlns:xlink="http://www.w3.org/1999/xlink" height="237" version="1.1" width="986.63427734375"><defs/><g><g transform="translate(-278,-270) scale(1,1)"><rect fill="#C0C0C0" height="57" opacity="0.2" stroke="none" width="166.16162109375" x="647" y="447"/></g><g transform="translate(-278,-270) scale(1,1)"><rect fill="#ffffff" height="57" stroke="none" width="166.16162109375" x="640" y="440"/></g><g transform="translate(-278,-270) scale(1,1)"><path d="M 640 440 L 806.16162109375 440 L 806.16162109375 497 L 640 497 L 640 440 Z Z" fill="none" stroke="#000000" stroke-miterlimit="10"/></g><g transform="translate(-278,-270) scale(1,1)"><path d="M 640 465 L 806.16162109375 465" fill="none" stroke="#000000" stroke-miterlimit="10"/></g><g transform="translate(-278,-270) scale(1,1)"><path d="M 640 488 L 806.16162109375 488" fill="none" stroke="#000000" stroke-miterlimit="10"/></g><g transform="translate(-278,-270) scale(1,1)"><g><path fill="none" stroke="none"/><text fill="#000000" font-family="Arial" font-size="13px" font-style="normal" font-weight="bold" stroke="none" text-decoration="none" x="672.140869140625" y="459.5">FeatureOfInterest</text></g></g><g transform="translate(-278,-270) scale(1,1)"><g><path fill="none" stroke="none"/><text fill="#000000" font-family="Arial" font-size="13px" font-style="normal" font-weight="normal" stroke="none" text-decoration="none" x="645" y="482.5">+featureType: FeatureTerm</text></g></g><g transform="translate(-278,-270) scale(1,1)"><path d="M 723 440 L 723 392 L 576 392 L 576 472 L 640 472" fill="none" stroke="#000000" stroke-miterlimit="10"/></g><g transform="translate(-278,-270) scale(1,1)"><path d="M 629.8373251423759 476.209517756016 L 640 472 L 629.8373251423758 467.790482243984" fill="none" stroke="#000000" stroke-miterlimit="10"/></g><g transform="translate(-278,-270) scale(1,1)"><g><path fill="none" stroke="none"/><text fill="#000000" font-family="Arial" font-size="13px" font-style="normal" font-weight="normal" stroke="none" text-decoration="none" x="598.5" y="387.5">+relatedFeature</text></g></g><g transform="translate(-278,-270) scale(1,1)"><rect fill="#C0C0C0" height="57" opacity="0.2" stroke="none" width="235.53515625" x="295" y="287"/></g><g transform="translate(-278,-270) scale(1,1)"><rect fill="#ffffff" height="57" stroke="none" width="235.53515625" x="288" y="280"/></g><g transform="translate(-278,-270) scale(1,1)"><path d="M 288 280 L 523.53515625 280 L 523.53515625 337 L 288 337 L 288 280 Z Z" fill="none" stroke="#000000" stroke-miterlimit="10"/></g><g transform="translate(-278,-270) scale(1,1)"><path d="M 288 305 L 523.53515625 305" fill="none" stroke="#000000" stroke-miterlimit="10"/></g><g transform="translate(-278,-270) scale(1,1)"><path d="M 288 328 L 523.53515625 328" fill="none" stroke="#000000" stroke-miterlimit="10"/></g><g transform="translate(-278,-270) scale(1,1)"><g><path fill="none" stroke="none"/><text fill="#000000" font-family="Arial" font-size="13px" font-style="normal" font-weight="bold" stroke="none" text-decoration="none" x="359.5185546875" y="299.5">FeatureRelation</text></g></g><g transform="translate(-278,-270) scale(1,1)"><g><path fill="none" stroke="none"/><text fill="#000000" font-family="Arial" font-size="13px" font-style="normal" font-weight="normal" stroke="none" text-decoration="none" x="293" y="322.5">+relationship: FeatureRelationshipTerm</text></g></g><g transform="translate(-278,-270) scale(1,1)"><path d="M 446 338 L 576 432" fill="none" stroke="#000000" stroke-dasharray="3" stroke-miterlimit="10"/></g><g transform="translate(-278,-270) scale(1,1)"><rect fill="#C0C0C0" height="115" opacity="0.2" stroke="none" width="206.63427734375" x="1055" y="287"/></g><g transform="translate(-278,-270) scale(1,1)"><rect fill="#ffffff" height="115" stroke="none" width="206.63427734375" x="1048" y="280"/></g><g transform="translate(-278,-270) scale(1,1)"><path d="M 1048 280 L 1254.63427734375 280 L 1254.63427734375 395 L 1048 395 L 1048 280 Z Z" fill="none" stroke="#000000" stroke-miterlimit="10"/></g><g transform="translate(-278,-270) scale(1,1)"><path d="M 1048 318 L 1254.63427734375 318" fill="none" stroke="#000000" stroke-miterlimit="10"/></g><g transform="translate(-278,-270) scale(1,1)"><path d="M 1048 386 L 1254.63427734375 386" fill="none" stroke="#000000" stroke-miterlimit="10"/></g><g transform="translate(-278,-270) scale(1,1)"><g><path fill="none" stroke="none"/><text fill="#000000" font-family="Arial" font-size="13px" font-style="normal" font-weight="normal" stroke="none" text-decoration="none" x="1093.147216796875" y="297.5">«FeatureOfInterest»</text></g></g><g transform="translate(-278,-270) scale(1,1)"><g><path fill="none" stroke="none"/><text fill="#000000" font-family="Arial" font-size="13px" font-style="normal" font-weight="bold" stroke="none" text-decoration="none" x="1115.186279296875" y="312.5">SpatialEntity</text></g></g><g transform="translate(-278,-270) scale(1,1)"><g><path fill="none" stroke="none"/><text fill="#000000" font-family="Arial" font-size="13px" font-style="normal" font-weight="normal" stroke="none" text-decoration="none" x="1053" y="335.5">+geometry</text></g></g><g transform="translate(-278,-270) scale(1,1)"><g><path fill="none" stroke="none"/><text fill="#000000" font-family="Arial" font-size="13px" font-style="normal" font-weight="normal" stroke="none" text-decoration="none" x="1053" y="350.5">+observationMethod: MethodTerm</text></g></g><g transform="translate(-278,-270) scale(1,1)"><g><path fill="none" stroke="none"/><text fill="#000000" font-family="Arial" font-size="13px" font-style="normal" font-weight="normal" stroke="none" text-decoration="none" x="1053" y="365.5">+positionalAccuracy</text></g></g><g transform="translate(-278,-270) scale(1,1)"><g><path fill="none" stroke="none"/><text fill="#000000" font-family="Arial" font-size="13px" font-style="normal" font-weight="normal" stroke="none" text-decoration="none" x="1053" y="380.5">+resolutionScale</text></g></g><g transform="translate(-278,-270) scale(1,1)"><path d="M 807 442 L 1047 369" fill="none" stroke="#000000" stroke-miterlimit="10"/></g><g transform="translate(-278,-270) scale(1,1)"><g><path fill="none" stroke="none"/><text fill="#000000" font-family="Arial" font-size="13px" font-style="normal" font-weight="normal" stroke="none" text-decoration="none" x="770.5" y="426.5">+featureDescription</text></g></g><g transform="translate(-278,-270) scale(1,1)"><g><path fill="none" stroke="none"/><text fill="#000000" font-family="Arial" font-size="13px" font-style="normal" font-weight="normal" stroke="none" text-decoration="none" x="821.5" y="453.5">0..*</text></g></g><g transform="translate(-278,-270) scale(1,1)"><g><path fill="none" stroke="none"/><text fill="#000000" font-family="Arial" font-size="13px" font-style="normal" font-weight="normal" stroke="none" text-decoration="none" x="981.5" y="368.5">+occurrence</text></g></g><g transform="translate(-278,-270) scale(1,1)"><g><path fill="none" stroke="none"/><text fill="#000000" font-family="Arial" font-size="13px" font-style="normal" font-weight="normal" stroke="none" text-decoration="none" x="1019.5" y="393.5">0..*</text></g></g></g></svg>