<?xml version="1.0" encoding="UTF-8" standalone="no"?><svg xmlns="http://www.w3.org/2000/svg" xmlns:xlink="http://www.w3.org/1999/xlink" height="330" version="1.1" width="224.25439453125"><defs/><g><g transform="translate(-930,-590) scale(1,1)"><rect fill="#C0C0C0" height="102" opacity="0.2" stroke="none" width="166.16162109375" x="947" y="607"/></g><g transform="translate(-930,-590) scale(1,1)"><rect fill="#ffffff" height="102" stroke="none" width="166.16162109375" x="940" y="600"/></g><g transform="translate(-930,-590) scale(1,1)"><path d="M 940 600 L 1106.16162109375 600 L 1106.16162109375 702 L 940 702 L 940 600 Z Z" fill="none" stroke="#000000" stroke-miterlimit="10"/></g><g transform="translate(-930,-590) scale(1,1)"><path d="M 940 625 L 1106.16162109375 625" fill="none" stroke="#000000" stroke-miterlimit="10"/></g><g transform="translate(-930,-590) scale(1,1)"><path d="M 940 678 L 1106.16162109375 678" fill="none" stroke="#000000" stroke-miterlimit="10"/></g><g transform="translate(-930,-590) scale(1,1)"><g><path fill="none" stroke="none"/><text fill="#000000" font-family="Arial" font-size="13px" font-style="normal" font-weight="bold" stroke="none" text-decoration="none" x="972.140869140625" y="619.5">FeatureOfInterest</text></g></g><g transform="translate(-930,-590) scale(1,1)"><g><path fill="none" stroke="none"/><text fill="#000000" font-family="Arial" font-size="13px" font-style="normal" font-weight="normal" stroke="none" text-decoration="none" x="945" y="642.5">+featureType: FeatureTerm</text></g></g><g transform="translate(-930,-590) scale(1,1)"><g><path fill="none" stroke="none"/><text fill="#000000" font-family="Arial" font-size="13px" font-style="normal" font-weight="normal" stroke="none" text-decoration="none" x="945" y="657.5">+domain: DomainTerm</text></g></g><g transform="translate(-930,-590) scale(1,1)"><g><path fill="none" stroke="none"/><text fill="#000000" font-family="Arial" font-size="13px" font-style="normal" font-weight="normal" stroke="none" text-decoration="none" x="945" y="672.5">+isPartOf: Dataset</text></g></g><g transform="translate(-930,-590) scale(1,1)"><rect fill="#C0C0C0" height="44" opacity="0.2" stroke="none" width="96" x="975" y="711"/></g><g transform="translate(-930,-590) scale(1,1)"><rect fill="#ffffff" height="44" stroke="none" width="96" x="968" y="704"/></g><g transform="translate(-930,-590) scale(1,1)"><path d="M 968 704 L 1064 704 L 1064 748 L 968 748 L 968 704 Z Z" fill="none" stroke="#000000" stroke-miterlimit="10"/></g><g transform="translate(-930,-590) scale(1,1)"><path d="M 968 729 L 1064 729" fill="none" stroke="#000000" stroke-miterlimit="10"/></g><g transform="translate(-930,-590) scale(1,1)"><path d="M 968 739 L 1064 739" fill="none" stroke="#000000" stroke-miterlimit="10"/></g><g transform="translate(-930,-590) scale(1,1)"><g><path fill="none" stroke="none"/><text fill="#000000" font-family="Arial" font-size="13px" font-style="normal" font-weight="bold" stroke="none" text-decoration="none" x="993.9609375" y="723.5">Sample</text></g></g><g transform="translate(-930,-590) scale(1,1)"><path d="M 1018 703 L 1018 703" fill="none" stroke="#000000" stroke-miterlimit="10"/></g><g transform="translate(-930,-590) scale(1,1)"><path d="M NaN NaN L 1018 703 L NaN NaN" fill="#FFFFFF" stroke="none"/></g><g transform="translate(-930,-590) scale(1,1)"><path d="M NaN NaN L 1018 703 L NaN NaN L NaN NaN" fill="none" stroke="#000000" stroke-miterlimit="10"/></g><g transform="translate(-930,-590) scale(1,1)"><rect fill="#C0C0C0" height="102" opacity="0.2" stroke="none" width="176.25439453125" x="975" y="815"/></g><g transform="translate(-930,-590) scale(1,1)"><rect fill="#ffffff" height="102" stroke="none" width="176.25439453125" x="968" y="808"/></g><g transform="translate(-930,-590) scale(1,1)"><path d="M 968 808 L 1144.25439453125 808 L 1144.25439453125 910 L 968 910 L 968 808 Z Z" fill="none" stroke="#000000" stroke-miterlimit="10"/></g><g transform="translate(-930,-590) scale(1,1)"><path d="M 968 833 L 1144.25439453125 833" fill="none" stroke="#000000" stroke-miterlimit="10"/></g><g transform="translate(-930,-590) scale(1,1)"><path d="M 968 871 L 1144.25439453125 871" fill="none" stroke="#000000" stroke-miterlimit="10"/></g><g transform="translate(-930,-590) scale(1,1)"><g><path fill="none" stroke="none"/><text fill="#000000" font-family="Arial" font-size="13px" font-style="normal" font-weight="bold" stroke="none" text-decoration="none" x="1034.088134765625" y="827.5">Sample</text></g></g><g transform="translate(-930,-590) scale(1,1)"><g><path fill="none" stroke="none"/><text fill="#000000" font-family="Arial" font-size="13px" font-style="normal" font-weight="normal" stroke="none" text-decoration="none" x="973" y="850.5">+identifier</text></g></g><g transform="translate(-930,-590) scale(1,1)"><g><path fill="none" stroke="none"/><text fill="#000000" font-family="Arial" font-size="13px" font-style="normal" font-weight="normal" stroke="none" text-decoration="none" x="973" y="865.5">+isPartOf: Dataset</text></g></g><g transform="translate(-930,-590) scale(1,1)"><path d="M 1040 807 L 1023 749" fill="none" stroke="#000000" stroke-miterlimit="10"/></g><g transform="translate(-930,-590) scale(1,1)"><path d="M 1036.7960667508883 766.1367599681222 L 1023 749 L 1020.6377731722299 770.8728115342807" fill="#FFFFFF" stroke="none"/></g><g transform="translate(-930,-590) scale(1,1)"><path d="M 1036.7960667508883 766.1367599681222 L 1023 749 L 1020.6377731722299 770.8728115342807 L 1036.7960667508883 766.1367599681222" fill="none" stroke="#000000" stroke-miterlimit="10"/></g></g></svg>