<?xml version="1.0" encoding="UTF-8" standalone="no"?><svg xmlns="http://www.w3.org/2000/svg" xmlns:xlink="http://www.w3.org/1999/xlink" height="272" version="1.1" width="171.32080078125"><defs/><g><g transform="translate(-930,-590) scale(1,1)"><rect fill="#C0C0C0" height="102" opacity="0.2" stroke="none" width="151.32080078125" x="947" y="607"/></g><g transform="translate(-930,-590) scale(1,1)"><rect fill="#ffffff" height="102" stroke="none" width="151.32080078125" x="940" y="600"/></g><g transform="translate(-930,-590) scale(1,1)"><path d="M 940 600 L 1091.32080078125 600 L 1091.32080078125 702 L 940 702 L 940 600 Z Z" fill="none" stroke="#000000" stroke-miterlimit="10"/></g><g transform="translate(-930,-590) scale(1,1)"><path d="M 940 625 L 1091.32080078125 625" fill="none" stroke="#000000" stroke-miterlimit="10"/></g><g transform="translate(-930,-590) scale(1,1)"><path d="M 940 693 L 1091.32080078125 693" fill="none" stroke="#000000" stroke-miterlimit="10"/></g><g transform="translate(-930,-590) scale(1,1)"><g><path fill="none" stroke="none"/><text fill="#000000" font-family="Arial" font-size="13px" font-style="normal" font-weight="bold" stroke="none" text-decoration="none" x="951.714111328125" y="619.5">tern:FeatureOfInterest</text></g></g><g transform="translate(-930,-590) scale(1,1)"><g><path fill="none" stroke="none"/><text fill="#000000" font-family="Arial" font-size="13px" font-style="normal" font-weight="normal" stroke="none" text-decoration="none" x="945" y="642.5">+dcterms:type</text></g></g><g transform="translate(-930,-590) scale(1,1)"><g><path fill="none" stroke="none"/><text fill="#000000" font-family="Arial" font-size="13px" font-style="normal" font-weight="normal" stroke="none" text-decoration="none" x="945" y="657.5">+tern:featureType</text></g></g><g transform="translate(-930,-590) scale(1,1)"><g><path fill="none" stroke="none"/><text fill="#000000" font-family="Arial" font-size="13px" font-style="normal" font-weight="normal" stroke="none" text-decoration="none" x="945" y="672.5">+dcterms:isPartOf</text></g></g><g transform="translate(-930,-590) scale(1,1)"><g><path fill="none" stroke="none"/><text fill="#000000" font-family="Arial" font-size="13px" font-style="normal" font-weight="normal" stroke="none" text-decoration="none" x="945" y="687.5">+sosa:hasSample</text></g></g><g transform="translate(-930,-590) scale(1,1)"><rect fill="#C0C0C0" height="44" opacity="0.2" stroke="none" width="96" x="975" y="711"/></g><g transform="translate(-930,-590) scale(1,1)"><rect fill="#ffffff" height="44" stroke="none" width="96" x="968" y="704"/></g><g transform="translate(-930,-590) scale(1,1)"><path d="M 968 704 L 1064 704 L 1064 748 L 968 748 L 968 704 Z Z" fill="none" stroke="#000000" stroke-miterlimit="10"/></g><g transform="translate(-930,-590) scale(1,1)"><path d="M 968 729 L 1064 729" fill="none" stroke="#000000" stroke-miterlimit="10"/></g><g transform="translate(-930,-590) scale(1,1)"><path d="M 968 739 L 1064 739" fill="none" stroke="#000000" stroke-miterlimit="10"/></g><g transform="translate(-930,-590) scale(1,1)"><g><path fill="none" stroke="none"/><text fill="#000000" font-family="Arial" font-size="13px" font-style="normal" font-weight="bold" stroke="none" text-decoration="none" x="978.425048828125" y="723.5">sosa:Sample</text></g></g><g transform="translate(-930,-590) scale(1,1)"><path d="M 1016 703 L 1016 703" fill="none" stroke="#000000" stroke-miterlimit="10"/></g><g transform="translate(-930,-590) scale(1,1)"><path d="M NaN NaN L 1016 703 L NaN NaN" fill="#FFFFFF" stroke="none"/></g><g transform="translate(-930,-590) scale(1,1)"><path d="M NaN NaN L 1016 703 L NaN NaN L NaN NaN" fill="none" stroke="#000000" stroke-miterlimit="10"/></g><g transform="translate(-930,-590) scale(1,1)"><rect fill="#C0C0C0" height="87" opacity="0.2" stroke="none" width="115.57080078125" x="975" y="815"/></g><g transform="translate(-930,-590) scale(1,1)"><rect fill="#ffffff" height="87" stroke="none" width="115.57080078125" x="968" y="808"/></g><g transform="translate(-930,-590) scale(1,1)"><path d="M 968 808 L 1083.57080078125 808 L 1083.57080078125 895 L 968 895 L 968 808 Z Z" fill="none" stroke="#000000" stroke-miterlimit="10"/></g><g transform="translate(-930,-590) scale(1,1)"><path d="M 968 833 L 1083.57080078125 833" fill="none" stroke="#000000" stroke-miterlimit="10"/></g><g transform="translate(-930,-590) scale(1,1)"><path d="M 968 886 L 1083.57080078125 886" fill="none" stroke="#000000" stroke-miterlimit="10"/></g><g transform="translate(-930,-590) scale(1,1)"><g><path fill="none" stroke="none"/><text fill="#000000" font-family="Arial" font-size="13px" font-style="normal" font-weight="bold" stroke="none" text-decoration="none" x="990.739990234375" y="827.5">tern:Sample</text></g></g><g transform="translate(-930,-590) scale(1,1)"><g><path fill="none" stroke="none"/><text fill="#000000" font-family="Arial" font-size="13px" font-style="normal" font-weight="normal" stroke="none" text-decoration="none" x="973" y="850.5">+dcterms:identifier</text></g></g><g transform="translate(-930,-590) scale(1,1)"><g><path fill="none" stroke="none"/><text fill="#000000" font-family="Arial" font-size="13px" font-style="normal" font-weight="normal" stroke="none" text-decoration="none" x="973" y="865.5">+sosa:hasSample</text></g></g><g transform="translate(-930,-590) scale(1,1)"><g><path fill="none" stroke="none"/><text fill="#000000" font-family="Arial" font-size="13px" font-style="normal" font-weight="normal" stroke="none" text-decoration="none" x="973" y="880.5">+sosa:isSampleOf</text></g></g><g transform="translate(-930,-590) scale(1,1)"><path d="M 1022 807 L 1018 749" fill="none" stroke="#000000" stroke-miterlimit="10"/></g><g transform="translate(-930,-590) scale(1,1)"><path d="M 1027.7975117360963 768.6979380591232 L 1018 749 L 1010.9993414103499 769.8564325643471" fill="#FFFFFF" stroke="none"/></g><g transform="translate(-930,-590) scale(1,1)"><path d="M 1027.7975117360963 768.6979380591232 L 1018 749 L 1010.9993414103499 769.8564325643471 L 1027.7975117360963 768.6979380591232" fill="none" stroke="#000000" stroke-miterlimit="10"/></g></g></svg>