<?xml version="1.0" encoding="UTF-8" standalone="no"?><svg xmlns="http://www.w3.org/2000/svg" xmlns:xlink="http://www.w3.org/1999/xlink" height="1280" version="1.1" width="1837.2412109375"><defs/><g><g transform="translate(-14,-14) scale(1,1)"><rect fill="#C0C0C0" height="77" opacity="0.2" stroke="none" width="393.20458984375" x="159" y="271"/></g><g transform="translate(-14,-14) scale(1,1)"><rect fill="#ffff91" height="77" stroke="none" width="393.20458984375" x="152" y="264"/></g><g transform="translate(-14,-14) scale(1,1)"><path d="M 152 264 L 545.20458984375 264 L 545.20458984375 341 L 152 341 L 152 264 Z Z" fill="none" stroke="#000000" stroke-miterlimit="10"/></g><g transform="translate(-14,-14) scale(1,1)"><rect fill="#ffff91" height="77" stroke="none" width="393.20458984375" x="152" y="264"/></g><g transform="translate(-14,-14) scale(1,1)"><path d="M 152 264 L 545.20458984375 264 L 545.20458984375 341 L 152 341 L 152 264 Z Z" fill="none" stroke="#000000" stroke-miterlimit="10"/></g><g transform="translate(-14,-14) scale(1,1)"><path d="M 152 289 L 545.20458984375 289" fill="none" stroke="#000000" stroke-miterlimit="10"/></g><g transform="translate(-14,-14) scale(1,1)"><g><path fill="none" stroke="none"/><text fill="#000000" font-family="Arial" font-size="13px" font-style="normal" font-weight="bold" stroke="none" text-decoration="none" x="238.394287109375" y="283.5">Eucalyptus moderata: PlantPopulation</text><path d="M 467.785888671875 283.5 L 229.418701171875 283.5" fill="none" stroke="#000000" stroke-miterlimit="10"/></g></g><g transform="translate(-14,-14) scale(1,1)"><g><path fill="none" stroke="none"/><text fill="#000000" font-family="Arial" font-size="13px" font-style="normal" font-weight="normal" stroke="none" text-decoration="none" x="157" y="306.5">+identificationType: PlantIdentificationType = vouchered</text></g></g><g transform="translate(-14,-14) scale(1,1)"><g><path fill="none" stroke="none"/><text fill="#000000" font-family="Arial" font-size="13px" font-style="normal" font-weight="normal" stroke="none" text-decoration="none" x="157" y="321.5">+plantName: String = Eucalyptus moderata</text></g></g><g transform="translate(-14,-14) scale(1,1)"><g><path fill="none" stroke="none"/><text fill="#000000" font-family="Arial" font-size="13px" font-style="normal" font-weight="normal" stroke="none" text-decoration="none" x="157" y="336.5">+plantNameID: IRI = http://id.biodiversity.org.au/name/apni/162594</text></g></g><g transform="translate(-14,-14) scale(1,1)"><rect fill="#C0C0C0" height="47" opacity="0.2" stroke="none" width="238.3916015625" x="415" y="87"/></g><g transform="translate(-14,-14) scale(1,1)"><rect fill="#ffff91" height="47" stroke="none" width="238.3916015625" x="408" y="80"/></g><g transform="translate(-14,-14) scale(1,1)"><path d="M 408 80 L 646.3916015625 80 L 646.3916015625 127 L 408 127 L 408 80 Z Z" fill="none" stroke="#000000" stroke-miterlimit="10"/></g><g transform="translate(-14,-14) scale(1,1)"><rect fill="#ffff91" height="47" stroke="none" width="238.3916015625" x="408" y="80"/></g><g transform="translate(-14,-14) scale(1,1)"><path d="M 408 80 L 646.3916015625 80 L 646.3916015625 127 L 408 127 L 408 80 Z Z" fill="none" stroke="#000000" stroke-miterlimit="10"/></g><g transform="translate(-14,-14) scale(1,1)"><path d="M 408 105 L 646.3916015625 105" fill="none" stroke="#000000" stroke-miterlimit="10"/></g><g transform="translate(-14,-14) scale(1,1)"><g><path fill="none" stroke="none"/><text fill="#000000" font-family="Arial" font-size="13px" font-style="normal" font-weight="bold" stroke="none" text-decoration="none" x="421.08837890625" y="99.5">point NW: AngleCountSamplingPoint</text><path d="M 641.8916015625 99.5 L 412.5 99.5" fill="none" stroke="#000000" stroke-miterlimit="10"/></g></g><g transform="translate(-14,-14) scale(1,1)"><g><path fill="none" stroke="none"/><text fill="#000000" font-family="Arial" font-size="13px" font-style="normal" font-weight="normal" stroke="none" text-decoration="none" x="413" y="122.5">+pointID: String = NW</text></g></g><g transform="translate(-14,-14) scale(1,1)"><path d="M 383 263 L 505 128" fill="none" stroke="#000000" stroke-miterlimit="10"/></g><g transform="translate(-14,-14) scale(1,1)"><g><path fill="none" stroke="none"/><text fill="#000000" font-family="Arial" font-size="13px" font-style="normal" font-weight="normal" stroke="none" text-decoration="none" x="332.5" y="239.5">+featureDescription</text></g></g><g transform="translate(-14,-14) scale(1,1)"><g><path fill="none" stroke="none"/><text fill="#000000" font-family="Arial" font-size="13px" font-style="normal" font-weight="normal" stroke="none" text-decoration="none" x="440.5" y="143.5">+occurrence</text></g></g><g transform="translate(-14,-14) scale(1,1)"><rect fill="#C0C0C0" height="62" opacity="0.2" stroke="none" width="543.5615234375" x="1031" y="175"/></g><g transform="translate(-14,-14) scale(1,1)"><rect fill="#a3e0ff" height="62" stroke="none" width="543.5615234375" x="1024" y="168"/></g><g transform="translate(-14,-14) scale(1,1)"><path d="M 1024 168 L 1567.5615234375 168 L 1567.5615234375 230 L 1024 230 L 1024 168 Z Z" fill="none" stroke="#000000" stroke-miterlimit="10"/></g><g transform="translate(-14,-14) scale(1,1)"><rect fill="#a3e0ff" height="62" stroke="none" width="543.5615234375" x="1024" y="168"/></g><g transform="translate(-14,-14) scale(1,1)"><path d="M 1024 168 L 1567.5615234375 168 L 1567.5615234375 230 L 1024 230 L 1024 168 Z Z" fill="none" stroke="#000000" stroke-miterlimit="10"/></g><g transform="translate(-14,-14) scale(1,1)"><path d="M 1024 193 L 1567.5615234375 193" fill="none" stroke="#000000" stroke-miterlimit="10"/></g><g transform="translate(-14,-14) scale(1,1)"><g><path fill="none" stroke="none"/><text fill="#000000" font-family="Arial" font-size="13px" font-style="normal" font-weight="bold" stroke="none" text-decoration="none" x="1219.54541015625" y="187.5">basal area factor: Attribute</text><path d="M 1378.4970703125 187.5 L 1213.064453125 187.5" fill="none" stroke="#000000" stroke-miterlimit="10"/></g></g><g transform="translate(-14,-14) scale(1,1)"><g><path fill="none" stroke="none"/><text fill="#000000" font-family="Arial" font-size="13px" font-style="normal" font-weight="normal" stroke="none" text-decoration="none" x="1029" y="210.5">+attribute: IRI = http://linked.data.gov.au/def/tern-cv/dd34fc05-012d-4092-9324-a4cbcf29bf0a</text></g></g><g transform="translate(-14,-14) scale(1,1)"><rect fill="#C0C0C0" height="39" opacity="0.2" stroke="none" width="209.14794921875" x="1215" y="47"/></g><g transform="translate(-14,-14) scale(1,1)"><rect fill="#e2e2e2" height="39" stroke="none" width="209.14794921875" x="1208" y="40"/></g><g transform="translate(-14,-14) scale(1,1)"><path d="M 1208 40 L 1417.14794921875 40 L 1417.14794921875 79 L 1208 79 L 1208 40 Z Z" fill="none" stroke="#000000" stroke-miterlimit="10"/></g><g transform="translate(-14,-14) scale(1,1)"><rect fill="#e2e2e2" height="39" stroke="none" width="209.14794921875" x="1208" y="40"/></g><g transform="translate(-14,-14) scale(1,1)"><path d="M 1208 40 L 1417.14794921875 40 L 1417.14794921875 79 L 1208 79 L 1208 40 Z Z" fill="none" stroke="#000000" stroke-miterlimit="10"/></g><g transform="translate(-14,-14) scale(1,1)"><g><path fill="none" stroke="none"/><text fill="#000000" font-family="Arial" font-size="13px" font-style="normal" font-weight="bold" stroke="none" text-decoration="none" x="1219.7236328125" y="59.5">basal area factor value: Decimal</text><path d="M 1411.56884765625 59.5 L 1213.5791015625 59.5" fill="none" stroke="#000000" stroke-miterlimit="10"/></g></g><g transform="translate(-14,-14) scale(1,1)"><g><path fill="none" stroke="none"/><text fill="#000000" font-family="Arial" font-size="13px" font-style="normal" font-weight="normal" stroke="none" text-decoration="none" x="1303.5380859375" y="74.5">0.1</text></g></g><g transform="translate(-14,-14) scale(1,1)"><path d="M 1299 167 L 1309 80" fill="none" stroke="#000000" stroke-miterlimit="10"/></g><g transform="translate(-14,-14) scale(1,1)"><path d="M 1312.0214999990067 90.57688695959276 L 1309 80 L 1303.6575346456812 89.6155116316243" fill="none" stroke="#000000" stroke-miterlimit="10"/></g><g transform="translate(-14,-14) scale(1,1)"><g><path fill="none" stroke="none"/><text fill="#000000" font-family="Arial" font-size="13px" font-style="normal" font-weight="normal" stroke="none" text-decoration="none" x="1256.5" y="127.5">+hasResult</text></g></g><g transform="translate(-14,-14) scale(1,1)"><path d="M 1023 229 L 546 280" fill="none" stroke="#000000" stroke-miterlimit="10"/></g><g transform="translate(-14,-14) scale(1,1)"><path d="M 555.6575572619472 274.73392102867683 L 546 280 L 556.5526043805066 283.10524407873373" fill="none" stroke="#000000" stroke-miterlimit="10"/></g><g transform="translate(-14,-14) scale(1,1)"><g><path fill="none" stroke="none"/><text fill="#000000" font-family="Arial" font-size="13px" font-style="normal" font-weight="normal" stroke="none" text-decoration="none" x="719.5" y="274.5">+hasFeatureOfInterest</text></g></g><g transform="translate(-14,-14) scale(1,1)"><rect fill="#C0C0C0" height="77" opacity="0.2" stroke="none" width="319.5146484375" x="1255" y="431"/></g><g transform="translate(-14,-14) scale(1,1)"><rect fill="#d1ffa3" height="77" stroke="none" width="319.5146484375" x="1248" y="424"/></g><g transform="translate(-14,-14) scale(1,1)"><path d="M 1248 424 L 1567.5146484375 424 L 1567.5146484375 501 L 1248 501 L 1248 424 Z Z" fill="none" stroke="#000000" stroke-miterlimit="10"/></g><g transform="translate(-14,-14) scale(1,1)"><rect fill="#d1ffa3" height="77" stroke="none" width="319.5146484375" x="1248" y="424"/></g><g transform="translate(-14,-14) scale(1,1)"><path d="M 1248 424 L 1567.5146484375 424 L 1567.5146484375 501 L 1248 501 L 1248 424 Z Z" fill="none" stroke="#000000" stroke-miterlimit="10"/></g><g transform="translate(-14,-14) scale(1,1)"><path d="M 1248 449 L 1567.5146484375 449" fill="none" stroke="#000000" stroke-miterlimit="10"/></g><g transform="translate(-14,-14) scale(1,1)"><g><path fill="none" stroke="none"/><text fill="#000000" font-family="Arial" font-size="13px" font-style="normal" font-weight="bold" stroke="none" text-decoration="none" x="1280.9375" y="443.5">basal area observation: DerivedObservation</text><path d="M 1543.949462890625 443.5 L 1271.565185546875 443.5" fill="none" stroke="#000000" stroke-miterlimit="10"/></g></g><g transform="translate(-14,-14) scale(1,1)"><g><path fill="none" stroke="none"/><text fill="#000000" font-family="Arial" font-size="13px" font-style="normal" font-weight="normal" stroke="none" text-decoration="none" x="1253" y="466.5">+phenomenonTime: DateTime = 2013-07-23 12:00:00</text></g></g><g transform="translate(-14,-14) scale(1,1)"><g><path fill="none" stroke="none"/><text fill="#000000" font-family="Arial" font-size="13px" font-style="normal" font-weight="normal" stroke="none" text-decoration="none" x="1253" y="481.5">+resultTime: DateTime = 2013-07-24 09:24:00</text></g></g><g transform="translate(-14,-14) scale(1,1)"><g><path fill="none" stroke="none"/><text fill="#000000" font-family="Arial" font-size="13px" font-style="normal" font-weight="normal" stroke="none" text-decoration="none" x="1253" y="496.5">+validTime: DateTime = 2013-07-24 09:24:00</text></g></g><g transform="translate(-14,-14) scale(1,1)"><path d="M 1309 231 L 1390 423" fill="none" stroke="#000000" stroke-miterlimit="10"/></g><g transform="translate(-14,-14) scale(1,1)"><g><path fill="none" stroke="none"/><text fill="#000000" font-family="Arial" font-size="13px" font-style="normal" font-weight="normal" stroke="none" text-decoration="none" x="1293.5" y="255.5">+hasAttribute</text></g></g><g transform="translate(-14,-14) scale(1,1)"><g><path fill="none" stroke="none"/><text fill="#000000" font-family="Arial" font-size="13px" font-style="normal" font-weight="normal" stroke="none" text-decoration="none" x="1346.5" y="399.5">+onObservation</text></g></g><g transform="translate(-14,-14) scale(1,1)"><rect fill="#C0C0C0" height="39" opacity="0.2" stroke="none" width="167.259765625" x="1607" y="295"/></g><g transform="translate(-14,-14) scale(1,1)"><rect fill="#e2e2e2" height="39" stroke="none" width="167.259765625" x="1600" y="288"/></g><g transform="translate(-14,-14) scale(1,1)"><path d="M 1600 288 L 1767.259765625 288 L 1767.259765625 327 L 1600 327 L 1600 288 Z Z" fill="none" stroke="#000000" stroke-miterlimit="10"/></g><g transform="translate(-14,-14) scale(1,1)"><rect fill="#e2e2e2" height="39" stroke="none" width="167.259765625" x="1600" y="288"/></g><g transform="translate(-14,-14) scale(1,1)"><path d="M 1600 288 L 1767.259765625 288 L 1767.259765625 327 L 1600 327 L 1600 288 Z Z" fill="none" stroke="#000000" stroke-miterlimit="10"/></g><g transform="translate(-14,-14) scale(1,1)"><g><path fill="none" stroke="none"/><text fill="#000000" font-family="Arial" font-size="13px" font-style="normal" font-weight="bold" stroke="none" text-decoration="none" x="1608.841796875" y="307.5">basal area value: Decimal</text><path d="M 1762.759765625 307.5 L 1604.5 307.5" fill="none" stroke="#000000" stroke-miterlimit="10"/></g></g><g transform="translate(-14,-14) scale(1,1)"><g><path fill="none" stroke="none"/><text fill="#000000" font-family="Arial" font-size="13px" font-style="normal" font-weight="normal" stroke="none" text-decoration="none" x="1674.593994140625" y="322.5">0.1</text></g></g><g transform="translate(-14,-14) scale(1,1)"><path d="M 1476 423 L 1646 328" fill="none" stroke="#000000" stroke-miterlimit="10"/></g><g transform="translate(-14,-14) scale(1,1)"><path d="M 1639.1820518888112 336.63224093460883 L 1646 328 L 1635.0750665551022 329.28289875849833" fill="none" stroke="#000000" stroke-miterlimit="10"/></g><g transform="translate(-14,-14) scale(1,1)"><g><path fill="none" stroke="none"/><text fill="#000000" font-family="Arial" font-size="13px" font-style="normal" font-weight="normal" stroke="none" text-decoration="none" x="1520.5" y="367.5">+hasResult</text></g></g><g transform="translate(-14,-14) scale(1,1)"><rect fill="#C0C0C0" height="24" opacity="0.2" stroke="none" width="189.59716796875" x="951" y="991"/></g><g transform="translate(-14,-14) scale(1,1)"><rect fill="#ffffff" height="24" stroke="none" width="189.59716796875" x="944" y="984"/></g><g transform="translate(-14,-14) scale(1,1)"><path d="M 944 984 L 1133.59716796875 984 L 1133.59716796875 1008 L 944 1008 L 944 984 Z Z" fill="none" stroke="#000000" stroke-miterlimit="10"/></g><g transform="translate(-14,-14) scale(1,1)"><rect fill="#ffffff" height="24" stroke="none" width="189.59716796875" x="944" y="984"/></g><g transform="translate(-14,-14) scale(1,1)"><path d="M 944 984 L 1133.59716796875 984 L 1133.59716796875 1008 L 944 1008 L 944 984 Z Z" fill="none" stroke="#000000" stroke-miterlimit="10"/></g><g transform="translate(-14,-14) scale(1,1)"><g><path fill="none" stroke="none"/><text fill="#000000" font-family="Arial" font-size="13px" font-style="normal" font-weight="bold" stroke="none" text-decoration="none" x="952.698974609375" y="1003.5">AusPlots WAACOO0006: Site</text><path d="M 1129.09716796875 1003.5 L 948.5 1003.5" fill="none" stroke="#000000" stroke-miterlimit="10"/></g></g><g transform="translate(-14,-14) scale(1,1)"><rect fill="#C0C0C0" height="24" opacity="0.2" stroke="none" width="104.1513671875" x="927" y="807"/></g><g transform="translate(-14,-14) scale(1,1)"><rect fill="#ffffff" height="24" stroke="none" width="104.1513671875" x="920" y="800"/></g><g transform="translate(-14,-14) scale(1,1)"><path d="M 920 800 L 1024.1513671875 800 L 1024.1513671875 824 L 920 824 L 920 800 Z Z" fill="none" stroke="#000000" stroke-miterlimit="10"/></g><g transform="translate(-14,-14) scale(1,1)"><rect fill="#ffffff" height="24" stroke="none" width="104.1513671875" x="920" y="800"/></g><g transform="translate(-14,-14) scale(1,1)"><path d="M 920 800 L 1024.1513671875 800 L 1024.1513671875 824 L 920 824 L 920 800 Z Z" fill="none" stroke="#000000" stroke-miterlimit="10"/></g><g transform="translate(-14,-14) scale(1,1)"><g><path fill="none" stroke="none"/><text fill="#000000" font-family="Arial" font-size="13px" font-style="normal" font-weight="bold" stroke="none" text-decoration="none" x="927.0263671875" y="819.5">53438: SiteVisit</text><path d="M 1019.6513671875 819.5 L 924.5 819.5" fill="none" stroke="#000000" stroke-miterlimit="10"/></g></g><g transform="translate(-14,-14) scale(1,1)"><rect fill="#C0C0C0" height="92" opacity="0.2" stroke="none" width="550.7978515625" x="71" y="895"/></g><g transform="translate(-14,-14) scale(1,1)"><rect fill="#d1ffa3" height="92" stroke="none" width="550.7978515625" x="64" y="888"/></g><g transform="translate(-14,-14) scale(1,1)"><path d="M 64 888 L 614.7978515625 888 L 614.7978515625 980 L 64 980 L 64 888 Z Z" fill="none" stroke="#000000" stroke-miterlimit="10"/></g><g transform="translate(-14,-14) scale(1,1)"><rect fill="#d1ffa3" height="92" stroke="none" width="550.7978515625" x="64" y="888"/></g><g transform="translate(-14,-14) scale(1,1)"><path d="M 64 888 L 614.7978515625 888 L 614.7978515625 980 L 64 980 L 64 888 Z Z" fill="none" stroke="#000000" stroke-miterlimit="10"/></g><g transform="translate(-14,-14) scale(1,1)"><path d="M 64 928 L 614.7978515625 928" fill="none" stroke="#000000" stroke-miterlimit="10"/></g><g transform="translate(-14,-14) scale(1,1)"><g><path fill="none" stroke="none"/><text fill="#000000" font-family="Arial" font-size="13px" font-style="normal" font-weight="bold" stroke="none" text-decoration="none" x="191.98095703125" y="907.5">angle count sampling hits observation: Observation</text><path d="M 500.118408203125 907.5 L 178.679443359375 907.5" fill="none" stroke="#000000" stroke-miterlimit="10"/></g></g><g transform="translate(-14,-14) scale(1,1)"><g><path fill="none" stroke="none"/><text fill="#000000" font-family="Arial" font-size="13px" font-style="normal" font-weight="normal" stroke="none" text-decoration="none" x="279.042236328125" y="922.5">2013-07-24 09:24:00</text></g></g><g transform="translate(-14,-14) scale(1,1)"><g><path fill="none" stroke="none"/><text fill="#000000" font-family="Arial" font-size="13px" font-style="normal" font-weight="normal" stroke="none" text-decoration="none" x="69" y="945.5">+phenomenonTime: DateTime = 2013-07-23 12:00:00</text></g></g><g transform="translate(-14,-14) scale(1,1)"><g><path fill="none" stroke="none"/><text fill="#000000" font-family="Arial" font-size="13px" font-style="normal" font-weight="normal" stroke="none" text-decoration="none" x="69" y="960.5">+resultTime: DateTime = 2013-07-24 09:24:00</text></g></g><g transform="translate(-14,-14) scale(1,1)"><g><path fill="none" stroke="none"/><text fill="#000000" font-family="Arial" font-size="13px" font-style="normal" font-weight="normal" stroke="none" text-decoration="none" x="69" y="975.5">+validTime: DateTime = 2013-07-24 09:24:00</text></g></g><g transform="translate(-14,-14) scale(1,1)"><path d="M 291 887 L 136 736 L 136 448 L 290 342" fill="none" stroke="#000000" stroke-miterlimit="10"/></g><g transform="translate(-14,-14) scale(1,1)"><path d="M 284.01542724577666 351.2295660217265 L 290 342 L 279.2419793016127 344.29455674435616" fill="none" stroke="#000000" stroke-miterlimit="10"/></g><g transform="translate(-14,-14) scale(1,1)"><g><path fill="none" stroke="none"/><text fill="#000000" font-family="Arial" font-size="13px" font-style="normal" font-weight="normal" stroke="none" text-decoration="none" x="55.5" y="597.5">+hasFeatureOfInterest</text></g></g><g transform="translate(-14,-14) scale(1,1)"><path d="M 1316 502 L 445 887" fill="none" stroke="#000000" stroke-miterlimit="10"/></g><g transform="translate(-14,-14) scale(1,1)"><g><path fill="none" stroke="none"/><text fill="#000000" font-family="Arial" font-size="13px" font-style="normal" font-weight="normal" stroke="none" text-decoration="none" x="1159.5" y="528.5">+hasDerivedObservation</text></g></g><g transform="translate(-14,-14) scale(1,1)"><g><path fill="none" stroke="none"/><text fill="#000000" font-family="Arial" font-size="13px" font-style="normal" font-weight="normal" stroke="none" text-decoration="none" x="427.5" y="868.5">+wasDerivedFrom</text></g></g><g transform="translate(-14,-14) scale(1,1)"><rect fill="#C0C0C0" height="39" opacity="0.2" stroke="none" width="257.4853515625" x="607" y="1079"/></g><g transform="translate(-14,-14) scale(1,1)"><rect fill="#e2e2e2" height="39" stroke="none" width="257.4853515625" x="600" y="1072"/></g><g transform="translate(-14,-14) scale(1,1)"><path d="M 600 1072 L 857.4853515625 1072 L 857.4853515625 1111 L 600 1111 L 600 1072 Z Z" fill="none" stroke="#000000" stroke-miterlimit="10"/></g><g transform="translate(-14,-14) scale(1,1)"><rect fill="#e2e2e2" height="39" stroke="none" width="257.4853515625" x="600" y="1072"/></g><g transform="translate(-14,-14) scale(1,1)"><path d="M 600 1072 L 857.4853515625 1072 L 857.4853515625 1111 L 600 1111 L 600 1072 Z Z" fill="none" stroke="#000000" stroke-miterlimit="10"/></g><g transform="translate(-14,-14) scale(1,1)"><g><path fill="none" stroke="none"/><text fill="#000000" font-family="Arial" font-size="13px" font-style="normal" font-weight="bold" stroke="none" text-decoration="none" x="614.19921875" y="1091.5">angle count sampling hits value: Integer</text><path d="M 852.9853515625 1091.5 L 604.5 1091.5" fill="none" stroke="#000000" stroke-miterlimit="10"/></g></g><g transform="translate(-14,-14) scale(1,1)"><g><path fill="none" stroke="none"/><text fill="#000000" font-family="Arial" font-size="13px" font-style="normal" font-weight="normal" stroke="none" text-decoration="none" x="725.127685546875" y="1106.5">1</text></g></g><g transform="translate(-14,-14) scale(1,1)"><path d="M 455 981 L 678 1071" fill="none" stroke="#000000" stroke-miterlimit="10"/></g><g transform="translate(-14,-14) scale(1,1)"><path d="M 667.0004558434589 1071.1001416412034 L 678 1071 L 670.1513369033747 1063.292958570523" fill="none" stroke="#000000" stroke-miterlimit="10"/></g><g transform="translate(-14,-14) scale(1,1)"><g><path fill="none" stroke="none"/><text fill="#000000" font-family="Arial" font-size="13px" font-style="normal" font-weight="normal" stroke="none" text-decoration="none" x="538.5" y="1018.5">+hasResult</text></g></g><g transform="translate(-14,-14) scale(1,1)"><path d="M 1033 983 L 977 825" fill="none" stroke="#000000" stroke-miterlimit="10"/></g><g transform="translate(-14,-14) scale(1,1)"><path d="M 984.3627010463177 833.1725536585911 L 977 825 L 976.4273477260998 835.9850839493013" fill="none" stroke="#000000" stroke-miterlimit="10"/></g><g transform="translate(-14,-14) scale(1,1)"><g><path fill="none" stroke="none"/><text fill="#000000" font-family="Arial" font-size="13px" font-style="normal" font-weight="normal" stroke="none" text-decoration="none" x="963.5" y="915.5">+siteVisit</text></g></g><g transform="translate(-14,-14) scale(1,1)"><path d="M 988 799 L 1357 502" fill="none" stroke="#000000" stroke-miterlimit="10"/></g><g transform="translate(-14,-14) scale(1,1)"><path d="M 1351.7225647568105 511.6513562390962 L 1357 502 L 1346.4437503079557 505.09282919657977" fill="none" stroke="#000000" stroke-miterlimit="10"/></g><g transform="translate(-14,-14) scale(1,1)"><g><path fill="none" stroke="none"/><text fill="#000000" font-family="Arial" font-size="13px" font-style="normal" font-weight="normal" stroke="none" text-decoration="none" x="1115.5" y="644.5">+hasSubActivity</text></g></g><g transform="translate(-14,-14) scale(1,1)"><path d="M 1247 438 L 546 332" fill="none" stroke="#000000" stroke-miterlimit="10"/></g><g transform="translate(-14,-14) scale(1,1)"><path d="M 556.677821288168 329.35724905866164 L 546 332 L 555.4190669527692 337.68165272955423" fill="none" stroke="#000000" stroke-miterlimit="10"/></g><g transform="translate(-14,-14) scale(1,1)"><g><path fill="none" stroke="none"/><text fill="#000000" font-family="Arial" font-size="13px" font-style="normal" font-weight="normal" stroke="none" text-decoration="none" x="827.5" y="405.5">+hasFeatureOfInterest</text></g></g><g transform="translate(-14,-14) scale(1,1)"><rect fill="#C0C0C0" height="24" opacity="0.2" stroke="none" width="282.787109375" x="31" y="127"/></g><g transform="translate(-14,-14) scale(1,1)"><rect fill="#ffff91" height="24" stroke="none" width="282.787109375" x="24" y="120"/></g><g transform="translate(-14,-14) scale(1,1)"><path d="M 24 120 L 306.787109375 120 L 306.787109375 144 L 24 144 L 24 120 Z Z" fill="none" stroke="#000000" stroke-miterlimit="10"/></g><g transform="translate(-14,-14) scale(1,1)"><rect fill="#ffff91" height="24" stroke="none" width="282.787109375" x="24" y="120"/></g><g transform="translate(-14,-14) scale(1,1)"><path d="M 24 120 L 306.787109375 120 L 306.787109375 144 L 24 144 L 24 120 Z Z" fill="none" stroke="#000000" stroke-miterlimit="10"/></g><g transform="translate(-14,-14) scale(1,1)"><g><path fill="none" stroke="none"/><text fill="#000000" font-family="Arial" font-size="13px" font-style="normal" font-weight="bold" stroke="none" text-decoration="none" x="35.20947265625" y="139.5">WAACOO0006 vegetation: FeatureOfInterest</text><path d="M 302.287109375 139.5 L 28.5 139.5" fill="none" stroke="#000000" stroke-miterlimit="10"/></g></g><g transform="translate(-14,-14) scale(1,1)"><path d="M 306 263 L 179 145" fill="none" stroke="#000000" stroke-miterlimit="10"/></g><g transform="translate(-14,-14) scale(1,1)"><g><path fill="none" stroke="none"/><text fill="#000000" font-family="Arial" font-size="13px" font-style="normal" font-weight="normal" stroke="none" text-decoration="none" x="184.5" y="220.5">+relatedFeature</text></g></g><g transform="translate(-14,-14) scale(1,1)"><rect fill="#C0C0C0" height="92" opacity="0.2" stroke="none" width="737.2412109375" x="1111" y="791"/></g><g transform="translate(-14,-14) scale(1,1)"><rect fill="#ebd8ff" height="92" stroke="none" width="737.2412109375" x="1104" y="784"/></g><g transform="translate(-14,-14) scale(1,1)"><path d="M 1104 784 L 1841.2412109375 784 L 1841.2412109375 876 L 1104 876 L 1104 784 Z Z" fill="none" stroke="#000000" stroke-miterlimit="10"/></g><g transform="translate(-14,-14) scale(1,1)"><rect fill="#ebd8ff" height="92" stroke="none" width="737.2412109375" x="1104" y="784"/></g><g transform="translate(-14,-14) scale(1,1)"><path d="M 1104 784 L 1841.2412109375 784 L 1841.2412109375 876 L 1104 876 L 1104 784 Z Z" fill="none" stroke="#000000" stroke-miterlimit="10"/></g><g transform="translate(-14,-14) scale(1,1)"><path d="M 1104 809 L 1841.2412109375 809" fill="none" stroke="#000000" stroke-miterlimit="10"/></g><g transform="translate(-14,-14) scale(1,1)"><g><path fill="none" stroke="none"/><text fill="#000000" font-family="Arial" font-size="13px" font-style="normal" font-weight="bold" stroke="none" text-decoration="none" x="1349.4189453125" y="803.5">basal area parameter: ObservableProperty</text><path d="M 1603.76953125 803.5 L 1341.4716796875 803.5" fill="none" stroke="#000000" stroke-miterlimit="10"/></g></g><g transform="translate(-14,-14) scale(1,1)"><g><path fill="none" stroke="none"/><text fill="#000000" font-family="Arial" font-size="13px" font-style="normal" font-weight="normal" stroke="none" text-decoration="none" x="1109" y="826.5">+vocabulary: ParameterVocabularyTerm = http://linked.data.gov.au/def/ausplots-cv/540cda9e-0131-4d9c-a034-40d1d2d3b5ec</text></g></g><g transform="translate(-14,-14) scale(1,1)"><g><path fill="none" stroke="none"/><text fill="#000000" font-family="Arial" font-size="13px" font-style="normal" font-weight="normal" stroke="none" text-decoration="none" x="1109" y="841.5">+value: ParameterTerm = http://linked.data.gov.au/def/ausplots-cv/5ff6bc93-0d26-420f-80de-a898d51962aa</text></g></g><g transform="translate(-14,-14) scale(1,1)"><g><path fill="none" stroke="none"/><text fill="#000000" font-family="Arial" font-size="13px" font-style="normal" font-weight="normal" stroke="none" text-decoration="none" x="1109" y="856.5">+globalVocabulary: ParameterVocabularyTerm = http://linked.data.gov.au/def/tern-cv/5699eca7-9ef0-47a6-bcfb-9306e0e2b85e</text></g></g><g transform="translate(-14,-14) scale(1,1)"><g><path fill="none" stroke="none"/><text fill="#000000" font-family="Arial" font-size="13px" font-style="normal" font-weight="normal" stroke="none" text-decoration="none" x="1109" y="871.5">+globalValue: ParameterTerm = http://linked.data.gov.au/def/tern-cv/0bbd7fcd-0782-4efc-96e6-1f0f7669c655</text></g></g><g transform="translate(-14,-14) scale(1,1)"><path d="M 1414 502 L 1464 783" fill="none" stroke="#000000" stroke-miterlimit="10"/></g><g transform="translate(-14,-14) scale(1,1)"><path d="M 1458.075238762997 773.7319255352307 L 1464 783 L 1466.3640794549842 772.2570428498238" fill="none" stroke="#000000" stroke-miterlimit="10"/></g><g transform="translate(-14,-14) scale(1,1)"><g><path fill="none" stroke="none"/><text fill="#000000" font-family="Arial" font-size="13px" font-style="normal" font-weight="normal" stroke="none" text-decoration="none" x="1397.5" y="645.5">+observedProperty</text></g></g><g transform="translate(-14,-14) scale(1,1)"><rect fill="#C0C0C0" height="92" opacity="0.2" stroke="none" width="737.2412109375" x="87" y="1199"/></g><g transform="translate(-14,-14) scale(1,1)"><rect fill="#ebd8ff" height="92" stroke="none" width="737.2412109375" x="80" y="1192"/></g><g transform="translate(-14,-14) scale(1,1)"><path d="M 80 1192 L 817.2412109375 1192 L 817.2412109375 1284 L 80 1284 L 80 1192 Z Z" fill="none" stroke="#000000" stroke-miterlimit="10"/></g><g transform="translate(-14,-14) scale(1,1)"><rect fill="#ebd8ff" height="92" stroke="none" width="737.2412109375" x="80" y="1192"/></g><g transform="translate(-14,-14) scale(1,1)"><path d="M 80 1192 L 817.2412109375 1192 L 817.2412109375 1284 L 80 1284 L 80 1192 Z Z" fill="none" stroke="#000000" stroke-miterlimit="10"/></g><g transform="translate(-14,-14) scale(1,1)"><path d="M 80 1217 L 817.2412109375 1217" fill="none" stroke="#000000" stroke-miterlimit="10"/></g><g transform="translate(-14,-14) scale(1,1)"><g><path fill="none" stroke="none"/><text fill="#000000" font-family="Arial" font-size="13px" font-style="normal" font-weight="bold" stroke="none" text-decoration="none" x="282.423095703125" y="1211.5">angle count sampling hits parameter: ObservableProperty</text><path d="M 628.141845703125 1211.5 L 269.099365234375 1211.5" fill="none" stroke="#000000" stroke-miterlimit="10"/></g></g><g transform="translate(-14,-14) scale(1,1)"><g><path fill="none" stroke="none"/><text fill="#000000" font-family="Arial" font-size="13px" font-style="normal" font-weight="normal" stroke="none" text-decoration="none" x="85" y="1234.5">+vocabulary: ParameterVocabularyTerm = http://linked.data.gov.au/def/ausplots-cv/540cda9e-0131-4d9c-a034-40d1d2d3b5ec</text></g></g><g transform="translate(-14,-14) scale(1,1)"><g><path fill="none" stroke="none"/><text fill="#000000" font-family="Arial" font-size="13px" font-style="normal" font-weight="normal" stroke="none" text-decoration="none" x="85" y="1249.5">+value: ParameterTerm = http://linked.data.gov.au/def/ausplots-cv/4cf2b776-7b4a-46c4-b2b2-c0260a687c73</text></g></g><g transform="translate(-14,-14) scale(1,1)"><g><path fill="none" stroke="none"/><text fill="#000000" font-family="Arial" font-size="13px" font-style="normal" font-weight="normal" stroke="none" text-decoration="none" x="85" y="1264.5">+globalVocabulary: ParameterVocabularyTerm = http://linked.data.gov.au/def/tern-cv/5699eca7-9ef0-47a6-bcfb-9306e0e2b85e</text></g></g><g transform="translate(-14,-14) scale(1,1)"><g><path fill="none" stroke="none"/><text fill="#000000" font-family="Arial" font-size="13px" font-style="normal" font-weight="normal" stroke="none" text-decoration="none" x="85" y="1279.5">+globalValue: ParameterTerm = http://linked.data.gov.au/def/tern-cv/82bca582-f0c2-480e-be0b-c33b19d80e73</text></g></g><g transform="translate(-14,-14) scale(1,1)"><path d="M 356 981 L 431 1191" fill="none" stroke="#000000" stroke-miterlimit="10"/></g><g transform="translate(-14,-14) scale(1,1)"><path d="M 423.61764325608004 1182.8451971878224 L 431 1191 L 431.54620185296585 1180.013569117506" fill="none" stroke="#000000" stroke-miterlimit="10"/></g><g transform="translate(-14,-14) scale(1,1)"><g><path fill="none" stroke="none"/><text fill="#000000" font-family="Arial" font-size="13px" font-style="normal" font-weight="normal" stroke="none" text-decoration="none" x="351.5" y="1086.5">+observedProperty</text></g></g><g transform="translate(-14,-14) scale(1,1)"><g><path fill="none" stroke="none"/><text fill="#000000" font-family="Arial" font-size="13px" font-style="normal" font-weight="normal" stroke="none" text-decoration="none" x="37" y="42">Basal Area</text></g></g><g transform="translate(-14,-14) scale(1,1)"><g><path fill="none" stroke="none"/></g></g><g transform="translate(-14,-14) scale(1,1)"><g><path fill="none" stroke="none"/><text fill="#000000" font-family="Arial" font-size="13px" font-style="normal" font-weight="normal" stroke="none" text-decoration="none" x="37" y="59">AusPlots Rangelands WAACOO0006 site visit 53438 sampling point NW</text></g></g><g transform="translate(-14,-14) scale(1,1)"><g><path fill="none" stroke="none"/></g></g><g transform="translate(-14,-14) scale(1,1)"><path d="M 919 822 L 583 887" fill="none" stroke="#000000" stroke-miterlimit="10"/></g><g transform="translate(-14,-14) scale(1,1)"><path d="M 592.1781699394403 880.9368987669054 L 583 887 L 593.7772062000025 889.2026862061191" fill="none" stroke="#000000" stroke-miterlimit="10"/></g><g transform="translate(-14,-14) scale(1,1)"><g><path fill="none" stroke="none"/><text fill="#000000" font-family="Arial" font-size="13px" font-style="normal" font-weight="normal" stroke="none" text-decoration="none" x="706.5" y="874.5">+hasSubActivity</text></g></g><g transform="translate(-14,-14) scale(1,1)"><rect fill="#C0C0C0" height="92" opacity="0.2" stroke="none" width="710.51123046875" x="231" y="463"/></g><g transform="translate(-14,-14) scale(1,1)"><rect fill="#ffd8d8" height="92" stroke="none" width="710.51123046875" x="224" y="456"/></g><g transform="translate(-14,-14) scale(1,1)"><path d="M 224 456 L 934.51123046875 456 L 934.51123046875 548 L 224 548 L 224 456 Z Z" fill="none" stroke="#000000" stroke-miterlimit="10"/></g><g transform="translate(-14,-14) scale(1,1)"><rect fill="#ffd8d8" height="92" stroke="none" width="710.51123046875" x="224" y="456"/></g><g transform="translate(-14,-14) scale(1,1)"><path d="M 224 456 L 934.51123046875 456 L 934.51123046875 548 L 224 548 L 224 456 Z Z" fill="none" stroke="#000000" stroke-miterlimit="10"/></g><g transform="translate(-14,-14) scale(1,1)"><path d="M 224 481 L 934.51123046875 481" fill="none" stroke="#000000" stroke-miterlimit="10"/></g><g transform="translate(-14,-14) scale(1,1)"><g><path fill="none" stroke="none"/><text fill="#000000" font-family="Arial" font-size="13px" font-style="normal" font-weight="bold" stroke="none" text-decoration="none" x="491.8134765625" y="475.5">basal area method: Procedure</text><path d="M 672.455078125 475.5 L 486.05615234375 475.5" fill="none" stroke="#000000" stroke-miterlimit="10"/></g></g><g transform="translate(-14,-14) scale(1,1)"><g><path fill="none" stroke="none"/><text fill="#000000" font-family="Arial" font-size="13px" font-style="normal" font-weight="normal" stroke="none" text-decoration="none" x="229" y="498.5">+vocabulary: MethodVocabularyTerm = http://linked.data.gov.au/def/ausplots-cv/3ee6feb4-20aa-4dd8-9f15-48bbbebbac7a</text></g></g><g transform="translate(-14,-14) scale(1,1)"><g><path fill="none" stroke="none"/><text fill="#000000" font-family="Arial" font-size="13px" font-style="normal" font-weight="normal" stroke="none" text-decoration="none" x="229" y="513.5">+value: MethodTerm = http://linked.data.gov.au/def/ausplots-cv/872d0b1d-3ed0-4e25-a31a-f3ee4336acc6</text></g></g><g transform="translate(-14,-14) scale(1,1)"><g><path fill="none" stroke="none"/><text fill="#000000" font-family="Arial" font-size="13px" font-style="normal" font-weight="normal" stroke="none" text-decoration="none" x="229" y="528.5">+observationType: ObservationTypeTerm</text></g></g><g transform="translate(-14,-14) scale(1,1)"><g><path fill="none" stroke="none"/><text fill="#000000" font-family="Arial" font-size="13px" font-style="normal" font-weight="normal" stroke="none" text-decoration="none" x="229" y="543.5">+instrumentType: InstrumentTypeTerm = http://linked.data.gov.au/def/tern-cv/693aca27-8c3b-44c4-b535-78bc92b4142d</text></g></g><g transform="translate(-14,-14) scale(1,1)"><path d="M 365 887 L 553 549" fill="none" stroke="#000000" stroke-miterlimit="10"/></g><g transform="translate(-14,-14) scale(1,1)"><path d="M 551.7388607792569 559.9274666719191 L 553 549 L 544.3813541200883 555.8351256898964" fill="none" stroke="#000000" stroke-miterlimit="10"/></g><g transform="translate(-14,-14) scale(1,1)"><g><path fill="none" stroke="none"/><text fill="#000000" font-family="Arial" font-size="13px" font-style="normal" font-weight="normal" stroke="none" text-decoration="none" x="397.5" y="716.5">+usedProcedure</text></g></g><g transform="translate(-14,-14) scale(1,1)"><path d="M 1247 470 L 936 485" fill="none" stroke="#000000" stroke-miterlimit="10"/></g><g transform="translate(-14,-14) scale(1,1)"><path d="M 945.9480791738952 480.30577793985907 L 936 485 L 946.353670494763 488.71503799252076" fill="none" stroke="#000000" stroke-miterlimit="10"/></g><g transform="translate(-14,-14) scale(1,1)"><g><path fill="none" stroke="none"/><text fill="#000000" font-family="Arial" font-size="13px" font-style="normal" font-weight="normal" stroke="none" text-decoration="none" x="1043.5" y="497.5">+usedProcedure</text></g></g><g transform="translate(-14,-14) scale(1,1)"><path d="M 624 608 L 813 608 L 823 618 L 823 647 L 624 647 L 624 608" fill="#ffffff" stroke="none"/></g><g transform="translate(-14,-14) scale(1,1)"><path d="M 624 608 L 813 608 L 823 618 L 823 647 L 624 647 L 624 608 L 624 608" fill="none" stroke="#000000" stroke-miterlimit="10"/></g><g transform="translate(-14,-14) scale(1,1)"><path d="M 813 608 L 813 618 L 823 618 L 813 608" fill="none" stroke="#000000" stroke-miterlimit="10"/></g><g transform="translate(-14,-14) scale(1,1)"><g><path fill="none" stroke="none"/><text fill="#000000" font-family="Arial" font-size="13px" font-style="normal" font-weight="normal" stroke="none" text-decoration="none" x="629" y="626">Instrument type: basal wedge</text></g></g><g transform="translate(-14,-14) scale(1,1)"><path d="M 700 607 L 633 549" fill="none" stroke="#000000" stroke-dasharray="3" stroke-miterlimit="10"/></g></g></svg>