<?xml version="1.0" encoding="UTF-8" standalone="no"?><svg xmlns="http://www.w3.org/2000/svg" xmlns:xlink="http://www.w3.org/1999/xlink" height="176" version="1.1" width="380.39453125"><defs/><g><g transform="translate(-734,-366) scale(1,1)"><rect fill="#C0C0C0" height="44" opacity="0.2" stroke="none" width="96.39453125" x="1015" y="495"/></g><g transform="translate(-734,-366) scale(1,1)"><rect fill="#ffffff" height="44" stroke="none" width="96.39453125" x="1008" y="488"/></g><g transform="translate(-734,-366) scale(1,1)"><path d="M 1008 488 L 1104.39453125 488 L 1104.39453125 532 L 1008 532 L 1008 488 Z Z" fill="none" stroke="#000000" stroke-miterlimit="10"/></g><g transform="translate(-734,-366) scale(1,1)"><path d="M 1008 513 L 1104.39453125 513" fill="none" stroke="#000000" stroke-miterlimit="10"/></g><g transform="translate(-734,-366) scale(1,1)"><path d="M 1008 523 L 1104.39453125 523" fill="none" stroke="#000000" stroke-miterlimit="10"/></g><g transform="translate(-734,-366) scale(1,1)"><g><path fill="none" stroke="none"/><text fill="#000000" font-family="Arial" font-size="13px" font-style="normal" font-weight="bold" stroke="none" text-decoration="none" x="1016.0927734375" y="507.5">tern:Sampling</text></g></g><g transform="translate(-734,-366) scale(1,1)"><rect fill="#C0C0C0" height="102" opacity="0.2" stroke="none" width="115.57080078125" x="751" y="495"/></g><g transform="translate(-734,-366) scale(1,1)"><rect fill="#ffffff" height="102" stroke="none" width="115.57080078125" x="744" y="488"/></g><g transform="translate(-734,-366) scale(1,1)"><path d="M 744 488 L 859.57080078125 488 L 859.57080078125 590 L 744 590 L 744 488 Z Z" fill="none" stroke="#000000" stroke-miterlimit="10"/></g><g transform="translate(-734,-366) scale(1,1)"><path d="M 744 513 L 859.57080078125 513" fill="none" stroke="#000000" stroke-miterlimit="10"/></g><g transform="translate(-734,-366) scale(1,1)"><path d="M 744 581 L 859.57080078125 581" fill="none" stroke="#000000" stroke-miterlimit="10"/></g><g transform="translate(-734,-366) scale(1,1)"><g><path fill="none" stroke="none"/><text fill="#000000" font-family="Arial" font-size="13px" font-style="normal" font-weight="bold" stroke="none" text-decoration="none" x="765.41650390625" y="507.5">tern:SiteVisit</text></g></g><g transform="translate(-734,-366) scale(1,1)"><g><path fill="none" stroke="none"/><text fill="#000000" font-family="Arial" font-size="13px" font-style="normal" font-weight="normal" stroke="none" text-decoration="none" x="749" y="530.5">+dcterms:type</text></g></g><g transform="translate(-734,-366) scale(1,1)"><g><path fill="none" stroke="none"/><text fill="#000000" font-family="Arial" font-size="13px" font-style="normal" font-weight="normal" stroke="none" text-decoration="none" x="749" y="545.5">+dcterms:identifier</text></g></g><g transform="translate(-734,-366) scale(1,1)"><g><path fill="none" stroke="none"/><text fill="#000000" font-family="Arial" font-size="13px" font-style="normal" font-weight="normal" stroke="none" text-decoration="none" x="749" y="560.5">+dcterms:isPartOf</text></g></g><g transform="translate(-734,-366) scale(1,1)"><g><path fill="none" stroke="none"/><text fill="#000000" font-family="Arial" font-size="13px" font-style="normal" font-weight="normal" stroke="none" text-decoration="none" x="749" y="575.5">+tern:site</text></g></g><g transform="translate(-734,-366) scale(1,1)"><rect fill="#C0C0C0" height="222" opacity="0.2" stroke="none" width="170.50341796875" x="871" y="495"/></g><g transform="translate(-734,-366) scale(1,1)"><rect fill="#ffffff" height="222" stroke="none" width="170.50341796875" x="864" y="488"/></g><g transform="translate(-734,-366) scale(1,1)"><path d="M 864 488 L 1034.50341796875 488 L 1034.50341796875 710 L 864 710 L 864 488 Z Z" fill="none" stroke="#000000" stroke-miterlimit="10"/></g><g transform="translate(-734,-366) scale(1,1)"><path d="M 864 513 L 1034.50341796875 513" fill="none" stroke="#000000" stroke-miterlimit="10"/></g><g transform="translate(-734,-366) scale(1,1)"><path d="M 864 701 L 1034.50341796875 701" fill="none" stroke="#000000" stroke-miterlimit="10"/></g><g transform="translate(-734,-366) scale(1,1)"><g><path fill="none" stroke="none"/><text fill="#000000" font-family="Arial" font-size="13px" font-style="normal" font-weight="bold" stroke="none" text-decoration="none" x="901.199951171875" y="507.5">tern:Observation</text></g></g><g transform="translate(-734,-366) scale(1,1)"><g><path fill="none" stroke="none"/><text fill="#000000" font-family="Arial" font-size="13px" font-style="normal" font-weight="normal" stroke="none" text-decoration="none" x="869" y="530.5">+dcterms:type</text></g></g><g transform="translate(-734,-366) scale(1,1)"><g><path fill="none" stroke="none"/><text fill="#000000" font-family="Arial" font-size="13px" font-style="normal" font-weight="normal" stroke="none" text-decoration="none" x="869" y="545.5">+sosa:hasFeatureOfInterest</text></g></g><g transform="translate(-734,-366) scale(1,1)"><g><path fill="none" stroke="none"/><text fill="#000000" font-family="Arial" font-size="13px" font-style="normal" font-weight="normal" stroke="none" text-decoration="none" x="869" y="560.5">+dcterms:isPartOf</text></g></g><g transform="translate(-734,-366) scale(1,1)"><g><path fill="none" stroke="none"/><text fill="#000000" font-family="Arial" font-size="13px" font-style="normal" font-weight="normal" stroke="none" text-decoration="none" x="869" y="575.5">+tern:site</text></g></g><g transform="translate(-734,-366) scale(1,1)"><g><path fill="none" stroke="none"/><text fill="#000000" font-family="Arial" font-size="13px" font-style="normal" font-weight="normal" stroke="none" text-decoration="none" x="869" y="590.5">+tern:siteVisit</text></g></g><g transform="translate(-734,-366) scale(1,1)"><g><path fill="none" stroke="none"/><text fill="#000000" font-family="Arial" font-size="13px" font-style="normal" font-weight="normal" stroke="none" text-decoration="none" x="869" y="605.5">+tern:domain</text></g></g><g transform="translate(-734,-366) scale(1,1)"><g><path fill="none" stroke="none"/><text fill="#000000" font-family="Arial" font-size="13px" font-style="normal" font-weight="normal" stroke="none" text-decoration="none" x="869" y="620.5">+sosa:observedProperty</text></g></g><g transform="translate(-734,-366) scale(1,1)"><g><path fill="none" stroke="none"/><text fill="#000000" font-family="Arial" font-size="13px" font-style="normal" font-weight="normal" stroke="none" text-decoration="none" x="869" y="635.5">+sosa:usedProcedure</text></g></g><g transform="translate(-734,-366) scale(1,1)"><g><path fill="none" stroke="none"/><text fill="#000000" font-family="Arial" font-size="13px" font-style="normal" font-weight="normal" stroke="none" text-decoration="none" x="869" y="650.5">+sosa:hasResult</text></g></g><g transform="translate(-734,-366) scale(1,1)"><g><path fill="none" stroke="none"/><text fill="#000000" font-family="Arial" font-size="13px" font-style="normal" font-weight="normal" stroke="none" text-decoration="none" x="869" y="665.5">+sosa:phenomenonTime</text></g></g><g transform="translate(-734,-366) scale(1,1)"><g><path fill="none" stroke="none"/><text fill="#000000" font-family="Arial" font-size="13px" font-style="normal" font-weight="normal" stroke="none" text-decoration="none" x="869" y="680.5">+sosa:resultTime</text></g></g><g transform="translate(-734,-366) scale(1,1)"><g><path fill="none" stroke="none"/><text fill="#000000" font-family="Arial" font-size="13px" font-style="normal" font-weight="normal" stroke="none" text-decoration="none" x="869" y="695.5">+tern:hasAttribute</text></g></g><g transform="translate(-734,-366) scale(1,1)"><rect fill="#C0C0C0" height="44" opacity="0.2" stroke="none" width="96.4599609375" x="879" y="383"/></g><g transform="translate(-734,-366) scale(1,1)"><rect fill="#ffffff" height="44" stroke="none" width="96.4599609375" x="872" y="376"/></g><g transform="translate(-734,-366) scale(1,1)"><path d="M 872 376 L 968.4599609375 376 L 968.4599609375 420 L 872 420 L 872 376 Z Z" fill="none" stroke="#000000" stroke-miterlimit="10"/></g><g transform="translate(-734,-366) scale(1,1)"><path d="M 872 401 L 968.4599609375 401" fill="none" stroke="#000000" stroke-miterlimit="10"/></g><g transform="translate(-734,-366) scale(1,1)"><path d="M 872 411 L 968.4599609375 411" fill="none" stroke="#000000" stroke-miterlimit="10"/></g><g transform="translate(-734,-366) scale(1,1)"><g><path fill="none" stroke="none"/><text fill="#000000" font-family="Arial" font-size="13px" font-style="normal" font-weight="bold" stroke="none" text-decoration="none" x="885.194091796875" y="395.5">prov:Activity</text></g></g><g transform="translate(-734,-366) scale(1,1)"><path d="M 933 487 L 923 421" fill="none" stroke="#000000" stroke-miterlimit="10"/></g><g transform="translate(-734,-366) scale(1,1)"><path d="M 934.3688776674644 439.83477158295875 L 923 421 L 917.7208157847346 442.35720520155417" fill="#FFFFFF" stroke="none"/></g><g transform="translate(-734,-366) scale(1,1)"><path d="M 934.3688776674644 439.83477158295875 L 923 421 L 917.7208157847346 442.35720520155417 L 934.3688776674644 439.83477158295875" fill="none" stroke="#000000" stroke-miterlimit="10"/></g><g transform="translate(-734,-366) scale(1,1)"><path d="M 845 487 L 901 421" fill="none" stroke="#000000" stroke-miterlimit="10"/></g><g transform="translate(-734,-366) scale(1,1)"><path d="M 894.2695485965081 441.9451909493619 L 901 421 L 881.4303656186034 431.05133872568524" fill="#FFFFFF" stroke="none"/></g><g transform="translate(-734,-366) scale(1,1)"><path d="M 894.2695485965081 441.9451909493619 L 901 421 L 881.4303656186034 431.05133872568524 L 894.2695485965081 441.9451909493619" fill="none" stroke="#000000" stroke-miterlimit="10"/></g><g transform="translate(-734,-366) scale(1,1)"><path d="M 1028 487 L 948 421" fill="none" stroke="#000000" stroke-miterlimit="10"/></g><g transform="translate(-734,-366) scale(1,1)"><path d="M 969.0361623430005 427.44048708398145 L 948 421 L 958.320700951649 440.4289251341043" fill="#FFFFFF" stroke="none"/></g><g transform="translate(-734,-366) scale(1,1)"><path d="M 969.0361623430005 427.44048708398145 L 948 421 L 958.320700951649 440.4289251341043 L 969.0361623430005 427.44048708398145" fill="none" stroke="#000000" stroke-miterlimit="10"/></g></g></svg>