<?xml version="1.0" encoding="UTF-8" standalone="no"?><svg xmlns="http://www.w3.org/2000/svg" xmlns:xlink="http://www.w3.org/1999/xlink" height="77" version="1.1" width="594.17041015625"><defs/><g><g transform="translate(-10,-10) scale(1,1)"><rect fill="#C0C0C0" height="57" opacity="0.2" stroke="none" width="218.47900390625" x="27" y="27"/></g><g transform="translate(-10,-10) scale(1,1)"><rect fill="#ffffff" height="57" stroke="none" width="218.47900390625" x="20" y="20"/></g><g transform="translate(-10,-10) scale(1,1)"><path d="M 20 20 L 238.47900390625 20 L 238.47900390625 77 L 20 77 L 20 20 Z Z" fill="none" stroke="#000000" stroke-miterlimit="10"/></g><g transform="translate(-10,-10) scale(1,1)"><path d="M 20 58 L 238.47900390625 58" fill="none" stroke="#000000" stroke-miterlimit="10"/></g><g transform="translate(-10,-10) scale(1,1)"><path d="M 20 68 L 238.47900390625 68" fill="none" stroke="#000000" stroke-miterlimit="10"/></g><g transform="translate(-10,-10) scale(1,1)"><g><path fill="none" stroke="none"/><text fill="#000000" font-family="Arial" font-size="13px" font-style="normal" font-weight="normal" stroke="none" text-decoration="none" x="96.35546875" y="37.5">«CodeList»</text></g></g><g transform="translate(-10,-10) scale(1,1)"><g><path fill="none" stroke="none"/><text fill="#000000" font-family="Arial" font-size="13px" font-style="normal" font-weight="bold" stroke="none" text-decoration="none" x="33.872314453125" y="52.5">StructuralFormationClassification</text></g></g><g transform="translate(-10,-10) scale(1,1)"><rect fill="#C0C0C0" height="57" opacity="0.2" stroke="none" width="151.0478515625" x="276.47900390625" y="27"/></g><g transform="translate(-10,-10) scale(1,1)"><rect fill="#ffffff" height="57" stroke="none" width="151.0478515625" x="269.47900390625" y="20"/></g><g transform="translate(-10,-10) scale(1,1)"><path d="M 269.47900390625 20 L 420.52685546875 20 L 420.52685546875 77 L 269.47900390625 77 L 269.47900390625 20 Z Z" fill="none" stroke="#000000" stroke-miterlimit="10"/></g><g transform="translate(-10,-10) scale(1,1)"><path d="M 269.47900390625 58 L 420.52685546875 58" fill="none" stroke="#000000" stroke-miterlimit="10"/></g><g transform="translate(-10,-10) scale(1,1)"><path d="M 269.47900390625 68 L 420.52685546875 68" fill="none" stroke="#000000" stroke-miterlimit="10"/></g><g transform="translate(-10,-10) scale(1,1)"><g><path fill="none" stroke="none"/><text fill="#000000" font-family="Arial" font-size="13px" font-style="normal" font-weight="normal" stroke="none" text-decoration="none" x="312.118896484375" y="37.5">«CodeList»</text></g></g><g transform="translate(-10,-10) scale(1,1)"><g><path fill="none" stroke="none"/><text fill="#000000" font-family="Arial" font-size="13px" font-style="normal" font-weight="bold" stroke="none" text-decoration="none" x="279.599853515625" y="52.5">PlantIdentificationType</text></g></g><g transform="translate(-10,-10) scale(1,1)"><rect fill="#C0C0C0" height="57" opacity="0.2" stroke="none" width="142.6435546875" x="458.52685546875" y="27"/></g><g transform="translate(-10,-10) scale(1,1)"><rect fill="#ffffff" height="57" stroke="none" width="142.6435546875" x="451.52685546875" y="20"/></g><g transform="translate(-10,-10) scale(1,1)"><path d="M 451.52685546875 20 L 594.17041015625 20 L 594.17041015625 77 L 451.52685546875 77 L 451.52685546875 20 Z Z" fill="none" stroke="#000000" stroke-miterlimit="10"/></g><g transform="translate(-10,-10) scale(1,1)"><path d="M 451.52685546875 58 L 594.17041015625 58" fill="none" stroke="#000000" stroke-miterlimit="10"/></g><g transform="translate(-10,-10) scale(1,1)"><path d="M 451.52685546875 68 L 594.17041015625 68" fill="none" stroke="#000000" stroke-miterlimit="10"/></g><g transform="translate(-10,-10) scale(1,1)"><g><path fill="none" stroke="none"/><text fill="#000000" font-family="Arial" font-size="13px" font-style="normal" font-weight="normal" stroke="none" text-decoration="none" x="489.964599609375" y="37.5">«CodeList»</text></g></g><g transform="translate(-10,-10) scale(1,1)"><g><path fill="none" stroke="none"/><text fill="#000000" font-family="Arial" font-size="13px" font-style="normal" font-weight="bold" stroke="none" text-decoration="none" x="461.800048828125" y="52.5">StratumClassification</text></g></g></g></svg>