<?xml version="1.0" encoding="UTF-8" standalone="no"?><svg xmlns="http://www.w3.org/2000/svg" xmlns:xlink="http://www.w3.org/1999/xlink" height="678" version="1.1" width="585.412109375"><defs/><g><g transform="translate(-10,2) scale(1,1)"><rect fill="#C0C0C0" height="117" opacity="0.2" stroke="none" width="193.412109375" x="399" y="167"/></g><g transform="translate(-10,2) scale(1,1)"><rect fill="#ffffff" height="117" stroke="none" width="193.412109375" x="392" y="160"/></g><g transform="translate(-10,2) scale(1,1)"><path d="M 392 160 L 585.412109375 160 L 585.412109375 277 L 392 277 L 392 160 Z Z" fill="none" stroke="#000000" stroke-miterlimit="10"/></g><g transform="translate(-10,2) scale(1,1)"><path d="M 392 185 L 585.412109375 185" fill="none" stroke="#000000" stroke-miterlimit="10"/></g><g transform="translate(-10,2) scale(1,1)"><path d="M 392 208 L 585.412109375 208" fill="none" stroke="#000000" stroke-miterlimit="10"/></g><g transform="translate(-10,2) scale(1,1)"><g><path fill="none" stroke="none"/><text fill="#000000" font-family="Arial" font-size="13px" font-style="normal" font-weight="bold" stroke="none" text-decoration="none" x="477.505615234375" y="179.5">Site</text></g></g><g transform="translate(-10,2) scale(1,1)"><g><path fill="none" stroke="none"/><text fill="#000000" font-family="Arial" font-size="13px" font-style="normal" font-weight="normal" stroke="none" text-decoration="none" x="397" y="202.5">+dateEstablished: Date</text></g></g><g transform="translate(-10,2) scale(1,1)"><rect fill="#C0C0C0" height="162" opacity="0.2" stroke="none" width="167.60888671875" x="27" y="145"/></g><g transform="translate(-10,2) scale(1,1)"><rect fill="#ffffff" height="162" stroke="none" width="167.60888671875" x="20" y="138"/></g><g transform="translate(-10,2) scale(1,1)"><path d="M 20 138 L 187.60888671875 138 L 187.60888671875 300 L 20 300 L 20 138 Z Z" fill="none" stroke="#000000" stroke-miterlimit="10"/></g><g transform="translate(-10,2) scale(1,1)"><path d="M 20 163 L 187.60888671875 163" fill="none" stroke="#000000" stroke-miterlimit="10"/></g><g transform="translate(-10,2) scale(1,1)"><path d="M 20 246 L 187.60888671875 246" fill="none" stroke="#000000" stroke-miterlimit="10"/></g><g transform="translate(-10,2) scale(1,1)"><g><path fill="none" stroke="none"/><text fill="#000000" font-family="Arial" font-size="13px" font-style="normal" font-weight="bold" stroke="none" text-decoration="none" x="80.44189453125" y="157.5">SiteVisit</text></g></g><g transform="translate(-10,2) scale(1,1)"><g><path fill="none" stroke="none"/><text fill="#000000" font-family="Arial" font-size="13px" font-style="normal" font-weight="normal" stroke="none" text-decoration="none" x="25" y="180.5">+siteDescription: String</text></g></g><g transform="translate(-10,2) scale(1,1)"><g><path fill="none" stroke="none"/><text fill="#000000" font-family="Arial" font-size="13px" font-style="normal" font-weight="normal" stroke="none" text-decoration="none" x="25" y="195.5">+locationDescription: String</text></g></g><g transform="translate(-10,2) scale(1,1)"><g><path fill="none" stroke="none"/><text fill="#000000" font-family="Arial" font-size="13px" font-style="normal" font-weight="normal" stroke="none" text-decoration="none" x="25" y="210.5">+site: Site[1]</text></g></g><g transform="translate(-10,2) scale(1,1)"><g><path fill="none" stroke="none"/><text fill="#000000" font-family="Arial" font-size="13px" font-style="normal" font-weight="normal" stroke="none" text-decoration="none" x="25" y="225.5">+startedAtTime: DateTime</text></g></g><g transform="translate(-10,2) scale(1,1)"><g><path fill="none" stroke="none"/><text fill="#000000" font-family="Arial" font-size="13px" font-style="normal" font-weight="normal" stroke="none" text-decoration="none" x="25" y="240.5">+endedAtTime: DateTime</text></g></g><g transform="translate(-10,2) scale(1,1)"><path d="M 391 215 Q 296 212 189 216" fill="none" stroke="#000000" stroke-miterlimit="10"/></g><g transform="translate(-10,2) scale(1,1)"><g><path fill="none" stroke="none"/><text fill="#000000" font-family="Arial" font-size="13px" font-style="normal" font-weight="normal" stroke="none" text-decoration="none" x="365.5" y="207.5">1</text></g></g><g transform="translate(-10,2) scale(1,1)"><g><path fill="none" stroke="none"/><text fill="#000000" font-family="Arial" font-size="13px" font-style="normal" font-weight="normal" stroke="none" text-decoration="none" x="201.5" y="236.5">+site</text></g></g><g transform="translate(-10,2) scale(1,1)"><g><path fill="none" stroke="none"/><text fill="#000000" font-family="Arial" font-size="13px" font-style="normal" font-weight="normal" stroke="none" text-decoration="none" x="200.5" y="208.5">0..*</text></g></g><g transform="translate(-10,2) scale(1,1)"><rect fill="#C0C0C0" height="87" opacity="0.2" stroke="none" width="186.1884765625" x="207" y="15"/></g><g transform="translate(-10,2) scale(1,1)"><rect fill="#ffffff" height="87" stroke="none" width="186.1884765625" x="200" y="8"/></g><g transform="translate(-10,2) scale(1,1)"><path d="M 200 8 L 386.1884765625 8 L 386.1884765625 95 L 200 95 L 200 8 Z Z" fill="none" stroke="#000000" stroke-miterlimit="10"/></g><g transform="translate(-10,2) scale(1,1)"><path d="M 200 33 L 386.1884765625 33" fill="none" stroke="#000000" stroke-miterlimit="10"/></g><g transform="translate(-10,2) scale(1,1)"><path d="M 200 86 L 386.1884765625 86" fill="none" stroke="#000000" stroke-miterlimit="10"/></g><g transform="translate(-10,2) scale(1,1)"><g><path fill="none" stroke="none"/><text fill="#000000" font-family="Arial" font-size="13px" font-style="italic" font-weight="bold" stroke="none" text-decoration="none" x="278.27880859375" y="27.5">Base</text></g></g><g transform="translate(-10,2) scale(1,1)"><g><path fill="none" stroke="none"/><text fill="#000000" font-family="Arial" font-size="13px" font-style="normal" font-weight="normal" stroke="none" text-decoration="none" x="205" y="50.5">+id {id, readOnly, unique}</text></g></g><g transform="translate(-10,2) scale(1,1)"><g><path fill="none" stroke="none"/><text fill="#000000" font-family="Arial" font-size="13px" font-style="normal" font-weight="normal" stroke="none" text-decoration="none" x="205" y="65.5">+name: String</text></g></g><g transform="translate(-10,2) scale(1,1)"><g><path fill="none" stroke="none"/><text fill="#000000" font-family="Arial" font-size="13px" font-style="normal" font-weight="normal" stroke="none" text-decoration="none" x="205" y="80.5">+description: String</text></g></g><g transform="translate(-10,2) scale(1,1)"><path d="M 494 159 Q 504 72 484 64 Q 464 56 387 54" fill="none" stroke="#000000" stroke-miterlimit="10"/></g><g transform="translate(-10,2) scale(1,1)"><path d="M 407.5370994530267 46.11155617016329 L 387 54 L 407.0998944142245 62.943950164051024" fill="#FFFFFF" stroke="none"/></g><g transform="translate(-10,2) scale(1,1)"><path d="M 407.5370994530267 46.11155617016329 L 387 54 L 407.0998944142245 62.943950164051024 L 407.5370994530267 46.11155617016329" fill="none" stroke="#000000" stroke-miterlimit="10"/></g><g transform="translate(-10,2) scale(1,1)"><path d="M 104 137 Q 104 123 199 87" fill="none" stroke="#000000" stroke-miterlimit="10"/></g><g transform="translate(-10,2) scale(1,1)"><path d="M 182.97690983192865 102.07516439266435 L 199 87 L 177.0102133170383 86.32971525614818" fill="#FFFFFF" stroke="none"/></g><g transform="translate(-10,2) scale(1,1)"><path d="M 182.97690983192865 102.07516439266435 L 199 87 L 177.0102133170383 86.32971525614818 L 182.97690983192865 102.07516439266435" fill="none" stroke="#000000" stroke-miterlimit="10"/></g><g transform="translate(-10,2) scale(1,1)"><rect fill="#C0C0C0" height="162" opacity="0.2" stroke="none" width="139.8759765625" x="239" y="511"/></g><g transform="translate(-10,2) scale(1,1)"><rect fill="#ffffff" height="162" stroke="none" width="139.8759765625" x="232" y="504"/></g><g transform="translate(-10,2) scale(1,1)"><path d="M 232 504 L 371.8759765625 504 L 371.8759765625 666 L 232 666 L 232 504 Z Z" fill="none" stroke="#000000" stroke-miterlimit="10"/></g><g transform="translate(-10,2) scale(1,1)"><path d="M 232 529 L 371.8759765625 529" fill="none" stroke="#000000" stroke-miterlimit="10"/></g><g transform="translate(-10,2) scale(1,1)"><path d="M 232 657 L 371.8759765625 657" fill="none" stroke="#000000" stroke-miterlimit="10"/></g><g transform="translate(-10,2) scale(1,1)"><g><path fill="none" stroke="none"/><text fill="#000000" font-family="Arial" font-size="13px" font-style="normal" font-weight="bold" stroke="none" text-decoration="none" x="266.892578125" y="523.5">Observation</text></g></g><g transform="translate(-10,2) scale(1,1)"><g><path fill="none" stroke="none"/><text fill="#000000" font-family="Arial" font-size="13px" font-style="normal" font-weight="normal" stroke="none" text-decoration="none" x="237" y="546.5">+phenomenonTime</text></g></g><g transform="translate(-10,2) scale(1,1)"><g><path fill="none" stroke="none"/><text fill="#000000" font-family="Arial" font-size="13px" font-style="normal" font-weight="normal" stroke="none" text-decoration="none" x="237" y="561.5">+resultTime: DateTime</text></g></g><g transform="translate(-10,2) scale(1,1)"><g><path fill="none" stroke="none"/><text fill="#000000" font-family="Arial" font-size="13px" font-style="normal" font-weight="normal" stroke="none" text-decoration="none" x="237" y="576.5">+validTime: DateTime</text></g></g><g transform="translate(-10,2) scale(1,1)"><g><path fill="none" stroke="none"/><text fill="#000000" font-family="Arial" font-size="13px" font-style="normal" font-weight="normal" stroke="none" text-decoration="none" x="237" y="591.5">+featureOfInterest</text></g></g><g transform="translate(-10,2) scale(1,1)"><g><path fill="none" stroke="none"/><text fill="#000000" font-family="Arial" font-size="13px" font-style="normal" font-weight="normal" stroke="none" text-decoration="none" x="237" y="606.5">+parameter: String</text></g></g><g transform="translate(-10,2) scale(1,1)"><g><path fill="none" stroke="none"/><text fill="#000000" font-family="Arial" font-size="13px" font-style="normal" font-weight="normal" stroke="none" text-decoration="none" x="237" y="621.5">+procedure: String</text></g></g><g transform="translate(-10,2) scale(1,1)"><g><path fill="none" stroke="none"/><text fill="#000000" font-family="Arial" font-size="13px" font-style="normal" font-weight="normal" stroke="none" text-decoration="none" x="237" y="636.5">+result: String</text></g></g><g transform="translate(-10,2) scale(1,1)"><g><path fill="none" stroke="none"/><text fill="#000000" font-family="Arial" font-size="13px" font-style="normal" font-weight="normal" stroke="none" text-decoration="none" x="237" y="651.5">+siteVisit: SiteVisit</text></g></g><g transform="translate(-10,2) scale(1,1)"><path d="M 231 539 Q 128 472 108.5 431 Q 89 390 89 353 Q 89 316 91 301" fill="none" stroke="#000000" stroke-miterlimit="10"/></g><g transform="translate(-10,2) scale(1,1)"><g><path fill="none" stroke="none"/><text fill="#000000" font-family="Arial" font-size="13px" font-style="normal" font-weight="normal" stroke="none" text-decoration="none" x="48.337890625" y="395.5">+siteVisit</text></g></g><g transform="translate(-10,2) scale(1,1)"><g><path fill="none" stroke="none"/><text fill="#000000" font-family="Arial" font-size="13px" font-style="normal" font-weight="normal" stroke="none" text-decoration="none" x="209.5" y="522.5">0..*</text></g></g><g transform="translate(-10,2) scale(1,1)"><g><path fill="none" stroke="none"/><text fill="#000000" font-family="Arial" font-size="13px" font-style="normal" font-weight="normal" stroke="none" text-decoration="none" x="96.641357421875" y="330.5">1</text></g></g><g transform="translate(-10,2) scale(1,1)"><path d="M 320 503 Q 353 360 431 278" fill="none" stroke="#000000" stroke-miterlimit="10"/></g><g transform="translate(-10,2) scale(1,1)"><g><path fill="none" stroke="none"/><text fill="#000000" font-family="Arial" font-size="13px" font-style="normal" font-weight="normal" stroke="none" text-decoration="none" x="327.5" y="490.5">0..*</text></g></g><g transform="translate(-10,2) scale(1,1)"><g><path fill="none" stroke="none"/><text fill="#000000" font-family="Arial" font-size="13px" font-style="normal" font-weight="normal" stroke="none" text-decoration="none" x="421.641357421875" y="308.5">1</text></g></g></g></svg>