<?xml version="1.0" encoding="UTF-8" standalone="no"?><svg xmlns="http://www.w3.org/2000/svg" xmlns:xlink="http://www.w3.org/1999/xlink" height="693" version="1.1" width="605.412109375"><defs/><g><g transform="translate(10,2) scale(1,1)"><rect fill="#C0C0C0" height="117" opacity="0.2" stroke="none" width="193.412109375" x="399" y="183"/></g><g transform="translate(10,2) scale(1,1)"><rect fill="#ffffff" height="117" stroke="none" width="193.412109375" x="392" y="176"/></g><g transform="translate(10,2) scale(1,1)"><path d="M 392 176 L 585.412109375 176 L 585.412109375 293 L 392 293 L 392 176 Z Z" fill="none" stroke="#000000" stroke-miterlimit="10"/></g><g transform="translate(10,2) scale(1,1)"><path d="M 392 201 L 585.412109375 201" fill="none" stroke="#000000" stroke-miterlimit="10"/></g><g transform="translate(10,2) scale(1,1)"><path d="M 392 224 L 585.412109375 224" fill="none" stroke="#000000" stroke-miterlimit="10"/></g><g transform="translate(10,2) scale(1,1)"><g><path fill="none" stroke="none"/><text fill="#000000" font-family="Arial" font-size="13px" font-style="normal" font-weight="bold" stroke="none" text-decoration="none" x="477.505615234375" y="195.5">Site</text></g></g><g transform="translate(10,2) scale(1,1)"><g><path fill="none" stroke="none"/><text fill="#000000" font-family="Arial" font-size="13px" font-style="normal" font-weight="normal" stroke="none" text-decoration="none" x="397" y="218.5">+dateEstablished: Date</text></g></g><g transform="translate(10,2) scale(1,1)"><rect fill="#C0C0C0" height="162" opacity="0.2" stroke="none" width="167.60888671875" x="39" y="167"/></g><g transform="translate(10,2) scale(1,1)"><rect fill="#ffffff" height="162" stroke="none" width="167.60888671875" x="32" y="160"/></g><g transform="translate(10,2) scale(1,1)"><path d="M 32 160 L 199.60888671875 160 L 199.60888671875 322 L 32 322 L 32 160 Z Z" fill="none" stroke="#000000" stroke-miterlimit="10"/></g><g transform="translate(10,2) scale(1,1)"><path d="M 32 185 L 199.60888671875 185" fill="none" stroke="#000000" stroke-miterlimit="10"/></g><g transform="translate(10,2) scale(1,1)"><path d="M 32 268 L 199.60888671875 268" fill="none" stroke="#000000" stroke-miterlimit="10"/></g><g transform="translate(10,2) scale(1,1)"><g><path fill="none" stroke="none"/><text fill="#000000" font-family="Arial" font-size="13px" font-style="normal" font-weight="bold" stroke="none" text-decoration="none" x="92.44189453125" y="179.5">SiteVisit</text></g></g><g transform="translate(10,2) scale(1,1)"><g><path fill="none" stroke="none"/><text fill="#000000" font-family="Arial" font-size="13px" font-style="normal" font-weight="normal" stroke="none" text-decoration="none" x="37" y="202.5">+siteDescription: String</text></g></g><g transform="translate(10,2) scale(1,1)"><g><path fill="none" stroke="none"/><text fill="#000000" font-family="Arial" font-size="13px" font-style="normal" font-weight="normal" stroke="none" text-decoration="none" x="37" y="217.5">+locationDescription: String</text></g></g><g transform="translate(10,2) scale(1,1)"><g><path fill="none" stroke="none"/><text fill="#000000" font-family="Arial" font-size="13px" font-style="normal" font-weight="normal" stroke="none" text-decoration="none" x="37" y="232.5">+site: Site[1]</text></g></g><g transform="translate(10,2) scale(1,1)"><g><path fill="none" stroke="none"/><text fill="#000000" font-family="Arial" font-size="13px" font-style="normal" font-weight="normal" stroke="none" text-decoration="none" x="37" y="247.5">+startedAtTime: DateTime</text></g></g><g transform="translate(10,2) scale(1,1)"><g><path fill="none" stroke="none"/><text fill="#000000" font-family="Arial" font-size="13px" font-style="normal" font-weight="normal" stroke="none" text-decoration="none" x="37" y="262.5">+endedAtTime: DateTime</text></g></g><g transform="translate(10,2) scale(1,1)"><path d="M 391 236 L 201 239" fill="none" stroke="#000000" stroke-miterlimit="10"/></g><g transform="translate(10,2) scale(1,1)"><g><path fill="none" stroke="none"/><text fill="#000000" font-family="Arial" font-size="13px" font-style="normal" font-weight="normal" stroke="none" text-decoration="none" x="365.5" y="229.5">1</text></g></g><g transform="translate(10,2) scale(1,1)"><g><path fill="none" stroke="none"/><text fill="#000000" font-family="Arial" font-size="13px" font-style="normal" font-weight="normal" stroke="none" text-decoration="none" x="213.5" y="259.5">+site</text></g></g><g transform="translate(10,2) scale(1,1)"><g><path fill="none" stroke="none"/><text fill="#000000" font-family="Arial" font-size="13px" font-style="normal" font-weight="normal" stroke="none" text-decoration="none" x="212.5" y="232.5">0..*</text></g></g><g transform="translate(10,2) scale(1,1)"><rect fill="#C0C0C0" height="87" opacity="0.2" stroke="none" width="186.1884765625" x="207" y="15"/></g><g transform="translate(10,2) scale(1,1)"><rect fill="#ffffff" height="87" stroke="none" width="186.1884765625" x="200" y="8"/></g><g transform="translate(10,2) scale(1,1)"><path d="M 200 8 L 386.1884765625 8 L 386.1884765625 95 L 200 95 L 200 8 Z Z" fill="none" stroke="#000000" stroke-miterlimit="10"/></g><g transform="translate(10,2) scale(1,1)"><path d="M 200 33 L 386.1884765625 33" fill="none" stroke="#000000" stroke-miterlimit="10"/></g><g transform="translate(10,2) scale(1,1)"><path d="M 200 86 L 386.1884765625 86" fill="none" stroke="#000000" stroke-miterlimit="10"/></g><g transform="translate(10,2) scale(1,1)"><g><path fill="none" stroke="none"/><text fill="#000000" font-family="Arial" font-size="13px" font-style="italic" font-weight="bold" stroke="none" text-decoration="none" x="280.459228515625" y="27.5">Base</text></g></g><g transform="translate(10,2) scale(1,1)"><g><path fill="none" stroke="none"/><text fill="#000000" font-family="Arial" font-size="13px" font-style="normal" font-weight="normal" stroke="none" text-decoration="none" x="205" y="50.5">+id {id, readOnly, unique}</text></g></g><g transform="translate(10,2) scale(1,1)"><g><path fill="none" stroke="none"/><text fill="#000000" font-family="Arial" font-size="13px" font-style="normal" font-weight="normal" stroke="none" text-decoration="none" x="205" y="65.5">+name: String</text></g></g><g transform="translate(10,2) scale(1,1)"><g><path fill="none" stroke="none"/><text fill="#000000" font-family="Arial" font-size="13px" font-style="normal" font-weight="normal" stroke="none" text-decoration="none" x="205" y="80.5">+description: String</text></g></g><g transform="translate(10,2) scale(1,1)"><path d="M 454 175 Q 432 136 367 96" fill="none" stroke="#000000" stroke-miterlimit="10"/></g><g transform="translate(10,2) scale(1,1)"><path d="M 388.72264796335213 99.48232184903603 L 367 96 L 379.897858286487 113.82260507394189" fill="#FFFFFF" stroke="none"/></g><g transform="translate(10,2) scale(1,1)"><path d="M 388.72264796335213 99.48232184903603 L 367 96 L 379.897858286487 113.82260507394189 L 388.72264796335213 99.48232184903603" fill="none" stroke="#000000" stroke-miterlimit="10"/></g><g transform="translate(10,2) scale(1,1)"><path d="M 192 159 L 251 96" fill="none" stroke="#000000" stroke-miterlimit="10"/></g><g transform="translate(10,2) scale(1,1)"><path d="M 243.251533000941 116.59031954983928 L 251 96 L 230.9614518606759 105.08056102165452" fill="#FFFFFF" stroke="none"/></g><g transform="translate(10,2) scale(1,1)"><path d="M 243.251533000941 116.59031954983928 L 251 96 L 230.9614518606759 105.08056102165452 L 243.251533000941 116.59031954983928" fill="none" stroke="#000000" stroke-miterlimit="10"/></g><g transform="translate(10,2) scale(1,1)"><rect fill="#C0C0C0" height="177" opacity="0.2" stroke="none" width="153.16796875" x="239" y="511"/></g><g transform="translate(10,2) scale(1,1)"><rect fill="#ffffff" height="177" stroke="none" width="153.16796875" x="232" y="504"/></g><g transform="translate(10,2) scale(1,1)"><path d="M 232 504 L 385.16796875 504 L 385.16796875 681 L 232 681 L 232 504 Z Z" fill="none" stroke="#000000" stroke-miterlimit="10"/></g><g transform="translate(10,2) scale(1,1)"><path d="M 232 529 L 385.16796875 529" fill="none" stroke="#000000" stroke-miterlimit="10"/></g><g transform="translate(10,2) scale(1,1)"><path d="M 232 657 L 385.16796875 657" fill="none" stroke="#000000" stroke-miterlimit="10"/></g><g transform="translate(10,2) scale(1,1)"><g><path fill="none" stroke="none"/><text fill="#000000" font-family="Arial" font-size="13px" font-style="normal" font-weight="bold" stroke="none" text-decoration="none" x="273.53857421875" y="523.5">Observation</text></g></g><g transform="translate(10,2) scale(1,1)"><g><path fill="none" stroke="none"/><text fill="#000000" font-family="Arial" font-size="13px" font-style="normal" font-weight="normal" stroke="none" text-decoration="none" x="237" y="546.5">+phenomenonTime</text></g></g><g transform="translate(10,2) scale(1,1)"><g><path fill="none" stroke="none"/><text fill="#000000" font-family="Arial" font-size="13px" font-style="normal" font-weight="normal" stroke="none" text-decoration="none" x="237" y="561.5">+resultTime: DateTime</text></g></g><g transform="translate(10,2) scale(1,1)"><g><path fill="none" stroke="none"/><text fill="#000000" font-family="Arial" font-size="13px" font-style="normal" font-weight="normal" stroke="none" text-decoration="none" x="237" y="576.5">+validTime: DateTime</text></g></g><g transform="translate(10,2) scale(1,1)"><g><path fill="none" stroke="none"/><text fill="#000000" font-family="Arial" font-size="13px" font-style="normal" font-weight="normal" stroke="none" text-decoration="none" x="237" y="591.5">+featureOfInterest</text></g></g><g transform="translate(10,2) scale(1,1)"><g><path fill="none" stroke="none"/><text fill="#000000" font-family="Arial" font-size="13px" font-style="normal" font-weight="normal" stroke="none" text-decoration="none" x="237" y="606.5">+parameter: String</text></g></g><g transform="translate(10,2) scale(1,1)"><g><path fill="none" stroke="none"/><text fill="#000000" font-family="Arial" font-size="13px" font-style="normal" font-weight="normal" stroke="none" text-decoration="none" x="237" y="621.5">+procedure: String</text></g></g><g transform="translate(10,2) scale(1,1)"><g><path fill="none" stroke="none"/><text fill="#000000" font-family="Arial" font-size="13px" font-style="normal" font-weight="normal" stroke="none" text-decoration="none" x="237" y="636.5">+result: String</text></g></g><g transform="translate(10,2) scale(1,1)"><g><path fill="none" stroke="none"/><text fill="#000000" font-family="Arial" font-size="13px" font-style="normal" font-weight="normal" stroke="none" text-decoration="none" x="237" y="651.5">+siteVisit: SiteVisit</text></g></g><g transform="translate(10,2) scale(1,1)"><path d="M 231 553 Q 104 488 111 323" fill="none" stroke="#000000" stroke-miterlimit="10"/></g><g transform="translate(10,2) scale(1,1)"><g><path fill="none" stroke="none"/><text fill="#000000" font-family="Arial" font-size="13px" font-style="normal" font-weight="normal" stroke="none" text-decoration="none" x="63.337890625" y="493.5">+siteVisit</text></g></g><g transform="translate(10,2) scale(1,1)"><g><path fill="none" stroke="none"/><text fill="#000000" font-family="Arial" font-size="13px" font-style="normal" font-weight="normal" stroke="none" text-decoration="none" x="207.5" y="538.5">0..*</text></g></g><g transform="translate(10,2) scale(1,1)"><g><path fill="none" stroke="none"/><text fill="#000000" font-family="Arial" font-size="13px" font-style="normal" font-weight="normal" stroke="none" text-decoration="none" x="118.641357421875" y="351.5">1</text></g></g><g transform="translate(10,2) scale(1,1)"><path d="M 386 503 Q 456 424 478 294" fill="none" stroke="#000000" stroke-miterlimit="10"/></g><g transform="translate(10,2) scale(1,1)"><g><path fill="none" stroke="none"/><text fill="#000000" font-family="Arial" font-size="13px" font-style="normal" font-weight="normal" stroke="none" text-decoration="none" x="399.5" y="501.5">0..*</text></g></g><g transform="translate(10,2) scale(1,1)"><g><path fill="none" stroke="none"/><text fill="#000000" font-family="Arial" font-size="13px" font-style="normal" font-weight="normal" stroke="none" text-decoration="none" x="482.641357421875" y="323.5">1</text></g></g><g transform="translate(10,2) scale(1,1)"><rect fill="#C0C0C0" height="57" opacity="0.2" stroke="none" width="224.7060546875" x="7" y="567"/></g><g transform="translate(10,2) scale(1,1)"><rect fill="#ffffff" height="57" stroke="none" width="224.7060546875" x="0" y="560"/></g><g transform="translate(10,2) scale(1,1)"><path d="M 0 560 L 224.7060546875 560 L 224.7060546875 617 L 0 617 L 0 560 Z Z" fill="none" stroke="#000000" stroke-miterlimit="10"/></g><g transform="translate(10,2) scale(1,1)"><path d="M 0 585 L 224.7060546875 585" fill="none" stroke="#000000" stroke-miterlimit="10"/></g><g transform="translate(10,2) scale(1,1)"><path d="M 0 608 L 224.7060546875 608" fill="none" stroke="#000000" stroke-miterlimit="10"/></g><g transform="translate(10,2) scale(1,1)"><g><path fill="none" stroke="none"/><text fill="#000000" font-family="Arial" font-size="13px" font-style="normal" font-weight="bold" stroke="none" text-decoration="none" x="79.113525390625" y="579.5">SoilFeature</text></g></g><g transform="translate(10,2) scale(1,1)"><g><path fill="none" stroke="none"/><text fill="#000000" font-family="Arial" font-size="13px" font-style="normal" font-weight="normal" stroke="none" text-decoration="none" x="5" y="602.5">+soilDepth: QuantitativeRange[0..1]</text></g></g></g></svg>