<?xml version="1.0" encoding="UTF-8" standalone="no"?><svg xmlns="http://www.w3.org/2000/svg" xmlns:xlink="http://www.w3.org/1999/xlink" height="641" version="1.1" width="321.2657470703125"><defs/><g><g transform="translate(-10,-10) scale(1,1)"><rect fill="#C0C0C0" height="117" opacity="0.2" stroke="none" width="193.412109375" x="134.8536376953125" y="338"/></g><g transform="translate(-10,-10) scale(1,1)"><rect fill="#ffffff" height="117" stroke="none" width="193.412109375" x="127.8536376953125" y="331"/></g><g transform="translate(-10,-10) scale(1,1)"><path d="M 127.8536376953125 331 L 321.2657470703125 331 L 321.2657470703125 448 L 127.8536376953125 448 L 127.8536376953125 331 Z Z" fill="none" stroke="#000000" stroke-miterlimit="10"/></g><g transform="translate(-10,-10) scale(1,1)"><path d="M 127.8536376953125 356 L 321.2657470703125 356" fill="none" stroke="#000000" stroke-miterlimit="10"/></g><g transform="translate(-10,-10) scale(1,1)"><path d="M 127.8536376953125 379 L 321.2657470703125 379" fill="none" stroke="#000000" stroke-miterlimit="10"/></g><g transform="translate(-10,-10) scale(1,1)"><g><path fill="none" stroke="none"/><text fill="#000000" font-family="Arial" font-size="13px" font-style="normal" font-weight="bold" stroke="none" text-decoration="none" x="213.3592529296875" y="350.5">Site</text></g></g><g transform="translate(-10,-10) scale(1,1)"><g><path fill="none" stroke="none"/><text fill="#000000" font-family="Arial" font-size="13px" font-style="normal" font-weight="normal" stroke="none" text-decoration="none" x="132.8536376953125" y="373.5">+dateEstablished: Date</text></g></g><g transform="translate(-10,-10) scale(1,1)"><rect fill="#C0C0C0" height="162" opacity="0.2" stroke="none" width="167.60888671875" x="27" y="145"/></g><g transform="translate(-10,-10) scale(1,1)"><rect fill="#ffffff" height="162" stroke="none" width="167.60888671875" x="20" y="138"/></g><g transform="translate(-10,-10) scale(1,1)"><path d="M 20 138 L 187.60888671875 138 L 187.60888671875 300 L 20 300 L 20 138 Z Z" fill="none" stroke="#000000" stroke-miterlimit="10"/></g><g transform="translate(-10,-10) scale(1,1)"><path d="M 20 163 L 187.60888671875 163" fill="none" stroke="#000000" stroke-miterlimit="10"/></g><g transform="translate(-10,-10) scale(1,1)"><path d="M 20 246 L 187.60888671875 246" fill="none" stroke="#000000" stroke-miterlimit="10"/></g><g transform="translate(-10,-10) scale(1,1)"><g><path fill="none" stroke="none"/><text fill="#000000" font-family="Arial" font-size="13px" font-style="normal" font-weight="bold" stroke="none" text-decoration="none" x="80.44189453125" y="157.5">SiteVisit</text></g></g><g transform="translate(-10,-10) scale(1,1)"><g><path fill="none" stroke="none"/><text fill="#000000" font-family="Arial" font-size="13px" font-style="normal" font-weight="normal" stroke="none" text-decoration="none" x="25" y="180.5">+siteDescription: String</text></g></g><g transform="translate(-10,-10) scale(1,1)"><g><path fill="none" stroke="none"/><text fill="#000000" font-family="Arial" font-size="13px" font-style="normal" font-weight="normal" stroke="none" text-decoration="none" x="25" y="195.5">+locationDescription: String</text></g></g><g transform="translate(-10,-10) scale(1,1)"><g><path fill="none" stroke="none"/><text fill="#000000" font-family="Arial" font-size="13px" font-style="normal" font-weight="normal" stroke="none" text-decoration="none" x="25" y="210.5">+site: Site[1]</text></g></g><g transform="translate(-10,-10) scale(1,1)"><g><path fill="none" stroke="none"/><text fill="#000000" font-family="Arial" font-size="13px" font-style="normal" font-weight="normal" stroke="none" text-decoration="none" x="25" y="225.5">+startedAtTime: DateTime</text></g></g><g transform="translate(-10,-10) scale(1,1)"><g><path fill="none" stroke="none"/><text fill="#000000" font-family="Arial" font-size="13px" font-style="normal" font-weight="normal" stroke="none" text-decoration="none" x="25" y="240.5">+endedAtTime: DateTime</text></g></g><g transform="translate(-10,-10) scale(1,1)"><path d="M 179 330 Q 168 316 158 301" fill="none" stroke="#000000" stroke-miterlimit="10"/></g><g transform="translate(-10,-10) scale(1,1)"><g><path fill="none" stroke="none"/><text fill="#000000" font-family="Arial" font-size="13px" font-style="normal" font-weight="normal" stroke="none" text-decoration="none" x="171.5" y="311.5">1</text></g></g><g transform="translate(-10,-10) scale(1,1)"><g><path fill="none" stroke="none"/><text fill="#000000" font-family="Arial" font-size="13px" font-style="normal" font-weight="normal" stroke="none" text-decoration="none" x="145.5" y="336.5">+site</text></g></g><g transform="translate(-10,-10) scale(1,1)"><g><path fill="none" stroke="none"/><text fill="#000000" font-family="Arial" font-size="13px" font-style="normal" font-weight="normal" stroke="none" text-decoration="none" x="170.5" y="318.5">0..*</text></g></g><g transform="translate(-10,-10) scale(1,1)"><rect fill="#C0C0C0" height="87" opacity="0.2" stroke="none" width="186.1884765625" x="74.8624267578125" y="27"/></g><g transform="translate(-10,-10) scale(1,1)"><rect fill="#ffffff" height="87" stroke="none" width="186.1884765625" x="67.8624267578125" y="20"/></g><g transform="translate(-10,-10) scale(1,1)"><path d="M 67.8624267578125 20 L 254.0509033203125 20 L 254.0509033203125 107 L 67.8624267578125 107 L 67.8624267578125 20 Z Z" fill="none" stroke="#000000" stroke-miterlimit="10"/></g><g transform="translate(-10,-10) scale(1,1)"><path d="M 67.8624267578125 45 L 254.0509033203125 45" fill="none" stroke="#000000" stroke-miterlimit="10"/></g><g transform="translate(-10,-10) scale(1,1)"><path d="M 67.8624267578125 98 L 254.0509033203125 98" fill="none" stroke="#000000" stroke-miterlimit="10"/></g><g transform="translate(-10,-10) scale(1,1)"><g><path fill="none" stroke="none"/><text fill="#000000" font-family="Arial" font-size="13px" font-style="italic" font-weight="bold" stroke="none" text-decoration="none" x="146.1412353515625" y="39.5">Base</text></g></g><g transform="translate(-10,-10) scale(1,1)"><g><path fill="none" stroke="none"/><text fill="#000000" font-family="Arial" font-size="13px" font-style="normal" font-weight="normal" stroke="none" text-decoration="none" x="72.8624267578125" y="62.5">+id {id, readOnly, unique}</text></g></g><g transform="translate(-10,-10) scale(1,1)"><g><path fill="none" stroke="none"/><text fill="#000000" font-family="Arial" font-size="13px" font-style="normal" font-weight="normal" stroke="none" text-decoration="none" x="72.8624267578125" y="77.5">+name: String</text></g></g><g transform="translate(-10,-10) scale(1,1)"><g><path fill="none" stroke="none"/><text fill="#000000" font-family="Arial" font-size="13px" font-style="normal" font-weight="normal" stroke="none" text-decoration="none" x="72.8624267578125" y="92.5">+description: String</text></g></g><g transform="translate(-10,-10) scale(1,1)"><path d="M 237 330 Q 240 316 240 268 Q 240 220 240 171.5 Q 240 123 220 108" fill="none" stroke="#000000" stroke-miterlimit="10"/></g><g transform="translate(-10,-10) scale(1,1)"><path d="M 241.31170107941784 113.4599814195234 L 220 108 L 231.20885846497947 126.93043823877457" fill="#FFFFFF" stroke="none"/></g><g transform="translate(-10,-10) scale(1,1)"><path d="M 241.31170107941784 113.4599814195234 L 220 108 L 231.20885846497947 126.93043823877457 L 241.31170107941784 113.4599814195234" fill="none" stroke="#000000" stroke-miterlimit="10"/></g><g transform="translate(-10,-10) scale(1,1)"><path d="M 104 137 Q 104 123 118 108" fill="none" stroke="#000000" stroke-miterlimit="10"/></g><g transform="translate(-10,-10) scale(1,1)"><path d="M 110.2864232089312 128.60341556849943 L 118 108 L 97.97686267974166 117.11449240792251" fill="#FFFFFF" stroke="none"/></g><g transform="translate(-10,-10) scale(1,1)"><path d="M 110.2864232089312 128.60341556849943 L 118 108 L 97.97686267974166 117.11449240792251 L 110.2864232089312 128.60341556849943" fill="none" stroke="#000000" stroke-miterlimit="10"/></g><g transform="translate(-10,-10) scale(1,1)"><rect fill="#C0C0C0" height="162" opacity="0.2" stroke="none" width="139.8759765625" x="98.0186767578125" y="486"/></g><g transform="translate(-10,-10) scale(1,1)"><rect fill="#ffffff" height="162" stroke="none" width="139.8759765625" x="91.0186767578125" y="479"/></g><g transform="translate(-10,-10) scale(1,1)"><path d="M 91.0186767578125 479 L 230.8946533203125 479 L 230.8946533203125 641 L 91.0186767578125 641 L 91.0186767578125 479 Z Z" fill="none" stroke="#000000" stroke-miterlimit="10"/></g><g transform="translate(-10,-10) scale(1,1)"><path d="M 91.0186767578125 504 L 230.8946533203125 504" fill="none" stroke="#000000" stroke-miterlimit="10"/></g><g transform="translate(-10,-10) scale(1,1)"><path d="M 91.0186767578125 632 L 230.8946533203125 632" fill="none" stroke="#000000" stroke-miterlimit="10"/></g><g transform="translate(-10,-10) scale(1,1)"><g><path fill="none" stroke="none"/><text fill="#000000" font-family="Arial" font-size="13px" font-style="normal" font-weight="bold" stroke="none" text-decoration="none" x="125.9112548828125" y="498.5">Observation</text></g></g><g transform="translate(-10,-10) scale(1,1)"><g><path fill="none" stroke="none"/><text fill="#000000" font-family="Arial" font-size="13px" font-style="normal" font-weight="normal" stroke="none" text-decoration="none" x="96.0186767578125" y="521.5">+phenomenonTime</text></g></g><g transform="translate(-10,-10) scale(1,1)"><g><path fill="none" stroke="none"/><text fill="#000000" font-family="Arial" font-size="13px" font-style="normal" font-weight="normal" stroke="none" text-decoration="none" x="96.0186767578125" y="536.5">+resultTime: DateTime</text></g></g><g transform="translate(-10,-10) scale(1,1)"><g><path fill="none" stroke="none"/><text fill="#000000" font-family="Arial" font-size="13px" font-style="normal" font-weight="normal" stroke="none" text-decoration="none" x="96.0186767578125" y="551.5">+validTime: DateTime</text></g></g><g transform="translate(-10,-10) scale(1,1)"><g><path fill="none" stroke="none"/><text fill="#000000" font-family="Arial" font-size="13px" font-style="normal" font-weight="normal" stroke="none" text-decoration="none" x="96.0186767578125" y="566.5">+featureOfInterest</text></g></g><g transform="translate(-10,-10) scale(1,1)"><g><path fill="none" stroke="none"/><text fill="#000000" font-family="Arial" font-size="13px" font-style="normal" font-weight="normal" stroke="none" text-decoration="none" x="96.0186767578125" y="581.5">+parameter: String</text></g></g><g transform="translate(-10,-10) scale(1,1)"><g><path fill="none" stroke="none"/><text fill="#000000" font-family="Arial" font-size="13px" font-style="normal" font-weight="normal" stroke="none" text-decoration="none" x="96.0186767578125" y="596.5">+procedure: String</text></g></g><g transform="translate(-10,-10) scale(1,1)"><g><path fill="none" stroke="none"/><text fill="#000000" font-family="Arial" font-size="13px" font-style="normal" font-weight="normal" stroke="none" text-decoration="none" x="96.0186767578125" y="611.5">+result: String</text></g></g><g transform="translate(-10,-10) scale(1,1)"><g><path fill="none" stroke="none"/><text fill="#000000" font-family="Arial" font-size="13px" font-style="normal" font-weight="normal" stroke="none" text-decoration="none" x="96.0186767578125" y="626.5">+siteVisit: SiteVisit</text></g></g><g transform="translate(-10,-10) scale(1,1)"><path d="M 99 478 Q 89 464 89 427 Q 89 390 89 353 Q 89 316 91 301" fill="none" stroke="#000000" stroke-miterlimit="10"/></g><g transform="translate(-10,-10) scale(1,1)"><g><path fill="none" stroke="none"/><text fill="#000000" font-family="Arial" font-size="13px" font-style="normal" font-weight="normal" stroke="none" text-decoration="none" x="48.337890625" y="395.5">+siteVisit</text></g></g><g transform="translate(-10,-10) scale(1,1)"><g><path fill="none" stroke="none"/><text fill="#000000" font-family="Arial" font-size="13px" font-style="normal" font-weight="normal" stroke="none" text-decoration="none" x="92.641357421875" y="459.5">1</text></g></g><g transform="translate(-10,-10) scale(1,1)"><g><path fill="none" stroke="none"/><text fill="#000000" font-family="Arial" font-size="13px" font-style="normal" font-weight="normal" stroke="none" text-decoration="none" x="90.5" y="330.5">0..*</text></g></g><g transform="translate(-10,-10) scale(1,1)"><path d="M 216 478 Q 225 464 225 449" fill="none" stroke="#000000" stroke-miterlimit="10"/></g><g transform="translate(-10,-10) scale(1,1)"><g><path fill="none" stroke="none"/><text fill="#000000" font-family="Arial" font-size="13px" font-style="normal" font-weight="normal" stroke="none" text-decoration="none" x="234.5" y="472.5">1</text></g></g><g transform="translate(-10,-10) scale(1,1)"><g><path fill="none" stroke="none"/><text fill="#000000" font-family="Arial" font-size="13px" font-style="normal" font-weight="normal" stroke="none" text-decoration="none" x="227.5" y="476.5">0..*</text></g></g></g></svg>