<?xml version="1.0" encoding="UTF-8" standalone="no"?><svg xmlns="http://www.w3.org/2000/svg" xmlns:xlink="http://www.w3.org/1999/xlink" height="693" version="1.1" width="605.412109375"><defs/><g><g transform="translate(-542,-166) scale(1,1)"><rect fill="#C0C0C0" height="117" opacity="0.2" stroke="none" width="193.412109375" x="951" y="351"/></g><g transform="translate(-542,-166) scale(1,1)"><rect fill="#ffffff" height="117" stroke="none" width="193.412109375" x="944" y="344"/></g><g transform="translate(-542,-166) scale(1,1)"><path d="M 944 344 L 1137.412109375 344 L 1137.412109375 461 L 944 461 L 944 344 Z Z" fill="none" stroke="#000000" stroke-miterlimit="10"/></g><g transform="translate(-542,-166) scale(1,1)"><path d="M 944 369 L 1137.412109375 369" fill="none" stroke="#000000" stroke-miterlimit="10"/></g><g transform="translate(-542,-166) scale(1,1)"><path d="M 944 392 L 1137.412109375 392" fill="none" stroke="#000000" stroke-miterlimit="10"/></g><g transform="translate(-542,-166) scale(1,1)"><g><path fill="none" stroke="none"/><text fill="#000000" font-family="Arial" font-size="13px" font-style="normal" font-weight="bold" stroke="none" text-decoration="none" x="1029.505615234375" y="363.5">Site</text></g></g><g transform="translate(-542,-166) scale(1,1)"><g><path fill="none" stroke="none"/><text fill="#000000" font-family="Arial" font-size="13px" font-style="normal" font-weight="normal" stroke="none" text-decoration="none" x="949" y="386.5">+dateEstablished: Date</text></g></g><g transform="translate(-542,-166) scale(1,1)"><rect fill="#C0C0C0" height="162" opacity="0.2" stroke="none" width="167.60888671875" x="591" y="335"/></g><g transform="translate(-542,-166) scale(1,1)"><rect fill="#ffffff" height="162" stroke="none" width="167.60888671875" x="584" y="328"/></g><g transform="translate(-542,-166) scale(1,1)"><path d="M 584 328 L 751.60888671875 328 L 751.60888671875 490 L 584 490 L 584 328 Z Z" fill="none" stroke="#000000" stroke-miterlimit="10"/></g><g transform="translate(-542,-166) scale(1,1)"><path d="M 584 353 L 751.60888671875 353" fill="none" stroke="#000000" stroke-miterlimit="10"/></g><g transform="translate(-542,-166) scale(1,1)"><path d="M 584 436 L 751.60888671875 436" fill="none" stroke="#000000" stroke-miterlimit="10"/></g><g transform="translate(-542,-166) scale(1,1)"><g><path fill="none" stroke="none"/><text fill="#000000" font-family="Arial" font-size="13px" font-style="normal" font-weight="bold" stroke="none" text-decoration="none" x="644.44189453125" y="347.5">SiteVisit</text></g></g><g transform="translate(-542,-166) scale(1,1)"><g><path fill="none" stroke="none"/><text fill="#000000" font-family="Arial" font-size="13px" font-style="normal" font-weight="normal" stroke="none" text-decoration="none" x="589" y="370.5">+siteDescription: String</text></g></g><g transform="translate(-542,-166) scale(1,1)"><g><path fill="none" stroke="none"/><text fill="#000000" font-family="Arial" font-size="13px" font-style="normal" font-weight="normal" stroke="none" text-decoration="none" x="589" y="385.5">+locationDescription: String</text></g></g><g transform="translate(-542,-166) scale(1,1)"><g><path fill="none" stroke="none"/><text fill="#000000" font-family="Arial" font-size="13px" font-style="normal" font-weight="normal" stroke="none" text-decoration="none" x="589" y="400.5">+site: Site[1]</text></g></g><g transform="translate(-542,-166) scale(1,1)"><g><path fill="none" stroke="none"/><text fill="#000000" font-family="Arial" font-size="13px" font-style="normal" font-weight="normal" stroke="none" text-decoration="none" x="589" y="415.5">+startedAtTime: DateTime</text></g></g><g transform="translate(-542,-166) scale(1,1)"><g><path fill="none" stroke="none"/><text fill="#000000" font-family="Arial" font-size="13px" font-style="normal" font-weight="normal" stroke="none" text-decoration="none" x="589" y="430.5">+endedAtTime: DateTime</text></g></g><g transform="translate(-542,-166) scale(1,1)"><path d="M 943 404 L 753 407" fill="none" stroke="#000000" stroke-miterlimit="10"/></g><g transform="translate(-542,-166) scale(1,1)"><g><path fill="none" stroke="none"/><text fill="#000000" font-family="Arial" font-size="13px" font-style="normal" font-weight="normal" stroke="none" text-decoration="none" x="917.5" y="397.5">1</text></g></g><g transform="translate(-542,-166) scale(1,1)"><g><path fill="none" stroke="none"/><text fill="#000000" font-family="Arial" font-size="13px" font-style="normal" font-weight="normal" stroke="none" text-decoration="none" x="765.5" y="427.5">+site</text></g></g><g transform="translate(-542,-166) scale(1,1)"><g><path fill="none" stroke="none"/><text fill="#000000" font-family="Arial" font-size="13px" font-style="normal" font-weight="normal" stroke="none" text-decoration="none" x="764.5" y="400.5">0..*</text></g></g><g transform="translate(-542,-166) scale(1,1)"><rect fill="#C0C0C0" height="87" opacity="0.2" stroke="none" width="186.1884765625" x="759" y="183"/></g><g transform="translate(-542,-166) scale(1,1)"><rect fill="#ffffff" height="87" stroke="none" width="186.1884765625" x="752" y="176"/></g><g transform="translate(-542,-166) scale(1,1)"><path d="M 752 176 L 938.1884765625 176 L 938.1884765625 263 L 752 263 L 752 176 Z Z" fill="none" stroke="#000000" stroke-miterlimit="10"/></g><g transform="translate(-542,-166) scale(1,1)"><path d="M 752 201 L 938.1884765625 201" fill="none" stroke="#000000" stroke-miterlimit="10"/></g><g transform="translate(-542,-166) scale(1,1)"><path d="M 752 254 L 938.1884765625 254" fill="none" stroke="#000000" stroke-miterlimit="10"/></g><g transform="translate(-542,-166) scale(1,1)"><g><path fill="none" stroke="none"/><text fill="#000000" font-family="Arial" font-size="13px" font-style="italic" font-weight="bold" stroke="none" text-decoration="none" x="830.27880859375" y="195.5">Base</text></g></g><g transform="translate(-542,-166) scale(1,1)"><g><path fill="none" stroke="none"/><text fill="#000000" font-family="Arial" font-size="13px" font-style="normal" font-weight="normal" stroke="none" text-decoration="none" x="757" y="218.5">+id {id, readOnly, unique}</text></g></g><g transform="translate(-542,-166) scale(1,1)"><g><path fill="none" stroke="none"/><text fill="#000000" font-family="Arial" font-size="13px" font-style="normal" font-weight="normal" stroke="none" text-decoration="none" x="757" y="233.5">+name: String</text></g></g><g transform="translate(-542,-166) scale(1,1)"><g><path fill="none" stroke="none"/><text fill="#000000" font-family="Arial" font-size="13px" font-style="normal" font-weight="normal" stroke="none" text-decoration="none" x="757" y="248.5">+description: String</text></g></g><g transform="translate(-542,-166) scale(1,1)"><path d="M 1006 343 Q 984 304 919 264" fill="none" stroke="#000000" stroke-miterlimit="10"/></g><g transform="translate(-542,-166) scale(1,1)"><path d="M 940.7226479633521 267.48232184903605 L 919 264 L 931.897858286487 281.8226050739419" fill="#FFFFFF" stroke="none"/></g><g transform="translate(-542,-166) scale(1,1)"><path d="M 940.7226479633521 267.48232184903605 L 919 264 L 931.897858286487 281.8226050739419 L 940.7226479633521 267.48232184903605" fill="none" stroke="#000000" stroke-miterlimit="10"/></g><g transform="translate(-542,-166) scale(1,1)"><path d="M 744 327 L 803 264" fill="none" stroke="#000000" stroke-miterlimit="10"/></g><g transform="translate(-542,-166) scale(1,1)"><path d="M 795.251533000941 284.5903195498393 L 803 264 L 782.9614518606759 273.0805610216545" fill="#FFFFFF" stroke="none"/></g><g transform="translate(-542,-166) scale(1,1)"><path d="M 795.251533000941 284.5903195498393 L 803 264 L 782.9614518606759 273.0805610216545 L 795.251533000941 284.5903195498393" fill="none" stroke="#000000" stroke-miterlimit="10"/></g><g transform="translate(-542,-166) scale(1,1)"><rect fill="#C0C0C0" height="177" opacity="0.2" stroke="none" width="153.16796875" x="791" y="679"/></g><g transform="translate(-542,-166) scale(1,1)"><rect fill="#ffffff" height="177" stroke="none" width="153.16796875" x="784" y="672"/></g><g transform="translate(-542,-166) scale(1,1)"><path d="M 784 672 L 937.16796875 672 L 937.16796875 849 L 784 849 L 784 672 Z Z" fill="none" stroke="#000000" stroke-miterlimit="10"/></g><g transform="translate(-542,-166) scale(1,1)"><path d="M 784 697 L 937.16796875 697" fill="none" stroke="#000000" stroke-miterlimit="10"/></g><g transform="translate(-542,-166) scale(1,1)"><path d="M 784 825 L 937.16796875 825" fill="none" stroke="#000000" stroke-miterlimit="10"/></g><g transform="translate(-542,-166) scale(1,1)"><g><path fill="none" stroke="none"/><text fill="#000000" font-family="Arial" font-size="13px" font-style="normal" font-weight="bold" stroke="none" text-decoration="none" x="825.53857421875" y="691.5">Observation</text></g></g><g transform="translate(-542,-166) scale(1,1)"><g><path fill="none" stroke="none"/><text fill="#000000" font-family="Arial" font-size="13px" font-style="normal" font-weight="normal" stroke="none" text-decoration="none" x="789" y="714.5">+phenomenonTime</text></g></g><g transform="translate(-542,-166) scale(1,1)"><g><path fill="none" stroke="none"/><text fill="#000000" font-family="Arial" font-size="13px" font-style="normal" font-weight="normal" stroke="none" text-decoration="none" x="789" y="729.5">+resultTime: DateTime</text></g></g><g transform="translate(-542,-166) scale(1,1)"><g><path fill="none" stroke="none"/><text fill="#000000" font-family="Arial" font-size="13px" font-style="normal" font-weight="normal" stroke="none" text-decoration="none" x="789" y="744.5">+validTime: DateTime</text></g></g><g transform="translate(-542,-166) scale(1,1)"><g><path fill="none" stroke="none"/><text fill="#000000" font-family="Arial" font-size="13px" font-style="normal" font-weight="normal" stroke="none" text-decoration="none" x="789" y="759.5">+featureOfInterest</text></g></g><g transform="translate(-542,-166) scale(1,1)"><g><path fill="none" stroke="none"/><text fill="#000000" font-family="Arial" font-size="13px" font-style="normal" font-weight="normal" stroke="none" text-decoration="none" x="789" y="774.5">+parameter: String</text></g></g><g transform="translate(-542,-166) scale(1,1)"><g><path fill="none" stroke="none"/><text fill="#000000" font-family="Arial" font-size="13px" font-style="normal" font-weight="normal" stroke="none" text-decoration="none" x="789" y="789.5">+procedure: String</text></g></g><g transform="translate(-542,-166) scale(1,1)"><g><path fill="none" stroke="none"/><text fill="#000000" font-family="Arial" font-size="13px" font-style="normal" font-weight="normal" stroke="none" text-decoration="none" x="789" y="804.5">+result: String</text></g></g><g transform="translate(-542,-166) scale(1,1)"><g><path fill="none" stroke="none"/><text fill="#000000" font-family="Arial" font-size="13px" font-style="normal" font-weight="normal" stroke="none" text-decoration="none" x="789" y="819.5">+siteVisit: SiteVisit</text></g></g><g transform="translate(-542,-166) scale(1,1)"><path d="M 783 721 Q 656 656 663 491" fill="none" stroke="#000000" stroke-miterlimit="10"/></g><g transform="translate(-542,-166) scale(1,1)"><g><path fill="none" stroke="none"/><text fill="#000000" font-family="Arial" font-size="13px" font-style="normal" font-weight="normal" stroke="none" text-decoration="none" x="615.337890625" y="661.5">+siteVisit</text></g></g><g transform="translate(-542,-166) scale(1,1)"><g><path fill="none" stroke="none"/><text fill="#000000" font-family="Arial" font-size="13px" font-style="normal" font-weight="normal" stroke="none" text-decoration="none" x="759.5" y="706.5">0..*</text></g></g><g transform="translate(-542,-166) scale(1,1)"><g><path fill="none" stroke="none"/><text fill="#000000" font-family="Arial" font-size="13px" font-style="normal" font-weight="normal" stroke="none" text-decoration="none" x="670.641357421875" y="519.5">1</text></g></g><g transform="translate(-542,-166) scale(1,1)"><path d="M 938 671 Q 1008 592 1030 462" fill="none" stroke="#000000" stroke-miterlimit="10"/></g><g transform="translate(-542,-166) scale(1,1)"><g><path fill="none" stroke="none"/><text fill="#000000" font-family="Arial" font-size="13px" font-style="normal" font-weight="normal" stroke="none" text-decoration="none" x="951.5" y="669.5">0..*</text></g></g><g transform="translate(-542,-166) scale(1,1)"><g><path fill="none" stroke="none"/><text fill="#000000" font-family="Arial" font-size="13px" font-style="normal" font-weight="normal" stroke="none" text-decoration="none" x="1034.641357421875" y="491.5">1</text></g></g><g transform="translate(-542,-166) scale(1,1)"><rect fill="#C0C0C0" height="57" opacity="0.2" stroke="none" width="224.7060546875" x="559" y="735"/></g><g transform="translate(-542,-166) scale(1,1)"><rect fill="#ffffff" height="57" stroke="none" width="224.7060546875" x="552" y="728"/></g><g transform="translate(-542,-166) scale(1,1)"><path d="M 552 728 L 776.7060546875 728 L 776.7060546875 785 L 552 785 L 552 728 Z Z" fill="none" stroke="#000000" stroke-miterlimit="10"/></g><g transform="translate(-542,-166) scale(1,1)"><path d="M 552 753 L 776.7060546875 753" fill="none" stroke="#000000" stroke-miterlimit="10"/></g><g transform="translate(-542,-166) scale(1,1)"><path d="M 552 776 L 776.7060546875 776" fill="none" stroke="#000000" stroke-miterlimit="10"/></g><g transform="translate(-542,-166) scale(1,1)"><g><path fill="none" stroke="none"/><text fill="#000000" font-family="Arial" font-size="13px" font-style="normal" font-weight="bold" stroke="none" text-decoration="none" x="631.113525390625" y="747.5">SoilFeature</text></g></g><g transform="translate(-542,-166) scale(1,1)"><g><path fill="none" stroke="none"/><text fill="#000000" font-family="Arial" font-size="13px" font-style="normal" font-weight="normal" stroke="none" text-decoration="none" x="557" y="770.5">+soilDepth: QuantitativeRange[0..1]</text></g></g></g></svg>