<?xml version="1.0" encoding="UTF-8" standalone="no"?><svg xmlns="http://www.w3.org/2000/svg" xmlns:xlink="http://www.w3.org/1999/xlink" height="176" version="1.1" width="228.25439453125"><defs/><g><g transform="translate(-934,-430) scale(1,1)"><rect fill="#C0C0C0" height="44" opacity="0.2" stroke="none" width="160.05712890625" x="951" y="559"/></g><g transform="translate(-934,-430) scale(1,1)"><rect fill="#ffffff" height="44" stroke="none" width="160.05712890625" x="944" y="552"/></g><g transform="translate(-934,-430) scale(1,1)"><path d="M 944 552 L 1104.05712890625 552 L 1104.05712890625 596 L 944 596 L 944 552 Z Z" fill="none" stroke="#000000" stroke-miterlimit="10"/></g><g transform="translate(-934,-430) scale(1,1)"><path d="M 944 577 L 1104.05712890625 577" fill="none" stroke="#000000" stroke-miterlimit="10"/></g><g transform="translate(-934,-430) scale(1,1)"><path d="M 944 587 L 1104.05712890625 587" fill="none" stroke="#000000" stroke-miterlimit="10"/></g><g transform="translate(-934,-430) scale(1,1)"><g><path fill="none" stroke="none"/><text fill="#000000" font-family="Arial" font-size="13px" font-style="normal" font-weight="bold" stroke="none" text-decoration="none" x="970.9208984375" y="571.5">PhysicalSpecimen</text></g></g><g transform="translate(-934,-430) scale(1,1)"><rect fill="#C0C0C0" height="102" opacity="0.2" stroke="none" width="176.25439453125" x="983" y="447"/></g><g transform="translate(-934,-430) scale(1,1)"><rect fill="#ffffff" height="102" stroke="none" width="176.25439453125" x="976" y="440"/></g><g transform="translate(-934,-430) scale(1,1)"><path d="M 976 440 L 1152.25439453125 440 L 1152.25439453125 542 L 976 542 L 976 440 Z Z" fill="none" stroke="#000000" stroke-miterlimit="10"/></g><g transform="translate(-934,-430) scale(1,1)"><path d="M 976 465 L 1152.25439453125 465" fill="none" stroke="#000000" stroke-miterlimit="10"/></g><g transform="translate(-934,-430) scale(1,1)"><path d="M 976 503 L 1152.25439453125 503" fill="none" stroke="#000000" stroke-miterlimit="10"/></g><g transform="translate(-934,-430) scale(1,1)"><g><path fill="none" stroke="none"/><text fill="#000000" font-family="Arial" font-size="13px" font-style="normal" font-weight="bold" stroke="none" text-decoration="none" x="1042.088134765625" y="459.5">Sample</text></g></g><g transform="translate(-934,-430) scale(1,1)"><g><path fill="none" stroke="none"/><text fill="#000000" font-family="Arial" font-size="13px" font-style="normal" font-weight="normal" stroke="none" text-decoration="none" x="981" y="482.5">+identifier</text></g></g><g transform="translate(-934,-430) scale(1,1)"><g><path fill="none" stroke="none"/><text fill="#000000" font-family="Arial" font-size="13px" font-style="normal" font-weight="normal" stroke="none" text-decoration="none" x="981" y="497.5">+isPartOf: Dataset</text></g></g><g transform="translate(-934,-430) scale(1,1)"><path d="M 1035 551 L 1039 543" fill="none" stroke="#000000" stroke-miterlimit="10"/></g><g transform="translate(-934,-430) scale(1,1)"><path d="M 1037.440441558005 564.9446525938781 L 1039 543 L 1022.3800129900944 557.4144383099228" fill="#FFFFFF" stroke="none"/></g><g transform="translate(-934,-430) scale(1,1)"><path d="M 1037.440441558005 564.9446525938781 L 1039 543 L 1022.3800129900944 557.4144383099228 L 1037.440441558005 564.9446525938781" fill="none" stroke="#000000" stroke-miterlimit="10"/></g></g></svg>