<?xml version="1.0" encoding="UTF-8" standalone="no"?><svg xmlns="http://www.w3.org/2000/svg" xmlns:xlink="http://www.w3.org/1999/xlink" height="176" version="1.1" width="180.05712890625"><defs/><g><g transform="translate(-934,-430) scale(1,1)"><rect fill="#C0C0C0" height="44" opacity="0.2" stroke="none" width="160.05712890625" x="951" y="559"/></g><g transform="translate(-934,-430) scale(1,1)"><rect fill="#ffffff" height="44" stroke="none" width="160.05712890625" x="944" y="552"/></g><g transform="translate(-934,-430) scale(1,1)"><path d="M 944 552 L 1104.05712890625 552 L 1104.05712890625 596 L 944 596 L 944 552 Z Z" fill="none" stroke="#000000" stroke-miterlimit="10"/></g><g transform="translate(-934,-430) scale(1,1)"><path d="M 944 577 L 1104.05712890625 577" fill="none" stroke="#000000" stroke-miterlimit="10"/></g><g transform="translate(-934,-430) scale(1,1)"><path d="M 944 587 L 1104.05712890625 587" fill="none" stroke="#000000" stroke-miterlimit="10"/></g><g transform="translate(-934,-430) scale(1,1)"><g><path fill="none" stroke="none"/><text fill="#000000" font-family="Arial" font-size="13px" font-style="normal" font-weight="bold" stroke="none" text-decoration="none" x="957.91455078125" y="571.5">tern:PhysicalSpecimen</text></g></g><g transform="translate(-934,-430) scale(1,1)"><rect fill="#C0C0C0" height="87" opacity="0.2" stroke="none" width="115.57080078125" x="983" y="447"/></g><g transform="translate(-934,-430) scale(1,1)"><rect fill="#ffffff" height="87" stroke="none" width="115.57080078125" x="976" y="440"/></g><g transform="translate(-934,-430) scale(1,1)"><path d="M 976 440 L 1091.57080078125 440 L 1091.57080078125 527 L 976 527 L 976 440 Z Z" fill="none" stroke="#000000" stroke-miterlimit="10"/></g><g transform="translate(-934,-430) scale(1,1)"><path d="M 976 465 L 1091.57080078125 465" fill="none" stroke="#000000" stroke-miterlimit="10"/></g><g transform="translate(-934,-430) scale(1,1)"><path d="M 976 518 L 1091.57080078125 518" fill="none" stroke="#000000" stroke-miterlimit="10"/></g><g transform="translate(-934,-430) scale(1,1)"><g><path fill="none" stroke="none"/><text fill="#000000" font-family="Arial" font-size="13px" font-style="normal" font-weight="bold" stroke="none" text-decoration="none" x="998.739990234375" y="459.5">tern:Sample</text></g></g><g transform="translate(-934,-430) scale(1,1)"><g><path fill="none" stroke="none"/><text fill="#000000" font-family="Arial" font-size="13px" font-style="normal" font-weight="normal" stroke="none" text-decoration="none" x="981" y="482.5">+dcterms:identifier</text></g></g><g transform="translate(-934,-430) scale(1,1)"><g><path fill="none" stroke="none"/><text fill="#000000" font-family="Arial" font-size="13px" font-style="normal" font-weight="normal" stroke="none" text-decoration="none" x="981" y="497.5">+sosa:hasSample</text></g></g><g transform="translate(-934,-430) scale(1,1)"><g><path fill="none" stroke="none"/><text fill="#000000" font-family="Arial" font-size="13px" font-style="normal" font-weight="normal" stroke="none" text-decoration="none" x="981" y="512.5">+sosa:isSampleOf</text></g></g><g transform="translate(-934,-430) scale(1,1)"><path d="M 1026 551 L 1029 528" fill="none" stroke="#000000" stroke-miterlimit="10"/></g><g transform="translate(-934,-430) scale(1,1)"><path d="M 1034.71945492746 549.2435363189078 L 1029 528 L 1018.0228167764154 547.0657139513802" fill="#FFFFFF" stroke="none"/></g><g transform="translate(-934,-430) scale(1,1)"><path d="M 1034.71945492746 549.2435363189078 L 1029 528 L 1018.0228167764154 547.0657139513802 L 1034.71945492746 549.2435363189078" fill="none" stroke="#000000" stroke-miterlimit="10"/></g></g></svg>