<?xml version="1.0" encoding="UTF-8" standalone="no"?><svg xmlns="http://www.w3.org/2000/svg" xmlns:xlink="http://www.w3.org/1999/xlink" height="570" version="1.1" width="966.50341796875"><defs/><g><g transform="translate(-280,-169) scale(1,1)"><rect fill="#C0C0C0" height="117" opacity="0.2" stroke="none" width="115.57080078125" x="297" y="506"/></g><g transform="translate(-280,-169) scale(1,1)"><rect fill="#ffffff" height="117" stroke="none" width="115.57080078125" x="290" y="499"/></g><g transform="translate(-280,-169) scale(1,1)"><path d="M 290 499 L 405.57080078125 499 L 405.57080078125 616 L 290 616 L 290 499 Z Z" fill="none" stroke="#000000" stroke-miterlimit="10"/></g><g transform="translate(-280,-169) scale(1,1)"><path d="M 290 524 L 405.57080078125 524" fill="none" stroke="#000000" stroke-miterlimit="10"/></g><g transform="translate(-280,-169) scale(1,1)"><path d="M 290 562 L 405.57080078125 562" fill="none" stroke="#000000" stroke-miterlimit="10"/></g><g transform="translate(-280,-169) scale(1,1)"><g><path fill="none" stroke="none"/><text fill="#000000" font-family="Arial" font-size="13px" font-style="normal" font-weight="bold" stroke="none" text-decoration="none" x="336.5849609375" y="518.5">Site</text></g></g><g transform="translate(-280,-169) scale(1,1)"><g><path fill="none" stroke="none"/><text fill="#000000" font-family="Arial" font-size="13px" font-style="normal" font-weight="normal" stroke="none" text-decoration="none" x="295" y="541.5">+identifier</text></g></g><g transform="translate(-280,-169) scale(1,1)"><g><path fill="none" stroke="none"/><text fill="#000000" font-family="Arial" font-size="13px" font-style="normal" font-weight="normal" stroke="none" text-decoration="none" x="295" y="556.5">+isPartOf: Dataset</text></g></g><g transform="translate(-280,-169) scale(1,1)"><rect fill="#C0C0C0" height="102" opacity="0.2" stroke="none" width="115.57080078125" x="593" y="186"/></g><g transform="translate(-280,-169) scale(1,1)"><rect fill="#ffffff" height="102" stroke="none" width="115.57080078125" x="586" y="179"/></g><g transform="translate(-280,-169) scale(1,1)"><path d="M 586 179 L 701.57080078125 179 L 701.57080078125 281 L 586 281 L 586 179 Z Z" fill="none" stroke="#000000" stroke-miterlimit="10"/></g><g transform="translate(-280,-169) scale(1,1)"><path d="M 586 204 L 701.57080078125 204" fill="none" stroke="#000000" stroke-miterlimit="10"/></g><g transform="translate(-280,-169) scale(1,1)"><path d="M 586 242 L 701.57080078125 242" fill="none" stroke="#000000" stroke-miterlimit="10"/></g><g transform="translate(-280,-169) scale(1,1)"><g><path fill="none" stroke="none"/><text fill="#000000" font-family="Arial" font-size="13px" font-style="normal" font-weight="bold" stroke="none" text-decoration="none" x="620.4228515625" y="198.5">SiteVisit</text></g></g><g transform="translate(-280,-169) scale(1,1)"><g><path fill="none" stroke="none"/><text fill="#000000" font-family="Arial" font-size="13px" font-style="normal" font-weight="normal" stroke="none" text-decoration="none" x="591" y="221.5">+identifier</text></g></g><g transform="translate(-280,-169) scale(1,1)"><g><path fill="none" stroke="none"/><text fill="#000000" font-family="Arial" font-size="13px" font-style="normal" font-weight="normal" stroke="none" text-decoration="none" x="591" y="236.5">+isPartOf: Dataset</text></g></g><g transform="translate(-280,-169) scale(1,1)"><path d="M 400 498 L 596 282" fill="none" stroke="#000000" stroke-miterlimit="10"/></g><g transform="translate(-280,-169) scale(1,1)"><g><path fill="none" stroke="none"/><text fill="#000000" font-family="Arial" font-size="13px" font-style="normal" font-weight="normal" stroke="none" text-decoration="none" x="392.50634765625" y="474.5">+site</text></g></g><g transform="translate(-280,-169) scale(1,1)"><g><path fill="none" stroke="none"/><text fill="#000000" font-family="Arial" font-size="13px" font-style="normal" font-weight="normal" stroke="none" text-decoration="none" x="419.5" y="496.5">1</text></g></g><g transform="translate(-280,-169) scale(1,1)"><g><path fill="none" stroke="none"/><text fill="#000000" font-family="Arial" font-size="13px" font-style="normal" font-weight="normal" stroke="none" text-decoration="none" x="505.50634765625" y="299.5">+siteVisit</text></g></g><g transform="translate(-280,-169) scale(1,1)"><g><path fill="none" stroke="none"/><text fill="#000000" font-family="Arial" font-size="13px" font-style="normal" font-weight="normal" stroke="none" text-decoration="none" x="580.5" y="312.5">0..*</text></g></g><g transform="translate(-280,-169) scale(1,1)"><rect fill="#C0C0C0" height="102" opacity="0.2" stroke="none" width="176.25439453125" x="905" y="634"/></g><g transform="translate(-280,-169) scale(1,1)"><rect fill="#ffffff" height="102" stroke="none" width="176.25439453125" x="898" y="627"/></g><g transform="translate(-280,-169) scale(1,1)"><path d="M 898 627 L 1074.25439453125 627 L 1074.25439453125 729 L 898 729 L 898 627 Z Z" fill="none" stroke="#000000" stroke-miterlimit="10"/></g><g transform="translate(-280,-169) scale(1,1)"><path d="M 898 652 L 1074.25439453125 652" fill="none" stroke="#000000" stroke-miterlimit="10"/></g><g transform="translate(-280,-169) scale(1,1)"><path d="M 898 690 L 1074.25439453125 690" fill="none" stroke="#000000" stroke-miterlimit="10"/></g><g transform="translate(-280,-169) scale(1,1)"><g><path fill="none" stroke="none"/><text fill="#000000" font-family="Arial" font-size="13px" font-style="normal" font-weight="bold" stroke="none" text-decoration="none" x="964.088134765625" y="646.5">Sample</text></g></g><g transform="translate(-280,-169) scale(1,1)"><g><path fill="none" stroke="none"/><text fill="#000000" font-family="Arial" font-size="13px" font-style="normal" font-weight="normal" stroke="none" text-decoration="none" x="903" y="669.5">+identifier</text></g></g><g transform="translate(-280,-169) scale(1,1)"><g><path fill="none" stroke="none"/><text fill="#000000" font-family="Arial" font-size="13px" font-style="normal" font-weight="normal" stroke="none" text-decoration="none" x="903" y="684.5">+isPartOf: Dataset</text></g></g><g transform="translate(-280,-169) scale(1,1)"><rect fill="#C0C0C0" height="222" opacity="0.2" stroke="none" width="170.50341796875" x="1073" y="250"/></g><g transform="translate(-280,-169) scale(1,1)"><rect fill="#ffffff" height="222" stroke="none" width="170.50341796875" x="1066" y="243"/></g><g transform="translate(-280,-169) scale(1,1)"><path d="M 1066 243 L 1236.50341796875 243 L 1236.50341796875 465 L 1066 465 L 1066 243 Z Z" fill="none" stroke="#000000" stroke-miterlimit="10"/></g><g transform="translate(-280,-169) scale(1,1)"><path d="M 1066 268 L 1236.50341796875 268" fill="none" stroke="#000000" stroke-miterlimit="10"/></g><g transform="translate(-280,-169) scale(1,1)"><path d="M 1066 366 L 1236.50341796875 366" fill="none" stroke="#000000" stroke-miterlimit="10"/></g><g transform="translate(-280,-169) scale(1,1)"><g><path fill="none" stroke="none"/><text fill="#000000" font-family="Arial" font-size="13px" font-style="normal" font-weight="bold" stroke="none" text-decoration="none" x="1116.206298828125" y="262.5">Observation</text></g></g><g transform="translate(-280,-169) scale(1,1)"><g><path fill="none" stroke="none"/><text fill="#000000" font-family="Arial" font-size="13px" font-style="normal" font-weight="normal" stroke="none" text-decoration="none" x="1071" y="285.5">+site: Site</text></g></g><g transform="translate(-280,-169) scale(1,1)"><g><path fill="none" stroke="none"/><text fill="#000000" font-family="Arial" font-size="13px" font-style="normal" font-weight="normal" stroke="none" text-decoration="none" x="1071" y="300.5">+siteVisit: SiteVisit</text></g></g><g transform="translate(-280,-169) scale(1,1)"><g><path fill="none" stroke="none"/><text fill="#000000" font-family="Arial" font-size="13px" font-style="normal" font-weight="normal" stroke="none" text-decoration="none" x="1071" y="315.5">+phenomenonTime</text></g></g><g transform="translate(-280,-169) scale(1,1)"><g><path fill="none" stroke="none"/><text fill="#000000" font-family="Arial" font-size="13px" font-style="normal" font-weight="normal" stroke="none" text-decoration="none" x="1071" y="330.5">+resultTime</text></g></g><g transform="translate(-280,-169) scale(1,1)"><g><path fill="none" stroke="none"/><text fill="#000000" font-family="Arial" font-size="13px" font-style="normal" font-weight="normal" stroke="none" text-decoration="none" x="1071" y="345.5">+hasResult: Result</text></g></g><g transform="translate(-280,-169) scale(1,1)"><g><path fill="none" stroke="none"/><text fill="#000000" font-family="Arial" font-size="13px" font-style="normal" font-weight="normal" stroke="none" text-decoration="none" x="1071" y="360.5">+isPartOf: Dataset</text></g></g><g transform="translate(-280,-169) scale(1,1)"><path d="M 703 245 L 1065 333" fill="none" stroke="#000000" stroke-miterlimit="10"/></g><g transform="translate(-280,-169) scale(1,1)"><g><path fill="none" stroke="none"/><text fill="#000000" font-family="Arial" font-size="13px" font-style="normal" font-weight="normal" stroke="none" text-decoration="none" x="743.371337890625" y="248.5">+isSubActivityOf</text></g></g><g transform="translate(-280,-169) scale(1,1)"><g><path fill="none" stroke="none"/><text fill="#000000" font-family="Arial" font-size="13px" font-style="normal" font-weight="normal" stroke="none" text-decoration="none" x="708.5" y="246.5">1</text></g></g><g transform="translate(-280,-169) scale(1,1)"><g><path fill="none" stroke="none"/><text fill="#000000" font-family="Arial" font-size="13px" font-style="normal" font-weight="normal" stroke="none" text-decoration="none" x="996.871337890625" y="318.5">+hasSubActivity</text></g></g><g transform="translate(-280,-169) scale(1,1)"><g><path fill="none" stroke="none"/><text fill="#000000" font-family="Arial" font-size="13px" font-style="normal" font-weight="normal" stroke="none" text-decoration="none" x="1031.5" y="346.5">0..*</text></g></g><g transform="translate(-280,-169) scale(1,1)"><path d="M 1094 466 L 1012 626" fill="none" stroke="#000000" stroke-miterlimit="10"/></g><g transform="translate(-280,-169) scale(1,1)"><path d="M 1012.8889125936909 615.0359754469092 L 1012 626 L 1020.3812922334672 618.8758200122946" fill="none" stroke="#000000" stroke-miterlimit="10"/></g><g transform="translate(-280,-169) scale(1,1)"><g><path fill="none" stroke="none"/><text fill="#000000" font-family="Arial" font-size="13px" font-style="normal" font-weight="normal" stroke="none" text-decoration="none" x="1001.035888671875" y="558.5">+hasFeatureOfInterest</text></g></g><g transform="translate(-280,-169) scale(1,1)"><path d="M 1094 466 L 1012 626" fill="none" stroke="#000000" stroke-miterlimit="10"/></g><g transform="translate(-280,-169) scale(1,1)"><path d="M 1012.8889125936909 615.0359754469092 L 1012 626 L 1020.3812922334672 618.8758200122946" fill="none" stroke="#000000" stroke-miterlimit="10"/></g><g transform="translate(-280,-169) scale(1,1)"><path d="M 1094 466 L 1012 626" fill="none" stroke="#000000" stroke-miterlimit="10"/></g><g transform="translate(-280,-169) scale(1,1)"><path d="M 1012.8889125936909 615.0359754469092 L 1012 626 L 1020.3812922334672 618.8758200122946" fill="none" stroke="#000000" stroke-miterlimit="10"/></g><g transform="translate(-280,-169) scale(1,1)"><g><path fill="none" stroke="none"/><text fill="#000000" font-family="Arial" font-size="13px" font-style="normal" font-weight="normal" stroke="none" text-decoration="none" x="1001.035888671875" y="558.5">+hasFeatureOfInterest</text></g></g><g transform="translate(-280,-169) scale(1,1)"><g><path fill="none" stroke="none"/><text fill="#000000" font-family="Arial" font-size="13px" font-style="normal" font-weight="normal" stroke="none" text-decoration="none" x="1030.5" y="615.5">1</text></g></g><g transform="translate(-280,-169) scale(1,1)"><path d="M 897 661 L 407 568" fill="none" stroke="#000000" stroke-miterlimit="10"/></g><g transform="translate(-280,-169) scale(1,1)"><g><path fill="none" stroke="none"/><text fill="#000000" font-family="Arial" font-size="13px" font-style="normal" font-weight="normal" stroke="none" text-decoration="none" x="832.035888671875" y="676.5">+hasSample</text></g></g><g transform="translate(-280,-169) scale(1,1)"><g><path fill="none" stroke="none"/><text fill="#000000" font-family="Arial" font-size="13px" font-style="normal" font-weight="normal" stroke="none" text-decoration="none" x="868.5" y="650.5">0..*</text></g></g><g transform="translate(-280,-169) scale(1,1)"><g><path fill="none" stroke="none"/><text fill="#000000" font-family="Arial" font-size="13px" font-style="normal" font-weight="normal" stroke="none" text-decoration="none" x="392.035888671875" y="593.5">+isSampleOf</text></g></g><g transform="translate(-280,-169) scale(1,1)"><g><path fill="none" stroke="none"/><text fill="#000000" font-family="Arial" font-size="13px" font-style="normal" font-weight="normal" stroke="none" text-decoration="none" x="426.5" y="565.5">1</text></g></g></g></svg>