<?xml version="1.0" encoding="UTF-8" standalone="no"?><svg xmlns="http://www.w3.org/2000/svg" xmlns:xlink="http://www.w3.org/1999/xlink" height="512" version="1.1" width="909.74267578125"><defs/><g><g transform="translate(-280,-169) scale(1,1)"><rect fill="#C0C0C0" height="117" opacity="0.2" stroke="none" width="115.57080078125" x="297" y="506"/></g><g transform="translate(-280,-169) scale(1,1)"><rect fill="#ffffff" height="117" stroke="none" width="115.57080078125" x="290" y="499"/></g><g transform="translate(-280,-169) scale(1,1)"><path d="M 290 499 L 405.57080078125 499 L 405.57080078125 616 L 290 616 L 290 499 Z Z" fill="none" stroke="#000000" stroke-miterlimit="10"/></g><g transform="translate(-280,-169) scale(1,1)"><path d="M 290 524 L 405.57080078125 524" fill="none" stroke="#000000" stroke-miterlimit="10"/></g><g transform="translate(-280,-169) scale(1,1)"><path d="M 290 607 L 405.57080078125 607" fill="none" stroke="#000000" stroke-miterlimit="10"/></g><g transform="translate(-280,-169) scale(1,1)"><g><path fill="none" stroke="none"/><text fill="#000000" font-family="Arial" font-size="13px" font-style="normal" font-weight="bold" stroke="none" text-decoration="none" x="323.57861328125" y="518.5">tern:Site</text></g></g><g transform="translate(-280,-169) scale(1,1)"><g><path fill="none" stroke="none"/><text fill="#000000" font-family="Arial" font-size="13px" font-style="normal" font-weight="normal" stroke="none" text-decoration="none" x="295" y="541.5">+dcterms:type</text></g></g><g transform="translate(-280,-169) scale(1,1)"><g><path fill="none" stroke="none"/><text fill="#000000" font-family="Arial" font-size="13px" font-style="normal" font-weight="normal" stroke="none" text-decoration="none" x="295" y="556.5">+dcterms:identifier</text></g></g><g transform="translate(-280,-169) scale(1,1)"><g><path fill="none" stroke="none"/><text fill="#000000" font-family="Arial" font-size="13px" font-style="normal" font-weight="normal" stroke="none" text-decoration="none" x="295" y="571.5">+tern:hasSubSite</text></g></g><g transform="translate(-280,-169) scale(1,1)"><g><path fill="none" stroke="none"/><text fill="#000000" font-family="Arial" font-size="13px" font-style="normal" font-weight="normal" stroke="none" text-decoration="none" x="295" y="586.5">+tern:isSubSiteOf</text></g></g><g transform="translate(-280,-169) scale(1,1)"><g><path fill="none" stroke="none"/><text fill="#000000" font-family="Arial" font-size="13px" font-style="normal" font-weight="normal" stroke="none" text-decoration="none" x="295" y="601.5">+tern:siteVisit</text></g></g><g transform="translate(-280,-169) scale(1,1)"><rect fill="#C0C0C0" height="102" opacity="0.2" stroke="none" width="115.57080078125" x="593" y="186"/></g><g transform="translate(-280,-169) scale(1,1)"><rect fill="#ffffff" height="102" stroke="none" width="115.57080078125" x="586" y="179"/></g><g transform="translate(-280,-169) scale(1,1)"><path d="M 586 179 L 701.57080078125 179 L 701.57080078125 281 L 586 281 L 586 179 Z Z" fill="none" stroke="#000000" stroke-miterlimit="10"/></g><g transform="translate(-280,-169) scale(1,1)"><path d="M 586 204 L 701.57080078125 204" fill="none" stroke="#000000" stroke-miterlimit="10"/></g><g transform="translate(-280,-169) scale(1,1)"><path d="M 586 272 L 701.57080078125 272" fill="none" stroke="#000000" stroke-miterlimit="10"/></g><g transform="translate(-280,-169) scale(1,1)"><g><path fill="none" stroke="none"/><text fill="#000000" font-family="Arial" font-size="13px" font-style="normal" font-weight="bold" stroke="none" text-decoration="none" x="607.41650390625" y="198.5">tern:SiteVisit</text></g></g><g transform="translate(-280,-169) scale(1,1)"><g><path fill="none" stroke="none"/><text fill="#000000" font-family="Arial" font-size="13px" font-style="normal" font-weight="normal" stroke="none" text-decoration="none" x="591" y="221.5">+dcterms:type</text></g></g><g transform="translate(-280,-169) scale(1,1)"><g><path fill="none" stroke="none"/><text fill="#000000" font-family="Arial" font-size="13px" font-style="normal" font-weight="normal" stroke="none" text-decoration="none" x="591" y="236.5">+dcterms:identifier</text></g></g><g transform="translate(-280,-169) scale(1,1)"><g><path fill="none" stroke="none"/><text fill="#000000" font-family="Arial" font-size="13px" font-style="normal" font-weight="normal" stroke="none" text-decoration="none" x="591" y="251.5">+dcterms:isPartOf</text></g></g><g transform="translate(-280,-169) scale(1,1)"><g><path fill="none" stroke="none"/><text fill="#000000" font-family="Arial" font-size="13px" font-style="normal" font-weight="normal" stroke="none" text-decoration="none" x="591" y="266.5">+tern:site</text></g></g><g transform="translate(-280,-169) scale(1,1)"><path d="M 400 498 L 596 282" fill="none" stroke="#000000" stroke-miterlimit="10"/></g><g transform="translate(-280,-169) scale(1,1)"><g><path fill="none" stroke="none"/><text fill="#000000" font-family="Arial" font-size="13px" font-style="normal" font-weight="normal" stroke="none" text-decoration="none" x="379.5" y="474.5">+tern:site</text></g></g><g transform="translate(-280,-169) scale(1,1)"><g><path fill="none" stroke="none"/><text fill="#000000" font-family="Arial" font-size="13px" font-style="normal" font-weight="normal" stroke="none" text-decoration="none" x="419.5" y="496.5">1</text></g></g><g transform="translate(-280,-169) scale(1,1)"><g><path fill="none" stroke="none"/><text fill="#000000" font-family="Arial" font-size="13px" font-style="normal" font-weight="normal" stroke="none" text-decoration="none" x="492.5" y="299.5">+tern:siteVisit</text></g></g><g transform="translate(-280,-169) scale(1,1)"><g><path fill="none" stroke="none"/><text fill="#000000" font-family="Arial" font-size="13px" font-style="normal" font-weight="normal" stroke="none" text-decoration="none" x="580.5" y="312.5">0..*</text></g></g><g transform="translate(-280,-169) scale(1,1)"><rect fill="#C0C0C0" height="87" opacity="0.2" stroke="none" width="115.57080078125" x="905" y="634"/></g><g transform="translate(-280,-169) scale(1,1)"><rect fill="#ffffff" height="87" stroke="none" width="115.57080078125" x="898" y="627"/></g><g transform="translate(-280,-169) scale(1,1)"><path d="M 898 627 L 1013.57080078125 627 L 1013.57080078125 714 L 898 714 L 898 627 Z Z" fill="none" stroke="#000000" stroke-miterlimit="10"/></g><g transform="translate(-280,-169) scale(1,1)"><path d="M 898 652 L 1013.57080078125 652" fill="none" stroke="#000000" stroke-miterlimit="10"/></g><g transform="translate(-280,-169) scale(1,1)"><path d="M 898 705 L 1013.57080078125 705" fill="none" stroke="#000000" stroke-miterlimit="10"/></g><g transform="translate(-280,-169) scale(1,1)"><g><path fill="none" stroke="none"/><text fill="#000000" font-family="Arial" font-size="13px" font-style="normal" font-weight="bold" stroke="none" text-decoration="none" x="920.739990234375" y="646.5">tern:Sample</text></g></g><g transform="translate(-280,-169) scale(1,1)"><g><path fill="none" stroke="none"/><text fill="#000000" font-family="Arial" font-size="13px" font-style="normal" font-weight="normal" stroke="none" text-decoration="none" x="903" y="669.5">+dcterms:identifier</text></g></g><g transform="translate(-280,-169) scale(1,1)"><g><path fill="none" stroke="none"/><text fill="#000000" font-family="Arial" font-size="13px" font-style="normal" font-weight="normal" stroke="none" text-decoration="none" x="903" y="684.5">+sosa:hasSample</text></g></g><g transform="translate(-280,-169) scale(1,1)"><g><path fill="none" stroke="none"/><text fill="#000000" font-family="Arial" font-size="13px" font-style="normal" font-weight="normal" stroke="none" text-decoration="none" x="903" y="699.5">+sosa:isSampleOf</text></g></g><g transform="translate(-280,-169) scale(1,1)"><rect fill="#C0C0C0" height="222" opacity="0.2" stroke="none" width="170.50341796875" x="1073" y="250"/></g><g transform="translate(-280,-169) scale(1,1)"><rect fill="#ffffff" height="222" stroke="none" width="170.50341796875" x="1066" y="243"/></g><g transform="translate(-280,-169) scale(1,1)"><path d="M 1066 243 L 1236.50341796875 243 L 1236.50341796875 465 L 1066 465 L 1066 243 Z Z" fill="none" stroke="#000000" stroke-miterlimit="10"/></g><g transform="translate(-280,-169) scale(1,1)"><path d="M 1066 268 L 1236.50341796875 268" fill="none" stroke="#000000" stroke-miterlimit="10"/></g><g transform="translate(-280,-169) scale(1,1)"><path d="M 1066 456 L 1236.50341796875 456" fill="none" stroke="#000000" stroke-miterlimit="10"/></g><g transform="translate(-280,-169) scale(1,1)"><g><path fill="none" stroke="none"/><text fill="#000000" font-family="Arial" font-size="13px" font-style="normal" font-weight="bold" stroke="none" text-decoration="none" x="1103.199951171875" y="262.5">tern:Observation</text></g></g><g transform="translate(-280,-169) scale(1,1)"><g><path fill="none" stroke="none"/><text fill="#000000" font-family="Arial" font-size="13px" font-style="normal" font-weight="normal" stroke="none" text-decoration="none" x="1071" y="285.5">+dcterms:type</text></g></g><g transform="translate(-280,-169) scale(1,1)"><g><path fill="none" stroke="none"/><text fill="#000000" font-family="Arial" font-size="13px" font-style="normal" font-weight="normal" stroke="none" text-decoration="none" x="1071" y="300.5">+sosa:hasFeatureOfInterest</text></g></g><g transform="translate(-280,-169) scale(1,1)"><g><path fill="none" stroke="none"/><text fill="#000000" font-family="Arial" font-size="13px" font-style="normal" font-weight="normal" stroke="none" text-decoration="none" x="1071" y="315.5">+dcterms:isPartOf</text></g></g><g transform="translate(-280,-169) scale(1,1)"><g><path fill="none" stroke="none"/><text fill="#000000" font-family="Arial" font-size="13px" font-style="normal" font-weight="normal" stroke="none" text-decoration="none" x="1071" y="330.5">+tern:site</text></g></g><g transform="translate(-280,-169) scale(1,1)"><g><path fill="none" stroke="none"/><text fill="#000000" font-family="Arial" font-size="13px" font-style="normal" font-weight="normal" stroke="none" text-decoration="none" x="1071" y="345.5">+tern:siteVisit</text></g></g><g transform="translate(-280,-169) scale(1,1)"><g><path fill="none" stroke="none"/><text fill="#000000" font-family="Arial" font-size="13px" font-style="normal" font-weight="normal" stroke="none" text-decoration="none" x="1071" y="360.5">+tern:domain</text></g></g><g transform="translate(-280,-169) scale(1,1)"><g><path fill="none" stroke="none"/><text fill="#000000" font-family="Arial" font-size="13px" font-style="normal" font-weight="normal" stroke="none" text-decoration="none" x="1071" y="375.5">+sosa:observedProperty</text></g></g><g transform="translate(-280,-169) scale(1,1)"><g><path fill="none" stroke="none"/><text fill="#000000" font-family="Arial" font-size="13px" font-style="normal" font-weight="normal" stroke="none" text-decoration="none" x="1071" y="390.5">+sosa:usedProcedure</text></g></g><g transform="translate(-280,-169) scale(1,1)"><g><path fill="none" stroke="none"/><text fill="#000000" font-family="Arial" font-size="13px" font-style="normal" font-weight="normal" stroke="none" text-decoration="none" x="1071" y="405.5">+sosa:hasResult</text></g></g><g transform="translate(-280,-169) scale(1,1)"><g><path fill="none" stroke="none"/><text fill="#000000" font-family="Arial" font-size="13px" font-style="normal" font-weight="normal" stroke="none" text-decoration="none" x="1071" y="420.5">+sosa:phenomenonTime</text></g></g><g transform="translate(-280,-169) scale(1,1)"><g><path fill="none" stroke="none"/><text fill="#000000" font-family="Arial" font-size="13px" font-style="normal" font-weight="normal" stroke="none" text-decoration="none" x="1071" y="435.5">+sosa:resultTime</text></g></g><g transform="translate(-280,-169) scale(1,1)"><g><path fill="none" stroke="none"/><text fill="#000000" font-family="Arial" font-size="13px" font-style="normal" font-weight="normal" stroke="none" text-decoration="none" x="1071" y="450.5">+tern:hasAttribute</text></g></g><g transform="translate(-280,-169) scale(1,1)"><path d="M 703 245 L 1065 333" fill="none" stroke="#000000" stroke-miterlimit="10"/></g><g transform="translate(-280,-169) scale(1,1)"><g><path fill="none" stroke="none"/><text fill="#000000" font-family="Arial" font-size="13px" font-style="normal" font-weight="normal" stroke="none" text-decoration="none" x="730.364990234375" y="248.5">+tern:isSubActivityOf</text></g></g><g transform="translate(-280,-169) scale(1,1)"><g><path fill="none" stroke="none"/><text fill="#000000" font-family="Arial" font-size="13px" font-style="normal" font-weight="normal" stroke="none" text-decoration="none" x="708.5" y="246.5">1</text></g></g><g transform="translate(-280,-169) scale(1,1)"><g><path fill="none" stroke="none"/><text fill="#000000" font-family="Arial" font-size="13px" font-style="normal" font-weight="normal" stroke="none" text-decoration="none" x="983.864990234375" y="318.5">+tern:hasSubActivity</text></g></g><g transform="translate(-280,-169) scale(1,1)"><g><path fill="none" stroke="none"/><text fill="#000000" font-family="Arial" font-size="13px" font-style="normal" font-weight="normal" stroke="none" text-decoration="none" x="1031.5" y="346.5">0..*</text></g></g><g transform="translate(-280,-169) scale(1,1)"><path d="M 1082 466 L 982 626" fill="none" stroke="#000000" stroke-miterlimit="10"/></g><g transform="translate(-280,-169) scale(1,1)"><path d="M 983.8165429843569 615.1510290079665 L 982 626 L 990.9558708199186 619.6131089051926" fill="none" stroke="#000000" stroke-miterlimit="10"/></g><g transform="translate(-280,-169) scale(1,1)"><g><path fill="none" stroke="none"/><text fill="#000000" font-family="Arial" font-size="13px" font-style="normal" font-weight="normal" stroke="none" text-decoration="none" x="963.5" y="559.5">+sosa:hasFeatureOfInterest</text></g></g><g transform="translate(-280,-169) scale(1,1)"><path d="M 1082 466 L 982 626" fill="none" stroke="#000000" stroke-miterlimit="10"/></g><g transform="translate(-280,-169) scale(1,1)"><path d="M 983.8165429843569 615.1510290079665 L 982 626 L 990.9558708199186 619.6131089051926" fill="none" stroke="#000000" stroke-miterlimit="10"/></g><g transform="translate(-280,-169) scale(1,1)"><path d="M 1082 466 L 982 626" fill="none" stroke="#000000" stroke-miterlimit="10"/></g><g transform="translate(-280,-169) scale(1,1)"><path d="M 983.8165429843569 615.1510290079665 L 982 626 L 990.9558708199186 619.6131089051926" fill="none" stroke="#000000" stroke-miterlimit="10"/></g><g transform="translate(-280,-169) scale(1,1)"><g><path fill="none" stroke="none"/><text fill="#000000" font-family="Arial" font-size="13px" font-style="normal" font-weight="normal" stroke="none" text-decoration="none" x="963.5" y="559.5">+sosa:hasFeatureOfInterest</text></g></g><g transform="translate(-280,-169) scale(1,1)"><g><path fill="none" stroke="none"/><text fill="#000000" font-family="Arial" font-size="13px" font-style="normal" font-weight="normal" stroke="none" text-decoration="none" x="1001.5" y="617.5">1</text></g></g><g transform="translate(-280,-169) scale(1,1)"><path d="M 897 659 L 407 568" fill="none" stroke="#000000" stroke-miterlimit="10"/></g><g transform="translate(-280,-169) scale(1,1)"><g><path fill="none" stroke="none"/><text fill="#000000" font-family="Arial" font-size="13px" font-style="normal" font-weight="normal" stroke="none" text-decoration="none" x="816.5" y="675.5">+sosa:hasSample</text></g></g><g transform="translate(-280,-169) scale(1,1)"><g><path fill="none" stroke="none"/><text fill="#000000" font-family="Arial" font-size="13px" font-style="normal" font-weight="normal" stroke="none" text-decoration="none" x="867.5" y="648.5">0..*</text></g></g><g transform="translate(-280,-169) scale(1,1)"><g><path fill="none" stroke="none"/><text fill="#000000" font-family="Arial" font-size="13px" font-style="normal" font-weight="normal" stroke="none" text-decoration="none" x="376.5" y="593.5">+sosa:isSampleOf</text></g></g><g transform="translate(-280,-169) scale(1,1)"><g><path fill="none" stroke="none"/><text fill="#000000" font-family="Arial" font-size="13px" font-style="normal" font-weight="normal" stroke="none" text-decoration="none" x="426.5" y="565.5">1</text></g></g></g></svg>