<?xml version="1.0" encoding="UTF-8" standalone="no"?><svg xmlns="http://www.w3.org/2000/svg" xmlns:xlink="http://www.w3.org/1999/xlink" height="570" version="1.1" width="966.50341796875"><defs/><g><g transform="translate(-280,-169) scale(1,1)"><rect fill="#C0C0C0" height="222" opacity="0.2" stroke="none" width="176.27978515625" x="297" y="506"/></g><g transform="translate(-280,-169) scale(1,1)"><rect fill="#ffffff" height="222" stroke="none" width="176.27978515625" x="290" y="499"/></g><g transform="translate(-280,-169) scale(1,1)"><path d="M 290 499 L 466.27978515625 499 L 466.27978515625 721 L 290 721 L 290 499 Z Z" fill="none" stroke="#000000" stroke-miterlimit="10"/></g><g transform="translate(-280,-169) scale(1,1)"><path d="M 290 524 L 466.27978515625 524" fill="none" stroke="#000000" stroke-miterlimit="10"/></g><g transform="translate(-280,-169) scale(1,1)"><path d="M 290 712 L 466.27978515625 712" fill="none" stroke="#000000" stroke-miterlimit="10"/></g><g transform="translate(-280,-169) scale(1,1)"><g><path fill="none" stroke="none"/><text fill="#000000" font-family="Arial" font-size="13px" font-style="normal" font-weight="bold" stroke="none" text-decoration="none" x="366.939453125" y="518.5">Site</text></g></g><g transform="translate(-280,-169) scale(1,1)"><g><path fill="none" stroke="none"/><text fill="#000000" font-family="Arial" font-size="13px" font-style="normal" font-weight="normal" stroke="none" text-decoration="none" x="295" y="541.5">+identifier: String</text></g></g><g transform="translate(-280,-169) scale(1,1)"><g><path fill="none" stroke="none"/><text fill="#000000" font-family="Arial" font-size="13px" font-style="normal" font-weight="normal" stroke="none" text-decoration="none" x="295" y="556.5">+siteName: String</text></g></g><g transform="translate(-280,-169) scale(1,1)"><g><path fill="none" stroke="none"/><text fill="#000000" font-family="Arial" font-size="13px" font-style="normal" font-weight="normal" stroke="none" text-decoration="none" x="295" y="571.5">+dateCommissioned: Date</text></g></g><g transform="translate(-280,-169) scale(1,1)"><g><path fill="none" stroke="none"/><text fill="#000000" font-family="Arial" font-size="13px" font-style="normal" font-weight="normal" stroke="none" text-decoration="none" x="295" y="586.5">+dateDecommissioned: Date</text></g></g><g transform="translate(-280,-169) scale(1,1)"><g><path fill="none" stroke="none"/><text fill="#000000" font-family="Arial" font-size="13px" font-style="normal" font-weight="normal" stroke="none" text-decoration="none" x="295" y="601.5">+locality: String</text></g></g><g transform="translate(-280,-169) scale(1,1)"><g><path fill="none" stroke="none"/><text fill="#000000" font-family="Arial" font-size="13px" font-style="normal" font-weight="normal" stroke="none" text-decoration="none" x="295" y="616.5">+region: IRI</text></g></g><g transform="translate(-280,-169) scale(1,1)"><g><path fill="none" stroke="none"/><text fill="#000000" font-family="Arial" font-size="13px" font-style="normal" font-weight="normal" stroke="none" text-decoration="none" x="295" y="631.5">+permanent: Boolean</text></g></g><g transform="translate(-280,-169) scale(1,1)"><g><path fill="none" stroke="none"/><text fill="#000000" font-family="Arial" font-size="13px" font-style="normal" font-weight="normal" stroke="none" text-decoration="none" x="295" y="646.5">+notes: String</text></g></g><g transform="translate(-280,-169) scale(1,1)"><g><path fill="none" stroke="none"/><text fill="#000000" font-family="Arial" font-size="13px" font-style="normal" font-weight="normal" stroke="none" text-decoration="none" x="295" y="661.5">+placementMethod[0..1]</text></g></g><g transform="translate(-280,-169) scale(1,1)"><g><path fill="none" stroke="none"/><text fill="#000000" font-family="Arial" font-size="13px" font-style="normal" font-weight="normal" stroke="none" text-decoration="none" x="295" y="676.5">+placementNote[0..*]</text></g></g><g transform="translate(-280,-169) scale(1,1)"><g><path fill="none" stroke="none"/><text fill="#000000" font-family="Arial" font-size="13px" font-style="normal" font-weight="normal" stroke="none" text-decoration="none" x="295" y="691.5">+markers[0..1]</text></g></g><g transform="translate(-280,-169) scale(1,1)"><g><path fill="none" stroke="none"/><text fill="#000000" font-family="Arial" font-size="13px" font-style="normal" font-weight="normal" stroke="none" text-decoration="none" x="295" y="706.5">+siteDescription</text></g></g><g transform="translate(-280,-169) scale(1,1)"><rect fill="#C0C0C0" height="102" opacity="0.2" stroke="none" width="160.1123046875" x="593" y="186"/></g><g transform="translate(-280,-169) scale(1,1)"><rect fill="#ffffff" height="102" stroke="none" width="160.1123046875" x="586" y="179"/></g><g transform="translate(-280,-169) scale(1,1)"><path d="M 586 179 L 746.1123046875 179 L 746.1123046875 281 L 586 281 L 586 179 Z Z" fill="none" stroke="#000000" stroke-miterlimit="10"/></g><g transform="translate(-280,-169) scale(1,1)"><path d="M 586 204 L 746.1123046875 204" fill="none" stroke="#000000" stroke-miterlimit="10"/></g><g transform="translate(-280,-169) scale(1,1)"><path d="M 586 272 L 746.1123046875 272" fill="none" stroke="#000000" stroke-miterlimit="10"/></g><g transform="translate(-280,-169) scale(1,1)"><g><path fill="none" stroke="none"/><text fill="#000000" font-family="Arial" font-size="13px" font-style="normal" font-weight="bold" stroke="none" text-decoration="none" x="642.693603515625" y="198.5">SiteVisit</text></g></g><g transform="translate(-280,-169) scale(1,1)"><g><path fill="none" stroke="none"/><text fill="#000000" font-family="Arial" font-size="13px" font-style="normal" font-weight="normal" stroke="none" text-decoration="none" x="591" y="221.5">+identifier</text></g></g><g transform="translate(-280,-169) scale(1,1)"><g><path fill="none" stroke="none"/><text fill="#000000" font-family="Arial" font-size="13px" font-style="normal" font-weight="normal" stroke="none" text-decoration="none" x="591" y="236.5">+siteDescription</text></g></g><g transform="translate(-280,-169) scale(1,1)"><g><path fill="none" stroke="none"/><text fill="#000000" font-family="Arial" font-size="13px" font-style="normal" font-weight="normal" stroke="none" text-decoration="none" x="591" y="251.5">+startedAtTime: DateTime</text></g></g><g transform="translate(-280,-169) scale(1,1)"><g><path fill="none" stroke="none"/><text fill="#000000" font-family="Arial" font-size="13px" font-style="normal" font-weight="normal" stroke="none" text-decoration="none" x="591" y="266.5">+endedAtTime: DateTime</text></g></g><g transform="translate(-280,-169) scale(1,1)"><path d="M 463 498 L 627 282" fill="none" stroke="#000000" stroke-miterlimit="10"/></g><g transform="translate(-280,-169) scale(1,1)"><g><path fill="none" stroke="none"/><text fill="#000000" font-family="Arial" font-size="13px" font-style="normal" font-weight="normal" stroke="none" text-decoration="none" x="452.50634765625" y="474.5">+site</text></g></g><g transform="translate(-280,-169) scale(1,1)"><g><path fill="none" stroke="none"/><text fill="#000000" font-family="Arial" font-size="13px" font-style="normal" font-weight="normal" stroke="none" text-decoration="none" x="482.5" y="494.5">1</text></g></g><g transform="translate(-280,-169) scale(1,1)"><g><path fill="none" stroke="none"/><text fill="#000000" font-family="Arial" font-size="13px" font-style="normal" font-weight="normal" stroke="none" text-decoration="none" x="537.50634765625" y="304.5">+siteVisit</text></g></g><g transform="translate(-280,-169) scale(1,1)"><g><path fill="none" stroke="none"/><text fill="#000000" font-family="Arial" font-size="13px" font-style="normal" font-weight="normal" stroke="none" text-decoration="none" x="613.5" y="312.5">0..*</text></g></g><g transform="translate(-280,-169) scale(1,1)"><rect fill="#C0C0C0" height="102" opacity="0.2" stroke="none" width="176.25439453125" x="905" y="634"/></g><g transform="translate(-280,-169) scale(1,1)"><rect fill="#ffffff" height="102" stroke="none" width="176.25439453125" x="898" y="627"/></g><g transform="translate(-280,-169) scale(1,1)"><path d="M 898 627 L 1074.25439453125 627 L 1074.25439453125 729 L 898 729 L 898 627 Z Z" fill="none" stroke="#000000" stroke-miterlimit="10"/></g><g transform="translate(-280,-169) scale(1,1)"><path d="M 898 652 L 1074.25439453125 652" fill="none" stroke="#000000" stroke-miterlimit="10"/></g><g transform="translate(-280,-169) scale(1,1)"><path d="M 898 675 L 1074.25439453125 675" fill="none" stroke="#000000" stroke-miterlimit="10"/></g><g transform="translate(-280,-169) scale(1,1)"><g><path fill="none" stroke="none"/><text fill="#000000" font-family="Arial" font-size="13px" font-style="normal" font-weight="bold" stroke="none" text-decoration="none" x="964.088134765625" y="646.5">Sample</text></g></g><g transform="translate(-280,-169) scale(1,1)"><g><path fill="none" stroke="none"/><text fill="#000000" font-family="Arial" font-size="13px" font-style="normal" font-weight="normal" stroke="none" text-decoration="none" x="903" y="669.5">+identifier</text></g></g><g transform="translate(-280,-169) scale(1,1)"><rect fill="#C0C0C0" height="222" opacity="0.2" stroke="none" width="170.50341796875" x="1073" y="250"/></g><g transform="translate(-280,-169) scale(1,1)"><rect fill="#ffffff" height="222" stroke="none" width="170.50341796875" x="1066" y="243"/></g><g transform="translate(-280,-169) scale(1,1)"><path d="M 1066 243 L 1236.50341796875 243 L 1236.50341796875 465 L 1066 465 L 1066 243 Z Z" fill="none" stroke="#000000" stroke-miterlimit="10"/></g><g transform="translate(-280,-169) scale(1,1)"><path d="M 1066 268 L 1236.50341796875 268" fill="none" stroke="#000000" stroke-miterlimit="10"/></g><g transform="translate(-280,-169) scale(1,1)"><path d="M 1066 351 L 1236.50341796875 351" fill="none" stroke="#000000" stroke-miterlimit="10"/></g><g transform="translate(-280,-169) scale(1,1)"><g><path fill="none" stroke="none"/><text fill="#000000" font-family="Arial" font-size="13px" font-style="normal" font-weight="bold" stroke="none" text-decoration="none" x="1116.206298828125" y="262.5">Observation</text></g></g><g transform="translate(-280,-169) scale(1,1)"><g><path fill="none" stroke="none"/><text fill="#000000" font-family="Arial" font-size="13px" font-style="normal" font-weight="normal" stroke="none" text-decoration="none" x="1071" y="285.5">+phenomenonTime</text></g></g><g transform="translate(-280,-169) scale(1,1)"><g><path fill="none" stroke="none"/><text fill="#000000" font-family="Arial" font-size="13px" font-style="normal" font-weight="normal" stroke="none" text-decoration="none" x="1071" y="300.5">+resultTime: DateTime</text></g></g><g transform="translate(-280,-169) scale(1,1)"><g><path fill="none" stroke="none"/><text fill="#000000" font-family="Arial" font-size="13px" font-style="normal" font-weight="normal" stroke="none" text-decoration="none" x="1071" y="315.5">+validTime: DateTime</text></g></g><g transform="translate(-280,-169) scale(1,1)"><g><path fill="none" stroke="none"/><text fill="#000000" font-family="Arial" font-size="13px" font-style="normal" font-weight="normal" stroke="none" text-decoration="none" x="1071" y="330.5">+hasResult: Result</text></g></g><g transform="translate(-280,-169) scale(1,1)"><g><path fill="none" stroke="none"/><text fill="#000000" font-family="Arial" font-size="13px" font-style="normal" font-weight="normal" stroke="none" text-decoration="none" x="1071" y="345.5">+isPartOf: Project</text></g></g><g transform="translate(-280,-169) scale(1,1)"><path d="M 747 251 L 1065 332" fill="none" stroke="#000000" stroke-miterlimit="10"/></g><g transform="translate(-280,-169) scale(1,1)"><g><path fill="none" stroke="none"/><text fill="#000000" font-family="Arial" font-size="13px" font-style="normal" font-weight="normal" stroke="none" text-decoration="none" x="787.371337890625" y="255.5">+isSubActivityOf</text></g></g><g transform="translate(-280,-169) scale(1,1)"><g><path fill="none" stroke="none"/><text fill="#000000" font-family="Arial" font-size="13px" font-style="normal" font-weight="normal" stroke="none" text-decoration="none" x="752.5" y="252.5">1</text></g></g><g transform="translate(-280,-169) scale(1,1)"><g><path fill="none" stroke="none"/><text fill="#000000" font-family="Arial" font-size="13px" font-style="normal" font-weight="normal" stroke="none" text-decoration="none" x="996.871337890625" y="317.5">+hasSubActivity</text></g></g><g transform="translate(-280,-169) scale(1,1)"><g><path fill="none" stroke="none"/><text fill="#000000" font-family="Arial" font-size="13px" font-style="normal" font-weight="normal" stroke="none" text-decoration="none" x="1030.5" y="344.5">0..*</text></g></g><g transform="translate(-280,-169) scale(1,1)"><path d="M 1094 466 L 1012 626" fill="none" stroke="#000000" stroke-miterlimit="10"/></g><g transform="translate(-280,-169) scale(1,1)"><path d="M 1012.8889125936909 615.0359754469092 L 1012 626 L 1020.3812922334672 618.8758200122946" fill="none" stroke="#000000" stroke-miterlimit="10"/></g><g transform="translate(-280,-169) scale(1,1)"><g><path fill="none" stroke="none"/><text fill="#000000" font-family="Arial" font-size="13px" font-style="normal" font-weight="normal" stroke="none" text-decoration="none" x="1001.035888671875" y="558.5">+hasFeatureOfInterest</text></g></g><g transform="translate(-280,-169) scale(1,1)"><path d="M 1094 466 L 1012 626" fill="none" stroke="#000000" stroke-miterlimit="10"/></g><g transform="translate(-280,-169) scale(1,1)"><path d="M 1012.8889125936909 615.0359754469092 L 1012 626 L 1020.3812922334672 618.8758200122946" fill="none" stroke="#000000" stroke-miterlimit="10"/></g><g transform="translate(-280,-169) scale(1,1)"><path d="M 1094 466 L 1012 626" fill="none" stroke="#000000" stroke-miterlimit="10"/></g><g transform="translate(-280,-169) scale(1,1)"><path d="M 1012.8889125936909 615.0359754469092 L 1012 626 L 1020.3812922334672 618.8758200122946" fill="none" stroke="#000000" stroke-miterlimit="10"/></g><g transform="translate(-280,-169) scale(1,1)"><g><path fill="none" stroke="none"/><text fill="#000000" font-family="Arial" font-size="13px" font-style="normal" font-weight="normal" stroke="none" text-decoration="none" x="1001.035888671875" y="558.5">+hasFeatureOfInterest</text></g></g><g transform="translate(-280,-169) scale(1,1)"><g><path fill="none" stroke="none"/><text fill="#000000" font-family="Arial" font-size="13px" font-style="normal" font-weight="normal" stroke="none" text-decoration="none" x="1030.5" y="615.5">1</text></g></g><g transform="translate(-280,-169) scale(1,1)"><path d="M 897 668 L 467 620" fill="none" stroke="#000000" stroke-miterlimit="10"/></g><g transform="translate(-280,-169) scale(1,1)"><g><path fill="none" stroke="none"/><text fill="#000000" font-family="Arial" font-size="13px" font-style="normal" font-weight="normal" stroke="none" text-decoration="none" x="833.035888671875" y="686.5">+hasSample</text></g></g><g transform="translate(-280,-169) scale(1,1)"><g><path fill="none" stroke="none"/><text fill="#000000" font-family="Arial" font-size="13px" font-style="normal" font-weight="normal" stroke="none" text-decoration="none" x="866.5" y="659.5">0..*</text></g></g><g transform="translate(-280,-169) scale(1,1)"><g><path fill="none" stroke="none"/><text fill="#000000" font-family="Arial" font-size="13px" font-style="normal" font-weight="normal" stroke="none" text-decoration="none" x="454.035888671875" y="643.5">+isSampleOf</text></g></g><g transform="translate(-280,-169) scale(1,1)"><g><path fill="none" stroke="none"/><text fill="#000000" font-family="Arial" font-size="13px" font-style="normal" font-weight="normal" stroke="none" text-decoration="none" x="485.5" y="615.5">1</text></g></g></g></svg>