<?xml version="1.0" encoding="UTF-8" standalone="no"?><svg xmlns="http://www.w3.org/2000/svg" xmlns:xlink="http://www.w3.org/1999/xlink" height="242" version="1.1" width="540.88525390625"><defs/><g><g transform="translate(-838,-342) scale(1,1)"><rect fill="#C0C0C0" height="222" opacity="0.2" stroke="none" width="170.50341796875" x="855" y="359"/></g><g transform="translate(-838,-342) scale(1,1)"><rect fill="#ffffff" height="222" stroke="none" width="170.50341796875" x="848" y="352"/></g><g transform="translate(-838,-342) scale(1,1)"><path d="M 848 352 L 1018.50341796875 352 L 1018.50341796875 574 L 848 574 L 848 352 Z Z" fill="none" stroke="#000000" stroke-miterlimit="10"/></g><g transform="translate(-838,-342) scale(1,1)"><path d="M 848 377 L 1018.50341796875 377" fill="none" stroke="#000000" stroke-miterlimit="10"/></g><g transform="translate(-838,-342) scale(1,1)"><path d="M 848 460 L 1018.50341796875 460" fill="none" stroke="#000000" stroke-miterlimit="10"/></g><g transform="translate(-838,-342) scale(1,1)"><g><path fill="none" stroke="none"/><text fill="#000000" font-family="Arial" font-size="13px" font-style="normal" font-weight="bold" stroke="none" text-decoration="none" x="898.206298828125" y="371.5">Observation</text></g></g><g transform="translate(-838,-342) scale(1,1)"><g><path fill="none" stroke="none"/><text fill="#000000" font-family="Arial" font-size="13px" font-style="normal" font-weight="normal" stroke="none" text-decoration="none" x="853" y="394.5">+phenomenonTime</text></g></g><g transform="translate(-838,-342) scale(1,1)"><g><path fill="none" stroke="none"/><text fill="#000000" font-family="Arial" font-size="13px" font-style="normal" font-weight="normal" stroke="none" text-decoration="none" x="853" y="409.5">+resultTime: DateTime</text></g></g><g transform="translate(-838,-342) scale(1,1)"><g><path fill="none" stroke="none"/><text fill="#000000" font-family="Arial" font-size="13px" font-style="normal" font-weight="normal" stroke="none" text-decoration="none" x="853" y="424.5">+validTime: DateTime</text></g></g><g transform="translate(-838,-342) scale(1,1)"><g><path fill="none" stroke="none"/><text fill="#000000" font-family="Arial" font-size="13px" font-style="normal" font-weight="normal" stroke="none" text-decoration="none" x="853" y="439.5">+hasResult: Result</text></g></g><g transform="translate(-838,-342) scale(1,1)"><g><path fill="none" stroke="none"/><text fill="#000000" font-family="Arial" font-size="13px" font-style="normal" font-weight="normal" stroke="none" text-decoration="none" x="853" y="454.5">+isPartOf: Project</text></g></g><g transform="translate(-838,-342) scale(1,1)"><rect fill="#C0C0C0" height="102" opacity="0.2" stroke="none" width="192.88525390625" x="1183" y="359"/></g><g transform="translate(-838,-342) scale(1,1)"><rect fill="#ffffff" height="102" stroke="none" width="192.88525390625" x="1176" y="352"/></g><g transform="translate(-838,-342) scale(1,1)"><path d="M 1176 352 L 1368.88525390625 352 L 1368.88525390625 454 L 1176 454 L 1176 352 Z Z" fill="none" stroke="#000000" stroke-miterlimit="10"/></g><g transform="translate(-838,-342) scale(1,1)"><path d="M 1176 377 L 1368.88525390625 377" fill="none" stroke="#000000" stroke-miterlimit="10"/></g><g transform="translate(-838,-342) scale(1,1)"><path d="M 1176 400 L 1368.88525390625 400" fill="none" stroke="#000000" stroke-miterlimit="10"/></g><g transform="translate(-838,-342) scale(1,1)"><g><path fill="none" stroke="none"/><text fill="#000000" font-family="Arial" font-size="13px" font-style="normal" font-weight="bold" stroke="none" text-decoration="none" x="1250.403564453125" y="371.5">Sample</text></g></g><g transform="translate(-838,-342) scale(1,1)"><g><path fill="none" stroke="none"/><text fill="#000000" font-family="Arial" font-size="13px" font-style="normal" font-weight="normal" stroke="none" text-decoration="none" x="1181" y="394.5">+identifier</text></g></g><g transform="translate(-838,-342) scale(1,1)"><path d="M 1020 448 L 1175 420" fill="none" stroke="#000000" stroke-miterlimit="10"/></g><g transform="translate(-838,-342) scale(1,1)"><path d="M 1165.7475090013538 425.9490680211248 L 1175 420 L 1164.2508745325124 417.66412721146713" fill="none" stroke="#000000" stroke-miterlimit="10"/></g><g transform="translate(-838,-342) scale(1,1)"><g><path fill="none" stroke="none"/><text fill="#000000" font-family="Arial" font-size="13px" font-style="normal" font-weight="normal" stroke="none" text-decoration="none" x="1029.035888671875" y="425.5">+hasFeatureOfInterest</text></g></g></g></svg>