<?xml version="1.0" encoding="UTF-8" standalone="no"?><svg xmlns="http://www.w3.org/2000/svg" xmlns:xlink="http://www.w3.org/1999/xlink" height="160" version="1.1" width="432.130859375"><defs/><g><g transform="translate(-838,-246) scale(1,1)"><rect fill="#C0C0C0" height="222" opacity="0.2" stroke="none" width="170.50341796875" x="855" y="359"/></g><g transform="translate(-838,-246) scale(1,1)"><rect fill="#ffffff" height="222" stroke="none" width="170.50341796875" x="848" y="352"/></g><g transform="translate(-838,-246) scale(1,1)"><path d="M 848 352 L 1018.50341796875 352 L 1018.50341796875 574 L 848 574 L 848 352 Z Z" fill="none" stroke="#000000" stroke-miterlimit="10"/></g><g transform="translate(-838,-246) scale(1,1)"><path d="M 848 377 L 1018.50341796875 377" fill="none" stroke="#000000" stroke-miterlimit="10"/></g><g transform="translate(-838,-246) scale(1,1)"><path d="M 848 565 L 1018.50341796875 565" fill="none" stroke="#000000" stroke-miterlimit="10"/></g><g transform="translate(-838,-246) scale(1,1)"><g><path fill="none" stroke="none"/><text fill="#000000" font-family="Arial" font-size="13px" font-style="normal" font-weight="bold" stroke="none" text-decoration="none" x="885.199951171875" y="371.5">tern:Observation</text></g></g><g transform="translate(-838,-246) scale(1,1)"><g><path fill="none" stroke="none"/><text fill="#000000" font-family="Arial" font-size="13px" font-style="normal" font-weight="normal" stroke="none" text-decoration="none" x="853" y="394.5">+dcterms:type</text></g></g><g transform="translate(-838,-246) scale(1,1)"><g><path fill="none" stroke="none"/><text fill="#000000" font-family="Arial" font-size="13px" font-style="normal" font-weight="normal" stroke="none" text-decoration="none" x="853" y="409.5">+sosa:hasFeatureOfInterest</text></g></g><g transform="translate(-838,-246) scale(1,1)"><g><path fill="none" stroke="none"/><text fill="#000000" font-family="Arial" font-size="13px" font-style="normal" font-weight="normal" stroke="none" text-decoration="none" x="853" y="424.5">+dcterms:isPartOf</text></g></g><g transform="translate(-838,-246) scale(1,1)"><g><path fill="none" stroke="none"/><text fill="#000000" font-family="Arial" font-size="13px" font-style="normal" font-weight="normal" stroke="none" text-decoration="none" x="853" y="439.5">+tern:site</text></g></g><g transform="translate(-838,-246) scale(1,1)"><g><path fill="none" stroke="none"/><text fill="#000000" font-family="Arial" font-size="13px" font-style="normal" font-weight="normal" stroke="none" text-decoration="none" x="853" y="454.5">+tern:siteVisit</text></g></g><g transform="translate(-838,-246) scale(1,1)"><g><path fill="none" stroke="none"/><text fill="#000000" font-family="Arial" font-size="13px" font-style="normal" font-weight="normal" stroke="none" text-decoration="none" x="853" y="469.5">+tern:domain</text></g></g><g transform="translate(-838,-246) scale(1,1)"><g><path fill="none" stroke="none"/><text fill="#000000" font-family="Arial" font-size="13px" font-style="normal" font-weight="normal" stroke="none" text-decoration="none" x="853" y="484.5">+sosa:observedProperty</text></g></g><g transform="translate(-838,-246) scale(1,1)"><g><path fill="none" stroke="none"/><text fill="#000000" font-family="Arial" font-size="13px" font-style="normal" font-weight="normal" stroke="none" text-decoration="none" x="853" y="499.5">+sosa:usedProcedure</text></g></g><g transform="translate(-838,-246) scale(1,1)"><g><path fill="none" stroke="none"/><text fill="#000000" font-family="Arial" font-size="13px" font-style="normal" font-weight="normal" stroke="none" text-decoration="none" x="853" y="514.5">+sosa:hasResult</text></g></g><g transform="translate(-838,-246) scale(1,1)"><g><path fill="none" stroke="none"/><text fill="#000000" font-family="Arial" font-size="13px" font-style="normal" font-weight="normal" stroke="none" text-decoration="none" x="853" y="529.5">+sosa:phenomenonTime</text></g></g><g transform="translate(-838,-246) scale(1,1)"><g><path fill="none" stroke="none"/><text fill="#000000" font-family="Arial" font-size="13px" font-style="normal" font-weight="normal" stroke="none" text-decoration="none" x="853" y="544.5">+sosa:resultTime</text></g></g><g transform="translate(-838,-246) scale(1,1)"><g><path fill="none" stroke="none"/><text fill="#000000" font-family="Arial" font-size="13px" font-style="normal" font-weight="normal" stroke="none" text-decoration="none" x="853" y="559.5">+tern:hasAttribute</text></g></g><g transform="translate(-838,-246) scale(1,1)"><rect fill="#C0C0C0" height="44" opacity="0.2" stroke="none" width="118.814453125" x="855" y="263"/></g><g transform="translate(-838,-246) scale(1,1)"><rect fill="#ffffff" height="44" stroke="none" width="118.814453125" x="848" y="256"/></g><g transform="translate(-838,-246) scale(1,1)"><path d="M 848 256 L 966.814453125 256 L 966.814453125 300 L 848 300 L 848 256 Z Z" fill="none" stroke="#000000" stroke-miterlimit="10"/></g><g transform="translate(-838,-246) scale(1,1)"><path d="M 848 281 L 966.814453125 281" fill="none" stroke="#000000" stroke-miterlimit="10"/></g><g transform="translate(-838,-246) scale(1,1)"><path d="M 848 291 L 966.814453125 291" fill="none" stroke="#000000" stroke-miterlimit="10"/></g><g transform="translate(-838,-246) scale(1,1)"><g><path fill="none" stroke="none"/><text fill="#000000" font-family="Arial" font-size="13px" font-style="normal" font-weight="bold" stroke="none" text-decoration="none" x="856.825927734375" y="275.5">sosa:Observation</text></g></g><g transform="translate(-838,-246) scale(1,1)"><path d="M 917 351 L 910 301" fill="none" stroke="#000000" stroke-miterlimit="10"/></g><g transform="translate(-838,-246) scale(1,1)"><path d="M 921.1557882617261 319.96176121196373 L 910 301 L 904.4803435931282 322.29632346556747" fill="#FFFFFF" stroke="none"/></g><g transform="translate(-838,-246) scale(1,1)"><path d="M 921.1557882617261 319.96176121196373 L 910 301 L 904.4803435931282 322.29632346556747 L 921.1557882617261 319.96176121196373" fill="none" stroke="#000000" stroke-miterlimit="10"/></g><g transform="translate(-838,-246) scale(1,1)"><rect fill="#C0C0C0" height="87" opacity="0.2" stroke="none" width="115.57080078125" x="1183" y="359"/></g><g transform="translate(-838,-246) scale(1,1)"><rect fill="#ffffff" height="87" stroke="none" width="115.57080078125" x="1176" y="352"/></g><g transform="translate(-838,-246) scale(1,1)"><path d="M 1176 352 L 1291.57080078125 352 L 1291.57080078125 439 L 1176 439 L 1176 352 Z Z" fill="none" stroke="#000000" stroke-miterlimit="10"/></g><g transform="translate(-838,-246) scale(1,1)"><path d="M 1176 377 L 1291.57080078125 377" fill="none" stroke="#000000" stroke-miterlimit="10"/></g><g transform="translate(-838,-246) scale(1,1)"><path d="M 1176 430 L 1291.57080078125 430" fill="none" stroke="#000000" stroke-miterlimit="10"/></g><g transform="translate(-838,-246) scale(1,1)"><g><path fill="none" stroke="none"/><text fill="#000000" font-family="Arial" font-size="13px" font-style="normal" font-weight="bold" stroke="none" text-decoration="none" x="1198.739990234375" y="371.5">tern:Sample</text></g></g><g transform="translate(-838,-246) scale(1,1)"><g><path fill="none" stroke="none"/><text fill="#000000" font-family="Arial" font-size="13px" font-style="normal" font-weight="normal" stroke="none" text-decoration="none" x="1181" y="394.5">+dcterms:identifier</text></g></g><g transform="translate(-838,-246) scale(1,1)"><g><path fill="none" stroke="none"/><text fill="#000000" font-family="Arial" font-size="13px" font-style="normal" font-weight="normal" stroke="none" text-decoration="none" x="1181" y="409.5">+sosa:hasSample</text></g></g><g transform="translate(-838,-246) scale(1,1)"><g><path fill="none" stroke="none"/><text fill="#000000" font-family="Arial" font-size="13px" font-style="normal" font-weight="normal" stroke="none" text-decoration="none" x="1181" y="424.5">+sosa:isSampleOf</text></g></g><g transform="translate(-838,-246) scale(1,1)"><path d="M 1020 443 L 1175 408" fill="none" stroke="#000000" stroke-miterlimit="10"/></g><g transform="translate(-838,-246) scale(1,1)"><path d="M 1166.0141023024505 414.3445758383973 L 1175 408 L 1164.159718203931 406.1323034020972" fill="none" stroke="#000000" stroke-miterlimit="10"/></g><g transform="translate(-838,-246) scale(1,1)"><g><path fill="none" stroke="none"/><text fill="#000000" font-family="Arial" font-size="13px" font-style="normal" font-weight="normal" stroke="none" text-decoration="none" x="1012.5" y="416.5">+sosa:hasFeatureOfInterest</text></g></g></g></svg>