<?xml version="1.0" encoding="UTF-8" standalone="no"?><svg xmlns="http://www.w3.org/2000/svg" xmlns:xlink="http://www.w3.org/1999/xlink" height="57" version="1.1" width="312.8359375"><defs/><g><g transform="translate(-10,-10) scale(1,1)"><rect fill="#C0C0C0" height="37" opacity="0.2" stroke="none" width="76.9453125" x="27" y="27"/></g><g transform="translate(-10,-10) scale(1,1)"><rect fill="#ffffff" height="37" stroke="none" width="76.9453125" x="20" y="20"/></g><g transform="translate(-10,-10) scale(1,1)"><path d="M 20 20 L 96.9453125 20 L 96.9453125 57 L 20 57 L 20 20 Z Z" fill="none" stroke="#000000" stroke-miterlimit="10"/></g><g transform="translate(-10,-10) scale(1,1)"><g><path fill="none" stroke="none"/><text fill="#000000" font-family="Arial" font-size="13px" font-style="normal" font-weight="normal" stroke="none" text-decoration="none" x="24.5" y="37.5">«dataType»</text></g></g><g transform="translate(-10,-10) scale(1,1)"><g><path fill="none" stroke="none"/><text fill="#000000" font-family="Arial" font-size="13px" font-style="normal" font-weight="bold" stroke="none" text-decoration="none" x="41.49267578125" y="52.5">String</text></g></g><g transform="translate(-10,-10) scale(1,1)"><rect fill="#C0C0C0" height="37" opacity="0.2" stroke="none" width="76.9453125" x="134.9453125" y="27"/></g><g transform="translate(-10,-10) scale(1,1)"><rect fill="#ffffff" height="37" stroke="none" width="76.9453125" x="127.9453125" y="20"/></g><g transform="translate(-10,-10) scale(1,1)"><path d="M 127.9453125 20 L 204.890625 20 L 204.890625 57 L 127.9453125 57 L 127.9453125 20 Z Z" fill="none" stroke="#000000" stroke-miterlimit="10"/></g><g transform="translate(-10,-10) scale(1,1)"><g><path fill="none" stroke="none"/><text fill="#000000" font-family="Arial" font-size="13px" font-style="normal" font-weight="normal" stroke="none" text-decoration="none" x="132.4453125" y="37.5">«dataType»</text></g></g><g transform="translate(-10,-10) scale(1,1)"><g><path fill="none" stroke="none"/><text fill="#000000" font-family="Arial" font-size="13px" font-style="normal" font-weight="bold" stroke="none" text-decoration="none" x="152.68798828125" y="52.5">Date</text></g></g><g transform="translate(-10,-10) scale(1,1)"><rect fill="#C0C0C0" height="37" opacity="0.2" stroke="none" width="76.9453125" x="242.890625" y="27"/></g><g transform="translate(-10,-10) scale(1,1)"><rect fill="#ffffff" height="37" stroke="none" width="76.9453125" x="235.890625" y="20"/></g><g transform="translate(-10,-10) scale(1,1)"><path d="M 235.890625 20 L 312.8359375 20 L 312.8359375 57 L 235.890625 57 L 235.890625 20 Z Z" fill="none" stroke="#000000" stroke-miterlimit="10"/></g><g transform="translate(-10,-10) scale(1,1)"><g><path fill="none" stroke="none"/><text fill="#000000" font-family="Arial" font-size="13px" font-style="normal" font-weight="normal" stroke="none" text-decoration="none" x="240.390625" y="37.5">«dataType»</text></g></g><g transform="translate(-10,-10) scale(1,1)"><g><path fill="none" stroke="none"/><text fill="#000000" font-family="Arial" font-size="13px" font-style="normal" font-weight="bold" stroke="none" text-decoration="none" x="246.430419921875" y="52.5">DateTime</text></g></g></g></svg>