<?xml version="1.0" encoding="UTF-8" standalone="no"?><svg xmlns="http://www.w3.org/2000/svg" xmlns:xlink="http://www.w3.org/1999/xlink" height="132" version="1.1" width="1547.1435546875"><defs/><g><g transform="translate(-10,-10) scale(1,1)"><rect fill="#C0C0C0" height="37" opacity="0.2" stroke="none" width="76.9453125" x="1477.1982421875" y="102"/></g><g transform="translate(-10,-10) scale(1,1)"><rect fill="#ffffff" height="37" stroke="none" width="76.9453125" x="1470.1982421875" y="95"/></g><g transform="translate(-10,-10) scale(1,1)"><path d="M 1470.1982421875 95 L 1547.1435546875 95 L 1547.1435546875 132 L 1470.1982421875 132 L 1470.1982421875 95 Z Z" fill="none" stroke="#000000" stroke-miterlimit="10"/></g><g transform="translate(-10,-10) scale(1,1)"><g><path fill="none" stroke="none"/><text fill="#000000" font-family="Arial" font-size="13px" font-style="normal" font-weight="normal" stroke="none" text-decoration="none" x="1474.6982421875" y="112.5">«dataType»</text></g></g><g transform="translate(-10,-10) scale(1,1)"><g><path fill="none" stroke="none"/><text fill="#000000" font-family="Arial" font-size="13px" font-style="normal" font-weight="bold" stroke="none" text-decoration="none" x="1491.69091796875" y="127.5">String</text></g></g><g transform="translate(-10,-10) scale(1,1)"><rect fill="#C0C0C0" height="37" opacity="0.2" stroke="none" width="76.9453125" x="1369.2529296875" y="102"/></g><g transform="translate(-10,-10) scale(1,1)"><rect fill="#ffffff" height="37" stroke="none" width="76.9453125" x="1362.2529296875" y="95"/></g><g transform="translate(-10,-10) scale(1,1)"><path d="M 1362.2529296875 95 L 1439.1982421875 95 L 1439.1982421875 132 L 1362.2529296875 132 L 1362.2529296875 95 Z Z" fill="none" stroke="#000000" stroke-miterlimit="10"/></g><g transform="translate(-10,-10) scale(1,1)"><g><path fill="none" stroke="none"/><text fill="#000000" font-family="Arial" font-size="13px" font-style="normal" font-weight="normal" stroke="none" text-decoration="none" x="1366.7529296875" y="112.5">«dataType»</text></g></g><g transform="translate(-10,-10) scale(1,1)"><g><path fill="none" stroke="none"/><text fill="#000000" font-family="Arial" font-size="13px" font-style="normal" font-weight="bold" stroke="none" text-decoration="none" x="1386.99560546875" y="127.5">Date</text></g></g><g transform="translate(-10,-10) scale(1,1)"><rect fill="#C0C0C0" height="37" opacity="0.2" stroke="none" width="76.9453125" x="1261.3076171875" y="102"/></g><g transform="translate(-10,-10) scale(1,1)"><rect fill="#ffffff" height="37" stroke="none" width="76.9453125" x="1254.3076171875" y="95"/></g><g transform="translate(-10,-10) scale(1,1)"><path d="M 1254.3076171875 95 L 1331.2529296875 95 L 1331.2529296875 132 L 1254.3076171875 132 L 1254.3076171875 95 Z Z" fill="none" stroke="#000000" stroke-miterlimit="10"/></g><g transform="translate(-10,-10) scale(1,1)"><g><path fill="none" stroke="none"/><text fill="#000000" font-family="Arial" font-size="13px" font-style="normal" font-weight="normal" stroke="none" text-decoration="none" x="1258.8076171875" y="112.5">«dataType»</text></g></g><g transform="translate(-10,-10) scale(1,1)"><g><path fill="none" stroke="none"/><text fill="#000000" font-family="Arial" font-size="13px" font-style="normal" font-weight="bold" stroke="none" text-decoration="none" x="1264.847412109375" y="127.5">DateTime</text></g></g><g transform="translate(-10,-10) scale(1,1)"><rect fill="#C0C0C0" height="37" opacity="0.2" stroke="none" width="76.9453125" x="1153.3623046875" y="102"/></g><g transform="translate(-10,-10) scale(1,1)"><rect fill="#ffffff" height="37" stroke="none" width="76.9453125" x="1146.3623046875" y="95"/></g><g transform="translate(-10,-10) scale(1,1)"><path d="M 1146.3623046875 95 L 1223.3076171875 95 L 1223.3076171875 132 L 1146.3623046875 132 L 1146.3623046875 95 Z Z" fill="none" stroke="#000000" stroke-miterlimit="10"/></g><g transform="translate(-10,-10) scale(1,1)"><g><path fill="none" stroke="none"/><text fill="#000000" font-family="Arial" font-size="13px" font-style="normal" font-weight="normal" stroke="none" text-decoration="none" x="1150.8623046875" y="112.5">«dataType»</text></g></g><g transform="translate(-10,-10) scale(1,1)"><g><path fill="none" stroke="none"/><text fill="#000000" font-family="Arial" font-size="13px" font-style="normal" font-weight="bold" stroke="none" text-decoration="none" x="1164.5986328125" y="127.5">Integer</text></g></g><g transform="translate(-10,-10) scale(1,1)"><rect fill="#C0C0C0" height="37" opacity="0.2" stroke="none" width="76.9453125" x="1045.4169921875" y="102"/></g><g transform="translate(-10,-10) scale(1,1)"><rect fill="#ffffff" height="37" stroke="none" width="76.9453125" x="1038.4169921875" y="95"/></g><g transform="translate(-10,-10) scale(1,1)"><path d="M 1038.4169921875 95 L 1115.3623046875 95 L 1115.3623046875 132 L 1038.4169921875 132 L 1038.4169921875 95 Z Z" fill="none" stroke="#000000" stroke-miterlimit="10"/></g><g transform="translate(-10,-10) scale(1,1)"><g><path fill="none" stroke="none"/><text fill="#000000" font-family="Arial" font-size="13px" font-style="normal" font-weight="normal" stroke="none" text-decoration="none" x="1042.9169921875" y="112.5">«dataType»</text></g></g><g transform="translate(-10,-10) scale(1,1)"><g><path fill="none" stroke="none"/><text fill="#000000" font-family="Arial" font-size="13px" font-style="normal" font-weight="bold" stroke="none" text-decoration="none" x="1053.412841796875" y="127.5">Decimal</text></g></g><g transform="translate(-10,-10) scale(1,1)"><rect fill="#C0C0C0" height="37" opacity="0.2" stroke="none" width="123.8544921875" x="890.5625" y="102"/></g><g transform="translate(-10,-10) scale(1,1)"><rect fill="#ffffff" height="37" stroke="none" width="123.8544921875" x="883.5625" y="95"/></g><g transform="translate(-10,-10) scale(1,1)"><path d="M 883.5625 95 L 1007.4169921875 95 L 1007.4169921875 132 L 883.5625 132 L 883.5625 95 Z Z" fill="none" stroke="#000000" stroke-miterlimit="10"/></g><g transform="translate(-10,-10) scale(1,1)"><g><path fill="none" stroke="none"/><text fill="#000000" font-family="Arial" font-size="13px" font-style="normal" font-weight="normal" stroke="none" text-decoration="none" x="911.51708984375" y="112.5">«dataType»</text></g></g><g transform="translate(-10,-10) scale(1,1)"><g><path fill="none" stroke="none"/><text fill="#000000" font-family="Arial" font-size="13px" font-style="normal" font-weight="bold" stroke="none" text-decoration="none" x="891.64892578125" y="127.5">QuantitativeRange</text></g></g><g transform="translate(-10,-10) scale(1,1)"><rect fill="#C0C0C0" height="37" opacity="0.2" stroke="none" width="76.9453125" x="782.6171875" y="102"/></g><g transform="translate(-10,-10) scale(1,1)"><rect fill="#ffffff" height="37" stroke="none" width="76.9453125" x="775.6171875" y="95"/></g><g transform="translate(-10,-10) scale(1,1)"><path d="M 775.6171875 95 L 852.5625 95 L 852.5625 132 L 775.6171875 132 L 775.6171875 95 Z Z" fill="none" stroke="#000000" stroke-miterlimit="10"/></g><g transform="translate(-10,-10) scale(1,1)"><g><path fill="none" stroke="none"/><text fill="#000000" font-family="Arial" font-size="13px" font-style="normal" font-weight="normal" stroke="none" text-decoration="none" x="780.1171875" y="112.5">«dataType»</text></g></g><g transform="translate(-10,-10) scale(1,1)"><g><path fill="none" stroke="none"/><text fill="#000000" font-family="Arial" font-size="13px" font-style="normal" font-weight="bold" stroke="none" text-decoration="none" x="797.10986328125" y="127.5">String</text></g></g><g transform="translate(-10,-10) scale(1,1)"><rect fill="#C0C0C0" height="37" opacity="0.2" stroke="none" width="76.9453125" x="674.671875" y="102"/></g><g transform="translate(-10,-10) scale(1,1)"><rect fill="#ffffff" height="37" stroke="none" width="76.9453125" x="667.671875" y="95"/></g><g transform="translate(-10,-10) scale(1,1)"><path d="M 667.671875 95 L 744.6171875 95 L 744.6171875 132 L 667.671875 132 L 667.671875 95 Z Z" fill="none" stroke="#000000" stroke-miterlimit="10"/></g><g transform="translate(-10,-10) scale(1,1)"><g><path fill="none" stroke="none"/><text fill="#000000" font-family="Arial" font-size="13px" font-style="normal" font-weight="normal" stroke="none" text-decoration="none" x="672.171875" y="112.5">«dataType»</text></g></g><g transform="translate(-10,-10) scale(1,1)"><g><path fill="none" stroke="none"/><text fill="#000000" font-family="Arial" font-size="13px" font-style="normal" font-weight="bold" stroke="none" text-decoration="none" x="692.41455078125" y="127.5">Date</text></g></g><g transform="translate(-10,-10) scale(1,1)"><rect fill="#C0C0C0" height="37" opacity="0.2" stroke="none" width="76.9453125" x="566.7265625" y="102"/></g><g transform="translate(-10,-10) scale(1,1)"><rect fill="#ffffff" height="37" stroke="none" width="76.9453125" x="559.7265625" y="95"/></g><g transform="translate(-10,-10) scale(1,1)"><path d="M 559.7265625 95 L 636.671875 95 L 636.671875 132 L 559.7265625 132 L 559.7265625 95 Z Z" fill="none" stroke="#000000" stroke-miterlimit="10"/></g><g transform="translate(-10,-10) scale(1,1)"><g><path fill="none" stroke="none"/><text fill="#000000" font-family="Arial" font-size="13px" font-style="normal" font-weight="normal" stroke="none" text-decoration="none" x="564.2265625" y="112.5">«dataType»</text></g></g><g transform="translate(-10,-10) scale(1,1)"><g><path fill="none" stroke="none"/><text fill="#000000" font-family="Arial" font-size="13px" font-style="normal" font-weight="bold" stroke="none" text-decoration="none" x="570.266357421875" y="127.5">DateTime</text></g></g><g transform="translate(-10,-10) scale(1,1)"><rect fill="#C0C0C0" height="37" opacity="0.2" stroke="none" width="76.9453125" x="458.78125" y="102"/></g><g transform="translate(-10,-10) scale(1,1)"><rect fill="#ffffff" height="37" stroke="none" width="76.9453125" x="451.78125" y="95"/></g><g transform="translate(-10,-10) scale(1,1)"><path d="M 451.78125 95 L 528.7265625 95 L 528.7265625 132 L 451.78125 132 L 451.78125 95 Z Z" fill="none" stroke="#000000" stroke-miterlimit="10"/></g><g transform="translate(-10,-10) scale(1,1)"><g><path fill="none" stroke="none"/><text fill="#000000" font-family="Arial" font-size="13px" font-style="normal" font-weight="normal" stroke="none" text-decoration="none" x="456.28125" y="112.5">«dataType»</text></g></g><g transform="translate(-10,-10) scale(1,1)"><g><path fill="none" stroke="none"/><text fill="#000000" font-family="Arial" font-size="13px" font-style="normal" font-weight="bold" stroke="none" text-decoration="none" x="470.017578125" y="127.5">Integer</text></g></g><g transform="translate(-10,-10) scale(1,1)"><rect fill="#C0C0C0" height="37" opacity="0.2" stroke="none" width="76.9453125" x="350.8359375" y="102"/></g><g transform="translate(-10,-10) scale(1,1)"><rect fill="#ffffff" height="37" stroke="none" width="76.9453125" x="343.8359375" y="95"/></g><g transform="translate(-10,-10) scale(1,1)"><path d="M 343.8359375 95 L 420.78125 95 L 420.78125 132 L 343.8359375 132 L 343.8359375 95 Z Z" fill="none" stroke="#000000" stroke-miterlimit="10"/></g><g transform="translate(-10,-10) scale(1,1)"><g><path fill="none" stroke="none"/><text fill="#000000" font-family="Arial" font-size="13px" font-style="normal" font-weight="normal" stroke="none" text-decoration="none" x="348.3359375" y="112.5">«dataType»</text></g></g><g transform="translate(-10,-10) scale(1,1)"><g><path fill="none" stroke="none"/><text fill="#000000" font-family="Arial" font-size="13px" font-style="normal" font-weight="bold" stroke="none" text-decoration="none" x="358.831787109375" y="127.5">Decimal</text></g></g><g transform="translate(-10,-10) scale(1,1)"><rect fill="#C0C0C0" height="37" opacity="0.2" stroke="none" width="76.9453125" x="27" y="102"/></g><g transform="translate(-10,-10) scale(1,1)"><rect fill="#ffffff" height="37" stroke="none" width="76.9453125" x="20" y="95"/></g><g transform="translate(-10,-10) scale(1,1)"><path d="M 20 95 L 96.9453125 95 L 96.9453125 132 L 20 132 L 20 95 Z Z" fill="none" stroke="#000000" stroke-miterlimit="10"/></g><g transform="translate(-10,-10) scale(1,1)"><g><path fill="none" stroke="none"/><text fill="#000000" font-family="Arial" font-size="13px" font-style="normal" font-weight="normal" stroke="none" text-decoration="none" x="24.5" y="112.5">«dataType»</text></g></g><g transform="translate(-10,-10) scale(1,1)"><g><path fill="none" stroke="none"/><text fill="#000000" font-family="Arial" font-size="13px" font-style="normal" font-weight="bold" stroke="none" text-decoration="none" x="50.166748046875" y="127.5">IRI</text></g></g><g transform="translate(-10,-10) scale(1,1)"><rect fill="#C0C0C0" height="37" opacity="0.2" stroke="none" width="76.9453125" x="134.9453125" y="102"/></g><g transform="translate(-10,-10) scale(1,1)"><rect fill="#ffffff" height="37" stroke="none" width="76.9453125" x="127.9453125" y="95"/></g><g transform="translate(-10,-10) scale(1,1)"><path d="M 127.9453125 95 L 204.890625 95 L 204.890625 132 L 127.9453125 132 L 127.9453125 95 Z Z" fill="none" stroke="#000000" stroke-miterlimit="10"/></g><g transform="translate(-10,-10) scale(1,1)"><g><path fill="none" stroke="none"/><text fill="#000000" font-family="Arial" font-size="13px" font-style="normal" font-weight="normal" stroke="none" text-decoration="none" x="132.4453125" y="112.5">«dataType»</text></g></g><g transform="translate(-10,-10) scale(1,1)"><g><path fill="none" stroke="none"/><text fill="#000000" font-family="Arial" font-size="13px" font-style="normal" font-weight="bold" stroke="none" text-decoration="none" x="142.5634765625" y="127.5">Boolean</text></g></g><g transform="translate(-10,-10) scale(1,1)"><rect fill="#C0C0C0" height="37" opacity="0.2" stroke="none" width="76.9453125" x="242.890625" y="102"/></g><g transform="translate(-10,-10) scale(1,1)"><rect fill="#ffffff" height="37" stroke="none" width="76.9453125" x="235.890625" y="95"/></g><g transform="translate(-10,-10) scale(1,1)"><path d="M 235.890625 95 L 312.8359375 95 L 312.8359375 132 L 235.890625 132 L 235.890625 95 Z Z" fill="none" stroke="#000000" stroke-miterlimit="10"/></g><g transform="translate(-10,-10) scale(1,1)"><g><path fill="none" stroke="none"/><text fill="#000000" font-family="Arial" font-size="13px" font-style="normal" font-weight="normal" stroke="none" text-decoration="none" x="240.390625" y="112.5">«dataType»</text></g></g><g transform="translate(-10,-10) scale(1,1)"><g><path fill="none" stroke="none"/><text fill="#000000" font-family="Arial" font-size="13px" font-style="normal" font-weight="bold" stroke="none" text-decoration="none" x="250.1533203125" y="127.5">Concept</text></g></g><g transform="translate(-10,-10) scale(1,1)"><rect fill="#C0C0C0" height="44" opacity="0.2" stroke="none" width="50.919921875" x="741.6572265625" y="27"/></g><g transform="translate(-10,-10) scale(1,1)"><rect fill="#ffffff" height="44" stroke="none" width="50.919921875" x="734.6572265625" y="20"/></g><g transform="translate(-10,-10) scale(1,1)"><path d="M 734.6572265625 20 L 785.5771484375 20 L 785.5771484375 64 L 734.6572265625 64 L 734.6572265625 20 Z Z" fill="none" stroke="#000000" stroke-miterlimit="10"/></g><g transform="translate(-10,-10) scale(1,1)"><path d="M 734.6572265625 45 L 785.5771484375 45" fill="none" stroke="#000000" stroke-miterlimit="10"/></g><g transform="translate(-10,-10) scale(1,1)"><path d="M 734.6572265625 55 L 785.5771484375 55" fill="none" stroke="#000000" stroke-miterlimit="10"/></g><g transform="translate(-10,-10) scale(1,1)"><g><path fill="none" stroke="none"/><text fill="#000000" font-family="Arial" font-size="13px" font-style="italic" font-weight="bold" stroke="none" text-decoration="none" x="741.693115234375" y="39.5">Result</text></g></g><g transform="translate(-10,-10) scale(1,1)"><path d="M 59 94 Q 59 80 734 43" fill="none" stroke="#000000" stroke-miterlimit="10"/></g><g transform="translate(-10,-10) scale(1,1)"><path d="M 714.1659131905891 52.518876007005886 L 734 43 L 713.2443209445951 35.70604449225068" fill="#FFFFFF" stroke="none"/></g><g transform="translate(-10,-10) scale(1,1)"><path d="M 714.1659131905891 52.518876007005886 L 734 43 L 713.2443209445951 35.70604449225068 L 714.1659131905891 52.518876007005886" fill="none" stroke="#000000" stroke-miterlimit="10"/></g><g transform="translate(-10,-10) scale(1,1)"><path d="M 167 94 Q 167 80 734 44" fill="none" stroke="#000000" stroke-miterlimit="10"/></g><g transform="translate(-10,-10) scale(1,1)"><path d="M 714.2489627877674 53.69002213831338 L 734 44 L 713.1820272879133 36.88578801561166" fill="#FFFFFF" stroke="none"/></g><g transform="translate(-10,-10) scale(1,1)"><path d="M 714.2489627877674 53.69002213831338 L 734 44 L 713.1820272879133 36.88578801561166 L 714.2489627877674 53.69002213831338" fill="none" stroke="#000000" stroke-miterlimit="10"/></g><g transform="translate(-10,-10) scale(1,1)"><path d="M 275 94 Q 275 80 734 44" fill="none" stroke="#000000" stroke-miterlimit="10"/></g><g transform="translate(-10,-10) scale(1,1)"><path d="M 714.3951736974751 53.982524011883385 L 734 44 L 713.07858395534 37.19600479966054" fill="#FFFFFF" stroke="none"/></g><g transform="translate(-10,-10) scale(1,1)"><path d="M 714.3951736974751 53.982524011883385 L 734 44 L 713.07858395534 37.19600479966054 L 714.3951736974751 53.982524011883385" fill="none" stroke="#000000" stroke-miterlimit="10"/></g><g transform="translate(-10,-10) scale(1,1)"><path d="M 946 94 Q 946 80 787 47" fill="none" stroke="#000000" stroke-miterlimit="10"/></g><g transform="translate(-10,-10) scale(1,1)"><path d="M 808.6121242312487 42.88708300435404 L 787 47 L 805.1903510978407 59.37380810168338" fill="#FFFFFF" stroke="none"/></g><g transform="translate(-10,-10) scale(1,1)"><path d="M 808.6121242312487 42.88708300435404 L 787 47 L 805.1903510978407 59.37380810168338 L 808.6121242312487 42.88708300435404" fill="none" stroke="#000000" stroke-miterlimit="10"/></g><g transform="translate(-10,-10) scale(1,1)"><path d="M 1077 94 Q 1077 80 787 45" fill="none" stroke="#000000" stroke-miterlimit="10"/></g><g transform="translate(-10,-10) scale(1,1)"><path d="M 808.1876882138961 39.077005136695796 L 787 45 L 806.1701478464877 55.79376818093674" fill="#FFFFFF" stroke="none"/></g><g transform="translate(-10,-10) scale(1,1)"><path d="M 808.1876882138961 39.077005136695796 L 787 45 L 806.1701478464877 55.79376818093674 L 808.1876882138961 39.077005136695796" fill="none" stroke="#000000" stroke-miterlimit="10"/></g><g transform="translate(-10,-10) scale(1,1)"><path d="M 1185 94 Q 1185 80 787 44" fill="none" stroke="#000000" stroke-miterlimit="10"/></g><g transform="translate(-10,-10) scale(1,1)"><path d="M 808.0011339635221 37.44619406404182 L 787 44 L 806.4842848581102 54.21580361831688" fill="#FFFFFF" stroke="none"/></g><g transform="translate(-10,-10) scale(1,1)"><path d="M 808.0011339635221 37.44619406404182 L 787 44 L 806.4842848581102 54.21580361831688 L 808.0011339635221 37.44619406404182" fill="none" stroke="#000000" stroke-miterlimit="10"/></g><g transform="translate(-10,-10) scale(1,1)"><path d="M 1293 94 Q 1293 80 787 44" fill="none" stroke="#000000" stroke-miterlimit="10"/></g><g transform="translate(-10,-10) scale(1,1)"><path d="M 807.871575409044 37.04461791526961 L 787 44 L 806.6766303436377 53.84023466792514" fill="#FFFFFF" stroke="none"/></g><g transform="translate(-10,-10) scale(1,1)"><path d="M 807.871575409044 37.04461791526961 L 787 44 L 806.6766303436377 53.84023466792514 L 807.871575409044 37.04461791526961" fill="none" stroke="#000000" stroke-miterlimit="10"/></g><g transform="translate(-10,-10) scale(1,1)"><path d="M 1401 94 Q 1401 80 787 44" fill="none" stroke="#000000" stroke-miterlimit="10"/></g><g transform="translate(-10,-10) scale(1,1)"><path d="M 807.7832812297466 36.78506955506423 L 787 44 L 806.7977253362643 53.59427284945758" fill="#FFFFFF" stroke="none"/></g><g transform="translate(-10,-10) scale(1,1)"><path d="M 807.7832812297466 36.78506955506423 L 787 44 L 806.7977253362643 53.59427284945758 L 807.7832812297466 36.78506955506423" fill="none" stroke="#000000" stroke-miterlimit="10"/></g><g transform="translate(-10,-10) scale(1,1)"><path d="M 1509 94 Q 1509 80 787 43" fill="none" stroke="#000000" stroke-miterlimit="10"/></g><g transform="translate(-10,-10) scale(1,1)"><path d="M 807.729593873004 35.632236576795194 L 787 43 L 806.8678318775706 52.44824092011791" fill="#FFFFFF" stroke="none"/></g><g transform="translate(-10,-10) scale(1,1)"><path d="M 807.729593873004 35.632236576795194 L 787 43 L 806.8678318775706 52.44824092011791 L 807.729593873004 35.632236576795194" fill="none" stroke="#000000" stroke-miterlimit="10"/></g></g></svg>