<?xml version="1.0" encoding="UTF-8" standalone="no"?><svg xmlns="http://www.w3.org/2000/svg" xmlns:xlink="http://www.w3.org/1999/xlink" height="132" version="1.1" width="1007.4169921875"><defs/><g><g transform="translate(-10,-10) scale(1,1)"><rect fill="#C0C0C0" height="37" opacity="0.2" stroke="none" width="76.9453125" x="937.4716796875" y="102"/></g><g transform="translate(-10,-10) scale(1,1)"><rect fill="#ffffff" height="37" stroke="none" width="76.9453125" x="930.4716796875" y="95"/></g><g transform="translate(-10,-10) scale(1,1)"><path d="M 930.4716796875 95 L 1007.4169921875 95 L 1007.4169921875 132 L 930.4716796875 132 L 930.4716796875 95 Z Z" fill="none" stroke="#000000" stroke-miterlimit="10"/></g><g transform="translate(-10,-10) scale(1,1)"><g><path fill="none" stroke="none"/><text fill="#000000" font-family="Arial" font-size="13px" font-style="normal" font-weight="normal" stroke="none" text-decoration="none" x="934.9716796875" y="112.5">«dataType»</text></g></g><g transform="translate(-10,-10) scale(1,1)"><g><path fill="none" stroke="none"/><text fill="#000000" font-family="Arial" font-size="13px" font-style="normal" font-weight="bold" stroke="none" text-decoration="none" x="951.96435546875" y="127.5">String</text></g></g><g transform="translate(-10,-10) scale(1,1)"><rect fill="#C0C0C0" height="37" opacity="0.2" stroke="none" width="76.9453125" x="829.5263671875" y="102"/></g><g transform="translate(-10,-10) scale(1,1)"><rect fill="#ffffff" height="37" stroke="none" width="76.9453125" x="822.5263671875" y="95"/></g><g transform="translate(-10,-10) scale(1,1)"><path d="M 822.5263671875 95 L 899.4716796875 95 L 899.4716796875 132 L 822.5263671875 132 L 822.5263671875 95 Z Z" fill="none" stroke="#000000" stroke-miterlimit="10"/></g><g transform="translate(-10,-10) scale(1,1)"><g><path fill="none" stroke="none"/><text fill="#000000" font-family="Arial" font-size="13px" font-style="normal" font-weight="normal" stroke="none" text-decoration="none" x="827.0263671875" y="112.5">«dataType»</text></g></g><g transform="translate(-10,-10) scale(1,1)"><g><path fill="none" stroke="none"/><text fill="#000000" font-family="Arial" font-size="13px" font-style="normal" font-weight="bold" stroke="none" text-decoration="none" x="847.26904296875" y="127.5">Date</text></g></g><g transform="translate(-10,-10) scale(1,1)"><rect fill="#C0C0C0" height="37" opacity="0.2" stroke="none" width="76.9453125" x="721.5810546875" y="102"/></g><g transform="translate(-10,-10) scale(1,1)"><rect fill="#ffffff" height="37" stroke="none" width="76.9453125" x="714.5810546875" y="95"/></g><g transform="translate(-10,-10) scale(1,1)"><path d="M 714.5810546875 95 L 791.5263671875 95 L 791.5263671875 132 L 714.5810546875 132 L 714.5810546875 95 Z Z" fill="none" stroke="#000000" stroke-miterlimit="10"/></g><g transform="translate(-10,-10) scale(1,1)"><g><path fill="none" stroke="none"/><text fill="#000000" font-family="Arial" font-size="13px" font-style="normal" font-weight="normal" stroke="none" text-decoration="none" x="719.0810546875" y="112.5">«dataType»</text></g></g><g transform="translate(-10,-10) scale(1,1)"><g><path fill="none" stroke="none"/><text fill="#000000" font-family="Arial" font-size="13px" font-style="normal" font-weight="bold" stroke="none" text-decoration="none" x="725.120849609375" y="127.5">DateTime</text></g></g><g transform="translate(-10,-10) scale(1,1)"><rect fill="#C0C0C0" height="37" opacity="0.2" stroke="none" width="76.9453125" x="613.6357421875" y="102"/></g><g transform="translate(-10,-10) scale(1,1)"><rect fill="#ffffff" height="37" stroke="none" width="76.9453125" x="606.6357421875" y="95"/></g><g transform="translate(-10,-10) scale(1,1)"><path d="M 606.6357421875 95 L 683.5810546875 95 L 683.5810546875 132 L 606.6357421875 132 L 606.6357421875 95 Z Z" fill="none" stroke="#000000" stroke-miterlimit="10"/></g><g transform="translate(-10,-10) scale(1,1)"><g><path fill="none" stroke="none"/><text fill="#000000" font-family="Arial" font-size="13px" font-style="normal" font-weight="normal" stroke="none" text-decoration="none" x="611.1357421875" y="112.5">«dataType»</text></g></g><g transform="translate(-10,-10) scale(1,1)"><g><path fill="none" stroke="none"/><text fill="#000000" font-family="Arial" font-size="13px" font-style="normal" font-weight="bold" stroke="none" text-decoration="none" x="624.8720703125" y="127.5">Integer</text></g></g><g transform="translate(-10,-10) scale(1,1)"><rect fill="#C0C0C0" height="37" opacity="0.2" stroke="none" width="76.9453125" x="505.6904296875" y="102"/></g><g transform="translate(-10,-10) scale(1,1)"><rect fill="#ffffff" height="37" stroke="none" width="76.9453125" x="498.6904296875" y="95"/></g><g transform="translate(-10,-10) scale(1,1)"><path d="M 498.6904296875 95 L 575.6357421875 95 L 575.6357421875 132 L 498.6904296875 132 L 498.6904296875 95 Z Z" fill="none" stroke="#000000" stroke-miterlimit="10"/></g><g transform="translate(-10,-10) scale(1,1)"><g><path fill="none" stroke="none"/><text fill="#000000" font-family="Arial" font-size="13px" font-style="normal" font-weight="normal" stroke="none" text-decoration="none" x="503.1904296875" y="112.5">«dataType»</text></g></g><g transform="translate(-10,-10) scale(1,1)"><g><path fill="none" stroke="none"/><text fill="#000000" font-family="Arial" font-size="13px" font-style="normal" font-weight="bold" stroke="none" text-decoration="none" x="513.686279296875" y="127.5">Decimal</text></g></g><g transform="translate(-10,-10) scale(1,1)"><rect fill="#C0C0C0" height="37" opacity="0.2" stroke="none" width="123.8544921875" x="350.8359375" y="102"/></g><g transform="translate(-10,-10) scale(1,1)"><rect fill="#ffffff" height="37" stroke="none" width="123.8544921875" x="343.8359375" y="95"/></g><g transform="translate(-10,-10) scale(1,1)"><path d="M 343.8359375 95 L 467.6904296875 95 L 467.6904296875 132 L 343.8359375 132 L 343.8359375 95 Z Z" fill="none" stroke="#000000" stroke-miterlimit="10"/></g><g transform="translate(-10,-10) scale(1,1)"><g><path fill="none" stroke="none"/><text fill="#000000" font-family="Arial" font-size="13px" font-style="normal" font-weight="normal" stroke="none" text-decoration="none" x="371.79052734375" y="112.5">«dataType»</text></g></g><g transform="translate(-10,-10) scale(1,1)"><g><path fill="none" stroke="none"/><text fill="#000000" font-family="Arial" font-size="13px" font-style="normal" font-weight="bold" stroke="none" text-decoration="none" x="351.92236328125" y="127.5">QuantitativeRange</text></g></g><g transform="translate(-10,-10) scale(1,1)"><rect fill="#C0C0C0" height="37" opacity="0.2" stroke="none" width="76.9453125" x="27" y="102"/></g><g transform="translate(-10,-10) scale(1,1)"><rect fill="#ffffff" height="37" stroke="none" width="76.9453125" x="20" y="95"/></g><g transform="translate(-10,-10) scale(1,1)"><path d="M 20 95 L 96.9453125 95 L 96.9453125 132 L 20 132 L 20 95 Z Z" fill="none" stroke="#000000" stroke-miterlimit="10"/></g><g transform="translate(-10,-10) scale(1,1)"><g><path fill="none" stroke="none"/><text fill="#000000" font-family="Arial" font-size="13px" font-style="normal" font-weight="normal" stroke="none" text-decoration="none" x="24.5" y="112.5">«dataType»</text></g></g><g transform="translate(-10,-10) scale(1,1)"><g><path fill="none" stroke="none"/><text fill="#000000" font-family="Arial" font-size="13px" font-style="normal" font-weight="bold" stroke="none" text-decoration="none" x="50.166748046875" y="127.5">IRI</text></g></g><g transform="translate(-10,-10) scale(1,1)"><rect fill="#C0C0C0" height="37" opacity="0.2" stroke="none" width="76.9453125" x="134.9453125" y="102"/></g><g transform="translate(-10,-10) scale(1,1)"><rect fill="#ffffff" height="37" stroke="none" width="76.9453125" x="127.9453125" y="95"/></g><g transform="translate(-10,-10) scale(1,1)"><path d="M 127.9453125 95 L 204.890625 95 L 204.890625 132 L 127.9453125 132 L 127.9453125 95 Z Z" fill="none" stroke="#000000" stroke-miterlimit="10"/></g><g transform="translate(-10,-10) scale(1,1)"><g><path fill="none" stroke="none"/><text fill="#000000" font-family="Arial" font-size="13px" font-style="normal" font-weight="normal" stroke="none" text-decoration="none" x="132.4453125" y="112.5">«dataType»</text></g></g><g transform="translate(-10,-10) scale(1,1)"><g><path fill="none" stroke="none"/><text fill="#000000" font-family="Arial" font-size="13px" font-style="normal" font-weight="bold" stroke="none" text-decoration="none" x="142.5634765625" y="127.5">Boolean</text></g></g><g transform="translate(-10,-10) scale(1,1)"><rect fill="#C0C0C0" height="37" opacity="0.2" stroke="none" width="76.9453125" x="242.890625" y="102"/></g><g transform="translate(-10,-10) scale(1,1)"><rect fill="#ffffff" height="37" stroke="none" width="76.9453125" x="235.890625" y="95"/></g><g transform="translate(-10,-10) scale(1,1)"><path d="M 235.890625 95 L 312.8359375 95 L 312.8359375 132 L 235.890625 132 L 235.890625 95 Z Z" fill="none" stroke="#000000" stroke-miterlimit="10"/></g><g transform="translate(-10,-10) scale(1,1)"><g><path fill="none" stroke="none"/><text fill="#000000" font-family="Arial" font-size="13px" font-style="normal" font-weight="normal" stroke="none" text-decoration="none" x="240.390625" y="112.5">«dataType»</text></g></g><g transform="translate(-10,-10) scale(1,1)"><g><path fill="none" stroke="none"/><text fill="#000000" font-family="Arial" font-size="13px" font-style="normal" font-weight="bold" stroke="none" text-decoration="none" x="250.1533203125" y="127.5">Concept</text></g></g><g transform="translate(-10,-10) scale(1,1)"><rect fill="#C0C0C0" height="44" opacity="0.2" stroke="none" width="50.919921875" x="518.703125" y="27"/></g><g transform="translate(-10,-10) scale(1,1)"><rect fill="#ffffff" height="44" stroke="none" width="50.919921875" x="511.703125" y="20"/></g><g transform="translate(-10,-10) scale(1,1)"><path d="M 511.703125 20 L 562.623046875 20 L 562.623046875 64 L 511.703125 64 L 511.703125 20 Z Z" fill="none" stroke="#000000" stroke-miterlimit="10"/></g><g transform="translate(-10,-10) scale(1,1)"><path d="M 511.703125 45 L 562.623046875 45" fill="none" stroke="#000000" stroke-miterlimit="10"/></g><g transform="translate(-10,-10) scale(1,1)"><path d="M 511.703125 55 L 562.623046875 55" fill="none" stroke="#000000" stroke-miterlimit="10"/></g><g transform="translate(-10,-10) scale(1,1)"><g><path fill="none" stroke="none"/><text fill="#000000" font-family="Arial" font-size="13px" font-style="italic" font-weight="bold" stroke="none" text-decoration="none" x="518.739013671875" y="39.5">Result</text></g></g><g transform="translate(-10,-10) scale(1,1)"><path d="M 59 94 Q 59 80 511 44" fill="none" stroke="#000000" stroke-miterlimit="10"/></g><g transform="translate(-10,-10) scale(1,1)"><path d="M 491.40723792317857 54.006181799321254 L 511 44 L 490.07038606921947 37.22126407739041" fill="#FFFFFF" stroke="none"/></g><g transform="translate(-10,-10) scale(1,1)"><path d="M 491.40723792317857 54.006181799321254 L 511 44 L 490.07038606921947 37.22126407739041 L 491.40723792317857 54.006181799321254" fill="none" stroke="#000000" stroke-miterlimit="10"/></g><g transform="translate(-10,-10) scale(1,1)"><path d="M 167 94 Q 167 80 511 45" fill="none" stroke="#000000" stroke-miterlimit="10"/></g><g transform="translate(-10,-10) scale(1,1)"><path d="M 491.6312316633416 55.433159306790046 L 511 45 L 489.9268548708868 38.68157026094835" fill="#FFFFFF" stroke="none"/></g><g transform="translate(-10,-10) scale(1,1)"><path d="M 491.6312316633416 55.433159306790046 L 511 45 L 489.9268548708868 38.68157026094835 L 491.6312316633416 55.433159306790046" fill="none" stroke="#000000" stroke-miterlimit="10"/></g><g transform="translate(-10,-10) scale(1,1)"><path d="M 275 94 Q 275 80 511 46" fill="none" stroke="#000000" stroke-miterlimit="10"/></g><g transform="translate(-10,-10) scale(1,1)"><path d="M 492.08287146298665 57.23130659870506 L 511 46 L 489.68183707337073 40.56530318842989" fill="#FFFFFF" stroke="none"/></g><g transform="translate(-10,-10) scale(1,1)"><path d="M 492.08287146298665 57.23130659870506 L 511 46 L 489.68183707337073 40.56530318842989 L 492.08287146298665 57.23130659870506" fill="none" stroke="#000000" stroke-miterlimit="10"/></g><g transform="translate(-10,-10) scale(1,1)"><path d="M 406 94 Q 406 80 511 50" fill="none" stroke="#000000" stroke-miterlimit="10"/></g><g transform="translate(-10,-10) scale(1,1)"><path d="M 493.76957643628765 63.67890725953893 L 511 50 L 489.1438025729407 47.48869873782441" fill="#FFFFFF" stroke="none"/></g><g transform="translate(-10,-10) scale(1,1)"><path d="M 493.76957643628765 63.67890725953893 L 511 50 L 489.1438025729407 47.48869873782441 L 493.76957643628765 63.67890725953893" fill="none" stroke="#000000" stroke-miterlimit="10"/></g><g transform="translate(-10,-10) scale(1,1)"><path d="M 538 94 Q 538 80 538 65" fill="none" stroke="#000000" stroke-miterlimit="10"/></g><g transform="translate(-10,-10) scale(1,1)"><path d="M 546.419035512032 85.32534971524831 L 538 65 L 529.580964487968 85.32534971524831" fill="#FFFFFF" stroke="none"/></g><g transform="translate(-10,-10) scale(1,1)"><path d="M 546.419035512032 85.32534971524831 L 538 65 L 529.580964487968 85.32534971524831 L 546.419035512032 85.32534971524831" fill="none" stroke="#000000" stroke-miterlimit="10"/></g><g transform="translate(-10,-10) scale(1,1)"><path d="M 646 94 Q 646 80 564 51" fill="none" stroke="#000000" stroke-miterlimit="10"/></g><g transform="translate(-10,-10) scale(1,1)"><path d="M 585.9693771999559 49.83962702286803 L 564 51 L 580.3552031973696 65.7141879956983" fill="#FFFFFF" stroke="none"/></g><g transform="translate(-10,-10) scale(1,1)"><path d="M 585.9693771999559 49.83962702286803 L 564 51 L 580.3552031973696 65.7141879956983 L 585.9693771999559 49.83962702286803" fill="none" stroke="#000000" stroke-miterlimit="10"/></g><g transform="translate(-10,-10) scale(1,1)"><path d="M 754 94 Q 754 80 564 47" fill="none" stroke="#000000" stroke-miterlimit="10"/></g><g transform="translate(-10,-10) scale(1,1)"><path d="M 585.4662315154605 42.18326827354371 L 564 47 L 582.5848615380361 58.77297420416886" fill="#FFFFFF" stroke="none"/></g><g transform="translate(-10,-10) scale(1,1)"><path d="M 585.4662315154605 42.18326827354371 L 564 47 L 582.5848615380361 58.77297420416886 L 585.4662315154605 42.18326827354371" fill="none" stroke="#000000" stroke-miterlimit="10"/></g><g transform="translate(-10,-10) scale(1,1)"><path d="M 861 94 Q 861 80 564 45" fill="none" stroke="#000000" stroke-miterlimit="10"/></g><g transform="translate(-10,-10) scale(1,1)"><path d="M 585.1709930340967 39.01760466449834 L 564 45 L 583.2003450483348 55.73996042939089" fill="#FFFFFF" stroke="none"/></g><g transform="translate(-10,-10) scale(1,1)"><path d="M 585.1709930340967 39.01760466449834 L 564 45 L 583.2003450483348 55.73996042939089 L 585.1709930340967 39.01760466449834" fill="none" stroke="#000000" stroke-miterlimit="10"/></g><g transform="translate(-10,-10) scale(1,1)"><path d="M 969 94 Q 969 80 564 44" fill="none" stroke="#000000" stroke-miterlimit="10"/></g><g transform="translate(-10,-10) scale(1,1)"><path d="M 584.9909444024969 37.41363126667767 L 564 44 L 583.5001051252426 54.185573135788054" fill="#FFFFFF" stroke="none"/></g><g transform="translate(-10,-10) scale(1,1)"><path d="M 584.9909444024969 37.41363126667767 L 564 44 L 583.5001051252426 54.185573135788054 L 584.9909444024969 37.41363126667767" fill="none" stroke="#000000" stroke-miterlimit="10"/></g></g></svg>