<?xml version="1.0" encoding="UTF-8" standalone="no"?><svg xmlns="http://www.w3.org/2000/svg" xmlns:xlink="http://www.w3.org/1999/xlink" height="851" version="1.1" width="1749.2412109375"><defs/><g><g transform="translate(-22,-14) scale(1,1)"><rect fill="#C0C0C0" height="24" opacity="0.2" stroke="none" width="150.12109375" x="447" y="359"/></g><g transform="translate(-22,-14) scale(1,1)"><rect fill="#ffffff" height="24" stroke="none" width="150.12109375" x="440" y="352"/></g><g transform="translate(-22,-14) scale(1,1)"><path d="M 440 352 L 590.12109375 352 L 590.12109375 376 L 440 376 L 440 352 Z Z" fill="none" stroke="#000000" stroke-miterlimit="10"/></g><g transform="translate(-22,-14) scale(1,1)"><rect fill="#ffffff" height="24" stroke="none" width="150.12109375" x="440" y="352"/></g><g transform="translate(-22,-14) scale(1,1)"><path d="M 440 352 L 590.12109375 352 L 590.12109375 376 L 440 376 L 440 352 Z Z" fill="none" stroke="#000000" stroke-miterlimit="10"/></g><g transform="translate(-22,-14) scale(1,1)"><g><path fill="none" stroke="none"/><text fill="#000000" font-family="Arial" font-size="13px" font-style="normal" font-weight="bold" stroke="none" text-decoration="none" x="460.03271484375" y="371.5">NTAGFU0011: Site</text><path d="M 571.64990234375 371.5 L 458.47119140625 371.5" fill="none" stroke="#000000" stroke-miterlimit="10"/></g></g><g transform="translate(-22,-14) scale(1,1)"><rect fill="#C0C0C0" height="24" opacity="0.2" stroke="none" width="104.1513671875" x="559" y="479"/></g><g transform="translate(-22,-14) scale(1,1)"><rect fill="#ffffff" height="24" stroke="none" width="104.1513671875" x="552" y="472"/></g><g transform="translate(-22,-14) scale(1,1)"><path d="M 552 472 L 656.1513671875 472 L 656.1513671875 496 L 552 496 L 552 472 Z Z" fill="none" stroke="#000000" stroke-miterlimit="10"/></g><g transform="translate(-22,-14) scale(1,1)"><rect fill="#ffffff" height="24" stroke="none" width="104.1513671875" x="552" y="472"/></g><g transform="translate(-22,-14) scale(1,1)"><path d="M 552 472 L 656.1513671875 472 L 656.1513671875 496 L 552 496 L 552 472 Z Z" fill="none" stroke="#000000" stroke-miterlimit="10"/></g><g transform="translate(-22,-14) scale(1,1)"><g><path fill="none" stroke="none"/><text fill="#000000" font-family="Arial" font-size="13px" font-style="normal" font-weight="bold" stroke="none" text-decoration="none" x="559.0263671875" y="491.5">53658: SiteVisit</text><path d="M 651.6513671875 491.5 L 556.5 491.5" fill="none" stroke="#000000" stroke-miterlimit="10"/></g></g><g transform="translate(-22,-14) scale(1,1)"><path d="M 525 377 L 594 471" fill="none" stroke="#000000" stroke-miterlimit="10"/></g><g transform="translate(-22,-14) scale(1,1)"><path d="M 584.5929575669298 465.2984605006703 L 594 471 L 591.3798137478456 460.31661926148746" fill="none" stroke="#000000" stroke-miterlimit="10"/></g><g transform="translate(-22,-14) scale(1,1)"><g><path fill="none" stroke="none"/><text fill="#000000" font-family="Arial" font-size="13px" font-style="normal" font-weight="normal" stroke="none" text-decoration="none" x="544.5" y="421.5">+siteVisit</text></g></g><g transform="translate(-22,-14) scale(1,1)"><rect fill="#C0C0C0" height="24" opacity="0.2" stroke="none" width="263.99169921875" x="39" y="119"/></g><g transform="translate(-22,-14) scale(1,1)"><rect fill="#ffff91" height="24" stroke="none" width="263.99169921875" x="32" y="112"/></g><g transform="translate(-22,-14) scale(1,1)"><path d="M 32 112 L 295.99169921875 112 L 295.99169921875 136 L 32 136 L 32 112 Z Z" fill="none" stroke="#000000" stroke-miterlimit="10"/></g><g transform="translate(-22,-14) scale(1,1)"><rect fill="#ffff91" height="24" stroke="none" width="263.99169921875" x="32" y="112"/></g><g transform="translate(-22,-14) scale(1,1)"><path d="M 32 112 L 295.99169921875 112 L 295.99169921875 136 L 32 136 L 32 112 Z Z" fill="none" stroke="#000000" stroke-miterlimit="10"/></g><g transform="translate(-22,-14) scale(1,1)"><g><path fill="none" stroke="none"/><text fill="#000000" font-family="Arial" font-size="13px" font-style="normal" font-weight="bold" stroke="none" text-decoration="none" x="45.49462890625" y="131.5">53658 plant community: PlantCommunity</text><path d="M 291.49169921875 131.5 L 36.5 131.5" fill="none" stroke="#000000" stroke-miterlimit="10"/></g></g><g transform="translate(-22,-14) scale(1,1)"><rect fill="#C0C0C0" height="24" opacity="0.2" stroke="none" width="209.14794921875" x="247" y="287"/></g><g transform="translate(-22,-14) scale(1,1)"><rect fill="#ffff91" height="24" stroke="none" width="209.14794921875" x="240" y="280"/></g><g transform="translate(-22,-14) scale(1,1)"><path d="M 240 280 L 449.14794921875 280 L 449.14794921875 304 L 240 304 L 240 280 Z Z" fill="none" stroke="#000000" stroke-miterlimit="10"/></g><g transform="translate(-22,-14) scale(1,1)"><rect fill="#ffff91" height="24" stroke="none" width="209.14794921875" x="240" y="280"/></g><g transform="translate(-22,-14) scale(1,1)"><path d="M 240 280 L 449.14794921875 280 L 449.14794921875 304 L 240 304 L 240 280 Z Z" fill="none" stroke="#000000" stroke-miterlimit="10"/></g><g transform="translate(-22,-14) scale(1,1)"><g><path fill="none" stroke="none"/><text fill="#000000" font-family="Arial" font-size="13px" font-style="normal" font-weight="bold" stroke="none" text-decoration="none" x="249.42578125" y="299.5">53658 NVIS Level V: Association</text><path d="M 444.64794921875 299.5 L 244.5 299.5" fill="none" stroke="#000000" stroke-miterlimit="10"/></g></g><g transform="translate(-22,-14) scale(1,1)"><rect fill="#C0C0C0" height="47" opacity="0.2" stroke="none" width="756.7158203125" x="367" y="119"/></g><g transform="translate(-22,-14) scale(1,1)"><rect fill="#ffff91" height="47" stroke="none" width="756.7158203125" x="360" y="112"/></g><g transform="translate(-22,-14) scale(1,1)"><path d="M 360 112 L 1116.7158203125 112 L 1116.7158203125 159 L 360 159 L 360 112 Z Z" fill="none" stroke="#000000" stroke-miterlimit="10"/></g><g transform="translate(-22,-14) scale(1,1)"><rect fill="#ffff91" height="47" stroke="none" width="756.7158203125" x="360" y="112"/></g><g transform="translate(-22,-14) scale(1,1)"><path d="M 360 112 L 1116.7158203125 112 L 1116.7158203125 159 L 360 159 L 360 112 Z Z" fill="none" stroke="#000000" stroke-miterlimit="10"/></g><g transform="translate(-22,-14) scale(1,1)"><path d="M 360 137 L 1116.7158203125 137" fill="none" stroke="#000000" stroke-miterlimit="10"/></g><g transform="translate(-22,-14) scale(1,1)"><g><path fill="none" stroke="none"/><text fill="#000000" font-family="Arial" font-size="13px" font-style="normal" font-weight="bold" stroke="none" text-decoration="none" x="647.316650390625" y="131.5">mid stratum: VegetationStratum</text><path d="M 836.9560546875 131.5 L 639.759765625 131.5" fill="none" stroke="#000000" stroke-miterlimit="10"/></g></g><g transform="translate(-22,-14) scale(1,1)"><g><path fill="none" stroke="none"/><text fill="#000000" font-family="Arial" font-size="13px" font-style="normal" font-weight="normal" stroke="none" text-decoration="none" x="365" y="154.5">+stratumClassification: StratumClassification = http://linked.data.gov.au/def/ausplots-cv/48559613-2a0e-42f2-bc40-a931ab5d48b8</text></g></g><g transform="translate(-22,-14) scale(1,1)"><path d="M 675 160 L 377 279" fill="none" stroke="#000000" stroke-miterlimit="10"/></g><g transform="translate(-22,-14) scale(1,1)"><path d="M 384.8768757995549 271.32179528545987 L 377 279 L 387.99910291341934 279.14048167143966" fill="none" stroke="#000000" stroke-miterlimit="10"/></g><g transform="translate(-22,-14) scale(1,1)"><g><path fill="none" stroke="none"/><text fill="#000000" font-family="Arial" font-size="13px" font-style="normal" font-weight="normal" stroke="none" text-decoration="none" x="503.5" y="238.5">+isPartOf</text></g></g><g transform="translate(-22,-14) scale(1,1)"><path d="M 330 279 L 177 137" fill="none" stroke="#000000" stroke-miterlimit="10"/></g><g transform="translate(-22,-14) scale(1,1)"><path d="M 187.31247315939407 140.82791030939555 L 177 137 L 181.58527836426433 146.9987610393593" fill="none" stroke="#000000" stroke-miterlimit="10"/></g><g transform="translate(-22,-14) scale(1,1)"><g><path fill="none" stroke="none"/><text fill="#000000" font-family="Arial" font-size="13px" font-style="normal" font-weight="normal" stroke="none" text-decoration="none" x="195.5" y="224.5">+relatedFeature</text></g></g><g transform="translate(-22,-14) scale(1,1)"><rect fill="#C0C0C0" height="77" opacity="0.2" stroke="none" width="407.7470703125" x="687" y="359"/></g><g transform="translate(-22,-14) scale(1,1)"><rect fill="#d1ffa3" height="77" stroke="none" width="407.7470703125" x="680" y="352"/></g><g transform="translate(-22,-14) scale(1,1)"><path d="M 680 352 L 1087.7470703125 352 L 1087.7470703125 429 L 680 429 L 680 352 Z Z" fill="none" stroke="#000000" stroke-miterlimit="10"/></g><g transform="translate(-22,-14) scale(1,1)"><rect fill="#d1ffa3" height="77" stroke="none" width="407.7470703125" x="680" y="352"/></g><g transform="translate(-22,-14) scale(1,1)"><path d="M 680 352 L 1087.7470703125 352 L 1087.7470703125 429 L 680 429 L 680 352 Z Z" fill="none" stroke="#000000" stroke-miterlimit="10"/></g><g transform="translate(-22,-14) scale(1,1)"><path d="M 680 377 L 1087.7470703125 377" fill="none" stroke="#000000" stroke-miterlimit="10"/></g><g transform="translate(-22,-14) scale(1,1)"><g><path fill="none" stroke="none"/><text fill="#000000" font-family="Arial" font-size="13px" font-style="normal" font-weight="bold" stroke="none" text-decoration="none" x="700.708740234375" y="371.5">most dominant species in mid stratum observation: Observation</text><path d="M 1083.2470703125 371.5 L 684.5 371.5" fill="none" stroke="#000000" stroke-miterlimit="10"/></g></g><g transform="translate(-22,-14) scale(1,1)"><g><path fill="none" stroke="none"/><text fill="#000000" font-family="Arial" font-size="13px" font-style="normal" font-weight="normal" stroke="none" text-decoration="none" x="685" y="394.5">+phenomenonTime: DateTime = 2012-05-10 00:00:00</text></g></g><g transform="translate(-22,-14) scale(1,1)"><g><path fill="none" stroke="none"/><text fill="#000000" font-family="Arial" font-size="13px" font-style="normal" font-weight="normal" stroke="none" text-decoration="none" x="685" y="409.5">+resultTime: DateTime = 2012-05-10 00:00:00</text></g></g><g transform="translate(-22,-14) scale(1,1)"><g><path fill="none" stroke="none"/><text fill="#000000" font-family="Arial" font-size="13px" font-style="normal" font-weight="normal" stroke="none" text-decoration="none" x="685" y="424.5">+validTime: DateTime = 2012-05-10 00:00:00</text></g></g><g transform="translate(-22,-14) scale(1,1)"><path d="M 861 351 L 752 160" fill="none" stroke="#000000" stroke-miterlimit="10"/></g><g transform="translate(-22,-14) scale(1,1)"><path d="M 760.6931835147305 166.7400712443725 L 752 160 L 753.3810589307889 170.91295909594132" fill="none" stroke="#000000" stroke-miterlimit="10"/></g><g transform="translate(-22,-14) scale(1,1)"><g><path fill="none" stroke="none"/><text fill="#000000" font-family="Arial" font-size="13px" font-style="normal" font-weight="normal" stroke="none" text-decoration="none" x="726.5" y="268.5">+hasFeatureOfInterest</text></g></g><g transform="translate(-22,-14) scale(1,1)"><rect fill="#C0C0C0" height="39" opacity="0.2" stroke="none" width="329.00439453125" x="1159" y="247"/></g><g transform="translate(-22,-14) scale(1,1)"><rect fill="#e2e2e2" height="39" stroke="none" width="329.00439453125" x="1152" y="240"/></g><g transform="translate(-22,-14) scale(1,1)"><path d="M 1152 240 L 1481.00439453125 240 L 1481.00439453125 279 L 1152 279 L 1152 240 Z Z" fill="none" stroke="#000000" stroke-miterlimit="10"/></g><g transform="translate(-22,-14) scale(1,1)"><rect fill="#e2e2e2" height="39" stroke="none" width="329.00439453125" x="1152" y="240"/></g><g transform="translate(-22,-14) scale(1,1)"><path d="M 1152 240 L 1481.00439453125 240 L 1481.00439453125 279 L 1152 279 L 1152 240 Z Z" fill="none" stroke="#000000" stroke-miterlimit="10"/></g><g transform="translate(-22,-14) scale(1,1)"><g><path fill="none" stroke="none"/><text fill="#000000" font-family="Arial" font-size="13px" font-style="normal" font-weight="bold" stroke="none" text-decoration="none" x="1169.46826171875" y="259.5">most dominant species in mid stratum value: String</text><path d="M 1476.50439453125 259.5 L 1156.5 259.5" fill="none" stroke="#000000" stroke-miterlimit="10"/></g></g><g transform="translate(-22,-14) scale(1,1)"><g><path fill="none" stroke="none"/><text fill="#000000" font-family="Arial" font-size="13px" font-style="normal" font-weight="normal" stroke="none" text-decoration="none" x="1254" y="274.5">Terminalia canescens</text></g></g><g transform="translate(-22,-14) scale(1,1)"><path d="M 1012 351 L 1247 280" fill="none" stroke="#000000" stroke-miterlimit="10"/></g><g transform="translate(-22,-14) scale(1,1)"><path d="M 1238.4890977561342 286.96882651494207 L 1247 280 L 1236.0541788237185 278.9095877949748" fill="none" stroke="#000000" stroke-miterlimit="10"/></g><g transform="translate(-22,-14) scale(1,1)"><g><path fill="none" stroke="none"/><text fill="#000000" font-family="Arial" font-size="13px" font-style="normal" font-weight="normal" stroke="none" text-decoration="none" x="1091.5" y="306.5">+hasResult</text></g></g><g transform="translate(-22,-14) scale(1,1)"><rect fill="#C0C0C0" height="92" opacity="0.2" stroke="none" width="710.51123046875" x="943" y="743"/></g><g transform="translate(-22,-14) scale(1,1)"><rect fill="#ffd8d8" height="92" stroke="none" width="710.51123046875" x="936" y="736"/></g><g transform="translate(-22,-14) scale(1,1)"><path d="M 936 736 L 1646.51123046875 736 L 1646.51123046875 828 L 936 828 L 936 736 Z Z" fill="none" stroke="#000000" stroke-miterlimit="10"/></g><g transform="translate(-22,-14) scale(1,1)"><rect fill="#ffd8d8" height="92" stroke="none" width="710.51123046875" x="936" y="736"/></g><g transform="translate(-22,-14) scale(1,1)"><path d="M 936 736 L 1646.51123046875 736 L 1646.51123046875 828 L 936 828 L 936 736 Z Z" fill="none" stroke="#000000" stroke-miterlimit="10"/></g><g transform="translate(-22,-14) scale(1,1)"><path d="M 936 761 L 1646.51123046875 761" fill="none" stroke="#000000" stroke-miterlimit="10"/></g><g transform="translate(-22,-14) scale(1,1)"><g><path fill="none" stroke="none"/><text fill="#000000" font-family="Arial" font-size="13px" font-style="normal" font-weight="bold" stroke="none" text-decoration="none" x="1178.908447265625" y="755.5">structural summary method: Procedure</text><path d="M 1413.34326171875 755.5 L 1169.16796875 755.5" fill="none" stroke="#000000" stroke-miterlimit="10"/></g></g><g transform="translate(-22,-14) scale(1,1)"><g><path fill="none" stroke="none"/><text fill="#000000" font-family="Arial" font-size="13px" font-style="normal" font-weight="normal" stroke="none" text-decoration="none" x="941" y="778.5">+vocabulary: MethodVocabularyTerm = http://linked.data.gov.au/def/ausplots-cv/3ee6feb4-20aa-4dd8-9f15-48bbbebbac7a</text></g></g><g transform="translate(-22,-14) scale(1,1)"><g><path fill="none" stroke="none"/><text fill="#000000" font-family="Arial" font-size="13px" font-style="normal" font-weight="normal" stroke="none" text-decoration="none" x="941" y="793.5">+value: MethodTerm = http://linked.data.gov.au/def/ausplots-cv/d5685cab-13e7-4939-9d77-1cca9254207a</text></g></g><g transform="translate(-22,-14) scale(1,1)"><g><path fill="none" stroke="none"/><text fill="#000000" font-family="Arial" font-size="13px" font-style="normal" font-weight="normal" stroke="none" text-decoration="none" x="941" y="808.5">+observationType</text></g></g><g transform="translate(-22,-14) scale(1,1)"><g><path fill="none" stroke="none"/><text fill="#000000" font-family="Arial" font-size="13px" font-style="normal" font-weight="normal" stroke="none" text-decoration="none" x="941" y="823.5">+instrumentType</text></g></g><g transform="translate(-22,-14) scale(1,1)"><path d="M 898 430 L 992 672 L 1163 735" fill="none" stroke="#000000" stroke-miterlimit="10"/></g><g transform="translate(-22,-14) scale(1,1)"><path d="M 1152.0086711525644 735.4366808531763 L 1163 735 L 1154.9191768452317 727.5367368302223" fill="none" stroke="#000000" stroke-miterlimit="10"/></g><g transform="translate(-22,-14) scale(1,1)"><g><path fill="none" stroke="none"/><text fill="#000000" font-family="Arial" font-size="13px" font-style="normal" font-weight="normal" stroke="none" text-decoration="none" x="949.5" y="663.5">+usedProcedure</text></g></g><g transform="translate(-22,-14) scale(1,1)"><rect fill="#C0C0C0" height="47" opacity="0.2" stroke="none" width="265.8388671875" x="95" y="431"/></g><g transform="translate(-22,-14) scale(1,1)"><rect fill="#ffff91" height="47" stroke="none" width="265.8388671875" x="88" y="424"/></g><g transform="translate(-22,-14) scale(1,1)"><path d="M 88 424 L 353.8388671875 424 L 353.8388671875 471 L 88 471 L 88 424 Z Z" fill="none" stroke="#000000" stroke-miterlimit="10"/></g><g transform="translate(-22,-14) scale(1,1)"><rect fill="#ffff91" height="47" stroke="none" width="265.8388671875" x="88" y="424"/></g><g transform="translate(-22,-14) scale(1,1)"><path d="M 88 424 L 353.8388671875 424 L 353.8388671875 471 L 88 471 L 88 424 Z Z" fill="none" stroke="#000000" stroke-miterlimit="10"/></g><g transform="translate(-22,-14) scale(1,1)"><path d="M 88 449 L 353.8388671875 449" fill="none" stroke="#000000" stroke-miterlimit="10"/></g><g transform="translate(-22,-14) scale(1,1)"><g><path fill="none" stroke="none"/><text fill="#000000" font-family="Arial" font-size="13px" font-style="normal" font-weight="bold" stroke="none" text-decoration="none" x="123.727294921875" y="443.5">upper stratum: VegetationStratum</text><path d="M 326.017578125 443.5 L 115.8212890625 443.5" fill="none" stroke="#000000" stroke-miterlimit="10"/></g></g><g transform="translate(-22,-14) scale(1,1)"><g><path fill="none" stroke="none"/><text fill="#000000" font-family="Arial" font-size="13px" font-style="normal" font-weight="normal" stroke="none" text-decoration="none" x="93" y="466.5">+stratumClassification: StratumClassification</text></g></g><g transform="translate(-22,-14) scale(1,1)"><rect fill="#C0C0C0" height="92" opacity="0.2" stroke="none" width="737.2412109375" x="1031" y="511"/></g><g transform="translate(-22,-14) scale(1,1)"><rect fill="#ebd8ff" height="92" stroke="none" width="737.2412109375" x="1024" y="504"/></g><g transform="translate(-22,-14) scale(1,1)"><path d="M 1024 504 L 1761.2412109375 504 L 1761.2412109375 596 L 1024 596 L 1024 504 Z Z" fill="none" stroke="#000000" stroke-miterlimit="10"/></g><g transform="translate(-22,-14) scale(1,1)"><rect fill="#ebd8ff" height="92" stroke="none" width="737.2412109375" x="1024" y="504"/></g><g transform="translate(-22,-14) scale(1,1)"><path d="M 1024 504 L 1761.2412109375 504 L 1761.2412109375 596 L 1024 596 L 1024 504 Z Z" fill="none" stroke="#000000" stroke-miterlimit="10"/></g><g transform="translate(-22,-14) scale(1,1)"><path d="M 1024 529 L 1761.2412109375 529" fill="none" stroke="#000000" stroke-miterlimit="10"/></g><g transform="translate(-22,-14) scale(1,1)"><g><path fill="none" stroke="none"/><text fill="#000000" font-family="Arial" font-size="13px" font-style="normal" font-weight="bold" stroke="none" text-decoration="none" x="1233.297607421875" y="523.5">most dominant species parameter: ObservableProperty</text><path d="M 1564.207275390625 523.5 L 1221.033935546875 523.5" fill="none" stroke="#000000" stroke-miterlimit="10"/></g></g><g transform="translate(-22,-14) scale(1,1)"><g><path fill="none" stroke="none"/><text fill="#000000" font-family="Arial" font-size="13px" font-style="normal" font-weight="normal" stroke="none" text-decoration="none" x="1029" y="546.5">+globalVocabulary: ParameterVocabularyTerm = http://linked.data.gov.au/def/tern-cv/5699eca7-9ef0-47a6-bcfb-9306e0e2b85e</text></g></g><g transform="translate(-22,-14) scale(1,1)"><g><path fill="none" stroke="none"/><text fill="#000000" font-family="Arial" font-size="13px" font-style="normal" font-weight="normal" stroke="none" text-decoration="none" x="1029" y="561.5">+globalValue: ParameterTerm = http://linked.data.gov.au/def/tern-cv/ea001a27-3217-45c2-a7b5-96a104986def</text></g></g><g transform="translate(-22,-14) scale(1,1)"><g><path fill="none" stroke="none"/><text fill="#000000" font-family="Arial" font-size="13px" font-style="normal" font-weight="normal" stroke="none" text-decoration="none" x="1029" y="576.5">+vocabulary: ParameterVocabularyTerm = http://linked.data.gov.au/def/ausplots-cv/540cda9e-0131-4d9c-a034-40d1d2d3b5ec</text></g></g><g transform="translate(-22,-14) scale(1,1)"><g><path fill="none" stroke="none"/><text fill="#000000" font-family="Arial" font-size="13px" font-style="normal" font-weight="normal" stroke="none" text-decoration="none" x="1029" y="591.5">+value: ParameterTerm = http://linked.data.gov.au/def/ausplots-cv/d37256b6-7a02-424e-9aee-aa49adcf46ba</text></g></g><g transform="translate(-22,-14) scale(1,1)"><path d="M 1010 430 L 1242 503" fill="none" stroke="#000000" stroke-miterlimit="10"/></g><g transform="translate(-22,-14) scale(1,1)"><path d="M 1231.0424215510054 503.9651292836357 L 1242 503 L 1233.5693725121519 495.93427143451294" fill="none" stroke="#000000" stroke-miterlimit="10"/></g><g transform="translate(-22,-14) scale(1,1)"><g><path fill="none" stroke="none"/><text fill="#000000" font-family="Arial" font-size="13px" font-style="normal" font-weight="normal" stroke="none" text-decoration="none" x="1074.5" y="457.5">+observedProperty</text></g></g><g transform="translate(-22,-14) scale(1,1)"><path d="M 239 423 L 334 305" fill="none" stroke="#000000" stroke-miterlimit="10"/></g><g transform="translate(-22,-14) scale(1,1)"><path d="M 330.9058468280468 315.5558616961616 L 334 305 L 324.3479819234588 310.2762246967052" fill="none" stroke="#000000" stroke-miterlimit="10"/></g><g transform="translate(-22,-14) scale(1,1)"><g><path fill="none" stroke="none"/><text fill="#000000" font-family="Arial" font-size="13px" font-style="normal" font-weight="normal" stroke="none" text-decoration="none" x="246.5" y="360.5">+isPartOf</text></g></g><g transform="translate(-22,-14) scale(1,1)"><rect fill="#C0C0C0" height="92" opacity="0.2" stroke="none" width="420.7470703125" x="231" y="599"/></g><g transform="translate(-22,-14) scale(1,1)"><rect fill="#d1ffa3" height="92" stroke="none" width="420.7470703125" x="224" y="592"/></g><g transform="translate(-22,-14) scale(1,1)"><path d="M 224 592 L 644.7470703125 592 L 644.7470703125 684 L 224 684 L 224 592 Z Z" fill="none" stroke="#000000" stroke-miterlimit="10"/></g><g transform="translate(-22,-14) scale(1,1)"><rect fill="#d1ffa3" height="92" stroke="none" width="420.7470703125" x="224" y="592"/></g><g transform="translate(-22,-14) scale(1,1)"><path d="M 224 592 L 644.7470703125 592 L 644.7470703125 684 L 224 684 L 224 592 Z Z" fill="none" stroke="#000000" stroke-miterlimit="10"/></g><g transform="translate(-22,-14) scale(1,1)"><path d="M 224 617 L 644.7470703125 617" fill="none" stroke="#000000" stroke-miterlimit="10"/></g><g transform="translate(-22,-14) scale(1,1)"><g><path fill="none" stroke="none"/><text fill="#000000" font-family="Arial" font-size="13px" font-style="normal" font-weight="bold" stroke="none" text-decoration="none" x="245.057861328125" y="611.5">most dominant species in upper stratum observation: Observation</text><path d="M 640.2470703125 611.5 L 228.5 611.5" fill="none" stroke="#000000" stroke-miterlimit="10"/></g></g><g transform="translate(-22,-14) scale(1,1)"><g><path fill="none" stroke="none"/><text fill="#000000" font-family="Arial" font-size="13px" font-style="normal" font-weight="normal" stroke="none" text-decoration="none" x="229" y="634.5">+globalVocabulary: ParameterVocabularyTerm</text></g></g><g transform="translate(-22,-14) scale(1,1)"><g><path fill="none" stroke="none"/><text fill="#000000" font-family="Arial" font-size="13px" font-style="normal" font-weight="normal" stroke="none" text-decoration="none" x="229" y="649.5">+globalValue: ParameterTerm</text></g></g><g transform="translate(-22,-14) scale(1,1)"><g><path fill="none" stroke="none"/><text fill="#000000" font-family="Arial" font-size="13px" font-style="normal" font-weight="normal" stroke="none" text-decoration="none" x="229" y="664.5">+vocabulary: ParameterVocabularyTerm</text></g></g><g transform="translate(-22,-14) scale(1,1)"><g><path fill="none" stroke="none"/><text fill="#000000" font-family="Arial" font-size="13px" font-style="normal" font-weight="normal" stroke="none" text-decoration="none" x="229" y="679.5">+value: ParameterTerm</text></g></g><g transform="translate(-22,-14) scale(1,1)"><path d="M 381 591 L 248 472" fill="none" stroke="#000000" stroke-miterlimit="10"/></g><g transform="translate(-22,-14) scale(1,1)"><path d="M 258.3805299603827 475.6393128117264 L 248 472 L 252.7667603592659 481.9135258953276" fill="none" stroke="#000000" stroke-miterlimit="10"/></g><g transform="translate(-22,-14) scale(1,1)"><g><path fill="none" stroke="none"/><text fill="#000000" font-family="Arial" font-size="13px" font-style="normal" font-weight="normal" stroke="none" text-decoration="none" x="238.5" y="548.5">+hasFeatureOfInterest</text></g></g><g transform="translate(-22,-14) scale(1,1)"><path d="M 590 497 L 486 591" fill="none" stroke="#000000" stroke-miterlimit="10"/></g><g transform="translate(-22,-14) scale(1,1)"><path d="M 490.7167723168436 581.062592948306 L 486 591 L 496.36206960421697 587.3084537768892" fill="none" stroke="#000000" stroke-miterlimit="10"/></g><g transform="translate(-22,-14) scale(1,1)"><g><path fill="none" stroke="none"/><text fill="#000000" font-family="Arial" font-size="13px" font-style="normal" font-weight="normal" stroke="none" text-decoration="none" x="501.5" y="561.5">+hasSubActivity</text></g></g><g transform="translate(-22,-14) scale(1,1)"><path d="M 643 471 L 764 430" fill="none" stroke="#000000" stroke-miterlimit="10"/></g><g transform="translate(-22,-14) scale(1,1)"><path d="M 755.7257871869 437.24826891909595 L 764 430 L 753.02394790632 429.2745481154328" fill="none" stroke="#000000" stroke-miterlimit="10"/></g><g transform="translate(-22,-14) scale(1,1)"><g><path fill="none" stroke="none"/><text fill="#000000" font-family="Arial" font-size="13px" font-style="normal" font-weight="normal" stroke="none" text-decoration="none" x="651.5" y="441.5">+hasSubActivity</text></g></g><g transform="translate(-22,-14) scale(1,1)"><rect fill="#C0C0C0" height="39" opacity="0.2" stroke="none" width="342.00439453125" x="391" y="823"/></g><g transform="translate(-22,-14) scale(1,1)"><rect fill="#e2e2e2" height="39" stroke="none" width="342.00439453125" x="384" y="816"/></g><g transform="translate(-22,-14) scale(1,1)"><path d="M 384 816 L 726.00439453125 816 L 726.00439453125 855 L 384 855 L 384 816 Z Z" fill="none" stroke="#000000" stroke-miterlimit="10"/></g><g transform="translate(-22,-14) scale(1,1)"><rect fill="#e2e2e2" height="39" stroke="none" width="342.00439453125" x="384" y="816"/></g><g transform="translate(-22,-14) scale(1,1)"><path d="M 384 816 L 726.00439453125 816 L 726.00439453125 855 L 384 855 L 384 816 Z Z" fill="none" stroke="#000000" stroke-miterlimit="10"/></g><g transform="translate(-22,-14) scale(1,1)"><g><path fill="none" stroke="none"/><text fill="#000000" font-family="Arial" font-size="13px" font-style="normal" font-weight="bold" stroke="none" text-decoration="none" x="401.8173828125" y="835.5">most dominant species in upper stratum value: String</text><path d="M 721.50439453125 835.5 L 388.5 835.5" fill="none" stroke="#000000" stroke-miterlimit="10"/></g></g><g transform="translate(-22,-14) scale(1,1)"><g><path fill="none" stroke="none"/><text fill="#000000" font-family="Arial" font-size="13px" font-style="normal" font-weight="normal" stroke="none" text-decoration="none" x="494.667724609375" y="850.5">Acacia ancistrocarpa</text></g></g><g transform="translate(-22,-14) scale(1,1)"><path d="M 463 685 L 543 815" fill="none" stroke="#000000" stroke-miterlimit="10"/></g><g transform="translate(-22,-14) scale(1,1)"><path d="M 534.088697463029 808.5510708567565 L 543 815 L 541.258839075482 804.138676018324" fill="none" stroke="#000000" stroke-miterlimit="10"/></g><g transform="translate(-22,-14) scale(1,1)"><g><path fill="none" stroke="none"/><text fill="#000000" font-family="Arial" font-size="13px" font-style="normal" font-weight="normal" stroke="none" text-decoration="none" x="482.5" y="748.5">+hasResult</text></g></g><g transform="translate(-22,-14) scale(1,1)"><path d="M 646 619 L 1023 584" fill="none" stroke="#000000" stroke-miterlimit="10"/></g><g transform="translate(-22,-14) scale(1,1)"><path d="M 1013.2699704399706 589.1309380001081 L 1023 584 L 1012.4917090632334 580.7479511706819" fill="none" stroke="#000000" stroke-miterlimit="10"/></g><g transform="translate(-22,-14) scale(1,1)"><g><path fill="none" stroke="none"/><text fill="#000000" font-family="Arial" font-size="13px" font-style="normal" font-weight="normal" stroke="none" text-decoration="none" x="776.5" y="592.5">+observedProperty</text></g></g><g transform="translate(-22,-14) scale(1,1)"><path d="M 646 674 L 1011 735" fill="none" stroke="#000000" stroke-miterlimit="10"/></g><g transform="translate(-22,-14) scale(1,1)"><path d="M 1000.28245746895 737.4767482906292 L 1011 735 L 1001.6702274870432 729.1728785102354" fill="none" stroke="#000000" stroke-miterlimit="10"/></g><g transform="translate(-22,-14) scale(1,1)"><g><path fill="none" stroke="none"/><text fill="#000000" font-family="Arial" font-size="13px" font-style="normal" font-weight="normal" stroke="none" text-decoration="none" x="782.5" y="695.5">+usedProcedure</text></g></g><g transform="translate(-22,-14) scale(1,1)"><g><path fill="none" stroke="none"/><text fill="#000000" font-family="Arial" font-size="13px" font-style="normal" font-weight="normal" stroke="none" text-decoration="none" x="45" y="42">Structural Summary</text></g></g><g transform="translate(-22,-14) scale(1,1)"><g><path fill="none" stroke="none"/><text fill="#000000" font-family="Arial" font-size="13px" font-style="normal" font-weight="normal" stroke="none" text-decoration="none" x="45" y="57">AusPlots Rangelands NTAGFU0011 site visit 53658</text><text fill="#000000" font-family="Arial" font-size="13px" font-style="normal" font-weight="normal" stroke="none" text-decoration="none" x="45" y="70">most dominant species in upper and mid stratum.</text></g></g></g></svg>