<?xml version="1.0" encoding="UTF-8" standalone="no"?><svg xmlns="http://www.w3.org/2000/svg" xmlns:xlink="http://www.w3.org/1999/xlink" height="195" version="1.1" width="664.23583984375"><defs/><g><g transform="translate(-388,-310) scale(1,1)"><rect fill="#C0C0C0" height="44" opacity="0.2" stroke="none" width="152.05712890625" x="405" y="458"/></g><g transform="translate(-388,-310) scale(1,1)"><rect fill="#ffffff" height="44" stroke="none" width="152.05712890625" x="398" y="451"/></g><g transform="translate(-388,-310) scale(1,1)"><path d="M 398 451 L 550.05712890625 451 L 550.05712890625 495 L 398 495 L 398 451 Z Z" fill="none" stroke="#000000" stroke-miterlimit="10"/></g><g transform="translate(-388,-310) scale(1,1)"><path d="M 398 476 L 550.05712890625 476" fill="none" stroke="#000000" stroke-miterlimit="10"/></g><g transform="translate(-388,-310) scale(1,1)"><path d="M 398 486 L 550.05712890625 486" fill="none" stroke="#000000" stroke-miterlimit="10"/></g><g transform="translate(-388,-310) scale(1,1)"><g><path fill="none" stroke="none"/><text fill="#000000" font-family="Arial" font-size="13px" font-style="normal" font-weight="bold" stroke="none" text-decoration="none" x="420.9208984375" y="470.5">PhysicalSpecimen</text></g></g><g transform="translate(-388,-310) scale(1,1)"><rect fill="#C0C0C0" height="44" opacity="0.2" stroke="none" width="96.39453125" x="823" y="455"/></g><g transform="translate(-388,-310) scale(1,1)"><rect fill="#ffffff" height="44" stroke="none" width="96.39453125" x="816" y="448"/></g><g transform="translate(-388,-310) scale(1,1)"><path d="M 816 448 L 912.39453125 448 L 912.39453125 492 L 816 492 L 816 448 Z Z" fill="none" stroke="#000000" stroke-miterlimit="10"/></g><g transform="translate(-388,-310) scale(1,1)"><path d="M 816 473 L 912.39453125 473" fill="none" stroke="#000000" stroke-miterlimit="10"/></g><g transform="translate(-388,-310) scale(1,1)"><path d="M 816 483 L 912.39453125 483" fill="none" stroke="#000000" stroke-miterlimit="10"/></g><g transform="translate(-388,-310) scale(1,1)"><g><path fill="none" stroke="none"/><text fill="#000000" font-family="Arial" font-size="13px" font-style="normal" font-weight="bold" stroke="none" text-decoration="none" x="837.09912109375" y="467.5">Sampling</text></g></g><g transform="translate(-388,-310) scale(1,1)"><path d="M 551 472 L 815 470" fill="none" stroke="#000000" stroke-miterlimit="10"/></g><g transform="translate(-388,-310) scale(1,1)"><g><path fill="none" stroke="none"/><text fill="#000000" font-family="Arial" font-size="13px" font-style="normal" font-weight="normal" stroke="none" text-decoration="none" x="566.035888671875" y="461.5">+hasResult</text></g></g><g transform="translate(-388,-310) scale(1,1)"><g><path fill="none" stroke="none"/><text fill="#000000" font-family="Arial" font-size="13px" font-style="normal" font-weight="normal" stroke="none" text-decoration="none" x="562.5" y="490.5">1..*</text></g></g><g transform="translate(-388,-310) scale(1,1)"><g><path fill="none" stroke="none"/><text fill="#000000" font-family="Arial" font-size="13px" font-style="normal" font-weight="normal" stroke="none" text-decoration="none" x="725.035888671875" y="461.5">+isResultOf</text></g></g><g transform="translate(-388,-310) scale(1,1)"><g><path fill="none" stroke="none"/><text fill="#000000" font-family="Arial" font-size="13px" font-style="normal" font-weight="normal" stroke="none" text-decoration="none" x="789.5" y="488.5">1</text></g></g><g transform="translate(-388,-310) scale(1,1)"><rect fill="#C0C0C0" height="87" opacity="0.2" stroke="none" width="246.37060546875" x="823" y="327"/></g><g transform="translate(-388,-310) scale(1,1)"><rect fill="#ffffff" height="87" stroke="none" width="246.37060546875" x="816" y="320"/></g><g transform="translate(-388,-310) scale(1,1)"><path d="M 816 320 L 1062.37060546875 320 L 1062.37060546875 407 L 816 407 L 816 320 Z Z" fill="none" stroke="#000000" stroke-miterlimit="10"/></g><g transform="translate(-388,-310) scale(1,1)"><path d="M 816 345 L 1062.37060546875 345" fill="none" stroke="#000000" stroke-miterlimit="10"/></g><g transform="translate(-388,-310) scale(1,1)"><path d="M 816 398 L 1062.37060546875 398" fill="none" stroke="#000000" stroke-miterlimit="10"/></g><g transform="translate(-388,-310) scale(1,1)"><g><path fill="none" stroke="none"/><text fill="#000000" font-family="Arial" font-size="13px" font-style="normal" font-weight="bold" stroke="none" text-decoration="none" x="909.19580078125" y="339.5">Procedure</text></g></g><g transform="translate(-388,-310) scale(1,1)"><g><path fill="none" stroke="none"/><text fill="#000000" font-family="Arial" font-size="13px" font-style="normal" font-weight="normal" stroke="none" text-decoration="none" x="821" y="362.5">+vocabulary</text></g></g><g transform="translate(-388,-310) scale(1,1)"><g><path fill="none" stroke="none"/><text fill="#000000" font-family="Arial" font-size="13px" font-style="normal" font-weight="normal" stroke="none" text-decoration="none" x="821" y="377.5">+observationType: ObservationTypeTerm</text></g></g><g transform="translate(-388,-310) scale(1,1)"><g><path fill="none" stroke="none"/><text fill="#000000" font-family="Arial" font-size="13px" font-style="normal" font-weight="normal" stroke="none" text-decoration="none" x="821" y="392.5">+instrumentType: InstrumentTypeTerm</text></g></g><g transform="translate(-388,-310) scale(1,1)"><path d="M 880 447 L 907 408" fill="none" stroke="#000000" stroke-miterlimit="10"/></g><g transform="translate(-388,-310) scale(1,1)"><path d="M 904.6763366890146 418.7517714269408 L 907 408 L 897.7542714298503 413.95957240136545" fill="none" stroke="#000000" stroke-miterlimit="10"/></g><g transform="translate(-388,-310) scale(1,1)"><g><path fill="none" stroke="none"/><text fill="#000000" font-family="Arial" font-size="13px" font-style="normal" font-weight="normal" stroke="none" text-decoration="none" x="832.035888671875" y="424.5">+usedProcedure</text></g></g><g transform="translate(-388,-310) scale(1,1)"><g><path fill="none" stroke="none"/><text fill="#000000" font-family="Arial" font-size="13px" font-style="normal" font-weight="normal" stroke="none" text-decoration="none" x="900.5" y="438.5">1</text></g></g></g></svg>