<?xml version="1.0" encoding="UTF-8" standalone="no"?><svg xmlns="http://www.w3.org/2000/svg" xmlns:xlink="http://www.w3.org/1999/xlink" height="195" version="1.1" width="540.18994140625"><defs/><g><g transform="translate(-388,-310) scale(1,1)"><rect fill="#C0C0C0" height="44" opacity="0.2" stroke="none" width="152.05712890625" x="405" y="458"/></g><g transform="translate(-388,-310) scale(1,1)"><rect fill="#ffffff" height="44" stroke="none" width="152.05712890625" x="398" y="451"/></g><g transform="translate(-388,-310) scale(1,1)"><path d="M 398 451 L 550.05712890625 451 L 550.05712890625 495 L 398 495 L 398 451 Z Z" fill="none" stroke="#000000" stroke-miterlimit="10"/></g><g transform="translate(-388,-310) scale(1,1)"><path d="M 398 476 L 550.05712890625 476" fill="none" stroke="#000000" stroke-miterlimit="10"/></g><g transform="translate(-388,-310) scale(1,1)"><path d="M 398 486 L 550.05712890625 486" fill="none" stroke="#000000" stroke-miterlimit="10"/></g><g transform="translate(-388,-310) scale(1,1)"><g><path fill="none" stroke="none"/><text fill="#000000" font-family="Arial" font-size="13px" font-style="normal" font-weight="bold" stroke="none" text-decoration="none" x="407.91455078125" y="470.5">tern:PhysicalSpecimen</text></g></g><g transform="translate(-388,-310) scale(1,1)"><rect fill="#C0C0C0" height="44" opacity="0.2" stroke="none" width="96.39453125" x="823" y="455"/></g><g transform="translate(-388,-310) scale(1,1)"><rect fill="#ffffff" height="44" stroke="none" width="96.39453125" x="816" y="448"/></g><g transform="translate(-388,-310) scale(1,1)"><path d="M 816 448 L 912.39453125 448 L 912.39453125 492 L 816 492 L 816 448 Z Z" fill="none" stroke="#000000" stroke-miterlimit="10"/></g><g transform="translate(-388,-310) scale(1,1)"><path d="M 816 473 L 912.39453125 473" fill="none" stroke="#000000" stroke-miterlimit="10"/></g><g transform="translate(-388,-310) scale(1,1)"><path d="M 816 483 L 912.39453125 483" fill="none" stroke="#000000" stroke-miterlimit="10"/></g><g transform="translate(-388,-310) scale(1,1)"><g><path fill="none" stroke="none"/><text fill="#000000" font-family="Arial" font-size="13px" font-style="normal" font-weight="bold" stroke="none" text-decoration="none" x="824.0927734375" y="467.5">tern:Sampling</text></g></g><g transform="translate(-388,-310) scale(1,1)"><path d="M 551 472 L 815 470" fill="none" stroke="#000000" stroke-miterlimit="10"/></g><g transform="translate(-388,-310) scale(1,1)"><g><path fill="none" stroke="none"/><text fill="#000000" font-family="Arial" font-size="13px" font-style="normal" font-weight="normal" stroke="none" text-decoration="none" x="550.5" y="461.5">+sosa:hasResult</text></g></g><g transform="translate(-388,-310) scale(1,1)"><g><path fill="none" stroke="none"/><text fill="#000000" font-family="Arial" font-size="13px" font-style="normal" font-weight="normal" stroke="none" text-decoration="none" x="562.5" y="490.5">1..*</text></g></g><g transform="translate(-388,-310) scale(1,1)"><g><path fill="none" stroke="none"/><text fill="#000000" font-family="Arial" font-size="13px" font-style="normal" font-weight="normal" stroke="none" text-decoration="none" x="709.5" y="461.5">+sosa:isResultOf</text></g></g><g transform="translate(-388,-310) scale(1,1)"><g><path fill="none" stroke="none"/><text fill="#000000" font-family="Arial" font-size="13px" font-style="normal" font-weight="normal" stroke="none" text-decoration="none" x="789.5" y="488.5">1</text></g></g><g transform="translate(-388,-310) scale(1,1)"><rect fill="#C0C0C0" height="87" opacity="0.2" stroke="none" width="114.14892578125" x="823" y="327"/></g><g transform="translate(-388,-310) scale(1,1)"><rect fill="#ffffff" height="87" stroke="none" width="114.14892578125" x="816" y="320"/></g><g transform="translate(-388,-310) scale(1,1)"><path d="M 816 320 L 930.14892578125 320 L 930.14892578125 407 L 816 407 L 816 320 Z Z" fill="none" stroke="#000000" stroke-miterlimit="10"/></g><g transform="translate(-388,-310) scale(1,1)"><path d="M 816 345 L 930.14892578125 345" fill="none" stroke="#000000" stroke-miterlimit="10"/></g><g transform="translate(-388,-310) scale(1,1)"><path d="M 816 398 L 930.14892578125 398" fill="none" stroke="#000000" stroke-miterlimit="10"/></g><g transform="translate(-388,-310) scale(1,1)"><g><path fill="none" stroke="none"/><text fill="#000000" font-family="Arial" font-size="13px" font-style="normal" font-weight="bold" stroke="none" text-decoration="none" x="830.07861328125" y="339.5">tern:Procedure</text></g></g><g transform="translate(-388,-310) scale(1,1)"><g><path fill="none" stroke="none"/><text fill="#000000" font-family="Arial" font-size="13px" font-style="normal" font-weight="normal" stroke="none" text-decoration="none" x="821" y="362.5">+data:vocabulary</text></g></g><g transform="translate(-388,-310) scale(1,1)"><g><path fill="none" stroke="none"/><text fill="#000000" font-family="Arial" font-size="13px" font-style="normal" font-weight="normal" stroke="none" text-decoration="none" x="821" y="377.5">+tern:methodType</text></g></g><g transform="translate(-388,-310) scale(1,1)"><g><path fill="none" stroke="none"/><text fill="#000000" font-family="Arial" font-size="13px" font-style="normal" font-weight="normal" stroke="none" text-decoration="none" x="821" y="392.5">+rdf:value</text></g></g><g transform="translate(-388,-310) scale(1,1)"><path d="M 866 447 L 869 408" fill="none" stroke="#000000" stroke-miterlimit="10"/></g><g transform="translate(-388,-310) scale(1,1)"><path d="M 872.4176769795506 418.4555958253679 L 869 408 L 864.023439858682 417.80988527760877" fill="none" stroke="#000000" stroke-miterlimit="10"/></g><g transform="translate(-388,-310) scale(1,1)"><g><path fill="none" stroke="none"/><text fill="#000000" font-family="Arial" font-size="13px" font-style="normal" font-weight="normal" stroke="none" text-decoration="none" x="788.5" y="431.5">+sosa:usedProcedure</text></g></g><g transform="translate(-388,-310) scale(1,1)"><g><path fill="none" stroke="none"/><text fill="#000000" font-family="Arial" font-size="13px" font-style="normal" font-weight="normal" stroke="none" text-decoration="none" x="875.5" y="436.5">1</text></g></g></g></svg>