<?xml version="1.0" encoding="UTF-8" standalone="no"?><svg xmlns="http://www.w3.org/2000/svg" xmlns:xlink="http://www.w3.org/1999/xlink" height="77" version="1.1" width="1032.88330078125"><defs/><g><g transform="translate(-10,-10) scale(1,1)"><rect fill="#C0C0C0" height="57" opacity="0.2" stroke="none" width="86.7841796875" x="27" y="27"/></g><g transform="translate(-10,-10) scale(1,1)"><rect fill="#ffffff" height="57" stroke="none" width="86.7841796875" x="20" y="20"/></g><g transform="translate(-10,-10) scale(1,1)"><path d="M 20 20 L 106.7841796875 20 L 106.7841796875 77 L 20 77 L 20 20 Z Z" fill="none" stroke="#000000" stroke-miterlimit="10"/></g><g transform="translate(-10,-10) scale(1,1)"><path d="M 20 58 L 106.7841796875 58" fill="none" stroke="#000000" stroke-miterlimit="10"/></g><g transform="translate(-10,-10) scale(1,1)"><path d="M 20 68 L 106.7841796875 68" fill="none" stroke="#000000" stroke-miterlimit="10"/></g><g transform="translate(-10,-10) scale(1,1)"><g><path fill="none" stroke="none"/><text fill="#000000" font-family="Arial" font-size="13px" font-style="normal" font-weight="normal" stroke="none" text-decoration="none" x="30.508056640625" y="37.5">«CodeList»</text></g></g><g transform="translate(-10,-10) scale(1,1)"><g><path fill="none" stroke="none"/><text fill="#000000" font-family="Arial" font-size="13px" font-style="normal" font-weight="bold" stroke="none" text-decoration="none" x="26.547119140625" y="52.5">FeatureTerm</text></g></g><g transform="translate(-10,-10) scale(1,1)"><rect fill="#C0C0C0" height="57" opacity="0.2" stroke="none" width="93.982421875" x="144.7841796875" y="27"/></g><g transform="translate(-10,-10) scale(1,1)"><rect fill="#ffffff" height="57" stroke="none" width="93.982421875" x="137.7841796875" y="20"/></g><g transform="translate(-10,-10) scale(1,1)"><path d="M 137.7841796875 20 L 231.7666015625 20 L 231.7666015625 77 L 137.7841796875 77 L 137.7841796875 20 Z Z" fill="none" stroke="#000000" stroke-miterlimit="10"/></g><g transform="translate(-10,-10) scale(1,1)"><path d="M 137.7841796875 58 L 231.7666015625 58" fill="none" stroke="#000000" stroke-miterlimit="10"/></g><g transform="translate(-10,-10) scale(1,1)"><path d="M 137.7841796875 68 L 231.7666015625 68" fill="none" stroke="#000000" stroke-miterlimit="10"/></g><g transform="translate(-10,-10) scale(1,1)"><g><path fill="none" stroke="none"/><text fill="#000000" font-family="Arial" font-size="13px" font-style="normal" font-weight="normal" stroke="none" text-decoration="none" x="151.891357421875" y="37.5">«CodeList»</text></g></g><g transform="translate(-10,-10) scale(1,1)"><g><path fill="none" stroke="none"/><text fill="#000000" font-family="Arial" font-size="13px" font-style="normal" font-weight="bold" stroke="none" text-decoration="none" x="146.12451171875" y="52.5">AttributeTerm</text></g></g><g transform="translate(-10,-10) scale(1,1)"><rect fill="#C0C0C0" height="57" opacity="0.2" stroke="none" width="103.42138671875" x="269.7666015625" y="27"/></g><g transform="translate(-10,-10) scale(1,1)"><rect fill="#ffffff" height="57" stroke="none" width="103.42138671875" x="262.7666015625" y="20"/></g><g transform="translate(-10,-10) scale(1,1)"><path d="M 262.7666015625 20 L 366.18798828125 20 L 366.18798828125 77 L 262.7666015625 77 L 262.7666015625 20 Z Z" fill="none" stroke="#000000" stroke-miterlimit="10"/></g><g transform="translate(-10,-10) scale(1,1)"><path d="M 262.7666015625 58 L 366.18798828125 58" fill="none" stroke="#000000" stroke-miterlimit="10"/></g><g transform="translate(-10,-10) scale(1,1)"><path d="M 262.7666015625 68 L 366.18798828125 68" fill="none" stroke="#000000" stroke-miterlimit="10"/></g><g transform="translate(-10,-10) scale(1,1)"><g><path fill="none" stroke="none"/><text fill="#000000" font-family="Arial" font-size="13px" font-style="normal" font-weight="normal" stroke="none" text-decoration="none" x="281.59326171875" y="37.5">«CodeList»</text></g></g><g transform="translate(-10,-10) scale(1,1)"><g><path fill="none" stroke="none"/><text fill="#000000" font-family="Arial" font-size="13px" font-style="normal" font-weight="bold" stroke="none" text-decoration="none" x="269.688232421875" y="52.5">ParameterTerm</text></g></g><g transform="translate(-10,-10) scale(1,1)"><rect fill="#C0C0C0" height="57" opacity="0.2" stroke="none" width="143.86865234375" x="404.18798828125" y="27"/></g><g transform="translate(-10,-10) scale(1,1)"><rect fill="#ffffff" height="57" stroke="none" width="143.86865234375" x="397.18798828125" y="20"/></g><g transform="translate(-10,-10) scale(1,1)"><path d="M 397.18798828125 20 L 541.056640625 20 L 541.056640625 77 L 397.18798828125 77 L 397.18798828125 20 Z Z" fill="none" stroke="#000000" stroke-miterlimit="10"/></g><g transform="translate(-10,-10) scale(1,1)"><path d="M 397.18798828125 58 L 541.056640625 58" fill="none" stroke="#000000" stroke-miterlimit="10"/></g><g transform="translate(-10,-10) scale(1,1)"><path d="M 397.18798828125 68 L 541.056640625 68" fill="none" stroke="#000000" stroke-miterlimit="10"/></g><g transform="translate(-10,-10) scale(1,1)"><g><path fill="none" stroke="none"/><text fill="#000000" font-family="Arial" font-size="13px" font-style="normal" font-weight="normal" stroke="none" text-decoration="none" x="436.23828125" y="37.5">«CodeList»</text></g></g><g transform="translate(-10,-10) scale(1,1)"><g><path fill="none" stroke="none"/><text fill="#000000" font-family="Arial" font-size="13px" font-style="normal" font-weight="bold" stroke="none" text-decoration="none" x="405.544189453125" y="52.5">GlobalParameterTerm</text></g></g><g transform="translate(-10,-10) scale(1,1)"><rect fill="#C0C0C0" height="57" opacity="0.2" stroke="none" width="145.0556640625" x="579.056640625" y="27"/></g><g transform="translate(-10,-10) scale(1,1)"><rect fill="#ffffff" height="57" stroke="none" width="145.0556640625" x="572.056640625" y="20"/></g><g transform="translate(-10,-10) scale(1,1)"><path d="M 572.056640625 20 L 717.1123046875 20 L 717.1123046875 77 L 572.056640625 77 L 572.056640625 20 Z Z" fill="none" stroke="#000000" stroke-miterlimit="10"/></g><g transform="translate(-10,-10) scale(1,1)"><path d="M 572.056640625 58 L 717.1123046875 58" fill="none" stroke="#000000" stroke-miterlimit="10"/></g><g transform="translate(-10,-10) scale(1,1)"><path d="M 572.056640625 68 L 717.1123046875 68" fill="none" stroke="#000000" stroke-miterlimit="10"/></g><g transform="translate(-10,-10) scale(1,1)"><g><path fill="none" stroke="none"/><text fill="#000000" font-family="Arial" font-size="13px" font-style="normal" font-weight="normal" stroke="none" text-decoration="none" x="611.700439453125" y="37.5">«CodeList»</text></g></g><g transform="translate(-10,-10) scale(1,1)"><g><path fill="none" stroke="none"/><text fill="#000000" font-family="Arial" font-size="13px" font-style="normal" font-weight="bold" stroke="none" text-decoration="none" x="581.003173828125" y="52.5">ObservationTypeTerm</text></g></g><g transform="translate(-10,-10) scale(1,1)"><rect fill="#C0C0C0" height="57" opacity="0.2" stroke="none" width="136.3720703125" x="755.1123046875" y="27"/></g><g transform="translate(-10,-10) scale(1,1)"><rect fill="#ffffff" height="57" stroke="none" width="136.3720703125" x="748.1123046875" y="20"/></g><g transform="translate(-10,-10) scale(1,1)"><path d="M 748.1123046875 20 L 884.484375 20 L 884.484375 77 L 748.1123046875 77 L 748.1123046875 20 Z Z" fill="none" stroke="#000000" stroke-miterlimit="10"/></g><g transform="translate(-10,-10) scale(1,1)"><path d="M 748.1123046875 58 L 884.484375 58" fill="none" stroke="#000000" stroke-miterlimit="10"/></g><g transform="translate(-10,-10) scale(1,1)"><path d="M 748.1123046875 68 L 884.484375 68" fill="none" stroke="#000000" stroke-miterlimit="10"/></g><g transform="translate(-10,-10) scale(1,1)"><g><path fill="none" stroke="none"/><text fill="#000000" font-family="Arial" font-size="13px" font-style="normal" font-weight="normal" stroke="none" text-decoration="none" x="783.414306640625" y="37.5">«CodeList»</text></g></g><g transform="translate(-10,-10) scale(1,1)"><g><path fill="none" stroke="none"/><text fill="#000000" font-family="Arial" font-size="13px" font-style="normal" font-weight="bold" stroke="none" text-decoration="none" x="757.0556640625" y="52.5">InstrumentTypeTerm</text></g></g><g transform="translate(-10,-10) scale(1,1)"><rect fill="#C0C0C0" height="57" opacity="0.2" stroke="none" width="117.39892578125" x="922.484375" y="27"/></g><g transform="translate(-10,-10) scale(1,1)"><rect fill="#ffffff" height="57" stroke="none" width="117.39892578125" x="915.484375" y="20"/></g><g transform="translate(-10,-10) scale(1,1)"><path d="M 915.484375 20 L 1032.88330078125 20 L 1032.88330078125 77 L 915.484375 77 L 915.484375 20 Z Z" fill="none" stroke="#000000" stroke-miterlimit="10"/></g><g transform="translate(-10,-10) scale(1,1)"><path d="M 915.484375 58 L 1032.88330078125 58" fill="none" stroke="#000000" stroke-miterlimit="10"/></g><g transform="translate(-10,-10) scale(1,1)"><path d="M 915.484375 68 L 1032.88330078125 68" fill="none" stroke="#000000" stroke-miterlimit="10"/></g><g transform="translate(-10,-10) scale(1,1)"><g><path fill="none" stroke="none"/><text fill="#000000" font-family="Arial" font-size="13px" font-style="normal" font-weight="normal" stroke="none" text-decoration="none" x="941.2998046875" y="37.5">«CodeList»</text></g></g><g transform="translate(-10,-10) scale(1,1)"><g><path fill="none" stroke="none"/><text fill="#000000" font-family="Arial" font-size="13px" font-style="normal" font-weight="bold" stroke="none" text-decoration="none" x="920.825439453125" y="52.5">ISO199115-3Role </text></g></g></g></svg>