<?xml version="1.0" encoding="UTF-8" standalone="no"?><svg xmlns="http://www.w3.org/2000/svg" xmlns:xlink="http://www.w3.org/1999/xlink" height="150" version="1.1" width="1587.74853515625"><defs/><g><g transform="translate(-10,-10) scale(1,1)"><rect fill="#C0C0C0" height="57" opacity="0.2" stroke="none" width="86.7841796875" x="27" y="63.5"/></g><g transform="translate(-10,-10) scale(1,1)"><rect fill="#ffffff" height="57" stroke="none" width="86.7841796875" x="20" y="56.5"/></g><g transform="translate(-10,-10) scale(1,1)"><path d="M 20 56.5 L 106.7841796875 56.5 L 106.7841796875 113.5 L 20 113.5 L 20 56.5 Z Z" fill="none" stroke="#000000" stroke-miterlimit="10"/></g><g transform="translate(-10,-10) scale(1,1)"><path d="M 20 94.5 L 106.7841796875 94.5" fill="none" stroke="#000000" stroke-miterlimit="10"/></g><g transform="translate(-10,-10) scale(1,1)"><path d="M 20 104.5 L 106.7841796875 104.5" fill="none" stroke="#000000" stroke-miterlimit="10"/></g><g transform="translate(-10,-10) scale(1,1)"><g><path fill="none" stroke="none"/><text fill="#000000" font-family="Arial" font-size="13px" font-style="normal" font-weight="normal" stroke="none" text-decoration="none" x="30.508056640625" y="74">«CodeList»</text></g></g><g transform="translate(-10,-10) scale(1,1)"><g><path fill="none" stroke="none"/><text fill="#000000" font-family="Arial" font-size="13px" font-style="normal" font-weight="bold" stroke="none" text-decoration="none" x="26.547119140625" y="89">FeatureTerm</text></g></g><g transform="translate(-10,-10) scale(1,1)"><rect fill="#C0C0C0" height="57" opacity="0.2" stroke="none" width="93.982421875" x="144.7841796875" y="63.5"/></g><g transform="translate(-10,-10) scale(1,1)"><rect fill="#ffffff" height="57" stroke="none" width="93.982421875" x="137.7841796875" y="56.5"/></g><g transform="translate(-10,-10) scale(1,1)"><path d="M 137.7841796875 56.5 L 231.7666015625 56.5 L 231.7666015625 113.5 L 137.7841796875 113.5 L 137.7841796875 56.5 Z Z" fill="none" stroke="#000000" stroke-miterlimit="10"/></g><g transform="translate(-10,-10) scale(1,1)"><path d="M 137.7841796875 94.5 L 231.7666015625 94.5" fill="none" stroke="#000000" stroke-miterlimit="10"/></g><g transform="translate(-10,-10) scale(1,1)"><path d="M 137.7841796875 104.5 L 231.7666015625 104.5" fill="none" stroke="#000000" stroke-miterlimit="10"/></g><g transform="translate(-10,-10) scale(1,1)"><g><path fill="none" stroke="none"/><text fill="#000000" font-family="Arial" font-size="13px" font-style="normal" font-weight="normal" stroke="none" text-decoration="none" x="151.891357421875" y="74">«CodeList»</text></g></g><g transform="translate(-10,-10) scale(1,1)"><g><path fill="none" stroke="none"/><text fill="#000000" font-family="Arial" font-size="13px" font-style="normal" font-weight="bold" stroke="none" text-decoration="none" x="146.12451171875" y="89">AttributeTerm</text></g></g><g transform="translate(-10,-10) scale(1,1)"><rect fill="#C0C0C0" height="57" opacity="0.2" stroke="none" width="103.42138671875" x="269.7666015625" y="63.5"/></g><g transform="translate(-10,-10) scale(1,1)"><rect fill="#ffffff" height="57" stroke="none" width="103.42138671875" x="262.7666015625" y="56.5"/></g><g transform="translate(-10,-10) scale(1,1)"><path d="M 262.7666015625 56.5 L 366.18798828125 56.5 L 366.18798828125 113.5 L 262.7666015625 113.5 L 262.7666015625 56.5 Z Z" fill="none" stroke="#000000" stroke-miterlimit="10"/></g><g transform="translate(-10,-10) scale(1,1)"><path d="M 262.7666015625 94.5 L 366.18798828125 94.5" fill="none" stroke="#000000" stroke-miterlimit="10"/></g><g transform="translate(-10,-10) scale(1,1)"><path d="M 262.7666015625 104.5 L 366.18798828125 104.5" fill="none" stroke="#000000" stroke-miterlimit="10"/></g><g transform="translate(-10,-10) scale(1,1)"><g><path fill="none" stroke="none"/><text fill="#000000" font-family="Arial" font-size="13px" font-style="normal" font-weight="normal" stroke="none" text-decoration="none" x="281.59326171875" y="74">«CodeList»</text></g></g><g transform="translate(-10,-10) scale(1,1)"><g><path fill="none" stroke="none"/><text fill="#000000" font-family="Arial" font-size="13px" font-style="normal" font-weight="bold" stroke="none" text-decoration="none" x="269.688232421875" y="89">ParameterTerm</text></g></g><g transform="translate(-10,-10) scale(1,1)"><rect fill="#C0C0C0" height="57" opacity="0.2" stroke="none" width="145.0556640625" x="404.18798828125" y="63.5"/></g><g transform="translate(-10,-10) scale(1,1)"><rect fill="#ffffff" height="57" stroke="none" width="145.0556640625" x="397.18798828125" y="56.5"/></g><g transform="translate(-10,-10) scale(1,1)"><path d="M 397.18798828125 56.5 L 542.24365234375 56.5 L 542.24365234375 113.5 L 397.18798828125 113.5 L 397.18798828125 56.5 Z Z" fill="none" stroke="#000000" stroke-miterlimit="10"/></g><g transform="translate(-10,-10) scale(1,1)"><path d="M 397.18798828125 94.5 L 542.24365234375 94.5" fill="none" stroke="#000000" stroke-miterlimit="10"/></g><g transform="translate(-10,-10) scale(1,1)"><path d="M 397.18798828125 104.5 L 542.24365234375 104.5" fill="none" stroke="#000000" stroke-miterlimit="10"/></g><g transform="translate(-10,-10) scale(1,1)"><g><path fill="none" stroke="none"/><text fill="#000000" font-family="Arial" font-size="13px" font-style="normal" font-weight="normal" stroke="none" text-decoration="none" x="436.831787109375" y="74">«CodeList»</text></g></g><g transform="translate(-10,-10) scale(1,1)"><g><path fill="none" stroke="none"/><text fill="#000000" font-family="Arial" font-size="13px" font-style="normal" font-weight="bold" stroke="none" text-decoration="none" x="406.134521484375" y="89">ObservationTypeTerm</text></g></g><g transform="translate(-10,-10) scale(1,1)"><rect fill="#C0C0C0" height="57" opacity="0.2" stroke="none" width="136.3720703125" x="580.24365234375" y="63.5"/></g><g transform="translate(-10,-10) scale(1,1)"><rect fill="#ffffff" height="57" stroke="none" width="136.3720703125" x="573.24365234375" y="56.5"/></g><g transform="translate(-10,-10) scale(1,1)"><path d="M 573.24365234375 56.5 L 709.61572265625 56.5 L 709.61572265625 113.5 L 573.24365234375 113.5 L 573.24365234375 56.5 Z Z" fill="none" stroke="#000000" stroke-miterlimit="10"/></g><g transform="translate(-10,-10) scale(1,1)"><path d="M 573.24365234375 94.5 L 709.61572265625 94.5" fill="none" stroke="#000000" stroke-miterlimit="10"/></g><g transform="translate(-10,-10) scale(1,1)"><path d="M 573.24365234375 104.5 L 709.61572265625 104.5" fill="none" stroke="#000000" stroke-miterlimit="10"/></g><g transform="translate(-10,-10) scale(1,1)"><g><path fill="none" stroke="none"/><text fill="#000000" font-family="Arial" font-size="13px" font-style="normal" font-weight="normal" stroke="none" text-decoration="none" x="608.545654296875" y="74">«CodeList»</text></g></g><g transform="translate(-10,-10) scale(1,1)"><g><path fill="none" stroke="none"/><text fill="#000000" font-family="Arial" font-size="13px" font-style="normal" font-weight="bold" stroke="none" text-decoration="none" x="582.18701171875" y="89">InstrumentTypeTerm</text></g></g><g transform="translate(-10,-10) scale(1,1)"><rect fill="#C0C0C0" height="57" opacity="0.2" stroke="none" width="144.611328125" x="747.61572265625" y="63.5"/></g><g transform="translate(-10,-10) scale(1,1)"><rect fill="#ffffff" height="57" stroke="none" width="144.611328125" x="740.61572265625" y="56.5"/></g><g transform="translate(-10,-10) scale(1,1)"><path d="M 740.61572265625 56.5 L 885.22705078125 56.5 L 885.22705078125 113.5 L 740.61572265625 113.5 L 740.61572265625 56.5 Z Z" fill="none" stroke="#000000" stroke-miterlimit="10"/></g><g transform="translate(-10,-10) scale(1,1)"><path d="M 740.61572265625 94.5 L 885.22705078125 94.5" fill="none" stroke="#000000" stroke-miterlimit="10"/></g><g transform="translate(-10,-10) scale(1,1)"><path d="M 740.61572265625 104.5 L 885.22705078125 104.5" fill="none" stroke="#000000" stroke-miterlimit="10"/></g><g transform="translate(-10,-10) scale(1,1)"><g><path fill="none" stroke="none"/><text fill="#000000" font-family="Arial" font-size="13px" font-style="normal" font-weight="normal" stroke="none" text-decoration="none" x="780.037353515625" y="74">«CodeList»</text></g></g><g transform="translate(-10,-10) scale(1,1)"><g><path fill="none" stroke="none"/><text fill="#000000" font-family="Arial" font-size="13px" font-style="normal" font-weight="bold" stroke="none" text-decoration="none" x="746.9248046875" y="89">ISO199115-3RoleTerm</text></g></g><g transform="translate(-10,-10) scale(1,1)"><rect fill="#C0C0C0" height="57" opacity="0.2" stroke="none" width="172.541015625" x="923.22705078125" y="63.5"/></g><g transform="translate(-10,-10) scale(1,1)"><rect fill="#ffffff" height="57" stroke="none" width="172.541015625" x="916.22705078125" y="56.5"/></g><g transform="translate(-10,-10) scale(1,1)"><path d="M 916.22705078125 56.5 L 1088.76806640625 56.5 L 1088.76806640625 113.5 L 916.22705078125 113.5 L 916.22705078125 56.5 Z Z" fill="none" stroke="#000000" stroke-miterlimit="10"/></g><g transform="translate(-10,-10) scale(1,1)"><path d="M 916.22705078125 94.5 L 1088.76806640625 94.5" fill="none" stroke="#000000" stroke-miterlimit="10"/></g><g transform="translate(-10,-10) scale(1,1)"><path d="M 916.22705078125 104.5 L 1088.76806640625 104.5" fill="none" stroke="#000000" stroke-miterlimit="10"/></g><g transform="translate(-10,-10) scale(1,1)"><g><path fill="none" stroke="none"/><text fill="#000000" font-family="Arial" font-size="13px" font-style="normal" font-weight="normal" stroke="none" text-decoration="none" x="969.613525390625" y="74">«CodeList»</text></g></g><g transform="translate(-10,-10) scale(1,1)"><g><path fill="none" stroke="none"/><text fill="#000000" font-family="Arial" font-size="13px" font-style="normal" font-weight="bold" stroke="none" text-decoration="none" x="925.548095703125" y="89">ParameterVocabularyTerm</text></g></g><g transform="translate(-10,-10) scale(1,1)"><rect fill="#C0C0C0" height="57" opacity="0.2" stroke="none" width="155.15478515625" x="1126.76806640625" y="63.5"/></g><g transform="translate(-10,-10) scale(1,1)"><rect fill="#ffffff" height="57" stroke="none" width="155.15478515625" x="1119.76806640625" y="56.5"/></g><g transform="translate(-10,-10) scale(1,1)"><path d="M 1119.76806640625 56.5 L 1274.9228515625 56.5 L 1274.9228515625 113.5 L 1119.76806640625 113.5 L 1119.76806640625 56.5 Z Z" fill="none" stroke="#000000" stroke-miterlimit="10"/></g><g transform="translate(-10,-10) scale(1,1)"><path d="M 1119.76806640625 94.5 L 1274.9228515625 94.5" fill="none" stroke="#000000" stroke-miterlimit="10"/></g><g transform="translate(-10,-10) scale(1,1)"><path d="M 1119.76806640625 104.5 L 1274.9228515625 104.5" fill="none" stroke="#000000" stroke-miterlimit="10"/></g><g transform="translate(-10,-10) scale(1,1)"><g><path fill="none" stroke="none"/><text fill="#000000" font-family="Arial" font-size="13px" font-style="normal" font-weight="normal" stroke="none" text-decoration="none" x="1164.46142578125" y="74">«CodeList»</text></g></g><g transform="translate(-10,-10) scale(1,1)"><g><path fill="none" stroke="none"/><text fill="#000000" font-family="Arial" font-size="13px" font-style="normal" font-weight="bold" stroke="none" text-decoration="none" x="1129.060546875" y="89">MethodVocabularyTerm</text></g></g><g transform="translate(-10,-10) scale(1,1)"><rect fill="#C0C0C0" height="130" opacity="0.2" stroke="none" width="86.03515625" x="1312.9228515625" y="27"/></g><g transform="translate(-10,-10) scale(1,1)"><rect fill="#ffffff" height="130" stroke="none" width="86.03515625" x="1305.9228515625" y="20"/></g><g transform="translate(-10,-10) scale(1,1)"><path d="M 1305.9228515625 20 L 1391.9580078125 20 L 1391.9580078125 150 L 1305.9228515625 150 L 1305.9228515625 20 Z Z" fill="none" stroke="#000000" stroke-miterlimit="10"/></g><g transform="translate(-10,-10) scale(1,1)"><path d="M 1305.9228515625 58 L 1391.9580078125 58" fill="none" stroke="#000000" stroke-miterlimit="10"/></g><g transform="translate(-10,-10) scale(1,1)"><path d="M 1305.9228515625 141 L 1391.9580078125 141" fill="none" stroke="#000000" stroke-miterlimit="10"/></g><g transform="translate(-10,-10) scale(1,1)"><g><path fill="none" stroke="none"/><text fill="#000000" font-family="Arial" font-size="13px" font-style="normal" font-weight="normal" stroke="none" text-decoration="none" x="1316.056396484375" y="37.5">«CodeList»</text></g></g><g transform="translate(-10,-10) scale(1,1)"><g><path fill="none" stroke="none"/><text fill="#000000" font-family="Arial" font-size="13px" font-style="normal" font-weight="bold" stroke="none" text-decoration="none" x="1312.81591796875" y="52.5">MethodTerm</text></g></g><g transform="translate(-10,-10) scale(1,1)"><g><path fill="none" stroke="none"/><text fill="#000000" font-family="Arial" font-size="13px" font-style="normal" font-weight="normal" stroke="none" text-decoration="none" x="1310.9228515625" y="75.5">+label</text></g></g><g transform="translate(-10,-10) scale(1,1)"><g><path fill="none" stroke="none"/><text fill="#000000" font-family="Arial" font-size="13px" font-style="normal" font-weight="normal" stroke="none" text-decoration="none" x="1310.9228515625" y="90.5">+purpose</text></g></g><g transform="translate(-10,-10) scale(1,1)"><g><path fill="none" stroke="none"/><text fill="#000000" font-family="Arial" font-size="13px" font-style="normal" font-weight="normal" stroke="none" text-decoration="none" x="1310.9228515625" y="105.5">+scope</text></g></g><g transform="translate(-10,-10) scale(1,1)"><g><path fill="none" stroke="none"/><text fill="#000000" font-family="Arial" font-size="13px" font-style="normal" font-weight="normal" stroke="none" text-decoration="none" x="1310.9228515625" y="120.5">+equipment</text></g></g><g transform="translate(-10,-10) scale(1,1)"><g><path fill="none" stroke="none"/><text fill="#000000" font-family="Arial" font-size="13px" font-style="normal" font-weight="normal" stroke="none" text-decoration="none" x="1310.9228515625" y="135.5">+instructions</text></g></g><g transform="translate(-10,-10) scale(1,1)"><rect fill="#C0C0C0" height="57" opacity="0.2" stroke="none" width="164.79052734375" x="1429.9580078125" y="63.5"/></g><g transform="translate(-10,-10) scale(1,1)"><rect fill="#ffffff" height="57" stroke="none" width="164.79052734375" x="1422.9580078125" y="56.5"/></g><g transform="translate(-10,-10) scale(1,1)"><path d="M 1422.9580078125 56.5 L 1587.74853515625 56.5 L 1587.74853515625 113.5 L 1422.9580078125 113.5 L 1422.9580078125 56.5 Z Z" fill="none" stroke="#000000" stroke-miterlimit="10"/></g><g transform="translate(-10,-10) scale(1,1)"><path d="M 1422.9580078125 94.5 L 1587.74853515625 94.5" fill="none" stroke="#000000" stroke-miterlimit="10"/></g><g transform="translate(-10,-10) scale(1,1)"><path d="M 1422.9580078125 104.5 L 1587.74853515625 104.5" fill="none" stroke="#000000" stroke-miterlimit="10"/></g><g transform="translate(-10,-10) scale(1,1)"><g><path fill="none" stroke="none"/><text fill="#000000" font-family="Arial" font-size="13px" font-style="normal" font-weight="normal" stroke="none" text-decoration="none" x="1472.46923828125" y="74">«CodeList»</text></g></g><g transform="translate(-10,-10) scale(1,1)"><g><path fill="none" stroke="none"/><text fill="#000000" font-family="Arial" font-size="13px" font-style="normal" font-weight="bold" stroke="none" text-decoration="none" x="1432.736083984375" y="89">FeatureRelationshipTerm</text></g></g></g></svg>