<?xml version="1.0" encoding="UTF-8" standalone="no"?><svg xmlns="http://www.w3.org/2000/svg" xmlns:xlink="http://www.w3.org/1999/xlink" height="77" version="1.1" width="234.6005859375"><defs/><g><g transform="translate(-10,-10) scale(1,1)"><rect fill="#C0C0C0" height="57" opacity="0.2" stroke="none" width="214.6005859375" x="27" y="27"/></g><g transform="translate(-10,-10) scale(1,1)"><rect fill="#ffffff" height="57" stroke="none" width="214.6005859375" x="20" y="20"/></g><g transform="translate(-10,-10) scale(1,1)"><path d="M 20 20 L 234.6005859375 20 L 234.6005859375 77 L 20 77 L 20 20 Z Z" fill="none" stroke="#000000" stroke-miterlimit="10"/></g><g transform="translate(-10,-10) scale(1,1)"><path d="M 20 45 L 234.6005859375 45" fill="none" stroke="#000000" stroke-miterlimit="10"/></g><g transform="translate(-10,-10) scale(1,1)"><path d="M 20 68 L 234.6005859375 68" fill="none" stroke="#000000" stroke-miterlimit="10"/></g><g transform="translate(-10,-10) scale(1,1)"><g><path fill="none" stroke="none"/><text fill="#000000" font-family="Arial" font-size="13px" font-style="normal" font-weight="bold" stroke="none" text-decoration="none" x="94.060791015625" y="39.5">SoilFeature</text></g></g><g transform="translate(-10,-10) scale(1,1)"><g><path fill="none" stroke="none"/><text fill="#000000" font-family="Arial" font-size="13px" font-style="normal" font-weight="normal" stroke="none" text-decoration="none" x="25" y="62.5">+soilDepth: QuantitativeRange[0..1]</text></g></g></g></svg>