<?xml version="1.0" encoding="UTF-8" standalone="no"?><svg xmlns="http://www.w3.org/2000/svg" xmlns:xlink="http://www.w3.org/1999/xlink" height="185" version="1.1" width="355.43798828125"><defs/><g><g transform="translate(-397,-110) scale(1,1)"><rect fill="#C0C0C0" height="117" opacity="0.2" stroke="none" width="139.8759765625" x="447" y="175"/></g><g transform="translate(-397,-110) scale(1,1)"><rect fill="#ffffff" height="117" stroke="none" width="139.8759765625" x="440" y="168"/></g><g transform="translate(-397,-110) scale(1,1)"><path d="M 440 168 L 579.8759765625 168 L 579.8759765625 285 L 440 285 L 440 168 Z Z" fill="none" stroke="#000000" stroke-miterlimit="10"/></g><g transform="translate(-397,-110) scale(1,1)"><path d="M 440 193 L 579.8759765625 193" fill="none" stroke="#000000" stroke-miterlimit="10"/></g><g transform="translate(-397,-110) scale(1,1)"><path d="M 440 276 L 579.8759765625 276" fill="none" stroke="#000000" stroke-miterlimit="10"/></g><g transform="translate(-397,-110) scale(1,1)"><g><path fill="none" stroke="none"/><text fill="#000000" font-family="Arial" font-size="13px" font-style="normal" font-weight="bold" stroke="none" text-decoration="none" x="474.892578125" y="187.5">Observation</text></g></g><g transform="translate(-397,-110) scale(1,1)"><g><path fill="none" stroke="none"/><text fill="#000000" font-family="Arial" font-size="13px" font-style="normal" font-weight="normal" stroke="none" text-decoration="none" x="445" y="210.5">+phenomenonTime</text></g></g><g transform="translate(-397,-110) scale(1,1)"><g><path fill="none" stroke="none"/><text fill="#000000" font-family="Arial" font-size="13px" font-style="normal" font-weight="normal" stroke="none" text-decoration="none" x="445" y="225.5">+resultTime: DateTime</text></g></g><g transform="translate(-397,-110) scale(1,1)"><g><path fill="none" stroke="none"/><text fill="#000000" font-family="Arial" font-size="13px" font-style="normal" font-weight="normal" stroke="none" text-decoration="none" x="445" y="240.5">+validTime: DateTime</text></g></g><g transform="translate(-397,-110) scale(1,1)"><g><path fill="none" stroke="none"/><text fill="#000000" font-family="Arial" font-size="13px" font-style="normal" font-weight="normal" stroke="none" text-decoration="none" x="445" y="255.5">+hasResult: Result</text></g></g><g transform="translate(-397,-110) scale(1,1)"><g><path fill="none" stroke="none"/><text fill="#000000" font-family="Arial" font-size="13px" font-style="normal" font-weight="normal" stroke="none" text-decoration="none" x="445" y="270.5">+isPartOf: Project</text></g></g><g transform="translate(-397,-110) scale(1,1)"><path d="M 509 168 L 509 147 L 608 147 L 608 226 L 580 226" fill="none" stroke="#000000" stroke-miterlimit="10"/></g><g transform="translate(-397,-110) scale(1,1)"><g><path fill="none" stroke="none"/><text fill="#000000" font-family="Arial" font-size="13px" font-style="normal" font-weight="normal" stroke="none" text-decoration="none" x="406.5" y="132.5">+wasDerivedFrom</text></g></g><g transform="translate(-397,-110) scale(1,1)"><g><path fill="none" stroke="none"/><text fill="#000000" font-family="Arial" font-size="13px" font-style="normal" font-weight="normal" stroke="none" text-decoration="none" x="478.5" y="152.5">0..*</text></g></g><g transform="translate(-397,-110) scale(1,1)"><g><path fill="none" stroke="none"/><text fill="#000000" font-family="Arial" font-size="13px" font-style="normal" font-weight="normal" stroke="none" text-decoration="none" x="599.5" y="245.5">+hasDerivedObservation</text></g></g><g transform="translate(-397,-110) scale(1,1)"><g><path fill="none" stroke="none"/><text fill="#000000" font-family="Arial" font-size="13px" font-style="normal" font-weight="normal" stroke="none" text-decoration="none" x="615.5" y="219.5">0..*</text></g></g></g></svg>