<?xml version="1.0" encoding="UTF-8" standalone="no"?><svg xmlns="http://www.w3.org/2000/svg" xmlns:xlink="http://www.w3.org/1999/xlink" height="260" version="1.1" width="553.97705078125"><defs/><g><g transform="translate(-742,-262) scale(1,1)"><rect fill="#C0C0C0" height="24" opacity="0.2" stroke="none" width="137.603515625" x="759" y="279"/></g><g transform="translate(-742,-262) scale(1,1)"><rect fill="#ffffff" height="24" stroke="none" width="137.603515625" x="752" y="272"/></g><g transform="translate(-742,-262) scale(1,1)"><path d="M 752 272 L 889.603515625 272 L 889.603515625 296 L 752 296 L 752 272 Z Z" fill="none" stroke="#000000" stroke-miterlimit="10"/></g><g transform="translate(-742,-262) scale(1,1)"><rect fill="#ffffff" height="24" stroke="none" width="137.603515625" x="752" y="272"/></g><g transform="translate(-742,-262) scale(1,1)"><path d="M 752 272 L 889.603515625 272 L 889.603515625 296 L 752 296 L 752 272 Z Z" fill="none" stroke="#000000" stroke-miterlimit="10"/></g><g transform="translate(-742,-262) scale(1,1)"><g><path fill="none" stroke="none"/><text fill="#000000" font-family="Arial" font-size="13px" font-style="normal" font-weight="bold" stroke="none" text-decoration="none" x="774.924072265625" y="291.5">survey site: Site</text><path d="M 870.659423828125 291.5 L 770.944091796875 291.5" fill="none" stroke="#000000" stroke-miterlimit="10"/></g></g><g transform="translate(-742,-262) scale(1,1)"><rect fill="#C0C0C0" height="24" opacity="0.2" stroke="none" width="245.97705078125" x="1047" y="351"/></g><g transform="translate(-742,-262) scale(1,1)"><rect fill="#ffffff" height="24" stroke="none" width="245.97705078125" x="1040" y="344"/></g><g transform="translate(-742,-262) scale(1,1)"><path d="M 1040 344 L 1285.97705078125 344 L 1285.97705078125 368 L 1040 368 L 1040 344 Z Z" fill="none" stroke="#000000" stroke-miterlimit="10"/></g><g transform="translate(-742,-262) scale(1,1)"><rect fill="#ffffff" height="24" stroke="none" width="245.97705078125" x="1040" y="344"/></g><g transform="translate(-742,-262) scale(1,1)"><path d="M 1040 344 L 1285.97705078125 344 L 1285.97705078125 368 L 1040 368 L 1040 344 Z Z" fill="none" stroke="#000000" stroke-miterlimit="10"/></g><g transform="translate(-742,-262) scale(1,1)"><g><path fill="none" stroke="none"/><text fill="#000000" font-family="Arial" font-size="13px" font-style="normal" font-weight="bold" stroke="none" text-decoration="none" x="1066.891357421875" y="363.5">soil specimen: PhysicalSpecimen</text><path d="M 1267.032958984375 363.5 L 1058.944091796875 363.5" fill="none" stroke="#000000" stroke-miterlimit="10"/></g></g><g transform="translate(-742,-262) scale(1,1)"><rect fill="#C0C0C0" height="24" opacity="0.2" stroke="none" width="120.99169921875" x="871" y="495"/></g><g transform="translate(-742,-262) scale(1,1)"><rect fill="#ffffff" height="24" stroke="none" width="120.99169921875" x="864" y="488"/></g><g transform="translate(-742,-262) scale(1,1)"><path d="M 864 488 L 984.99169921875 488 L 984.99169921875 512 L 864 512 L 864 488 Z Z" fill="none" stroke="#000000" stroke-miterlimit="10"/></g><g transform="translate(-742,-262) scale(1,1)"><rect fill="#ffffff" height="24" stroke="none" width="120.99169921875" x="864" y="488"/></g><g transform="translate(-742,-262) scale(1,1)"><path d="M 864 488 L 984.99169921875 488 L 984.99169921875 512 L 864 512 L 864 488 Z Z" fill="none" stroke="#000000" stroke-miterlimit="10"/></g><g transform="translate(-742,-262) scale(1,1)"><g><path fill="none" stroke="none"/><text fill="#000000" font-family="Arial" font-size="13px" font-style="normal" font-weight="bold" stroke="none" text-decoration="none" x="887.64453125" y="507.5">tree: Sample</text><path d="M 963.51171875 507.5 L 885.47998046875 507.5" fill="none" stroke="#000000" stroke-miterlimit="10"/></g></g></g></svg>