<?xml version="1.0" encoding="UTF-8" standalone="no"?><svg xmlns="http://www.w3.org/2000/svg" xmlns:xlink="http://www.w3.org/1999/xlink" height="934" version="1.1" width="1378.37060546875"><defs/><g><g transform="translate(-414,-14) scale(1,1)"><rect fill="#ffffff" height="136" stroke="none" width="112" x="424" y="32"/></g><g transform="translate(-414,-14) scale(1,1)"><path d="M 424 32 L 536 32 L 536 168 L 424 168 L 424 32 Z Z" fill="none" stroke="#000000" stroke-miterlimit="10"/></g><g transform="translate(-414,-14) scale(1,1)"><rect fill="#C0C0C0" height="222" opacity="0.2" stroke="none" width="176.27978515625" x="455" y="367"/></g><g transform="translate(-414,-14) scale(1,1)"><rect fill="#ffffff" height="222" stroke="none" width="176.27978515625" x="448" y="360"/></g><g transform="translate(-414,-14) scale(1,1)"><path d="M 448 360 L 624.27978515625 360 L 624.27978515625 582 L 448 582 L 448 360 Z Z" fill="none" stroke="#000000" stroke-miterlimit="10"/></g><g transform="translate(-414,-14) scale(1,1)"><path d="M 448 385 L 624.27978515625 385" fill="none" stroke="#000000" stroke-miterlimit="10"/></g><g transform="translate(-414,-14) scale(1,1)"><path d="M 448 573 L 624.27978515625 573" fill="none" stroke="#000000" stroke-miterlimit="10"/></g><g transform="translate(-414,-14) scale(1,1)"><g><path fill="none" stroke="none"/><text fill="#000000" font-family="Arial" font-size="13px" font-style="normal" font-weight="bold" stroke="none" text-decoration="none" x="524.939453125" y="379.5">Site</text></g></g><g transform="translate(-414,-14) scale(1,1)"><g><path fill="none" stroke="none"/><text fill="#000000" font-family="Arial" font-size="13px" font-style="normal" font-weight="normal" stroke="none" text-decoration="none" x="453" y="402.5">+identifier: String</text></g></g><g transform="translate(-414,-14) scale(1,1)"><g><path fill="none" stroke="none"/><text fill="#000000" font-family="Arial" font-size="13px" font-style="normal" font-weight="normal" stroke="none" text-decoration="none" x="453" y="417.5">+siteName: String</text></g></g><g transform="translate(-414,-14) scale(1,1)"><g><path fill="none" stroke="none"/><text fill="#000000" font-family="Arial" font-size="13px" font-style="normal" font-weight="normal" stroke="none" text-decoration="none" x="453" y="432.5">+dateCommissioned: Date</text></g></g><g transform="translate(-414,-14) scale(1,1)"><g><path fill="none" stroke="none"/><text fill="#000000" font-family="Arial" font-size="13px" font-style="normal" font-weight="normal" stroke="none" text-decoration="none" x="453" y="447.5">+dateDecommissioned: Date</text></g></g><g transform="translate(-414,-14) scale(1,1)"><g><path fill="none" stroke="none"/><text fill="#000000" font-family="Arial" font-size="13px" font-style="normal" font-weight="normal" stroke="none" text-decoration="none" x="453" y="462.5">+locality: String</text></g></g><g transform="translate(-414,-14) scale(1,1)"><g><path fill="none" stroke="none"/><text fill="#000000" font-family="Arial" font-size="13px" font-style="normal" font-weight="normal" stroke="none" text-decoration="none" x="453" y="477.5">+region: IRI</text></g></g><g transform="translate(-414,-14) scale(1,1)"><g><path fill="none" stroke="none"/><text fill="#000000" font-family="Arial" font-size="13px" font-style="normal" font-weight="normal" stroke="none" text-decoration="none" x="453" y="492.5">+permanent: Boolean</text></g></g><g transform="translate(-414,-14) scale(1,1)"><g><path fill="none" stroke="none"/><text fill="#000000" font-family="Arial" font-size="13px" font-style="normal" font-weight="normal" stroke="none" text-decoration="none" x="453" y="507.5">+notes: String</text></g></g><g transform="translate(-414,-14) scale(1,1)"><g><path fill="none" stroke="none"/><text fill="#000000" font-family="Arial" font-size="13px" font-style="normal" font-weight="normal" stroke="none" text-decoration="none" x="453" y="522.5">+placementMethod[0..1]</text></g></g><g transform="translate(-414,-14) scale(1,1)"><g><path fill="none" stroke="none"/><text fill="#000000" font-family="Arial" font-size="13px" font-style="normal" font-weight="normal" stroke="none" text-decoration="none" x="453" y="537.5">+placementNote[0..*]</text></g></g><g transform="translate(-414,-14) scale(1,1)"><g><path fill="none" stroke="none"/><text fill="#000000" font-family="Arial" font-size="13px" font-style="normal" font-weight="normal" stroke="none" text-decoration="none" x="453" y="552.5">+markers[0..1]</text></g></g><g transform="translate(-414,-14) scale(1,1)"><g><path fill="none" stroke="none"/><text fill="#000000" font-family="Arial" font-size="13px" font-style="normal" font-weight="normal" stroke="none" text-decoration="none" x="453" y="567.5">+siteDescription</text></g></g><g transform="translate(-414,-14) scale(1,1)"><path d="M 505 360 L 505 339 L 592 339 L 592 360" fill="none" stroke="#000000" stroke-miterlimit="10"/></g><g transform="translate(-414,-14) scale(1,1)"><g><path fill="none" stroke="none"/><text fill="#000000" font-family="Arial" font-size="13px" font-style="normal" font-weight="normal" stroke="none" text-decoration="none" x="453.575927734375" y="295.5">+hasSubSite</text></g></g><g transform="translate(-414,-14) scale(1,1)"><g><path fill="none" stroke="none"/><text fill="#000000" font-family="Arial" font-size="13px" font-style="normal" font-weight="normal" stroke="none" text-decoration="none" x="507.5" y="344.5">0..*</text></g></g><g transform="translate(-414,-14) scale(1,1)"><g><path fill="none" stroke="none"/><text fill="#000000" font-family="Arial" font-size="13px" font-style="normal" font-weight="normal" stroke="none" text-decoration="none" x="541.575927734375" y="324.5">+isSubSiteOf</text></g></g><g transform="translate(-414,-14) scale(1,1)"><g><path fill="none" stroke="none"/><text fill="#000000" font-family="Arial" font-size="13px" font-style="normal" font-weight="normal" stroke="none" text-decoration="none" x="569.5" y="344.5">0..*</text></g></g><g transform="translate(-414,-14) scale(1,1)"><rect fill="#C0C0C0" height="102" opacity="0.2" stroke="none" width="160.1123046875" x="751" y="223"/></g><g transform="translate(-414,-14) scale(1,1)"><rect fill="#ffffff" height="102" stroke="none" width="160.1123046875" x="744" y="216"/></g><g transform="translate(-414,-14) scale(1,1)"><path d="M 744 216 L 904.1123046875 216 L 904.1123046875 318 L 744 318 L 744 216 Z Z" fill="none" stroke="#000000" stroke-miterlimit="10"/></g><g transform="translate(-414,-14) scale(1,1)"><path d="M 744 241 L 904.1123046875 241" fill="none" stroke="#000000" stroke-miterlimit="10"/></g><g transform="translate(-414,-14) scale(1,1)"><path d="M 744 309 L 904.1123046875 309" fill="none" stroke="#000000" stroke-miterlimit="10"/></g><g transform="translate(-414,-14) scale(1,1)"><g><path fill="none" stroke="none"/><text fill="#000000" font-family="Arial" font-size="13px" font-style="normal" font-weight="bold" stroke="none" text-decoration="none" x="800.693603515625" y="235.5">SiteVisit</text></g></g><g transform="translate(-414,-14) scale(1,1)"><g><path fill="none" stroke="none"/><text fill="#000000" font-family="Arial" font-size="13px" font-style="normal" font-weight="normal" stroke="none" text-decoration="none" x="749" y="258.5">+identifier</text></g></g><g transform="translate(-414,-14) scale(1,1)"><g><path fill="none" stroke="none"/><text fill="#000000" font-family="Arial" font-size="13px" font-style="normal" font-weight="normal" stroke="none" text-decoration="none" x="749" y="273.5">+siteDescription</text></g></g><g transform="translate(-414,-14) scale(1,1)"><g><path fill="none" stroke="none"/><text fill="#000000" font-family="Arial" font-size="13px" font-style="normal" font-weight="normal" stroke="none" text-decoration="none" x="749" y="288.5">+startedAtTime: DateTime</text></g></g><g transform="translate(-414,-14) scale(1,1)"><g><path fill="none" stroke="none"/><text fill="#000000" font-family="Arial" font-size="13px" font-style="normal" font-weight="normal" stroke="none" text-decoration="none" x="749" y="303.5">+endedAtTime: DateTime</text></g></g><g transform="translate(-414,-14) scale(1,1)"><path d="M 625 408 L 751 319" fill="none" stroke="#000000" stroke-miterlimit="10"/></g><g transform="translate(-414,-14) scale(1,1)"><g><path fill="none" stroke="none"/><text fill="#000000" font-family="Arial" font-size="13px" font-style="normal" font-weight="normal" stroke="none" text-decoration="none" x="623.50634765625" y="386.5">+site</text></g></g><g transform="translate(-414,-14) scale(1,1)"><g><path fill="none" stroke="none"/><text fill="#000000" font-family="Arial" font-size="13px" font-style="normal" font-weight="normal" stroke="none" text-decoration="none" x="645.5" y="411.5">1</text></g></g><g transform="translate(-414,-14) scale(1,1)"><g><path fill="none" stroke="none"/><text fill="#000000" font-family="Arial" font-size="13px" font-style="normal" font-weight="normal" stroke="none" text-decoration="none" x="694.50634765625" y="327.5">+siteVisit</text></g></g><g transform="translate(-414,-14) scale(1,1)"><g><path fill="none" stroke="none"/><text fill="#000000" font-family="Arial" font-size="13px" font-style="normal" font-weight="normal" stroke="none" text-decoration="none" x="730.5" y="347.5">0..*</text></g></g><g transform="translate(-414,-14) scale(1,1)"><rect fill="#C0C0C0" height="222" opacity="0.2" stroke="none" width="170.50341796875" x="1207" y="223"/></g><g transform="translate(-414,-14) scale(1,1)"><rect fill="#ffffff" height="222" stroke="none" width="170.50341796875" x="1200" y="216"/></g><g transform="translate(-414,-14) scale(1,1)"><path d="M 1200 216 L 1370.50341796875 216 L 1370.50341796875 438 L 1200 438 L 1200 216 Z Z" fill="none" stroke="#000000" stroke-miterlimit="10"/></g><g transform="translate(-414,-14) scale(1,1)"><path d="M 1200 241 L 1370.50341796875 241" fill="none" stroke="#000000" stroke-miterlimit="10"/></g><g transform="translate(-414,-14) scale(1,1)"><path d="M 1200 324 L 1370.50341796875 324" fill="none" stroke="#000000" stroke-miterlimit="10"/></g><g transform="translate(-414,-14) scale(1,1)"><g><path fill="none" stroke="none"/><text fill="#000000" font-family="Arial" font-size="13px" font-style="normal" font-weight="bold" stroke="none" text-decoration="none" x="1250.206298828125" y="235.5">Observation</text></g></g><g transform="translate(-414,-14) scale(1,1)"><g><path fill="none" stroke="none"/><text fill="#000000" font-family="Arial" font-size="13px" font-style="normal" font-weight="normal" stroke="none" text-decoration="none" x="1205" y="258.5">+phenomenonTime</text></g></g><g transform="translate(-414,-14) scale(1,1)"><g><path fill="none" stroke="none"/><text fill="#000000" font-family="Arial" font-size="13px" font-style="normal" font-weight="normal" stroke="none" text-decoration="none" x="1205" y="273.5">+resultTime: DateTime</text></g></g><g transform="translate(-414,-14) scale(1,1)"><g><path fill="none" stroke="none"/><text fill="#000000" font-family="Arial" font-size="13px" font-style="normal" font-weight="normal" stroke="none" text-decoration="none" x="1205" y="288.5">+validTime: DateTime</text></g></g><g transform="translate(-414,-14) scale(1,1)"><g><path fill="none" stroke="none"/><text fill="#000000" font-family="Arial" font-size="13px" font-style="normal" font-weight="normal" stroke="none" text-decoration="none" x="1205" y="303.5">+hasResult: Result</text></g></g><g transform="translate(-414,-14) scale(1,1)"><g><path fill="none" stroke="none"/><text fill="#000000" font-family="Arial" font-size="13px" font-style="normal" font-weight="normal" stroke="none" text-decoration="none" x="1205" y="318.5">+isPartOf: Project</text></g></g><g transform="translate(-414,-14) scale(1,1)"><path d="M 905 278 L 1199 316" fill="none" stroke="#000000" stroke-miterlimit="10"/></g><g transform="translate(-414,-14) scale(1,1)"><g><path fill="none" stroke="none"/><text fill="#000000" font-family="Arial" font-size="13px" font-style="normal" font-weight="normal" stroke="none" text-decoration="none" x="930.371337890625" y="278.5">+isSubActivityOf</text></g></g><g transform="translate(-414,-14) scale(1,1)"><g><path fill="none" stroke="none"/><text fill="#000000" font-family="Arial" font-size="13px" font-style="normal" font-weight="normal" stroke="none" text-decoration="none" x="920.5" y="299.5">1</text></g></g><g transform="translate(-414,-14) scale(1,1)"><g><path fill="none" stroke="none"/><text fill="#000000" font-family="Arial" font-size="13px" font-style="normal" font-weight="normal" stroke="none" text-decoration="none" x="1086.871337890625" y="297.5">+hasSubActivity</text></g></g><g transform="translate(-414,-14) scale(1,1)"><g><path fill="none" stroke="none"/><text fill="#000000" font-family="Arial" font-size="13px" font-style="normal" font-weight="normal" stroke="none" text-decoration="none" x="1165.5" y="331.5">0..*</text></g></g><g transform="translate(-414,-14) scale(1,1)"><rect fill="#C0C0C0" height="87" opacity="0.2" stroke="none" width="246.37060546875" x="1543" y="255"/></g><g transform="translate(-414,-14) scale(1,1)"><rect fill="#ffffff" height="87" stroke="none" width="246.37060546875" x="1536" y="248"/></g><g transform="translate(-414,-14) scale(1,1)"><path d="M 1536 248 L 1782.37060546875 248 L 1782.37060546875 335 L 1536 335 L 1536 248 Z Z" fill="none" stroke="#000000" stroke-miterlimit="10"/></g><g transform="translate(-414,-14) scale(1,1)"><path d="M 1536 273 L 1782.37060546875 273" fill="none" stroke="#000000" stroke-miterlimit="10"/></g><g transform="translate(-414,-14) scale(1,1)"><path d="M 1536 326 L 1782.37060546875 326" fill="none" stroke="#000000" stroke-miterlimit="10"/></g><g transform="translate(-414,-14) scale(1,1)"><g><path fill="none" stroke="none"/><text fill="#000000" font-family="Arial" font-size="13px" font-style="normal" font-weight="bold" stroke="none" text-decoration="none" x="1629.19580078125" y="267.5">Procedure</text></g></g><g transform="translate(-414,-14) scale(1,1)"><g><path fill="none" stroke="none"/><text fill="#000000" font-family="Arial" font-size="13px" font-style="normal" font-weight="normal" stroke="none" text-decoration="none" x="1541" y="290.5">+vocabulary</text></g></g><g transform="translate(-414,-14) scale(1,1)"><g><path fill="none" stroke="none"/><text fill="#000000" font-family="Arial" font-size="13px" font-style="normal" font-weight="normal" stroke="none" text-decoration="none" x="1541" y="305.5">+observationType: ObservationTypeTerm</text></g></g><g transform="translate(-414,-14) scale(1,1)"><g><path fill="none" stroke="none"/><text fill="#000000" font-family="Arial" font-size="13px" font-style="normal" font-weight="normal" stroke="none" text-decoration="none" x="1541" y="320.5">+instrumentType: InstrumentTypeTerm</text></g></g><g transform="translate(-414,-14) scale(1,1)"><path d="M 1372 319 L 1535 303" fill="none" stroke="#000000" stroke-miterlimit="10"/></g><g transform="translate(-414,-14) scale(1,1)"><path d="M 1525.297162103355 308.18217490552274 L 1535 303 L 1524.4747065095387 299.8034085435184" fill="none" stroke="#000000" stroke-miterlimit="10"/></g><g transform="translate(-414,-14) scale(1,1)"><g><path fill="none" stroke="none"/><text fill="#000000" font-family="Arial" font-size="13px" font-style="normal" font-weight="normal" stroke="none" text-decoration="none" x="1425.035888671875" y="293.5">+usedProcedure</text></g></g><g transform="translate(-414,-14) scale(1,1)"><g><path fill="none" stroke="none"/><text fill="#000000" font-family="Arial" font-size="13px" font-style="normal" font-weight="normal" stroke="none" text-decoration="none" x="1510.5" y="323.5">1</text></g></g><g transform="translate(-414,-14) scale(1,1)"><rect fill="#C0C0C0" height="102" opacity="0.2" stroke="none" width="217.9521484375" x="1479" y="71"/></g><g transform="translate(-414,-14) scale(1,1)"><rect fill="#ffffff" height="102" stroke="none" width="217.9521484375" x="1472" y="64"/></g><g transform="translate(-414,-14) scale(1,1)"><path d="M 1472 64 L 1689.9521484375 64 L 1689.9521484375 166 L 1472 166 L 1472 64 Z Z" fill="none" stroke="#000000" stroke-miterlimit="10"/></g><g transform="translate(-414,-14) scale(1,1)"><path d="M 1472 89 L 1689.9521484375 89" fill="none" stroke="#000000" stroke-miterlimit="10"/></g><g transform="translate(-414,-14) scale(1,1)"><path d="M 1472 157 L 1689.9521484375 157" fill="none" stroke="#000000" stroke-miterlimit="10"/></g><g transform="translate(-414,-14) scale(1,1)"><g><path fill="none" stroke="none"/><text fill="#000000" font-family="Arial" font-size="13px" font-style="normal" font-weight="bold" stroke="none" text-decoration="none" x="1523.171142578125" y="83.5">ObservableProperty</text></g></g><g transform="translate(-414,-14) scale(1,1)"><g><path fill="none" stroke="none"/><text fill="#000000" font-family="Arial" font-size="13px" font-style="normal" font-weight="normal" stroke="none" text-decoration="none" x="1477" y="106.5">+vocabulary</text></g></g><g transform="translate(-414,-14) scale(1,1)"><g><path fill="none" stroke="none"/><text fill="#000000" font-family="Arial" font-size="13px" font-style="normal" font-weight="normal" stroke="none" text-decoration="none" x="1477" y="121.5">+globalVocabulary</text></g></g><g transform="translate(-414,-14) scale(1,1)"><g><path fill="none" stroke="none"/><text fill="#000000" font-family="Arial" font-size="13px" font-style="normal" font-weight="normal" stroke="none" text-decoration="none" x="1477" y="136.5">+value: ParameterTerm</text></g></g><g transform="translate(-414,-14) scale(1,1)"><g><path fill="none" stroke="none"/><text fill="#000000" font-family="Arial" font-size="13px" font-style="normal" font-weight="normal" stroke="none" text-decoration="none" x="1477" y="151.5">+globalValue: GlobalParameterTerm</text></g></g><g transform="translate(-414,-14) scale(1,1)"><path d="M 1372 265 L 1508 167" fill="none" stroke="#000000" stroke-miterlimit="10"/></g><g transform="translate(-414,-14) scale(1,1)"><path d="M 1502.2159047807215 176.35650802887056 L 1508 167 L 1497.2939767719788 169.5260773228602" fill="none" stroke="#000000" stroke-miterlimit="10"/></g><g transform="translate(-414,-14) scale(1,1)"><g><path fill="none" stroke="none"/><text fill="#000000" font-family="Arial" font-size="13px" font-style="normal" font-weight="normal" stroke="none" text-decoration="none" x="1386.5" y="268.5">0..*</text></g></g><g transform="translate(-414,-14) scale(1,1)"><g><path fill="none" stroke="none"/><text fill="#000000" font-family="Arial" font-size="13px" font-style="normal" font-weight="normal" stroke="none" text-decoration="none" x="1358.035888671875" y="187.5">+observedProperty</text></g></g><g transform="translate(-414,-14) scale(1,1)"><g><path fill="none" stroke="none"/><text fill="#000000" font-family="Arial" font-size="13px" font-style="normal" font-weight="normal" stroke="none" text-decoration="none" x="1493.5" y="195.5">1</text></g></g><g transform="translate(-414,-14) scale(1,1)"><rect fill="#C0C0C0" height="44" opacity="0.2" stroke="none" width="77.6181640625" x="1455" y="399"/></g><g transform="translate(-414,-14) scale(1,1)"><rect fill="#ffffff" height="44" stroke="none" width="77.6181640625" x="1448" y="392"/></g><g transform="translate(-414,-14) scale(1,1)"><path d="M 1448 392 L 1525.6181640625 392 L 1525.6181640625 436 L 1448 436 L 1448 392 Z Z" fill="none" stroke="#000000" stroke-miterlimit="10"/></g><g transform="translate(-414,-14) scale(1,1)"><path d="M 1448 417 L 1525.6181640625 417" fill="none" stroke="#000000" stroke-miterlimit="10"/></g><g transform="translate(-414,-14) scale(1,1)"><path d="M 1448 427 L 1525.6181640625 427" fill="none" stroke="#000000" stroke-miterlimit="10"/></g><g transform="translate(-414,-14) scale(1,1)"><g><path fill="none" stroke="none"/><text fill="#000000" font-family="Arial" font-size="13px" font-style="italic" font-weight="bold" stroke="none" text-decoration="none" x="1468.385009765625" y="411.5">Result</text></g></g><g transform="translate(-414,-14) scale(1,1)"><rect fill="#C0C0C0" height="102" opacity="0.2" stroke="none" width="166.16162109375" x="743" y="439"/></g><g transform="translate(-414,-14) scale(1,1)"><rect fill="#ffffff" height="102" stroke="none" width="166.16162109375" x="736" y="432"/></g><g transform="translate(-414,-14) scale(1,1)"><path d="M 736 432 L 902.16162109375 432 L 902.16162109375 534 L 736 534 L 736 432 Z Z" fill="none" stroke="#000000" stroke-miterlimit="10"/></g><g transform="translate(-414,-14) scale(1,1)"><path d="M 736 457 L 902.16162109375 457" fill="none" stroke="#000000" stroke-miterlimit="10"/></g><g transform="translate(-414,-14) scale(1,1)"><path d="M 736 480 L 902.16162109375 480" fill="none" stroke="#000000" stroke-miterlimit="10"/></g><g transform="translate(-414,-14) scale(1,1)"><g><path fill="none" stroke="none"/><text fill="#000000" font-family="Arial" font-size="13px" font-style="normal" font-weight="bold" stroke="none" text-decoration="none" x="768.140869140625" y="451.5">FeatureOfInterest</text></g></g><g transform="translate(-414,-14) scale(1,1)"><g><path fill="none" stroke="none"/><text fill="#000000" font-family="Arial" font-size="13px" font-style="normal" font-weight="normal" stroke="none" text-decoration="none" x="741" y="474.5">+featureType: FeatureTerm</text></g></g><g transform="translate(-414,-14) scale(1,1)"><path d="M 1199 356 L 903 455" fill="none" stroke="#000000" stroke-miterlimit="10"/></g><g transform="translate(-414,-14) scale(1,1)"><path d="M 911.3026870964667 447.7843651022128 L 903 455 L 913.9731107147733 455.76866198119" fill="none" stroke="#000000" stroke-miterlimit="10"/></g><g transform="translate(-414,-14) scale(1,1)"><g><path fill="none" stroke="none"/><text fill="#000000" font-family="Arial" font-size="13px" font-style="normal" font-weight="normal" stroke="none" text-decoration="none" x="990.035888671875" y="425.5">+hasFeatureOfInterest</text></g></g><g transform="translate(-414,-14) scale(1,1)"><g><path fill="none" stroke="none"/><text fill="#000000" font-family="Arial" font-size="13px" font-style="normal" font-weight="normal" stroke="none" text-decoration="none" x="915.5" y="442.5">1</text></g></g><g transform="translate(-414,-14) scale(1,1)"><rect fill="#C0C0C0" height="102" opacity="0.2" stroke="none" width="176.25439453125" x="776" y="615"/></g><g transform="translate(-414,-14) scale(1,1)"><rect fill="#ffffff" height="102" stroke="none" width="176.25439453125" x="769" y="608"/></g><g transform="translate(-414,-14) scale(1,1)"><path d="M 769 608 L 945.25439453125 608 L 945.25439453125 710 L 769 710 L 769 608 Z Z" fill="none" stroke="#000000" stroke-miterlimit="10"/></g><g transform="translate(-414,-14) scale(1,1)"><path d="M 769 633 L 945.25439453125 633" fill="none" stroke="#000000" stroke-miterlimit="10"/></g><g transform="translate(-414,-14) scale(1,1)"><path d="M 769 656 L 945.25439453125 656" fill="none" stroke="#000000" stroke-miterlimit="10"/></g><g transform="translate(-414,-14) scale(1,1)"><g><path fill="none" stroke="none"/><text fill="#000000" font-family="Arial" font-size="13px" font-style="normal" font-weight="bold" stroke="none" text-decoration="none" x="835.088134765625" y="627.5">Sample</text></g></g><g transform="translate(-414,-14) scale(1,1)"><g><path fill="none" stroke="none"/><text fill="#000000" font-family="Arial" font-size="13px" font-style="normal" font-weight="normal" stroke="none" text-decoration="none" x="774" y="650.5">+identifier</text></g></g><g transform="translate(-414,-14) scale(1,1)"><rect fill="#C0C0C0" height="44" opacity="0.2" stroke="none" width="89.18994140625" x="1415" y="615"/></g><g transform="translate(-414,-14) scale(1,1)"><rect fill="#ffffff" height="44" stroke="none" width="89.18994140625" x="1408" y="608"/></g><g transform="translate(-414,-14) scale(1,1)"><path d="M 1408 608 L 1497.18994140625 608 L 1497.18994140625 652 L 1408 652 L 1408 608 Z Z" fill="none" stroke="#000000" stroke-miterlimit="10"/></g><g transform="translate(-414,-14) scale(1,1)"><path d="M 1408 633 L 1497.18994140625 633" fill="none" stroke="#000000" stroke-miterlimit="10"/></g><g transform="translate(-414,-14) scale(1,1)"><path d="M 1408 643 L 1497.18994140625 643" fill="none" stroke="#000000" stroke-miterlimit="10"/></g><g transform="translate(-414,-14) scale(1,1)"><g><path fill="none" stroke="none"/><text fill="#000000" font-family="Arial" font-size="13px" font-style="normal" font-weight="bold" stroke="none" text-decoration="none" x="1428.391357421875" y="627.5">Sampler</text></g></g><g transform="translate(-414,-14) scale(1,1)"><rect fill="#C0C0C0" height="44" opacity="0.2" stroke="none" width="96.39453125" x="1143" y="615"/></g><g transform="translate(-414,-14) scale(1,1)"><rect fill="#ffffff" height="44" stroke="none" width="96.39453125" x="1136" y="608"/></g><g transform="translate(-414,-14) scale(1,1)"><path d="M 1136 608 L 1232.39453125 608 L 1232.39453125 652 L 1136 652 L 1136 608 Z Z" fill="none" stroke="#000000" stroke-miterlimit="10"/></g><g transform="translate(-414,-14) scale(1,1)"><path d="M 1136 633 L 1232.39453125 633" fill="none" stroke="#000000" stroke-miterlimit="10"/></g><g transform="translate(-414,-14) scale(1,1)"><path d="M 1136 643 L 1232.39453125 643" fill="none" stroke="#000000" stroke-miterlimit="10"/></g><g transform="translate(-414,-14) scale(1,1)"><g><path fill="none" stroke="none"/><text fill="#000000" font-family="Arial" font-size="13px" font-style="normal" font-weight="bold" stroke="none" text-decoration="none" x="1157.09912109375" y="627.5">Sampling</text></g></g><g transform="translate(-414,-14) scale(1,1)"><path d="M 946 651 L 1135 634" fill="none" stroke="#000000" stroke-miterlimit="10"/></g><g transform="translate(-414,-14) scale(1,1)"><g><path fill="none" stroke="none"/><text fill="#000000" font-family="Arial" font-size="13px" font-style="normal" font-weight="normal" stroke="none" text-decoration="none" x="965.035888671875" y="637.5">+hasResult</text></g></g><g transform="translate(-414,-14) scale(1,1)"><g><path fill="none" stroke="none"/><text fill="#000000" font-family="Arial" font-size="13px" font-style="normal" font-weight="normal" stroke="none" text-decoration="none" x="958.5" y="667.5">1..*</text></g></g><g transform="translate(-414,-14) scale(1,1)"><g><path fill="none" stroke="none"/><text fill="#000000" font-family="Arial" font-size="13px" font-style="normal" font-weight="normal" stroke="none" text-decoration="none" x="1044.035888671875" y="629.5">+isResultOf</text></g></g><g transform="translate(-414,-14) scale(1,1)"><g><path fill="none" stroke="none"/><text fill="#000000" font-family="Arial" font-size="13px" font-style="normal" font-weight="normal" stroke="none" text-decoration="none" x="1110.5" y="654.5">1</text></g></g><g transform="translate(-414,-14) scale(1,1)"><path d="M 1407 630 L 1233 630" fill="none" stroke="#000000" stroke-miterlimit="10"/></g><g transform="translate(-414,-14) scale(1,1)"><path d="M 1243.162674857624 625.790482243984 L 1233 630 L 1243.162674857624 634.209517756016" fill="none" stroke="#000000" stroke-miterlimit="10"/></g><g transform="translate(-414,-14) scale(1,1)"><g><path fill="none" stroke="none"/><text fill="#000000" font-family="Arial" font-size="13px" font-style="normal" font-weight="normal" stroke="none" text-decoration="none" x="1272.035888671875" y="651.5">+madeSampling</text></g></g><g transform="translate(-414,-14) scale(1,1)"><g><path fill="none" stroke="none"/><text fill="#000000" font-family="Arial" font-size="13px" font-style="normal" font-weight="normal" stroke="none" text-decoration="none" x="1244.5" y="623.5">1..*</text></g></g><g transform="translate(-414,-14) scale(1,1)"><path d="M 744 104 L 821.38623046875 104 L 831.38623046875 114 L 831.38623046875 166 L 744 166 L 744 104" fill="#ffff00" stroke="none"/></g><g transform="translate(-414,-14) scale(1,1)"><path d="M 744 104 L 821.38623046875 104 L 831.38623046875 114 L 831.38623046875 166 L 744 166 L 744 104 L 744 104" fill="none" stroke="#000000" stroke-miterlimit="10"/></g><g transform="translate(-414,-14) scale(1,1)"><path d="M 821.38623046875 104 L 821.38623046875 114 L 831.38623046875 114 L 821.38623046875 104" fill="none" stroke="#000000" stroke-miterlimit="10"/></g><g transform="translate(-414,-14) scale(1,1)"><g><path fill="none" stroke="none"/><text fill="#000000" font-family="Arial" font-size="13px" font-style="normal" font-weight="normal" stroke="none" text-decoration="none" x="749" y="122">AusPlots</text><text fill="#000000" font-family="Arial" font-size="13px" font-style="normal" font-weight="normal" stroke="none" text-decoration="none" x="749" y="135">Rangelands</text><text fill="#000000" font-family="Arial" font-size="13px" font-style="normal" font-weight="normal" stroke="none" text-decoration="none" x="749" y="148">site visit</text><text fill="#000000" font-family="Arial" font-size="13px" font-style="normal" font-weight="normal" stroke="none" text-decoration="none" x="749" y="161">58730</text></g></g><g transform="translate(-414,-14) scale(1,1)"><path d="M 448 104 L 506 104 L 516 114 L 516 142 L 448 142 L 448 104" fill="#ffff00" stroke="none"/></g><g transform="translate(-414,-14) scale(1,1)"><path d="M 448 104 L 506 104 L 516 114 L 516 142 L 448 142 L 448 104 L 448 104" fill="none" stroke="#000000" stroke-miterlimit="10"/></g><g transform="translate(-414,-14) scale(1,1)"><path d="M 506 104 L 506 114 L 516 114 L 506 104" fill="none" stroke="#000000" stroke-miterlimit="10"/></g><g transform="translate(-414,-14) scale(1,1)"><g><path fill="none" stroke="none"/><text fill="#000000" font-family="Arial" font-size="13px" font-style="normal" font-weight="normal" stroke="none" text-decoration="none" x="453" y="98">Example</text></g></g><g transform="translate(-414,-14) scale(1,1)"><path d="M 797 168 L 810 215" fill="none" stroke="#000000" stroke-dasharray="3" stroke-miterlimit="10"/></g><g transform="translate(-414,-14) scale(1,1)"><path d="M 424 240 L 525 240 L 535 250 L 535 302 L 424 302 L 424 240" fill="#ffff00" stroke="none"/></g><g transform="translate(-414,-14) scale(1,1)"><path d="M 424 240 L 525 240 L 535 250 L 535 302 L 424 302 L 424 240 L 424 240" fill="none" stroke="#000000" stroke-miterlimit="10"/></g><g transform="translate(-414,-14) scale(1,1)"><path d="M 525 240 L 525 250 L 535 250 L 525 240" fill="none" stroke="#000000" stroke-miterlimit="10"/></g><g transform="translate(-414,-14) scale(1,1)"><g><path fill="none" stroke="none"/><text fill="#000000" font-family="Arial" font-size="13px" font-style="normal" font-weight="normal" stroke="none" text-decoration="none" x="429" y="258">AusPlots</text><text fill="#000000" font-family="Arial" font-size="13px" font-style="normal" font-weight="normal" stroke="none" text-decoration="none" x="429" y="271">Rangelands site</text><text fill="#000000" font-family="Arial" font-size="13px" font-style="normal" font-weight="normal" stroke="none" text-decoration="none" x="429" y="284">ID QDABBN0001</text></g></g><g transform="translate(-414,-14) scale(1,1)"><path d="M 489 304 L 505 359" fill="none" stroke="#000000" stroke-dasharray="3" stroke-miterlimit="10"/></g><g transform="translate(-414,-14) scale(1,1)"><path d="M 992 680 L 1093 680 L 1103 690 L 1103 727 L 992 727 L 992 680" fill="#ffff00" stroke="none"/></g><g transform="translate(-414,-14) scale(1,1)"><path d="M 992 680 L 1093 680 L 1103 690 L 1103 727 L 992 727 L 992 680 L 992 680" fill="none" stroke="#000000" stroke-miterlimit="10"/></g><g transform="translate(-414,-14) scale(1,1)"><path d="M 1093 680 L 1093 690 L 1103 690 L 1093 680" fill="none" stroke="#000000" stroke-miterlimit="10"/></g><g transform="translate(-414,-14) scale(1,1)"><g><path fill="none" stroke="none"/><text fill="#000000" font-family="Arial" font-size="13px" font-style="normal" font-weight="normal" stroke="none" text-decoration="none" x="997" y="698">- Plant voucher</text></g></g><g transform="translate(-414,-14) scale(1,1)"><g><path fill="none" stroke="none"/><text fill="#000000" font-family="Arial" font-size="13px" font-style="normal" font-weight="normal" stroke="none" text-decoration="none" x="997" y="713">- Soil voucher</text></g></g><g transform="translate(-414,-14) scale(1,1)"><path d="M 991 691 L 946 680" fill="none" stroke="#000000" stroke-dasharray="3" stroke-miterlimit="10"/></g><g transform="translate(-414,-14) scale(1,1)"><path d="M 1160 704 L 1269 704 L 1279 714 L 1279 759 L 1160 759 L 1160 704" fill="#ffff00" stroke="none"/></g><g transform="translate(-414,-14) scale(1,1)"><path d="M 1160 704 L 1269 704 L 1279 714 L 1279 759 L 1160 759 L 1160 704 L 1160 704" fill="none" stroke="#000000" stroke-miterlimit="10"/></g><g transform="translate(-414,-14) scale(1,1)"><path d="M 1269 704 L 1269 714 L 1279 714 L 1269 704" fill="none" stroke="#000000" stroke-miterlimit="10"/></g><g transform="translate(-414,-14) scale(1,1)"><g><path fill="none" stroke="none"/><text fill="#000000" font-family="Arial" font-size="13px" font-style="normal" font-weight="normal" stroke="none" text-decoration="none" x="1165" y="722">Activity which</text><text fill="#000000" font-family="Arial" font-size="13px" font-style="normal" font-weight="normal" stroke="none" text-decoration="none" x="1165" y="735">results in a sample</text><text fill="#000000" font-family="Arial" font-size="13px" font-style="normal" font-weight="normal" stroke="none" text-decoration="none" x="1165" y="748">(result)</text></g></g><g transform="translate(-414,-14) scale(1,1)"><path d="M 1210 703 L 1192 653" fill="none" stroke="#000000" stroke-dasharray="3" stroke-miterlimit="10"/></g><g transform="translate(-414,-14) scale(1,1)"><path d="M 1424 704 L 1565 704 L 1575 714 L 1575 767 L 1424 767 L 1424 704" fill="#ffff00" stroke="none"/></g><g transform="translate(-414,-14) scale(1,1)"><path d="M 1424 704 L 1565 704 L 1575 714 L 1575 767 L 1424 767 L 1424 704 L 1424 704" fill="none" stroke="#000000" stroke-miterlimit="10"/></g><g transform="translate(-414,-14) scale(1,1)"><path d="M 1565 704 L 1565 714 L 1575 714 L 1565 704" fill="none" stroke="#000000" stroke-miterlimit="10"/></g><g transform="translate(-414,-14) scale(1,1)"><g><path fill="none" stroke="none"/><text fill="#000000" font-family="Arial" font-size="13px" font-style="normal" font-weight="normal" stroke="none" text-decoration="none" x="1429" y="722">The thing that</text><text fill="#000000" font-family="Arial" font-size="13px" font-style="normal" font-weight="normal" stroke="none" text-decoration="none" x="1429" y="735">performed the sampling</text><text fill="#000000" font-family="Arial" font-size="13px" font-style="normal" font-weight="normal" stroke="none" text-decoration="none" x="1429" y="748">activity (e.g. person,</text><text fill="#000000" font-family="Arial" font-size="13px" font-style="normal" font-weight="normal" stroke="none" text-decoration="none" x="1429" y="761">sensor)</text></g></g><g transform="translate(-414,-14) scale(1,1)"><path d="M 1485 703 L 1462 653" fill="none" stroke="#000000" stroke-dasharray="3" stroke-miterlimit="10"/></g><g transform="translate(-414,-14) scale(1,1)"><rect fill="#C0C0C0" height="57" opacity="0.2" stroke="none" width="241.349609375" x="455" y="751"/></g><g transform="translate(-414,-14) scale(1,1)"><rect fill="#ffffff" height="57" stroke="none" width="241.349609375" x="448" y="744"/></g><g transform="translate(-414,-14) scale(1,1)"><path d="M 448 744 L 689.349609375 744 L 689.349609375 801 L 448 801 L 448 744 Z Z" fill="none" stroke="#000000" stroke-miterlimit="10"/></g><g transform="translate(-414,-14) scale(1,1)"><path d="M 448 769 L 689.349609375 769" fill="none" stroke="#000000" stroke-miterlimit="10"/></g><g transform="translate(-414,-14) scale(1,1)"><path d="M 448 779 L 689.349609375 779" fill="none" stroke="#000000" stroke-miterlimit="10"/></g><g transform="translate(-414,-14) scale(1,1)"><g><path fill="none" stroke="none"/><text fill="#000000" font-family="Arial" font-size="13px" font-style="italic" font-weight="bold" stroke="none" text-decoration="none" x="515.433837890625" y="763.5">VegetationFeature</text></g></g><g transform="translate(-414,-14) scale(1,1)"><path d="M 448 688 L 506 688 L 516 698 L 516 726 L 448 726 L 448 688" fill="#ffff00" stroke="none"/></g><g transform="translate(-414,-14) scale(1,1)"><path d="M 448 688 L 506 688 L 516 698 L 516 726 L 448 726 L 448 688 L 448 688" fill="none" stroke="#000000" stroke-miterlimit="10"/></g><g transform="translate(-414,-14) scale(1,1)"><path d="M 506 688 L 506 698 L 516 698 L 506 688" fill="none" stroke="#000000" stroke-miterlimit="10"/></g><g transform="translate(-414,-14) scale(1,1)"><g><path fill="none" stroke="none"/><text fill="#000000" font-family="Arial" font-size="13px" font-style="normal" font-weight="normal" stroke="none" text-decoration="none" x="453" y="706">Upper</text><text fill="#000000" font-family="Arial" font-size="13px" font-style="normal" font-weight="normal" stroke="none" text-decoration="none" x="453" y="719">stratum</text></g></g><g transform="translate(-414,-14) scale(1,1)"><path d="M 1376 24 L 1434 24 L 1444 34 L 1444 62 L 1376 62 L 1376 24" fill="#ffff00" stroke="none"/></g><g transform="translate(-414,-14) scale(1,1)"><path d="M 1376 24 L 1434 24 L 1444 34 L 1444 62 L 1376 62 L 1376 24 L 1376 24" fill="none" stroke="#000000" stroke-miterlimit="10"/></g><g transform="translate(-414,-14) scale(1,1)"><path d="M 1434 24 L 1434 34 L 1444 34 L 1434 24" fill="none" stroke="#000000" stroke-miterlimit="10"/></g><g transform="translate(-414,-14) scale(1,1)"><g><path fill="none" stroke="none"/><text fill="#000000" font-family="Arial" font-size="13px" font-style="normal" font-weight="normal" stroke="none" text-decoration="none" x="1381" y="42">Basal</text><text fill="#000000" font-family="Arial" font-size="13px" font-style="normal" font-weight="normal" stroke="none" text-decoration="none" x="1381" y="55">area</text></g></g><g transform="translate(-414,-14) scale(1,1)"><path d="M 1446 58 L 1471 69" fill="none" stroke="#000000" stroke-dasharray="3" stroke-miterlimit="10"/></g><g transform="translate(-414,-14) scale(1,1)"><path d="M 1600 168 L 1658 168 L 1668 178 L 1668 217 L 1600 217 L 1600 168" fill="#ffff00" stroke="none"/></g><g transform="translate(-414,-14) scale(1,1)"><path d="M 1600 168 L 1658 168 L 1668 178 L 1668 217 L 1600 217 L 1600 168 L 1600 168" fill="none" stroke="#000000" stroke-miterlimit="10"/></g><g transform="translate(-414,-14) scale(1,1)"><path d="M 1658 168 L 1658 178 L 1668 178 L 1658 168" fill="none" stroke="#000000" stroke-miterlimit="10"/></g><g transform="translate(-414,-14) scale(1,1)"><g><path fill="none" stroke="none"/><text fill="#000000" font-family="Arial" font-size="13px" font-style="normal" font-weight="normal" stroke="none" text-decoration="none" x="1605" y="186">Basal</text><text fill="#000000" font-family="Arial" font-size="13px" font-style="normal" font-weight="normal" stroke="none" text-decoration="none" x="1605" y="199">area</text><text fill="#000000" font-family="Arial" font-size="13px" font-style="normal" font-weight="normal" stroke="none" text-decoration="none" x="1605" y="212">method</text></g></g><g transform="translate(-414,-14) scale(1,1)"><path d="M 1641 219 L 1648 247" fill="none" stroke="#000000" stroke-dasharray="3" stroke-miterlimit="10"/></g><g transform="translate(-414,-14) scale(1,1)"><path d="M 1336 456 L 1394 456 L 1404 466 L 1404 494 L 1336 494 L 1336 456" fill="#ffff00" stroke="none"/></g><g transform="translate(-414,-14) scale(1,1)"><path d="M 1336 456 L 1394 456 L 1404 466 L 1404 494 L 1336 494 L 1336 456 L 1336 456" fill="none" stroke="#000000" stroke-miterlimit="10"/></g><g transform="translate(-414,-14) scale(1,1)"><path d="M 1394 456 L 1394 466 L 1404 466 L 1394 456" fill="none" stroke="#000000" stroke-miterlimit="10"/></g><g transform="translate(-414,-14) scale(1,1)"><g><path fill="none" stroke="none"/><text fill="#000000" font-family="Arial" font-size="13px" font-style="normal" font-weight="normal" stroke="none" text-decoration="none" x="1341" y="474">2 metres</text></g></g><g transform="translate(-414,-14) scale(1,1)"><path d="M 1406 456 L 1447 435" fill="none" stroke="#000000" stroke-dasharray="3" stroke-miterlimit="10"/></g><g transform="translate(-414,-14) scale(1,1)"><rect fill="#C0C0C0" height="44" opacity="0.2" stroke="none" width="102.17724609375" x="903" y="759"/></g><g transform="translate(-414,-14) scale(1,1)"><rect fill="#ffffff" height="44" stroke="none" width="102.17724609375" x="896" y="752"/></g><g transform="translate(-414,-14) scale(1,1)"><path d="M 896 752 L 998.17724609375 752 L 998.17724609375 796 L 896 796 L 896 752 Z Z" fill="none" stroke="#000000" stroke-miterlimit="10"/></g><g transform="translate(-414,-14) scale(1,1)"><path d="M 896 777 L 998.17724609375 777" fill="none" stroke="#000000" stroke-miterlimit="10"/></g><g transform="translate(-414,-14) scale(1,1)"><path d="M 896 787 L 998.17724609375 787" fill="none" stroke="#000000" stroke-miterlimit="10"/></g><g transform="translate(-414,-14) scale(1,1)"><g><path fill="none" stroke="none"/><text fill="#000000" font-family="Arial" font-size="13px" font-style="normal" font-weight="bold" stroke="none" text-decoration="none" x="917.825927734375" y="771.5">SoilProfile</text></g></g><g transform="translate(-414,-14) scale(1,1)"><path d="M 929 751 L 898 711" fill="none" stroke="#000000" stroke-miterlimit="10"/></g><g transform="translate(-414,-14) scale(1,1)"><path d="M 917.105265719143 721.9081997506894 L 898 711 L 903.796200932127 732.2227249606268" fill="#FFFFFF" stroke="none"/></g><g transform="translate(-414,-14) scale(1,1)"><path d="M 917.105265719143 721.9081997506894 L 898 711 L 903.796200932127 732.2227249606268 L 917.105265719143 721.9081997506894" fill="none" stroke="#000000" stroke-miterlimit="10"/></g><g transform="translate(-414,-14) scale(1,1)"><rect fill="#C0C0C0" height="44" opacity="0.2" stroke="none" width="81.21728515625" x="679" y="871"/></g><g transform="translate(-414,-14) scale(1,1)"><rect fill="#ffffff" height="44" stroke="none" width="81.21728515625" x="672" y="864"/></g><g transform="translate(-414,-14) scale(1,1)"><path d="M 672 864 L 753.21728515625 864 L 753.21728515625 908 L 672 908 L 672 864 Z Z" fill="none" stroke="#000000" stroke-miterlimit="10"/></g><g transform="translate(-414,-14) scale(1,1)"><path d="M 672 889 L 753.21728515625 889" fill="none" stroke="#000000" stroke-miterlimit="10"/></g><g transform="translate(-414,-14) scale(1,1)"><path d="M 672 899 L 753.21728515625 899" fill="none" stroke="#000000" stroke-miterlimit="10"/></g><g transform="translate(-414,-14) scale(1,1)"><g><path fill="none" stroke="none"/><text fill="#000000" font-family="Arial" font-size="13px" font-style="normal" font-weight="bold" stroke="none" text-decoration="none" x="679.372314453125" y="883.5">SoilHorizon</text></g></g><g transform="translate(-414,-14) scale(1,1)"><path d="M 754 866 L 899 797" fill="none" stroke="#000000" stroke-miterlimit="10"/></g><g transform="translate(-414,-14) scale(1,1)"><g><path fill="none" stroke="none"/><text fill="#000000" font-family="Arial" font-size="13px" font-style="normal" font-weight="normal" stroke="none" text-decoration="none" x="719.035888671875" y="847.5">+hasSample</text></g></g><g transform="translate(-414,-14) scale(1,1)"><g><path fill="none" stroke="none"/><text fill="#000000" font-family="Arial" font-size="13px" font-style="normal" font-weight="normal" stroke="none" text-decoration="none" x="768.5" y="873.5">1..*</text></g></g><g transform="translate(-414,-14) scale(1,1)"><g><path fill="none" stroke="none"/><text fill="#000000" font-family="Arial" font-size="13px" font-style="normal" font-weight="normal" stroke="none" text-decoration="none" x="807.035888671875" y="799.5">+isSampleOf</text></g></g><g transform="translate(-414,-14) scale(1,1)"><g><path fill="none" stroke="none"/><text fill="#000000" font-family="Arial" font-size="13px" font-style="normal" font-weight="normal" stroke="none" text-decoration="none" x="880.5" y="823.5">1</text></g></g><g transform="translate(-414,-14) scale(1,1)"><path d="M 816 888 L 874 888 L 884 898 L 884 937 L 816 937 L 816 888" fill="#ffff00" stroke="none"/></g><g transform="translate(-414,-14) scale(1,1)"><path d="M 816 888 L 874 888 L 884 898 L 884 937 L 816 937 L 816 888 L 816 888" fill="none" stroke="#000000" stroke-miterlimit="10"/></g><g transform="translate(-414,-14) scale(1,1)"><path d="M 874 888 L 874 898 L 884 898 L 874 888" fill="none" stroke="#000000" stroke-miterlimit="10"/></g><g transform="translate(-414,-14) scale(1,1)"><g><path fill="none" stroke="none"/><text fill="#000000" font-family="Arial" font-size="13px" font-style="normal" font-weight="normal" stroke="none" text-decoration="none" x="821" y="906">Soil</text><text fill="#000000" font-family="Arial" font-size="13px" font-style="normal" font-weight="normal" stroke="none" text-decoration="none" x="821" y="919">horizon</text><text fill="#000000" font-family="Arial" font-size="13px" font-style="normal" font-weight="normal" stroke="none" text-decoration="none" x="821" y="932">"O1"</text></g></g><g transform="translate(-414,-14) scale(1,1)"><path d="M 815 906 L 754 894" fill="none" stroke="#000000" stroke-dasharray="3" stroke-miterlimit="10"/></g><g transform="translate(-414,-14) scale(1,1)"><path d="M 1040 784 L 1122.43896484375 784 L 1132.43896484375 794 L 1132.43896484375 872 L 1040 872 L 1040 784" fill="#ffff00" stroke="none"/></g><g transform="translate(-414,-14) scale(1,1)"><path d="M 1040 784 L 1122.43896484375 784 L 1132.43896484375 794 L 1132.43896484375 872 L 1040 872 L 1040 784 L 1040 784" fill="none" stroke="#000000" stroke-miterlimit="10"/></g><g transform="translate(-414,-14) scale(1,1)"><path d="M 1122.43896484375 784 L 1122.43896484375 794 L 1132.43896484375 794 L 1122.43896484375 784" fill="none" stroke="#000000" stroke-miterlimit="10"/></g><g transform="translate(-414,-14) scale(1,1)"><g><path fill="none" stroke="none"/><text fill="#000000" font-family="Arial" font-size="13px" font-style="normal" font-weight="normal" stroke="none" text-decoration="none" x="1045" y="802">Soil</text><text fill="#000000" font-family="Arial" font-size="13px" font-style="normal" font-weight="normal" stroke="none" text-decoration="none" x="1045" y="815">classification</text><text fill="#000000" font-family="Arial" font-size="13px" font-style="normal" font-weight="normal" stroke="none" text-decoration="none" x="1045" y="828">is Isbell 1996</text></g></g><g transform="translate(-414,-14) scale(1,1)"><path d="M 1039 810 L 999 794" fill="none" stroke="#000000" stroke-dasharray="3" stroke-miterlimit="10"/></g><g transform="translate(-414,-14) scale(1,1)"><g><path fill="none" stroke="none"/><text fill="#000000" font-family="Arial" font-size="16px" font-style="normal" font-weight="normal" stroke="none" text-decoration="none" x="453" y="61">Legend</text></g></g></g></svg>